<svg width="1197" height="563" viewBox="0 0 1197 563" fill="none" xmlns="http://www.w3.org/2000/svg">
<rect width="1197" height="562" transform="translate(0 0.933594)" fill="white"/>
<rect x="353.835" y="171.946" width="152.119" height="49.875" rx="4.15625" fill="#F0F0F0"/>
<path d="M413.474 193.789V192.074H420.39V193.789H417.876V201.384H415.974V193.789H413.474ZM421.935 195.266V201.384H420.246V195.266H421.935ZM423.731 197.061C423.615 196.955 423.496 196.875 423.372 196.822C423.256 196.76 423.11 196.729 422.933 196.729C422.72 196.729 422.538 196.786 422.387 196.902C422.237 197.017 422.121 197.181 422.042 197.394C421.971 197.598 421.935 197.846 421.935 198.139L421.456 197.66C421.456 197.172 421.549 196.742 421.736 196.37C421.922 195.988 422.166 195.687 422.467 195.465C422.769 195.235 423.079 195.119 423.398 195.119C423.62 195.119 423.828 195.159 424.023 195.239C424.227 195.319 424.391 195.439 424.515 195.598L423.731 197.061ZM424.821 198.325C424.821 197.686 424.968 197.128 425.26 196.649C425.562 196.17 425.965 195.798 426.47 195.532C426.985 195.266 427.565 195.133 428.213 195.133C428.86 195.133 429.436 195.266 429.942 195.532C430.456 195.798 430.859 196.17 431.152 196.649C431.453 197.128 431.604 197.686 431.604 198.325C431.604 198.954 431.453 199.513 431.152 200.001C430.859 200.479 430.456 200.852 429.942 201.118C429.436 201.384 428.86 201.517 428.213 201.517C427.565 201.517 426.985 201.384 426.47 201.118C425.965 200.852 425.562 200.479 425.26 200.001C424.968 199.513 424.821 198.954 424.821 198.325ZM426.577 198.325C426.577 198.671 426.648 198.976 426.79 199.242C426.94 199.5 427.14 199.704 427.388 199.854C427.636 199.996 427.911 200.067 428.213 200.067C428.514 200.067 428.789 199.996 429.037 199.854C429.286 199.704 429.481 199.5 429.623 199.242C429.773 198.976 429.849 198.671 429.849 198.325C429.849 197.979 429.773 197.673 429.623 197.407C429.481 197.141 429.286 196.937 429.037 196.795C428.789 196.653 428.514 196.582 428.213 196.582C427.911 196.582 427.636 196.653 427.388 196.795C427.14 196.937 426.94 197.141 426.79 197.407C426.648 197.673 426.577 197.979 426.577 198.325ZM431.824 195.266H433.673L435.176 198.95L436.678 195.266H438.527L435.176 202.022L431.824 195.266ZM442.043 201.517C441.378 201.517 440.797 201.384 440.301 201.118C439.804 200.852 439.419 200.484 439.144 200.014C438.878 199.535 438.745 198.972 438.745 198.325C438.745 197.669 438.878 197.106 439.144 196.636C439.419 196.157 439.804 195.789 440.301 195.532C440.797 195.266 441.382 195.133 442.056 195.133C442.73 195.133 443.302 195.257 443.772 195.505C444.251 195.745 444.614 196.099 444.863 196.569C445.111 197.03 445.235 197.589 445.235 198.245C445.235 198.325 445.231 198.409 445.222 198.498C445.222 198.586 445.217 198.657 445.208 198.71H439.729V197.646H443.706L443.24 198.258C443.276 198.205 443.307 198.134 443.333 198.045C443.369 197.948 443.386 197.868 443.386 197.806C443.386 197.505 443.329 197.247 443.213 197.035C443.107 196.822 442.952 196.653 442.748 196.529C442.544 196.405 442.305 196.343 442.03 196.343C441.693 196.343 441.409 196.418 441.179 196.569C440.957 196.711 440.784 196.928 440.66 197.221C440.545 197.505 440.483 197.859 440.474 198.285C440.474 198.693 440.531 199.039 440.647 199.322C440.771 199.606 440.952 199.823 441.192 199.974C441.431 200.125 441.719 200.2 442.056 200.2C442.438 200.2 442.761 200.129 443.027 199.987C443.302 199.837 443.528 199.615 443.706 199.322L445.208 199.788C444.889 200.364 444.464 200.799 443.932 201.091C443.409 201.375 442.779 201.517 442.043 201.517Z" fill="#3A3A3A"/>
<rect x="522.579" y="171.946" width="152.119" height="49.875" rx="4.15625" fill="#F0F0F0"/>
<path d="M576.072 196.662V195.798H577.575C577.85 195.798 578.089 195.753 578.293 195.665C578.497 195.576 578.652 195.448 578.759 195.279C578.874 195.111 578.931 194.911 578.931 194.681C578.931 194.326 578.807 194.055 578.559 193.869C578.32 193.683 577.992 193.59 577.575 193.59H576.551V199.868H577.774C578.094 199.868 578.382 199.823 578.639 199.735C578.896 199.637 579.095 199.486 579.237 199.282C579.388 199.078 579.463 198.817 579.463 198.498C579.463 198.267 579.419 198.072 579.33 197.912C579.251 197.744 579.131 197.607 578.971 197.5C578.821 197.385 578.643 197.305 578.439 197.261C578.235 197.208 578.014 197.181 577.774 197.181H576.072V196.144H577.947C578.399 196.144 578.829 196.192 579.237 196.29C579.654 196.387 580.026 196.543 580.355 196.755C580.683 196.959 580.94 197.225 581.126 197.553C581.321 197.881 581.419 198.276 581.419 198.737C581.419 199.349 581.272 199.85 580.98 200.24C580.696 200.63 580.292 200.918 579.769 201.104C579.246 201.291 578.639 201.384 577.947 201.384H574.649V192.074H577.748C578.368 192.074 578.914 192.162 579.384 192.34C579.854 192.508 580.222 192.765 580.488 193.111C580.754 193.457 580.887 193.896 580.887 194.428C580.887 194.898 580.754 195.301 580.488 195.638C580.222 195.975 579.854 196.232 579.384 196.41C578.914 196.578 578.368 196.662 577.748 196.662H576.072ZM584.103 199.482C584.103 199.659 584.148 199.814 584.236 199.947C584.325 200.072 584.445 200.169 584.595 200.24C584.755 200.302 584.928 200.333 585.114 200.333C585.38 200.333 585.619 200.28 585.832 200.173C586.045 200.058 586.218 199.899 586.351 199.695C586.484 199.482 586.55 199.229 586.55 198.937L586.763 199.735C586.763 200.125 586.652 200.453 586.431 200.719C586.218 200.985 585.939 201.184 585.593 201.317C585.256 201.45 584.901 201.517 584.529 201.517C584.148 201.517 583.793 201.441 583.465 201.291C583.137 201.14 582.871 200.923 582.667 200.639C582.472 200.346 582.374 199.992 582.374 199.575C582.374 198.981 582.583 198.511 582.999 198.165C583.416 197.819 584.006 197.646 584.768 197.646C585.158 197.646 585.5 197.686 585.792 197.766C586.094 197.846 586.346 197.944 586.55 198.059C586.754 198.174 586.901 198.285 586.989 198.391V199.189C586.75 199.012 586.479 198.879 586.178 198.79C585.885 198.702 585.575 198.657 585.247 198.657C584.981 198.657 584.764 198.693 584.595 198.764C584.427 198.826 584.303 198.919 584.223 199.043C584.143 199.158 584.103 199.305 584.103 199.482ZM583.438 196.995L582.8 195.824C583.119 195.656 583.509 195.496 583.97 195.346C584.431 195.186 584.946 195.106 585.513 195.106C586.036 195.106 586.502 195.182 586.91 195.332C587.317 195.483 587.637 195.705 587.867 195.997C588.098 196.281 588.213 196.631 588.213 197.048V201.384H586.55V197.407C586.55 197.239 586.524 197.097 586.471 196.981C586.417 196.857 586.333 196.755 586.218 196.676C586.112 196.596 585.983 196.538 585.832 196.503C585.681 196.467 585.513 196.449 585.327 196.449C585.043 196.449 584.773 196.481 584.516 196.543C584.258 196.605 584.037 196.68 583.851 196.769C583.664 196.857 583.527 196.933 583.438 196.995ZM598.859 197.474V201.384H597.13V197.66C597.13 197.243 597.059 196.933 596.918 196.729C596.776 196.516 596.545 196.41 596.226 196.41C596.013 196.41 595.827 196.458 595.667 196.556C595.508 196.645 595.384 196.786 595.295 196.981C595.206 197.168 595.162 197.394 595.162 197.66V201.384H593.446V197.66C593.446 197.243 593.375 196.933 593.233 196.729C593.092 196.516 592.861 196.41 592.542 196.41C592.329 196.41 592.143 196.458 591.983 196.556C591.824 196.645 591.7 196.786 591.611 196.981C591.522 197.168 591.478 197.394 591.478 197.66V201.384H589.815V195.266H591.478V196.17C591.655 195.833 591.89 195.576 592.183 195.399C592.475 195.221 592.826 195.133 593.233 195.133C593.686 195.133 594.058 195.221 594.351 195.399C594.643 195.576 594.856 195.838 594.989 196.183C595.211 195.838 595.481 195.576 595.8 195.399C596.128 195.221 596.501 195.133 596.918 195.133C597.37 195.133 597.738 195.226 598.021 195.412C598.305 195.589 598.514 195.855 598.647 196.21C598.788 196.556 598.859 196.977 598.859 197.474ZM602.246 191.01V201.384H600.517V191.01H602.246ZM607.273 198.325C607.273 198.999 607.136 199.575 606.861 200.054C606.586 200.533 606.222 200.896 605.77 201.144C605.327 201.393 604.848 201.517 604.334 201.517C603.828 201.517 603.376 201.388 602.977 201.131C602.587 200.874 602.277 200.506 602.046 200.027C601.816 199.548 601.7 198.981 601.7 198.325C601.7 197.66 601.816 197.092 602.046 196.622C602.277 196.144 602.587 195.776 602.977 195.518C603.376 195.261 603.828 195.133 604.334 195.133C604.848 195.133 605.327 195.257 605.77 195.505C606.222 195.753 606.586 196.117 606.861 196.596C607.136 197.066 607.273 197.642 607.273 198.325ZM605.491 198.325C605.491 197.961 605.416 197.646 605.265 197.38C605.114 197.114 604.91 196.911 604.653 196.769C604.405 196.627 604.13 196.556 603.828 196.556C603.571 196.556 603.319 196.627 603.07 196.769C602.831 196.902 602.631 197.101 602.472 197.367C602.321 197.633 602.246 197.952 602.246 198.325C602.246 198.697 602.321 199.016 602.472 199.282C602.631 199.548 602.831 199.752 603.07 199.894C603.319 200.027 603.571 200.094 603.828 200.094C604.13 200.094 604.405 200.023 604.653 199.881C604.91 199.739 605.114 199.535 605.265 199.269C605.416 199.003 605.491 198.688 605.491 198.325ZM608.145 198.325C608.145 197.686 608.291 197.128 608.584 196.649C608.886 196.17 609.289 195.798 609.794 195.532C610.309 195.266 610.889 195.133 611.537 195.133C612.184 195.133 612.76 195.266 613.266 195.532C613.78 195.798 614.183 196.17 614.476 196.649C614.777 197.128 614.928 197.686 614.928 198.325C614.928 198.954 614.777 199.513 614.476 200.001C614.183 200.479 613.78 200.852 613.266 201.118C612.76 201.384 612.184 201.517 611.537 201.517C610.889 201.517 610.309 201.384 609.794 201.118C609.289 200.852 608.886 200.479 608.584 200.001C608.291 199.513 608.145 198.954 608.145 198.325ZM609.901 198.325C609.901 198.671 609.972 198.976 610.114 199.242C610.264 199.5 610.464 199.704 610.712 199.854C610.96 199.996 611.235 200.067 611.537 200.067C611.838 200.067 612.113 199.996 612.361 199.854C612.61 199.704 612.805 199.5 612.946 199.242C613.097 198.976 613.173 198.671 613.173 198.325C613.173 197.979 613.097 197.673 612.946 197.407C612.805 197.141 612.61 196.937 612.361 196.795C612.113 196.653 611.838 196.582 611.537 196.582C611.235 196.582 610.96 196.653 610.712 196.795C610.464 196.937 610.264 197.141 610.114 197.407C609.972 197.673 609.901 197.979 609.901 198.325ZM615.808 198.325C615.808 197.686 615.955 197.128 616.247 196.649C616.549 196.17 616.952 195.798 617.457 195.532C617.972 195.266 618.552 195.133 619.2 195.133C619.847 195.133 620.423 195.266 620.929 195.532C621.443 195.798 621.846 196.17 622.139 196.649C622.441 197.128 622.591 197.686 622.591 198.325C622.591 198.954 622.441 199.513 622.139 200.001C621.846 200.479 621.443 200.852 620.929 201.118C620.423 201.384 619.847 201.517 619.2 201.517C618.552 201.517 617.972 201.384 617.457 201.118C616.952 200.852 616.549 200.479 616.247 200.001C615.955 199.513 615.808 198.954 615.808 198.325ZM617.564 198.325C617.564 198.671 617.635 198.976 617.777 199.242C617.927 199.5 618.127 199.704 618.375 199.854C618.623 199.996 618.898 200.067 619.2 200.067C619.501 200.067 619.776 199.996 620.024 199.854C620.273 199.704 620.468 199.5 620.61 199.242C620.76 198.976 620.836 198.671 620.836 198.325C620.836 197.979 620.76 197.673 620.61 197.407C620.468 197.141 620.273 196.937 620.024 196.795C619.776 196.653 619.501 196.582 619.2 196.582C618.898 196.582 618.623 196.653 618.375 196.795C618.127 196.937 617.927 197.141 617.777 197.407C617.635 197.673 617.564 197.979 617.564 198.325Z" fill="#3A3A3A"/>
<rect x="691.322" y="171.946" width="152.119" height="49.875" rx="4.15625" fill="#F0F0F0"/>
<path d="M750.922 196.729C750.922 197.341 751.059 197.877 751.334 198.338C751.618 198.79 751.986 199.141 752.438 199.389C752.89 199.628 753.383 199.748 753.915 199.748C754.358 199.748 754.752 199.69 755.098 199.575C755.444 199.46 755.754 199.305 756.029 199.109C756.313 198.914 756.557 198.702 756.761 198.471V200.612C756.379 200.914 755.963 201.149 755.511 201.317C755.067 201.486 754.504 201.57 753.821 201.57C753.112 201.57 752.452 201.455 751.84 201.224C751.237 200.994 750.709 200.661 750.257 200.227C749.814 199.792 749.468 199.282 749.22 198.697C748.98 198.103 748.861 197.447 748.861 196.729C748.861 196.011 748.98 195.359 749.22 194.774C749.468 194.18 749.814 193.665 750.257 193.231C750.709 192.796 751.237 192.464 751.84 192.233C752.452 192.003 753.112 191.888 753.821 191.888C754.504 191.888 755.067 191.972 755.511 192.14C755.963 192.309 756.379 192.544 756.761 192.845V194.986C756.557 194.756 756.313 194.543 756.029 194.348C755.754 194.153 755.444 193.998 755.098 193.883C754.752 193.767 754.358 193.71 753.915 193.71C753.383 193.71 752.89 193.834 752.438 194.082C751.986 194.321 751.618 194.667 751.334 195.119C751.059 195.572 750.922 196.108 750.922 196.729ZM760.223 191.01V201.384H758.494V191.01H760.223ZM762.444 197.66C762.444 197.252 762.364 196.942 762.204 196.729C762.054 196.516 761.796 196.41 761.433 196.41C761.193 196.41 760.981 196.463 760.794 196.569C760.608 196.667 760.466 196.809 760.369 196.995C760.271 197.181 760.223 197.403 760.223 197.66H759.877C759.877 197.172 759.957 196.733 760.116 196.343C760.285 195.953 760.533 195.643 760.861 195.412C761.189 195.182 761.592 195.066 762.071 195.066C762.55 195.066 762.945 195.155 763.255 195.332C763.565 195.51 763.796 195.776 763.947 196.13C764.097 196.476 764.173 196.902 764.173 197.407V201.384H762.444V197.66ZM767.095 199.482C767.095 199.659 767.139 199.814 767.228 199.947C767.316 200.072 767.436 200.169 767.587 200.24C767.746 200.302 767.919 200.333 768.105 200.333C768.371 200.333 768.611 200.28 768.824 200.173C769.036 200.058 769.209 199.899 769.342 199.695C769.475 199.482 769.542 199.229 769.542 198.937L769.755 199.735C769.755 200.125 769.644 200.453 769.422 200.719C769.209 200.985 768.93 201.184 768.584 201.317C768.247 201.45 767.893 201.517 767.52 201.517C767.139 201.517 766.784 201.441 766.456 201.291C766.128 201.14 765.862 200.923 765.658 200.639C765.463 200.346 765.366 199.992 765.366 199.575C765.366 198.981 765.574 198.511 765.991 198.165C766.407 197.819 766.997 197.646 767.76 197.646C768.15 197.646 768.491 197.686 768.784 197.766C769.085 197.846 769.338 197.944 769.542 198.059C769.746 198.174 769.892 198.285 769.981 198.391V199.189C769.741 199.012 769.471 198.879 769.169 198.79C768.877 198.702 768.566 198.657 768.238 198.657C767.972 198.657 767.755 198.693 767.587 198.764C767.418 198.826 767.294 198.919 767.214 199.043C767.134 199.158 767.095 199.305 767.095 199.482ZM766.43 196.995L765.791 195.824C766.11 195.656 766.5 195.496 766.962 195.346C767.423 195.186 767.937 195.106 768.504 195.106C769.027 195.106 769.493 195.182 769.901 195.332C770.309 195.483 770.628 195.705 770.858 195.997C771.089 196.281 771.204 196.631 771.204 197.048V201.384H769.542V197.407C769.542 197.239 769.515 197.097 769.462 196.981C769.409 196.857 769.324 196.755 769.209 196.676C769.103 196.596 768.974 196.538 768.824 196.503C768.673 196.467 768.504 196.449 768.318 196.449C768.034 196.449 767.764 196.481 767.507 196.543C767.25 196.605 767.028 196.68 766.842 196.769C766.656 196.857 766.518 196.933 766.43 196.995ZM772.767 191.01H774.429V201.384H772.767V191.01ZM776.677 195.266H778.738L776.105 197.793L779.004 201.384H776.956L774.044 197.793L776.677 195.266ZM781.135 199.482C781.135 199.659 781.179 199.814 781.268 199.947C781.357 200.072 781.476 200.169 781.627 200.24C781.787 200.302 781.959 200.333 782.146 200.333C782.412 200.333 782.651 200.28 782.864 200.173C783.077 200.058 783.25 199.899 783.383 199.695C783.516 199.482 783.582 199.229 783.582 198.937L783.795 199.735C783.795 200.125 783.684 200.453 783.462 200.719C783.25 200.985 782.97 201.184 782.624 201.317C782.288 201.45 781.933 201.517 781.56 201.517C781.179 201.517 780.825 201.441 780.496 201.291C780.168 201.14 779.902 200.923 779.698 200.639C779.503 200.346 779.406 199.992 779.406 199.575C779.406 198.981 779.614 198.511 780.031 198.165C780.448 197.819 781.037 197.646 781.8 197.646C782.19 197.646 782.531 197.686 782.824 197.766C783.125 197.846 783.378 197.944 783.582 198.059C783.786 198.174 783.932 198.285 784.021 198.391V199.189C783.782 199.012 783.511 198.879 783.21 198.79C782.917 198.702 782.607 198.657 782.279 198.657C782.013 198.657 781.795 198.693 781.627 198.764C781.458 198.826 781.334 198.919 781.255 199.043C781.175 199.158 781.135 199.305 781.135 199.482ZM780.47 196.995L779.831 195.824C780.151 195.656 780.541 195.496 781.002 195.346C781.463 195.186 781.977 195.106 782.545 195.106C783.068 195.106 783.533 195.182 783.941 195.332C784.349 195.483 784.668 195.705 784.899 195.997C785.129 196.281 785.245 196.631 785.245 197.048V201.384H783.582V197.407C783.582 197.239 783.555 197.097 783.502 196.981C783.449 196.857 783.365 196.755 783.25 196.676C783.143 196.596 783.015 196.538 782.864 196.503C782.713 196.467 782.545 196.449 782.358 196.449C782.075 196.449 781.804 196.481 781.547 196.543C781.29 196.605 781.068 196.68 780.882 196.769C780.696 196.857 780.559 196.933 780.47 196.995Z" fill="#3A3A3A"/>
<rect x="860.066" y="171.946" width="152.119" height="49.875" rx="4.15625" fill="#F0F0F0"/>
<path d="M914.751 197.048H916.759L919.792 201.384H917.544L914.751 197.048ZM912.636 192.074H914.538V201.384H912.636V192.074ZM913.793 193.696V192.074H915.762C916.498 192.074 917.123 192.198 917.637 192.446C918.151 192.694 918.546 193.04 918.821 193.484C919.096 193.927 919.233 194.446 919.233 195.04C919.233 195.625 919.096 196.144 918.821 196.596C918.546 197.039 918.151 197.385 917.637 197.633C917.123 197.881 916.498 198.006 915.762 198.006H913.793V196.489H915.642C915.979 196.489 916.267 196.436 916.506 196.33C916.755 196.215 916.945 196.055 917.078 195.851C917.211 195.638 917.278 195.385 917.278 195.093C917.278 194.8 917.211 194.552 917.078 194.348C916.945 194.135 916.755 193.976 916.506 193.869C916.267 193.754 915.979 193.696 915.642 193.696H913.793ZM920.644 192.898C920.644 192.615 920.746 192.384 920.95 192.207C921.154 192.021 921.398 191.927 921.682 191.927C921.965 191.927 922.205 192.021 922.4 192.207C922.604 192.384 922.706 192.615 922.706 192.898C922.706 193.173 922.604 193.404 922.4 193.59C922.205 193.776 921.965 193.869 921.682 193.869C921.398 193.869 921.154 193.776 920.95 193.59C920.746 193.404 920.644 193.173 920.644 192.898ZM920.831 195.266H922.506V201.384H920.831V195.266ZM924.641 199.269C924.898 199.508 925.137 199.704 925.359 199.854C925.581 199.996 925.789 200.103 925.984 200.173C926.188 200.244 926.379 200.28 926.556 200.28C926.787 200.28 926.964 200.231 927.088 200.134C927.212 200.027 927.274 199.885 927.274 199.708C927.274 199.548 927.221 199.415 927.115 199.309C927.017 199.194 926.871 199.092 926.676 199.003C926.481 198.914 926.232 198.821 925.931 198.724C925.647 198.617 925.372 198.493 925.106 198.351C924.84 198.201 924.619 198.006 924.441 197.766C924.273 197.518 924.189 197.203 924.189 196.822C924.189 196.458 924.286 196.152 924.481 195.904C924.676 195.647 924.938 195.456 925.266 195.332C925.603 195.199 925.975 195.133 926.383 195.133C926.729 195.133 927.053 195.177 927.354 195.266C927.655 195.354 927.935 195.474 928.192 195.625C928.449 195.767 928.675 195.935 928.87 196.13L928.112 197.194C927.89 196.955 927.624 196.76 927.314 196.609C927.013 196.458 926.716 196.383 926.423 196.383C926.228 196.383 926.073 196.423 925.957 196.503C925.851 196.574 925.798 196.684 925.798 196.835C925.798 196.968 925.851 197.088 925.957 197.194C926.073 197.292 926.232 197.38 926.436 197.46C926.649 197.54 926.888 197.638 927.154 197.753C927.483 197.877 927.784 198.019 928.059 198.178C928.343 198.329 928.569 198.52 928.737 198.75C928.906 198.981 928.99 199.282 928.99 199.655C928.99 200.267 928.79 200.745 928.391 201.091C927.992 201.428 927.443 201.597 926.742 201.597C926.308 201.597 925.909 201.539 925.545 201.424C925.191 201.308 924.867 201.158 924.574 200.971C924.291 200.776 924.033 200.568 923.803 200.346L924.641 199.269ZM933.066 201.517C932.401 201.517 931.82 201.384 931.323 201.118C930.827 200.852 930.441 200.484 930.166 200.014C929.9 199.535 929.767 198.972 929.767 198.325C929.767 197.669 929.9 197.106 930.166 196.636C930.441 196.157 930.827 195.789 931.323 195.532C931.82 195.266 932.405 195.133 933.079 195.133C933.753 195.133 934.325 195.257 934.795 195.505C935.273 195.745 935.637 196.099 935.885 196.569C936.134 197.03 936.258 197.589 936.258 198.245C936.258 198.325 936.253 198.409 936.244 198.498C936.244 198.586 936.24 198.657 936.231 198.71H930.751V197.646H934.728L934.263 198.258C934.298 198.205 934.329 198.134 934.356 198.045C934.391 197.948 934.409 197.868 934.409 197.806C934.409 197.505 934.351 197.247 934.236 197.035C934.13 196.822 933.975 196.653 933.771 196.529C933.567 196.405 933.327 196.343 933.052 196.343C932.715 196.343 932.432 196.418 932.201 196.569C931.98 196.711 931.807 196.928 931.682 197.221C931.567 197.505 931.505 197.859 931.496 198.285C931.496 198.693 931.554 199.039 931.669 199.322C931.793 199.606 931.975 199.823 932.214 199.974C932.454 200.125 932.742 200.2 933.079 200.2C933.46 200.2 933.784 200.129 934.05 199.987C934.325 199.837 934.551 199.615 934.728 199.322L936.231 199.788C935.912 200.364 935.486 200.799 934.954 201.091C934.431 201.375 933.802 201.517 933.066 201.517ZM936.484 195.266H938.333L939.836 198.95L941.339 195.266H943.188L939.836 202.022L936.484 195.266ZM946.703 201.517C946.038 201.517 945.458 201.384 944.961 201.118C944.465 200.852 944.079 200.484 943.804 200.014C943.538 199.535 943.405 198.972 943.405 198.325C943.405 197.669 943.538 197.106 943.804 196.636C944.079 196.157 944.465 195.789 944.961 195.532C945.458 195.266 946.043 195.133 946.717 195.133C947.391 195.133 947.962 195.257 948.432 195.505C948.911 195.745 949.275 196.099 949.523 196.569C949.771 197.03 949.895 197.589 949.895 198.245C949.895 198.325 949.891 198.409 949.882 198.498C949.882 198.586 949.878 198.657 949.869 198.71H944.389V197.646H948.366L947.9 198.258C947.936 198.205 947.967 198.134 947.993 198.045C948.029 197.948 948.047 197.868 948.047 197.806C948.047 197.505 947.989 197.247 947.874 197.035C947.767 196.822 947.612 196.653 947.408 196.529C947.204 196.405 946.965 196.343 946.69 196.343C946.353 196.343 946.069 196.418 945.839 196.569C945.617 196.711 945.444 196.928 945.32 197.221C945.205 197.505 945.143 197.859 945.134 198.285C945.134 198.693 945.192 199.039 945.307 199.322C945.431 199.606 945.613 199.823 945.852 199.974C946.092 200.125 946.38 200.2 946.717 200.2C947.098 200.2 947.422 200.129 947.688 199.987C947.962 199.837 948.189 199.615 948.366 199.322L949.869 199.788C949.55 200.364 949.124 200.799 948.592 201.091C948.069 201.375 947.439 201.517 946.703 201.517ZM951.501 199.269C951.758 199.508 951.997 199.704 952.219 199.854C952.44 199.996 952.649 200.103 952.844 200.173C953.048 200.244 953.238 200.28 953.416 200.28C953.646 200.28 953.824 200.231 953.948 200.134C954.072 200.027 954.134 199.885 954.134 199.708C954.134 199.548 954.081 199.415 953.974 199.309C953.877 199.194 953.731 199.092 953.535 199.003C953.34 198.914 953.092 198.821 952.791 198.724C952.507 198.617 952.232 198.493 951.966 198.351C951.7 198.201 951.478 198.006 951.301 197.766C951.133 197.518 951.048 197.203 951.048 196.822C951.048 196.458 951.146 196.152 951.341 195.904C951.536 195.647 951.798 195.456 952.126 195.332C952.463 195.199 952.835 195.133 953.243 195.133C953.589 195.133 953.912 195.177 954.214 195.266C954.515 195.354 954.795 195.474 955.052 195.625C955.309 195.767 955.535 195.935 955.73 196.13L954.972 197.194C954.75 196.955 954.484 196.76 954.174 196.609C953.872 196.458 953.575 196.383 953.283 196.383C953.088 196.383 952.933 196.423 952.817 196.503C952.711 196.574 952.658 196.684 952.658 196.835C952.658 196.968 952.711 197.088 952.817 197.194C952.933 197.292 953.092 197.38 953.296 197.46C953.509 197.54 953.748 197.638 954.014 197.753C954.342 197.877 954.644 198.019 954.919 198.178C955.202 198.329 955.428 198.52 955.597 198.75C955.765 198.981 955.85 199.282 955.85 199.655C955.85 200.267 955.65 200.745 955.251 201.091C954.852 201.428 954.302 201.597 953.602 201.597C953.167 201.597 952.768 201.539 952.405 201.424C952.05 201.308 951.727 201.158 951.434 200.971C951.15 200.776 950.893 200.568 950.663 200.346L951.501 199.269ZM956.255 195.266H960.032V196.715H956.255V195.266ZM957.305 193.138H958.968V201.384H957.305V193.138Z" fill="#3A3A3A"/>
<rect x="185.091" y="238.446" width="152.119" height="49.875" rx="4.15625" fill="#47C1F0"/>
<path d="M236.595 258.574H238.497V264.705C238.497 265.237 238.634 265.667 238.909 265.995C239.193 266.314 239.609 266.474 240.159 266.474C240.709 266.474 241.121 266.314 241.396 265.995C241.68 265.667 241.822 265.237 241.822 264.705V258.574H243.724V264.825C243.724 265.375 243.635 265.858 243.458 266.274C243.28 266.691 243.028 267.041 242.699 267.325C242.38 267.609 242.003 267.822 241.569 267.964C241.134 268.114 240.665 268.19 240.159 268.19C239.645 268.19 239.171 268.114 238.736 267.964C238.302 267.822 237.925 267.609 237.606 267.325C237.286 267.041 237.038 266.691 236.861 266.274C236.683 265.858 236.595 265.375 236.595 264.825V258.574ZM245.808 265.769C246.066 266.008 246.305 266.204 246.527 266.354C246.748 266.496 246.957 266.603 247.152 266.673C247.356 266.744 247.546 266.78 247.724 266.78C247.954 266.78 248.131 266.731 248.256 266.634C248.38 266.527 248.442 266.385 248.442 266.208C248.442 266.048 248.389 265.915 248.282 265.809C248.185 265.694 248.038 265.592 247.843 265.503C247.648 265.414 247.4 265.321 247.099 265.224C246.815 265.117 246.54 264.993 246.274 264.851C246.008 264.701 245.786 264.506 245.609 264.266C245.44 264.018 245.356 263.703 245.356 263.322C245.356 262.958 245.454 262.652 245.649 262.404C245.844 262.147 246.105 261.956 246.434 261.832C246.77 261.699 247.143 261.633 247.551 261.633C247.897 261.633 248.22 261.677 248.522 261.766C248.823 261.854 249.102 261.974 249.36 262.125C249.617 262.267 249.843 262.435 250.038 262.63L249.28 263.694C249.058 263.455 248.792 263.26 248.482 263.109C248.18 262.958 247.883 262.883 247.591 262.883C247.396 262.883 247.24 262.923 247.125 263.003C247.019 263.074 246.966 263.184 246.966 263.335C246.966 263.468 247.019 263.588 247.125 263.694C247.24 263.792 247.4 263.88 247.604 263.96C247.817 264.04 248.056 264.138 248.322 264.253C248.65 264.377 248.952 264.519 249.227 264.678C249.51 264.829 249.736 265.02 249.905 265.25C250.073 265.481 250.158 265.782 250.158 266.155C250.158 266.767 249.958 267.245 249.559 267.591C249.16 267.928 248.61 268.097 247.91 268.097C247.475 268.097 247.076 268.039 246.713 267.924C246.358 267.808 246.035 267.658 245.742 267.471C245.458 267.276 245.201 267.068 244.971 266.846L245.808 265.769ZM252.571 265.982C252.571 266.159 252.615 266.314 252.704 266.447C252.793 266.572 252.912 266.669 253.063 266.74C253.223 266.802 253.395 266.833 253.582 266.833C253.848 266.833 254.087 266.78 254.3 266.673C254.513 266.558 254.686 266.399 254.819 266.195C254.952 265.982 255.018 265.729 255.018 265.437L255.231 266.235C255.231 266.625 255.12 266.953 254.898 267.219C254.686 267.485 254.406 267.684 254.06 267.817C253.724 267.95 253.369 268.017 252.996 268.017C252.615 268.017 252.261 267.941 251.932 267.791C251.604 267.64 251.338 267.423 251.134 267.139C250.939 266.846 250.842 266.492 250.842 266.075C250.842 265.481 251.05 265.011 251.467 264.665C251.884 264.319 252.473 264.146 253.236 264.146C253.626 264.146 253.967 264.186 254.26 264.266C254.561 264.346 254.814 264.444 255.018 264.559C255.222 264.674 255.368 264.785 255.457 264.891V265.689C255.218 265.512 254.947 265.379 254.646 265.29C254.353 265.202 254.043 265.157 253.715 265.157C253.449 265.157 253.231 265.193 253.063 265.264C252.894 265.326 252.77 265.419 252.691 265.543C252.611 265.658 252.571 265.805 252.571 265.982ZM251.906 263.495L251.267 262.324C251.587 262.156 251.977 261.996 252.438 261.846C252.899 261.686 253.413 261.606 253.981 261.606C254.504 261.606 254.969 261.682 255.377 261.832C255.785 261.983 256.104 262.205 256.335 262.497C256.565 262.781 256.681 263.131 256.681 263.548V267.884H255.018V263.907C255.018 263.739 254.991 263.597 254.938 263.481C254.885 263.357 254.801 263.255 254.686 263.176C254.579 263.096 254.451 263.038 254.3 263.003C254.149 262.967 253.981 262.949 253.794 262.949C253.511 262.949 253.24 262.981 252.983 263.043C252.726 263.105 252.504 263.18 252.318 263.269C252.132 263.357 251.995 263.433 251.906 263.495ZM259.972 257.51V267.884H258.243V257.51H259.972ZM265 264.825C265 265.499 264.862 266.075 264.587 266.554C264.312 267.033 263.949 267.396 263.497 267.644C263.053 267.893 262.574 268.017 262.06 268.017C261.555 268.017 261.103 267.888 260.704 267.631C260.313 267.374 260.003 267.006 259.773 266.527C259.542 266.048 259.427 265.481 259.427 264.825C259.427 264.16 259.542 263.592 259.773 263.122C260.003 262.644 260.313 262.276 260.704 262.018C261.103 261.761 261.555 261.633 262.06 261.633C262.574 261.633 263.053 261.757 263.497 262.005C263.949 262.253 264.312 262.617 264.587 263.096C264.862 263.566 265 264.142 265 264.825ZM263.217 264.825C263.217 264.461 263.142 264.146 262.991 263.88C262.84 263.614 262.637 263.411 262.379 263.269C262.131 263.127 261.856 263.056 261.555 263.056C261.298 263.056 261.045 263.127 260.797 263.269C260.557 263.402 260.358 263.601 260.198 263.867C260.047 264.133 259.972 264.452 259.972 264.825C259.972 265.197 260.047 265.516 260.198 265.782C260.358 266.048 260.557 266.252 260.797 266.394C261.045 266.527 261.298 266.594 261.555 266.594C261.856 266.594 262.131 266.523 262.379 266.381C262.637 266.239 262.84 266.035 262.991 265.769C263.142 265.503 263.217 265.188 263.217 264.825ZM266.204 259.398C266.204 259.115 266.306 258.884 266.51 258.707C266.714 258.521 266.958 258.427 267.241 258.427C267.525 258.427 267.765 258.521 267.96 258.707C268.164 258.884 268.265 259.115 268.265 259.398C268.265 259.673 268.164 259.904 267.96 260.09C267.765 260.276 267.525 260.369 267.241 260.369C266.958 260.369 266.714 260.276 266.51 260.09C266.306 259.904 266.204 259.673 266.204 259.398ZM266.39 261.766H268.066V267.884H266.39V261.766ZM269.895 257.51H271.624V267.884H269.895V257.51ZM273.244 259.398C273.244 259.115 273.346 258.884 273.55 258.707C273.753 258.521 273.997 258.427 274.281 258.427C274.565 258.427 274.804 258.521 274.999 258.707C275.203 258.884 275.305 259.115 275.305 259.398C275.305 259.673 275.203 259.904 274.999 260.09C274.804 260.276 274.565 260.369 274.281 260.369C273.997 260.369 273.753 260.276 273.55 260.09C273.346 259.904 273.244 259.673 273.244 259.398ZM273.43 261.766H275.106V267.884H273.43V261.766ZM276.149 261.766H279.927V263.215H276.149V261.766ZM277.2 259.638H278.863V267.884H277.2V259.638ZM286.669 261.766L282.679 270.81H280.91L282.453 267.272L279.913 261.766H281.828L283.796 266.634L282.945 266.607L284.874 261.766H286.669Z" fill="white"/>
<rect x="353.835" y="238.446" width="152.119" height="49.875" rx="4.15625" fill="#F0F0F0"/>
<rect x="391.241" y="257.98" width="10.8062" height="10.8062" rx="1.6625" fill="#3A3A3A"/>
<rect x="407.866" y="257.98" width="10.8062" height="10.8062" rx="1.6625" fill="#3A3A3A"/>
<rect x="424.491" y="257.98" width="10.8062" height="10.8062" rx="1.6625" fill="#3A3A3A"/>
<rect x="441.116" y="257.98" width="10.8062" height="10.8062" rx="1.6625" fill="#3A3A3A"/>
<rect x="458.157" y="258.396" width="9.975" height="9.975" rx="1.24688" stroke="#3A3A3A" stroke-width="0.83125"/>
<rect x="522.579" y="238.446" width="152.119" height="49.875" rx="4.15625" fill="#F0F0F0"/>
<rect x="559.985" y="257.98" width="10.8062" height="10.8062" rx="1.6625" fill="#3A3A3A"/>
<rect x="576.61" y="257.98" width="10.8062" height="10.8062" rx="1.6625" fill="#3A3A3A"/>
<rect x="593.235" y="257.98" width="10.8062" height="10.8062" rx="1.6625" fill="#3A3A3A"/>
<rect x="609.86" y="257.98" width="10.8062" height="10.8062" rx="1.6625" fill="#3A3A3A"/>
<rect x="626.9" y="258.396" width="9.975" height="9.975" rx="1.24688" stroke="#3A3A3A" stroke-width="0.83125"/>
<rect x="691.322" y="238.446" width="152.119" height="49.875" rx="4.15625" fill="#F0F0F0"/>
<rect x="728.729" y="257.98" width="10.8062" height="10.8062" rx="1.6625" fill="#3A3A3A"/>
<rect x="745.354" y="257.98" width="10.8062" height="10.8062" rx="1.6625" fill="#3A3A3A"/>
<rect x="762.394" y="258.396" width="9.975" height="9.975" rx="1.24688" stroke="#3A3A3A" stroke-width="0.83125"/>
<rect x="779.019" y="258.396" width="9.975" height="9.975" rx="1.24688" stroke="#3A3A3A" stroke-width="0.83125"/>
<rect x="795.644" y="258.396" width="9.975" height="9.975" rx="1.24688" stroke="#3A3A3A" stroke-width="0.83125"/>
<rect x="860.066" y="238.446" width="152.119" height="49.875" rx="4.15625" fill="#F0F0F0"/>
<rect x="897.472" y="257.98" width="10.8062" height="10.8062" rx="1.6625" fill="#3A3A3A"/>
<rect x="914.097" y="257.98" width="10.8062" height="10.8062" rx="1.6625" fill="#3A3A3A"/>
<rect x="930.722" y="257.98" width="10.8062" height="10.8062" rx="1.6625" fill="#3A3A3A"/>
<rect x="947.347" y="257.98" width="10.8062" height="10.8062" rx="1.6625" fill="#3A3A3A"/>
<rect x="964.388" y="258.396" width="9.975" height="9.975" rx="1.24688" stroke="#3A3A3A" stroke-width="0.83125"/>
<rect x="185.091" y="304.946" width="152.119" height="49.875" rx="4.15625" fill="#47C1F0"/>
<path d="M233.473 331.258C233.668 331.604 233.88 331.906 234.111 332.163C234.35 332.42 234.612 332.619 234.896 332.761C235.179 332.903 235.485 332.974 235.813 332.974C236.195 332.974 236.505 332.876 236.744 332.681C236.984 332.486 237.103 332.22 237.103 331.883C237.103 331.591 237.028 331.356 236.877 331.178C236.735 331.001 236.518 330.846 236.226 330.713C235.942 330.571 235.592 330.42 235.175 330.261C234.953 330.181 234.696 330.075 234.404 329.942C234.12 329.8 233.849 329.622 233.592 329.41C233.335 329.188 233.122 328.922 232.954 328.612C232.785 328.292 232.701 327.911 232.701 327.468C232.701 326.936 232.834 326.479 233.1 326.098C233.375 325.708 233.743 325.411 234.204 325.207C234.674 324.994 235.197 324.888 235.773 324.888C236.368 324.888 236.877 324.99 237.303 325.193C237.737 325.389 238.097 325.641 238.38 325.952C238.673 326.253 238.899 326.568 239.059 326.896L237.569 327.72C237.445 327.499 237.294 327.299 237.117 327.122C236.948 326.936 236.753 326.789 236.532 326.683C236.31 326.568 236.057 326.51 235.773 326.51C235.401 326.51 235.122 326.599 234.936 326.776C234.749 326.945 234.656 327.144 234.656 327.375C234.656 327.605 234.732 327.809 234.882 327.986C235.033 328.155 235.264 328.319 235.574 328.479C235.884 328.629 236.274 328.784 236.744 328.944C237.046 329.05 237.334 329.183 237.609 329.343C237.893 329.503 238.145 329.698 238.367 329.928C238.597 330.15 238.775 330.416 238.899 330.726C239.032 331.028 239.098 331.378 239.098 331.777C239.098 332.229 239.01 332.633 238.832 332.987C238.655 333.342 238.411 333.643 238.101 333.892C237.791 334.131 237.44 334.313 237.05 334.437C236.669 334.57 236.266 334.636 235.84 334.636C235.272 334.636 234.74 334.53 234.244 334.317C233.756 334.096 233.331 333.799 232.967 333.426C232.604 333.054 232.32 332.65 232.116 332.216L233.473 331.258ZM240.41 325.898C240.41 325.615 240.512 325.384 240.716 325.207C240.919 325.021 241.163 324.927 241.447 324.927C241.731 324.927 241.97 325.021 242.165 325.207C242.369 325.384 242.471 325.615 242.471 325.898C242.471 326.173 242.369 326.404 242.165 326.59C241.97 326.776 241.731 326.869 241.447 326.869C241.163 326.869 240.919 326.776 240.716 326.59C240.512 326.404 240.41 326.173 240.41 325.898ZM240.596 328.266H242.272V334.384H240.596V328.266ZM253.144 330.474V334.384H251.415V330.66C251.415 330.243 251.344 329.933 251.202 329.729C251.061 329.516 250.83 329.41 250.511 329.41C250.298 329.41 250.112 329.458 249.952 329.556C249.793 329.645 249.668 329.786 249.58 329.981C249.491 330.168 249.447 330.394 249.447 330.66V334.384H247.731V330.66C247.731 330.243 247.66 329.933 247.518 329.729C247.376 329.516 247.146 329.41 246.827 329.41C246.614 329.41 246.428 329.458 246.268 329.556C246.108 329.645 245.984 329.786 245.896 329.981C245.807 330.168 245.763 330.394 245.763 330.66V334.384H244.1V328.266H245.763V329.17C245.94 328.833 246.175 328.576 246.468 328.399C246.76 328.221 247.11 328.133 247.518 328.133C247.97 328.133 248.343 328.221 248.635 328.399C248.928 328.576 249.141 328.838 249.274 329.183C249.496 328.838 249.766 328.576 250.085 328.399C250.413 328.221 250.786 328.133 251.202 328.133C251.655 328.133 252.023 328.226 252.306 328.412C252.59 328.589 252.798 328.855 252.931 329.21C253.073 329.556 253.144 329.977 253.144 330.474ZM256.531 337.31H254.802V328.266H256.531V337.31ZM261.558 331.325C261.558 332.016 261.421 332.606 261.146 333.094C260.871 333.581 260.507 333.949 260.055 334.198C259.612 334.446 259.133 334.57 258.619 334.57C258.096 334.57 257.639 334.437 257.249 334.171C256.868 333.905 256.57 333.528 256.358 333.04C256.154 332.553 256.052 331.981 256.052 331.325C256.052 330.66 256.154 330.088 256.358 329.609C256.57 329.121 256.868 328.745 257.249 328.479C257.639 328.213 258.096 328.08 258.619 328.08C259.133 328.08 259.612 328.204 260.055 328.452C260.507 328.7 260.871 329.068 261.146 329.556C261.421 330.035 261.558 330.624 261.558 331.325ZM259.776 331.325C259.776 330.961 259.7 330.651 259.55 330.394C259.399 330.137 259.195 329.942 258.938 329.809C258.69 329.676 258.415 329.609 258.113 329.609C257.856 329.609 257.603 329.676 257.355 329.809C257.116 329.933 256.916 330.123 256.757 330.38C256.606 330.638 256.531 330.952 256.531 331.325C256.531 331.697 256.606 332.012 256.757 332.269C256.916 332.526 257.116 332.721 257.355 332.854C257.603 332.978 257.856 333.04 258.113 333.04C258.415 333.04 258.69 332.974 258.938 332.841C259.195 332.708 259.399 332.513 259.55 332.256C259.7 331.999 259.776 331.688 259.776 331.325ZM262.842 324.01H264.571V334.384H262.842V324.01ZM266.191 325.898C266.191 325.615 266.293 325.384 266.497 325.207C266.701 325.021 266.945 324.927 267.229 324.927C267.513 324.927 267.752 325.021 267.947 325.207C268.151 325.384 268.253 325.615 268.253 325.898C268.253 326.173 268.151 326.404 267.947 326.59C267.752 326.776 267.513 326.869 267.229 326.869C266.945 326.869 266.701 326.776 266.497 326.59C266.293 326.404 266.191 326.173 266.191 325.898ZM266.378 328.266H268.053V334.384H266.378V328.266ZM271.185 331.325C271.185 331.679 271.265 331.99 271.425 332.256C271.584 332.522 271.797 332.73 272.063 332.881C272.338 333.032 272.639 333.107 272.968 333.107C273.234 333.107 273.491 333.067 273.739 332.987C273.987 332.899 274.209 332.783 274.404 332.641C274.608 332.491 274.763 332.318 274.869 332.123V333.892C274.657 334.087 274.377 334.242 274.032 334.357C273.695 334.464 273.3 334.517 272.848 334.517C272.201 334.517 271.615 334.384 271.092 334.118C270.578 333.852 270.17 333.479 269.869 333.001C269.576 332.513 269.43 331.954 269.43 331.325C269.43 330.686 269.576 330.128 269.869 329.649C270.17 329.17 270.578 328.798 271.092 328.532C271.615 328.266 272.201 328.133 272.848 328.133C273.3 328.133 273.695 328.19 274.032 328.306C274.377 328.412 274.657 328.558 274.869 328.745V330.513C274.763 330.318 274.603 330.15 274.391 330.008C274.187 329.857 273.961 329.742 273.712 329.662C273.464 329.582 273.216 329.543 272.968 329.543C272.639 329.543 272.338 329.622 272.063 329.782C271.797 329.933 271.584 330.141 271.425 330.407C271.265 330.673 271.185 330.979 271.185 331.325ZM276.309 325.898C276.309 325.615 276.411 325.384 276.615 325.207C276.819 325.021 277.063 324.927 277.347 324.927C277.63 324.927 277.87 325.021 278.065 325.207C278.269 325.384 278.371 325.615 278.371 325.898C278.371 326.173 278.269 326.404 278.065 326.59C277.87 326.776 277.63 326.869 277.347 326.869C277.063 326.869 276.819 326.776 276.615 326.59C276.411 326.404 276.309 326.173 276.309 325.898ZM276.495 328.266H278.171V334.384H276.495V328.266ZM279.215 328.266H282.992V329.715H279.215V328.266ZM280.266 326.138H281.928V334.384H280.266V326.138ZM289.735 328.266L285.745 337.31H283.976L285.519 333.772L282.978 328.266H284.893L286.862 333.134L286.011 333.107L287.939 328.266H289.735Z" fill="white"/>
<rect x="353.835" y="304.946" width="152.119" height="49.875" rx="4.15625" fill="#F0F0F0"/>
<rect x="391.241" y="324.48" width="10.8062" height="10.8062" rx="1.6625" fill="#3A3A3A"/>
<rect x="407.866" y="324.48" width="10.8062" height="10.8062" rx="1.6625" fill="#3A3A3A"/>
<rect x="424.491" y="324.48" width="10.8062" height="10.8062" rx="1.6625" fill="#3A3A3A"/>
<rect x="441.116" y="324.48" width="10.8062" height="10.8062" rx="1.6625" fill="#3A3A3A"/>
<rect x="457.741" y="324.48" width="10.8062" height="10.8062" rx="1.6625" fill="#3A3A3A"/>
<rect x="522.579" y="304.946" width="152.119" height="49.875" rx="4.15625" fill="#F0F0F0"/>
<rect x="559.985" y="324.48" width="10.8062" height="10.8062" rx="1.6625" fill="#3A3A3A"/>
<rect x="576.61" y="324.48" width="10.8062" height="10.8062" rx="1.6625" fill="#3A3A3A"/>
<rect x="593.235" y="324.48" width="10.8062" height="10.8062" rx="1.6625" fill="#3A3A3A"/>
<rect x="609.86" y="324.48" width="10.8062" height="10.8062" rx="1.6625" fill="#3A3A3A"/>
<rect x="626.9" y="324.896" width="9.975" height="9.975" rx="1.24688" stroke="#3A3A3A" stroke-width="0.83125"/>
<rect x="691.322" y="304.946" width="152.119" height="49.875" rx="4.15625" fill="#F0F0F0"/>
<rect x="728.729" y="324.48" width="10.8062" height="10.8062" rx="1.6625" fill="#3A3A3A"/>
<rect x="745.354" y="324.48" width="10.8062" height="10.8062" rx="1.6625" fill="#3A3A3A"/>
<rect x="761.979" y="324.48" width="10.8062" height="10.8062" rx="1.6625" fill="#3A3A3A"/>
<rect x="779.019" y="324.896" width="9.975" height="9.975" rx="1.24688" stroke="#3A3A3A" stroke-width="0.83125"/>
<rect x="795.644" y="324.896" width="9.975" height="9.975" rx="1.24688" stroke="#3A3A3A" stroke-width="0.83125"/>
<rect x="860.066" y="304.946" width="152.119" height="49.875" rx="4.15625" fill="#F0F0F0"/>
<rect x="897.472" y="324.48" width="10.8062" height="10.8062" rx="1.6625" fill="#3A3A3A"/>
<rect x="914.097" y="324.48" width="10.8062" height="10.8062" rx="1.6625" fill="#3A3A3A"/>
<rect x="930.722" y="324.48" width="10.8062" height="10.8062" rx="1.6625" fill="#3A3A3A"/>
<rect x="947.347" y="324.48" width="10.8062" height="10.8062" rx="1.6625" fill="#3A3A3A"/>
<rect x="964.388" y="324.896" width="9.975" height="9.975" rx="1.24688" stroke="#3A3A3A" stroke-width="0.83125"/>
<rect x="185.091" y="371.446" width="152.119" height="49.875" rx="4.15625" fill="#47C1F0"/>
<path d="M241.161 391.574H243.103V400.884H241.161V391.574ZM244.327 400.884H242.385V399.155H244.26C244.668 399.155 245.054 399.102 245.417 398.995C245.781 398.88 246.1 398.703 246.375 398.463C246.65 398.224 246.863 397.922 247.013 397.559C247.173 397.186 247.253 396.743 247.253 396.229C247.253 395.715 247.173 395.276 247.013 394.912C246.863 394.54 246.65 394.234 246.375 393.994C246.1 393.755 245.781 393.582 245.417 393.476C245.054 393.36 244.668 393.303 244.26 393.303H242.385V391.574H244.327C245.302 391.574 246.153 391.764 246.88 392.146C247.616 392.527 248.188 393.068 248.596 393.768C249.004 394.46 249.208 395.28 249.208 396.229C249.208 397.178 249.004 398.002 248.596 398.703C248.188 399.394 247.616 399.931 246.88 400.312C246.153 400.693 245.302 400.884 244.327 400.884ZM253.408 401.017C252.743 401.017 252.162 400.884 251.666 400.618C251.169 400.352 250.784 399.984 250.509 399.514C250.243 399.035 250.11 398.472 250.11 397.825C250.11 397.169 250.243 396.606 250.509 396.136C250.784 395.657 251.169 395.289 251.666 395.032C252.162 394.766 252.748 394.633 253.421 394.633C254.095 394.633 254.667 394.757 255.137 395.005C255.616 395.245 255.979 395.599 256.228 396.069C256.476 396.53 256.6 397.089 256.6 397.745C256.6 397.825 256.596 397.909 256.587 397.998C256.587 398.086 256.582 398.157 256.574 398.21H251.094V397.146H255.071L254.605 397.758C254.641 397.705 254.672 397.634 254.698 397.545C254.734 397.448 254.751 397.368 254.751 397.306C254.751 397.005 254.694 396.747 254.579 396.535C254.472 396.322 254.317 396.153 254.113 396.029C253.909 395.905 253.67 395.843 253.395 395.843C253.058 395.843 252.774 395.918 252.544 396.069C252.322 396.211 252.149 396.428 252.025 396.721C251.91 397.005 251.848 397.359 251.839 397.785C251.839 398.193 251.896 398.539 252.012 398.822C252.136 399.106 252.318 399.323 252.557 399.474C252.796 399.625 253.085 399.7 253.421 399.7C253.803 399.7 254.126 399.629 254.392 399.487C254.667 399.337 254.893 399.115 255.071 398.822L256.574 399.288C256.254 399.864 255.829 400.299 255.297 400.591C254.774 400.875 254.144 401.017 253.408 401.017ZM258.205 398.769C258.462 399.008 258.702 399.204 258.924 399.354C259.145 399.496 259.354 399.603 259.549 399.673C259.753 399.744 259.943 399.78 260.121 399.78C260.351 399.78 260.528 399.731 260.653 399.634C260.777 399.527 260.839 399.385 260.839 399.208C260.839 399.048 260.786 398.915 260.679 398.809C260.582 398.694 260.435 398.592 260.24 398.503C260.045 398.414 259.797 398.321 259.495 398.224C259.212 398.117 258.937 397.993 258.671 397.851C258.405 397.701 258.183 397.506 258.006 397.266C257.837 397.018 257.753 396.703 257.753 396.322C257.753 395.958 257.851 395.652 258.046 395.404C258.241 395.147 258.502 394.956 258.83 394.832C259.167 394.699 259.54 394.633 259.948 394.633C260.293 394.633 260.617 394.677 260.919 394.766C261.22 394.854 261.499 394.974 261.756 395.125C262.014 395.267 262.24 395.435 262.435 395.63L261.677 396.694C261.455 396.455 261.189 396.26 260.879 396.109C260.577 395.958 260.28 395.883 259.988 395.883C259.792 395.883 259.637 395.923 259.522 396.003C259.416 396.074 259.362 396.184 259.362 396.335C259.362 396.468 259.416 396.588 259.522 396.694C259.637 396.792 259.797 396.88 260.001 396.96C260.214 397.04 260.453 397.138 260.719 397.253C261.047 397.377 261.349 397.519 261.623 397.678C261.907 397.829 262.133 398.02 262.302 398.25C262.47 398.481 262.554 398.782 262.554 399.155C262.554 399.767 262.355 400.245 261.956 400.591C261.557 400.928 261.007 401.097 260.307 401.097C259.872 401.097 259.473 401.039 259.11 400.924C258.755 400.808 258.431 400.658 258.139 400.471C257.855 400.276 257.598 400.068 257.367 399.846L258.205 398.769ZM263.664 392.398C263.664 392.115 263.766 391.884 263.97 391.707C264.174 391.521 264.418 391.427 264.702 391.427C264.985 391.427 265.225 391.521 265.42 391.707C265.624 391.884 265.726 392.115 265.726 392.398C265.726 392.673 265.624 392.904 265.42 393.09C265.225 393.276 264.985 393.369 264.702 393.369C264.418 393.369 264.174 393.276 263.97 393.09C263.766 392.904 263.664 392.673 263.664 392.398ZM263.851 394.766H265.526V400.884H263.851V394.766ZM267.062 401.309H268.751C268.76 401.575 268.831 401.801 268.964 401.988C269.097 402.183 269.279 402.333 269.509 402.44C269.74 402.546 270.01 402.599 270.321 402.599C270.605 402.599 270.871 402.533 271.119 402.4C271.376 402.267 271.58 402.063 271.731 401.788C271.89 401.513 271.97 401.168 271.97 400.751V394.766H273.632V400.751C273.632 401.504 273.482 402.125 273.18 402.613C272.888 403.1 272.493 403.455 271.997 403.677C271.5 403.907 270.959 404.023 270.374 404.023C269.665 404.023 269.071 403.907 268.592 403.677C268.113 403.455 267.745 403.136 267.488 402.719C267.24 402.311 267.098 401.841 267.062 401.309ZM266.943 397.772C266.943 397.089 267.08 396.517 267.355 396.056C267.63 395.586 267.993 395.231 268.445 394.992C268.898 394.752 269.376 394.633 269.882 394.633C270.396 394.633 270.848 394.757 271.238 395.005C271.637 395.253 271.948 395.613 272.169 396.082C272.4 396.544 272.515 397.107 272.515 397.772C272.515 398.428 272.4 398.991 272.169 399.461C271.948 399.931 271.637 400.29 271.238 400.538C270.848 400.777 270.396 400.897 269.882 400.897C269.376 400.897 268.898 400.777 268.445 400.538C267.993 400.299 267.63 399.948 267.355 399.487C267.08 399.017 266.943 398.445 266.943 397.772ZM268.725 397.772C268.725 398.135 268.8 398.445 268.951 398.703C269.102 398.951 269.306 399.141 269.563 399.274C269.82 399.407 270.095 399.474 270.387 399.474C270.644 399.474 270.893 399.412 271.132 399.288C271.38 399.155 271.58 398.964 271.731 398.716C271.89 398.459 271.97 398.144 271.97 397.772C271.97 397.488 271.926 397.24 271.837 397.027C271.748 396.814 271.624 396.637 271.465 396.495C271.314 396.353 271.145 396.247 270.959 396.176C270.773 396.096 270.582 396.056 270.387 396.056C270.095 396.056 269.82 396.122 269.563 396.255C269.306 396.388 269.102 396.583 268.951 396.841C268.8 397.089 268.725 397.399 268.725 397.772ZM279.254 397.16C279.254 396.752 279.174 396.442 279.014 396.229C278.855 396.016 278.598 395.91 278.243 395.91C278.004 395.91 277.791 395.963 277.605 396.069C277.418 396.167 277.277 396.309 277.179 396.495C277.081 396.681 277.033 396.903 277.033 397.16V400.884H275.304V394.766H277.033V395.697C277.219 395.351 277.463 395.089 277.764 394.912C278.075 394.726 278.447 394.633 278.881 394.633C279.608 394.633 280.149 394.841 280.504 395.258C280.859 395.666 281.036 396.238 281.036 396.974V400.884H279.254V397.16Z" fill="white"/>
<rect x="353.835" y="371.446" width="152.119" height="49.875" rx="4.15625" fill="#F0F0F0"/>
<rect x="391.241" y="390.98" width="10.8062" height="10.8062" rx="1.6625" fill="#3A3A3A"/>
<rect x="407.866" y="390.98" width="10.8062" height="10.8062" rx="1.6625" fill="#3A3A3A"/>
<rect x="424.491" y="390.98" width="10.8062" height="10.8062" rx="1.6625" fill="#3A3A3A"/>
<rect x="441.116" y="390.98" width="10.8062" height="10.8062" rx="1.6625" fill="#3A3A3A"/>
<rect x="457.741" y="390.98" width="10.8062" height="10.8062" rx="1.6625" fill="#3A3A3A"/>
<rect x="522.579" y="371.446" width="152.119" height="49.875" rx="4.15625" fill="#F0F0F0"/>
<rect x="559.985" y="390.98" width="10.8062" height="10.8062" rx="1.6625" fill="#3A3A3A"/>
<rect x="576.61" y="390.98" width="10.8062" height="10.8062" rx="1.6625" fill="#3A3A3A"/>
<rect x="593.235" y="390.98" width="10.8062" height="10.8062" rx="1.6625" fill="#3A3A3A"/>
<rect x="609.86" y="390.98" width="10.8062" height="10.8062" rx="1.6625" fill="#3A3A3A"/>
<rect x="626.9" y="391.396" width="9.975" height="9.975" rx="1.24688" stroke="#3A3A3A" stroke-width="0.83125"/>
<rect x="691.322" y="371.446" width="152.119" height="49.875" rx="4.15625" fill="#F0F0F0"/>
<rect x="728.729" y="390.98" width="10.8062" height="10.8062" rx="1.6625" fill="#3A3A3A"/>
<rect x="745.354" y="390.98" width="10.8062" height="10.8062" rx="1.6625" fill="#3A3A3A"/>
<rect x="762.394" y="391.396" width="9.975" height="9.975" rx="1.24688" stroke="#3A3A3A" stroke-width="0.83125"/>
<rect x="779.019" y="391.396" width="9.975" height="9.975" rx="1.24688" stroke="#3A3A3A" stroke-width="0.83125"/>
<rect x="795.644" y="391.396" width="9.975" height="9.975" rx="1.24688" stroke="#3A3A3A" stroke-width="0.83125"/>
<rect x="860.066" y="371.446" width="152.119" height="49.875" rx="4.15625" fill="#F0F0F0"/>
<rect x="897.472" y="390.98" width="10.8062" height="10.8062" rx="1.6625" fill="#3A3A3A"/>
<rect x="914.097" y="390.98" width="10.8062" height="10.8062" rx="1.6625" fill="#3A3A3A"/>
<rect x="930.722" y="390.98" width="10.8062" height="10.8062" rx="1.6625" fill="#3A3A3A"/>
<rect x="947.763" y="391.396" width="9.975" height="9.975" rx="1.24688" stroke="#3A3A3A" stroke-width="0.83125"/>
<rect x="964.388" y="391.396" width="9.975" height="9.975" rx="1.24688" stroke="#3A3A3A" stroke-width="0.83125"/>
<rect x="185.091" y="437.946" width="152.119" height="49.875" rx="4.15625" fill="#47C1F0"/>
<path d="M221.473 464.258C221.668 464.604 221.88 464.906 222.111 465.163C222.35 465.42 222.612 465.619 222.896 465.761C223.179 465.903 223.485 465.974 223.813 465.974C224.195 465.974 224.505 465.876 224.744 465.681C224.984 465.486 225.103 465.22 225.103 464.883C225.103 464.591 225.028 464.356 224.877 464.178C224.735 464.001 224.518 463.846 224.226 463.713C223.942 463.571 223.592 463.42 223.175 463.261C222.953 463.181 222.696 463.075 222.404 462.942C222.12 462.8 221.849 462.622 221.592 462.41C221.335 462.188 221.122 461.922 220.954 461.612C220.785 461.292 220.701 460.911 220.701 460.468C220.701 459.936 220.834 459.479 221.1 459.098C221.375 458.708 221.743 458.411 222.204 458.207C222.674 457.994 223.197 457.888 223.773 457.888C224.368 457.888 224.877 457.99 225.303 458.193C225.737 458.389 226.097 458.641 226.38 458.952C226.673 459.253 226.899 459.568 227.059 459.896L225.569 460.72C225.445 460.499 225.294 460.299 225.117 460.122C224.948 459.936 224.753 459.789 224.532 459.683C224.31 459.568 224.057 459.51 223.773 459.51C223.401 459.51 223.122 459.599 222.936 459.776C222.749 459.945 222.656 460.144 222.656 460.375C222.656 460.605 222.732 460.809 222.882 460.986C223.033 461.155 223.264 461.319 223.574 461.479C223.884 461.629 224.274 461.784 224.744 461.944C225.046 462.05 225.334 462.183 225.609 462.343C225.893 462.503 226.145 462.698 226.367 462.928C226.597 463.15 226.775 463.416 226.899 463.726C227.032 464.028 227.098 464.378 227.098 464.777C227.098 465.229 227.01 465.633 226.832 465.987C226.655 466.342 226.411 466.643 226.101 466.892C225.791 467.131 225.44 467.313 225.05 467.437C224.669 467.57 224.266 467.636 223.84 467.636C223.272 467.636 222.74 467.53 222.244 467.317C221.756 467.096 221.331 466.799 220.967 466.426C220.604 466.054 220.32 465.65 220.116 465.216L221.473 464.258ZM231.376 467.517C230.711 467.517 230.13 467.384 229.633 467.118C229.137 466.852 228.751 466.484 228.476 466.014C228.21 465.535 228.077 464.972 228.077 464.325C228.077 463.669 228.21 463.106 228.476 462.636C228.751 462.157 229.137 461.789 229.633 461.532C230.13 461.266 230.715 461.133 231.389 461.133C232.063 461.133 232.635 461.257 233.105 461.505C233.583 461.745 233.947 462.099 234.195 462.569C234.443 463.03 234.568 463.589 234.568 464.245C234.568 464.325 234.563 464.409 234.554 464.498C234.554 464.586 234.55 464.657 234.541 464.71H229.061V463.646H233.038L232.573 464.258C232.608 464.205 232.639 464.134 232.666 464.045C232.701 463.948 232.719 463.868 232.719 463.806C232.719 463.505 232.661 463.247 232.546 463.035C232.44 462.822 232.284 462.653 232.08 462.529C231.877 462.405 231.637 462.343 231.362 462.343C231.025 462.343 230.742 462.418 230.511 462.569C230.289 462.711 230.116 462.928 229.992 463.221C229.877 463.505 229.815 463.859 229.806 464.285C229.806 464.693 229.864 465.039 229.979 465.322C230.103 465.606 230.285 465.823 230.524 465.974C230.764 466.125 231.052 466.2 231.389 466.2C231.77 466.2 232.094 466.129 232.36 465.987C232.635 465.837 232.861 465.615 233.038 465.322L234.541 465.788C234.222 466.364 233.796 466.799 233.264 467.091C232.741 467.375 232.111 467.517 231.376 467.517ZM237.09 465.482C237.09 465.659 237.135 465.814 237.223 465.947C237.312 466.072 237.432 466.169 237.582 466.24C237.742 466.302 237.915 466.333 238.101 466.333C238.367 466.333 238.607 466.28 238.819 466.173C239.032 466.058 239.205 465.899 239.338 465.695C239.471 465.482 239.538 465.229 239.538 464.937L239.75 465.735C239.75 466.125 239.64 466.453 239.418 466.719C239.205 466.985 238.926 467.184 238.58 467.317C238.243 467.45 237.888 467.517 237.516 467.517C237.135 467.517 236.78 467.441 236.452 467.291C236.124 467.14 235.858 466.923 235.654 466.639C235.459 466.346 235.361 465.992 235.361 465.575C235.361 464.981 235.57 464.511 235.986 464.165C236.403 463.819 236.993 463.646 237.755 463.646C238.146 463.646 238.487 463.686 238.779 463.766C239.081 463.846 239.334 463.944 239.538 464.059C239.742 464.174 239.888 464.285 239.976 464.391V465.189C239.737 465.012 239.467 464.879 239.165 464.79C238.873 464.702 238.562 464.657 238.234 464.657C237.968 464.657 237.751 464.693 237.582 464.764C237.414 464.826 237.29 464.919 237.21 465.043C237.13 465.158 237.09 465.305 237.09 465.482ZM236.425 462.995L235.787 461.824C236.106 461.656 236.496 461.496 236.957 461.346C237.418 461.186 237.933 461.106 238.5 461.106C239.023 461.106 239.489 461.182 239.897 461.332C240.305 461.483 240.624 461.705 240.854 461.997C241.085 462.281 241.2 462.631 241.2 463.048V467.384H239.538V463.407C239.538 463.239 239.511 463.097 239.458 462.981C239.405 462.857 239.32 462.755 239.205 462.676C239.099 462.596 238.97 462.538 238.819 462.503C238.669 462.467 238.5 462.449 238.314 462.449C238.03 462.449 237.76 462.481 237.503 462.543C237.246 462.605 237.024 462.68 236.838 462.769C236.651 462.857 236.514 462.933 236.425 462.995ZM251.847 463.474V467.384H250.118V463.66C250.118 463.243 250.047 462.933 249.905 462.729C249.763 462.516 249.532 462.41 249.213 462.41C249 462.41 248.814 462.458 248.655 462.556C248.495 462.645 248.371 462.786 248.282 462.981C248.193 463.168 248.149 463.394 248.149 463.66V467.384H246.433V463.66C246.433 463.243 246.362 462.933 246.221 462.729C246.079 462.516 245.848 462.41 245.529 462.41C245.316 462.41 245.13 462.458 244.97 462.556C244.811 462.645 244.687 462.786 244.598 462.981C244.509 463.168 244.465 463.394 244.465 463.66V467.384H242.803V461.266H244.465V462.17C244.642 461.833 244.877 461.576 245.17 461.399C245.463 461.221 245.813 461.133 246.221 461.133C246.673 461.133 247.045 461.221 247.338 461.399C247.63 461.576 247.843 461.838 247.976 462.183C248.198 461.838 248.468 461.576 248.788 461.399C249.116 461.221 249.488 461.133 249.905 461.133C250.357 461.133 250.725 461.226 251.009 461.412C251.292 461.589 251.501 461.855 251.634 462.21C251.776 462.556 251.847 462.977 251.847 463.474ZM253.544 457.01H255.273V467.384H253.544V457.01ZM259.859 467.517C259.194 467.517 258.613 467.384 258.117 467.118C257.62 466.852 257.234 466.484 256.959 466.014C256.693 465.535 256.56 464.972 256.56 464.325C256.56 463.669 256.693 463.106 256.959 462.636C257.234 462.157 257.62 461.789 258.117 461.532C258.613 461.266 259.198 461.133 259.872 461.133C260.546 461.133 261.118 461.257 261.588 461.505C262.067 461.745 262.43 462.099 262.678 462.569C262.927 463.03 263.051 463.589 263.051 464.245C263.051 464.325 263.046 464.409 263.038 464.498C263.038 464.586 263.033 464.657 263.024 464.71H257.545V463.646H261.521L261.056 464.258C261.091 464.205 261.122 464.134 261.149 464.045C261.184 463.948 261.202 463.868 261.202 463.806C261.202 463.505 261.145 463.247 261.029 463.035C260.923 462.822 260.768 462.653 260.564 462.529C260.36 462.405 260.12 462.343 259.846 462.343C259.509 462.343 259.225 462.418 258.994 462.569C258.773 462.711 258.6 462.928 258.476 463.221C258.36 463.505 258.298 463.859 258.289 464.285C258.289 464.693 258.347 465.039 258.462 465.322C258.586 465.606 258.768 465.823 259.008 465.974C259.247 466.125 259.535 466.2 259.872 466.2C260.253 466.2 260.577 466.129 260.843 465.987C261.118 465.837 261.344 465.615 261.521 465.322L263.024 465.788C262.705 466.364 262.279 466.799 261.747 467.091C261.224 467.375 260.595 467.517 259.859 467.517ZM264.656 465.269C264.913 465.508 265.153 465.704 265.374 465.854C265.596 465.996 265.804 466.103 265.999 466.173C266.203 466.244 266.394 466.28 266.571 466.28C266.802 466.28 266.979 466.231 267.103 466.134C267.227 466.027 267.289 465.885 267.289 465.708C267.289 465.548 267.236 465.415 267.13 465.309C267.032 465.194 266.886 465.092 266.691 465.003C266.496 464.914 266.248 464.821 265.946 464.724C265.662 464.617 265.387 464.493 265.121 464.351C264.855 464.201 264.634 464.006 264.456 463.766C264.288 463.518 264.204 463.203 264.204 462.822C264.204 462.458 264.301 462.152 264.496 461.904C264.691 461.647 264.953 461.456 265.281 461.332C265.618 461.199 265.99 461.133 266.398 461.133C266.744 461.133 267.068 461.177 267.369 461.266C267.671 461.354 267.95 461.474 268.207 461.625C268.464 461.767 268.69 461.935 268.885 462.13L268.127 463.194C267.906 462.955 267.64 462.76 267.329 462.609C267.028 462.458 266.731 462.383 266.438 462.383C266.243 462.383 266.088 462.423 265.973 462.503C265.866 462.574 265.813 462.684 265.813 462.835C265.813 462.968 265.866 463.088 265.973 463.194C266.088 463.292 266.248 463.38 266.451 463.46C266.664 463.54 266.904 463.638 267.17 463.753C267.498 463.877 267.799 464.019 268.074 464.178C268.358 464.329 268.584 464.52 268.752 464.75C268.921 464.981 269.005 465.282 269.005 465.655C269.005 466.267 268.806 466.745 268.407 467.091C268.008 467.428 267.458 467.597 266.757 467.597C266.323 467.597 265.924 467.539 265.56 467.424C265.206 467.308 264.882 467.158 264.589 466.971C264.306 466.776 264.049 466.568 263.818 466.346L264.656 465.269ZM270.501 465.269C270.758 465.508 270.997 465.704 271.219 465.854C271.441 465.996 271.649 466.103 271.844 466.173C272.048 466.244 272.239 466.28 272.416 466.28C272.646 466.28 272.824 466.231 272.948 466.134C273.072 466.027 273.134 465.885 273.134 465.708C273.134 465.548 273.081 465.415 272.975 465.309C272.877 465.194 272.731 465.092 272.536 465.003C272.341 464.914 272.092 464.821 271.791 464.724C271.507 464.617 271.232 464.493 270.966 464.351C270.7 464.201 270.479 464.006 270.301 463.766C270.133 463.518 270.049 463.203 270.049 462.822C270.049 462.458 270.146 462.152 270.341 461.904C270.536 461.647 270.798 461.456 271.126 461.332C271.463 461.199 271.835 461.133 272.243 461.133C272.589 461.133 272.912 461.177 273.214 461.266C273.515 461.354 273.795 461.474 274.052 461.625C274.309 461.767 274.535 461.935 274.73 462.13L273.972 463.194C273.75 462.955 273.484 462.76 273.174 462.609C272.873 462.458 272.576 462.383 272.283 462.383C272.088 462.383 271.933 462.423 271.817 462.503C271.711 462.574 271.658 462.684 271.658 462.835C271.658 462.968 271.711 463.088 271.817 463.194C271.933 463.292 272.092 463.38 272.296 463.46C272.509 463.54 272.748 463.638 273.014 463.753C273.342 463.877 273.644 464.019 273.919 464.178C274.203 464.329 274.429 464.52 274.597 464.75C274.766 464.981 274.85 465.282 274.85 465.655C274.85 466.267 274.65 466.745 274.251 467.091C273.852 467.428 273.303 467.597 272.602 467.597C272.168 467.597 271.769 467.539 271.405 467.424C271.05 467.308 270.727 467.158 270.434 466.971C270.15 466.776 269.893 466.568 269.663 466.346L270.501 465.269ZM279.99 463.66C279.99 463.252 279.91 462.942 279.75 462.729C279.591 462.516 279.334 462.41 278.979 462.41C278.739 462.41 278.527 462.463 278.34 462.569C278.154 462.667 278.012 462.809 277.915 462.995C277.817 463.181 277.769 463.403 277.769 463.66V467.384H276.04V461.266H277.769V462.197C277.955 461.851 278.199 461.589 278.5 461.412C278.81 461.226 279.183 461.133 279.617 461.133C280.344 461.133 280.885 461.341 281.24 461.758C281.595 462.166 281.772 462.738 281.772 463.474V467.384H279.99V463.66ZM286.355 467.517C285.69 467.517 285.109 467.384 284.613 467.118C284.116 466.852 283.73 466.484 283.456 466.014C283.19 465.535 283.057 464.972 283.057 464.325C283.057 463.669 283.19 463.106 283.456 462.636C283.73 462.157 284.116 461.789 284.613 461.532C285.109 461.266 285.694 461.133 286.368 461.133C287.042 461.133 287.614 461.257 288.084 461.505C288.563 461.745 288.926 462.099 289.175 462.569C289.423 463.03 289.547 463.589 289.547 464.245C289.547 464.325 289.543 464.409 289.534 464.498C289.534 464.586 289.529 464.657 289.52 464.71H284.041V463.646H288.017L287.552 464.258C287.587 464.205 287.618 464.134 287.645 464.045C287.681 463.948 287.698 463.868 287.698 463.806C287.698 463.505 287.641 463.247 287.525 463.035C287.419 462.822 287.264 462.653 287.06 462.529C286.856 462.405 286.617 462.343 286.342 462.343C286.005 462.343 285.721 462.418 285.49 462.569C285.269 462.711 285.096 462.928 284.972 463.221C284.856 463.505 284.794 463.859 284.786 464.285C284.786 464.693 284.843 465.039 284.958 465.322C285.083 465.606 285.264 465.823 285.504 465.974C285.743 466.125 286.031 466.2 286.368 466.2C286.75 466.2 287.073 466.129 287.339 465.987C287.614 465.837 287.84 465.615 288.017 465.322L289.52 465.788C289.201 466.364 288.776 466.799 288.244 467.091C287.72 467.375 287.091 467.517 286.355 467.517ZM291.152 465.269C291.409 465.508 291.649 465.704 291.87 465.854C292.092 465.996 292.3 466.103 292.495 466.173C292.699 466.244 292.89 466.28 293.067 466.28C293.298 466.28 293.475 466.231 293.599 466.134C293.723 466.027 293.785 465.885 293.785 465.708C293.785 465.548 293.732 465.415 293.626 465.309C293.528 465.194 293.382 465.092 293.187 465.003C292.992 464.914 292.744 464.821 292.442 464.724C292.158 464.617 291.884 464.493 291.618 464.351C291.352 464.201 291.13 464.006 290.953 463.766C290.784 463.518 290.7 463.203 290.7 462.822C290.7 462.458 290.797 462.152 290.992 461.904C291.188 461.647 291.449 461.456 291.777 461.332C292.114 461.199 292.487 461.133 292.894 461.133C293.24 461.133 293.564 461.177 293.865 461.266C294.167 461.354 294.446 461.474 294.703 461.625C294.96 461.767 295.186 461.935 295.381 462.13L294.623 463.194C294.402 462.955 294.136 462.76 293.825 462.609C293.524 462.458 293.227 462.383 292.934 462.383C292.739 462.383 292.584 462.423 292.469 462.503C292.362 462.574 292.309 462.684 292.309 462.835C292.309 462.968 292.362 463.088 292.469 463.194C292.584 463.292 292.744 463.38 292.948 463.46C293.16 463.54 293.4 463.638 293.666 463.753C293.994 463.877 294.295 464.019 294.57 464.178C294.854 464.329 295.08 464.52 295.248 464.75C295.417 464.981 295.501 465.282 295.501 465.655C295.501 466.267 295.302 466.745 294.903 467.091C294.504 467.428 293.954 467.597 293.253 467.597C292.819 467.597 292.42 467.539 292.056 467.424C291.702 467.308 291.378 467.158 291.086 466.971C290.802 466.776 290.545 466.568 290.314 466.346L291.152 465.269ZM296.997 465.269C297.254 465.508 297.493 465.704 297.715 465.854C297.937 465.996 298.145 466.103 298.34 466.173C298.544 466.244 298.735 466.28 298.912 466.28C299.143 466.28 299.32 466.231 299.444 466.134C299.568 466.027 299.63 465.885 299.63 465.708C299.63 465.548 299.577 465.415 299.471 465.309C299.373 465.194 299.227 465.092 299.032 465.003C298.837 464.914 298.588 464.821 298.287 464.724C298.003 464.617 297.728 464.493 297.462 464.351C297.196 464.201 296.975 464.006 296.797 463.766C296.629 463.518 296.545 463.203 296.545 462.822C296.545 462.458 296.642 462.152 296.837 461.904C297.032 461.647 297.294 461.456 297.622 461.332C297.959 461.199 298.331 461.133 298.739 461.133C299.085 461.133 299.409 461.177 299.71 461.266C300.011 461.354 300.291 461.474 300.548 461.625C300.805 461.767 301.031 461.935 301.226 462.13L300.468 463.194C300.246 462.955 299.98 462.76 299.67 462.609C299.369 462.458 299.072 462.383 298.779 462.383C298.584 462.383 298.429 462.423 298.314 462.503C298.207 462.574 298.154 462.684 298.154 462.835C298.154 462.968 298.207 463.088 298.314 463.194C298.429 463.292 298.588 463.38 298.792 463.46C299.005 463.54 299.245 463.638 299.511 463.753C299.839 463.877 300.14 464.019 300.415 464.178C300.699 464.329 300.925 464.52 301.093 464.75C301.262 464.981 301.346 465.282 301.346 465.655C301.346 466.267 301.146 466.745 300.747 467.091C300.348 467.428 299.799 467.597 299.098 467.597C298.664 467.597 298.265 467.539 297.901 467.424C297.547 467.308 297.223 467.158 296.93 466.971C296.647 466.776 296.389 466.568 296.159 466.346L296.997 465.269Z" fill="white"/>
<rect x="353.835" y="437.946" width="152.119" height="49.875" rx="4.15625" fill="#F0F0F0"/>
<rect x="391.241" y="457.48" width="10.8062" height="10.8062" rx="1.6625" fill="#3A3A3A"/>
<rect x="407.866" y="457.48" width="10.8062" height="10.8062" rx="1.6625" fill="#3A3A3A"/>
<rect x="424.491" y="457.48" width="10.8062" height="10.8062" rx="1.6625" fill="#3A3A3A"/>
<rect x="441.116" y="457.48" width="10.8062" height="10.8062" rx="1.6625" fill="#3A3A3A"/>
<rect x="458.157" y="457.896" width="9.975" height="9.975" rx="1.24688" stroke="#3A3A3A" stroke-width="0.83125"/>
<rect x="522.579" y="437.946" width="152.119" height="49.875" rx="4.15625" fill="#F0F0F0"/>
<rect x="559.985" y="457.48" width="10.8062" height="10.8062" rx="1.6625" fill="#3A3A3A"/>
<rect x="576.61" y="457.48" width="10.8062" height="10.8062" rx="1.6625" fill="#3A3A3A"/>
<rect x="593.235" y="457.48" width="10.8062" height="10.8062" rx="1.6625" fill="#3A3A3A"/>
<rect x="609.86" y="457.48" width="10.8062" height="10.8062" rx="1.6625" fill="#3A3A3A"/>
<rect x="626.9" y="457.896" width="9.975" height="9.975" rx="1.24688" stroke="#3A3A3A" stroke-width="0.83125"/>
<rect x="691.322" y="437.946" width="152.119" height="49.875" rx="4.15625" fill="#F0F0F0"/>
<rect x="728.729" y="457.48" width="10.8062" height="10.8062" rx="1.6625" fill="#3A3A3A"/>
<rect x="745.354" y="457.48" width="10.8062" height="10.8062" rx="1.6625" fill="#3A3A3A"/>
<rect x="761.979" y="457.48" width="10.8062" height="10.8062" rx="1.6625" fill="#3A3A3A"/>
<rect x="779.019" y="457.896" width="9.975" height="9.975" rx="1.24688" stroke="#3A3A3A" stroke-width="0.83125"/>
<rect x="795.644" y="457.896" width="9.975" height="9.975" rx="1.24688" stroke="#3A3A3A" stroke-width="0.83125"/>
<rect x="860.066" y="437.946" width="152.119" height="49.875" rx="4.15625" fill="#F0F0F0"/>
<rect x="897.472" y="457.48" width="10.8062" height="10.8062" rx="1.6625" fill="#3A3A3A"/>
<rect x="914.097" y="457.48" width="10.8062" height="10.8062" rx="1.6625" fill="#3A3A3A"/>
<rect x="930.722" y="457.48" width="10.8062" height="10.8062" rx="1.6625" fill="#3A3A3A"/>
<rect x="947.347" y="457.48" width="10.8062" height="10.8062" rx="1.6625" fill="#3A3A3A"/>
<rect x="964.388" y="457.896" width="9.975" height="9.975" rx="1.24688" stroke="#3A3A3A" stroke-width="0.83125"/>
<path d="M75.621 85.2011C75.621 87.366 76.1115 89.2434 77.0925 90.8332C78.0734 92.3892 79.3588 93.5732 80.9487 94.385C82.5723 95.1968 84.3482 95.6027 86.2763 95.6027C87.9676 95.6027 89.456 95.3829 90.7414 94.9431C92.0268 94.5034 93.1769 93.9283 94.1917 93.218C95.2065 92.5076 96.1029 91.7465 96.8809 90.9347V100.169C95.4602 101.286 93.9042 102.165 92.2128 102.808C90.5215 103.45 88.3736 103.772 85.7689 103.772C82.9275 103.772 80.306 103.332 77.9043 102.453C75.5026 101.573 73.4392 100.305 71.7141 98.6471C69.9889 96.9896 68.6528 95.0277 67.7057 92.7613C66.7585 90.495 66.285 87.9749 66.285 85.2011C66.285 82.4274 66.7585 79.9073 67.7057 77.6409C68.6528 75.3746 69.9889 73.4127 71.7141 71.7552C73.4392 70.0977 75.5026 68.8292 77.9043 67.9497C80.306 67.0702 82.9275 66.6305 85.7689 66.6305C88.3736 66.6305 90.5215 66.9518 92.2128 67.5945C93.9042 68.2372 95.4602 69.1167 96.8809 70.233V79.4676C96.1029 78.6557 95.2065 77.8946 94.1917 77.1843C93.1769 76.4401 92.0268 75.8651 90.7414 75.4591C89.456 75.0194 87.9676 74.7995 86.2763 74.7995C84.3482 74.7995 82.5723 75.2055 80.9487 76.0173C79.3588 76.8291 78.0734 78.013 77.0925 79.569C76.1115 81.1251 75.621 83.0024 75.621 85.2011ZM101.761 91.2899C101.761 88.8206 102.336 86.6726 103.486 84.846C104.636 83.0193 106.226 81.5986 108.255 80.5838C110.285 79.569 112.568 79.0617 115.105 79.0617C117.642 79.0617 119.908 79.569 121.904 80.5838C123.934 81.5986 125.524 83.0193 126.674 84.846C127.858 86.6726 128.45 88.8206 128.45 91.2899C128.45 93.7254 127.858 95.8564 126.674 97.6831C125.524 99.5097 123.934 100.93 121.904 101.945C119.908 102.96 117.642 103.467 115.105 103.467C112.568 103.467 110.285 102.96 108.255 101.945C106.226 100.93 104.636 99.5097 103.486 97.6831C102.336 95.8564 101.761 93.7254 101.761 91.2899ZM109.625 91.2899C109.625 92.5076 109.879 93.5562 110.386 94.4357C110.894 95.2814 111.553 95.941 112.365 96.4146C113.177 96.8881 114.09 97.1249 115.105 97.1249C116.086 97.1249 116.982 96.8881 117.794 96.4146C118.64 95.941 119.3 95.2814 119.773 94.4357C120.281 93.5562 120.534 92.5076 120.534 91.2899C120.534 90.0721 120.281 89.0235 119.773 88.144C119.3 87.2645 118.64 86.588 117.794 86.1144C116.982 85.6409 116.086 85.4041 115.105 85.4041C114.09 85.4041 113.177 85.6409 112.365 86.1144C111.553 86.588 110.894 87.2645 110.386 88.144C109.879 89.0235 109.625 90.0721 109.625 91.2899ZM168.678 87.9411V102.96H160.966V88.7529C160.966 87.3322 160.729 86.2667 160.255 85.5563C159.816 84.8121 159.071 84.44 158.023 84.44C157.346 84.44 156.737 84.6092 156.196 84.9474C155.689 85.2519 155.283 85.7254 154.978 86.3681C154.708 87.0108 154.572 87.8058 154.572 88.7529V102.96H146.86V88.7529C146.86 87.3322 146.623 86.2667 146.15 85.5563C145.71 84.8121 144.966 84.44 143.917 84.44C143.241 84.44 142.632 84.6092 142.091 84.9474C141.583 85.2519 141.177 85.7254 140.873 86.3681C140.602 87.0108 140.467 87.8058 140.467 88.7529V102.96H133.059V79.6198H140.467V83.0701C141.11 81.8185 141.989 80.8375 143.105 80.1272C144.255 79.4168 145.625 79.0617 147.215 79.0617C149.042 79.0617 150.496 79.3999 151.579 80.0764C152.661 80.7191 153.439 81.6663 153.913 82.9179C154.759 81.7001 155.807 80.753 157.059 80.0764C158.31 79.3999 159.731 79.0617 161.321 79.0617C163.147 79.0617 164.585 79.4168 165.634 80.1272C166.716 80.8037 167.494 81.8016 167.968 83.1208C168.441 84.44 168.678 86.0468 168.678 87.9411ZM182.292 114.123H174.63V79.6198H182.292V114.123ZM201.37 91.2899C201.37 93.996 200.829 96.2793 199.746 98.1397C198.698 100 197.328 101.404 195.637 102.351C193.979 103.298 192.186 103.772 190.258 103.772C188.229 103.772 186.47 103.264 184.981 102.25C183.527 101.201 182.41 99.7465 181.632 97.886C180.854 95.9917 180.465 93.793 180.465 91.2899C180.465 88.7529 180.854 86.5542 181.632 84.6937C182.41 82.8333 183.527 81.3957 184.981 80.3809C186.47 79.3323 188.229 78.808 190.258 78.808C192.186 78.808 193.979 79.2815 195.637 80.2287C197.328 81.1758 198.698 82.5796 199.746 84.44C200.829 86.2667 201.37 88.5499 201.37 91.2899ZM193.303 91.2899C193.303 90.0721 193.049 89.0404 192.541 88.1948C192.034 87.3491 191.358 86.7064 190.512 86.2667C189.666 85.8269 188.736 85.6071 187.721 85.6071C186.842 85.6071 185.979 85.8269 185.134 86.2667C184.322 86.6726 183.645 87.2984 183.104 88.144C182.563 88.9897 182.292 90.0383 182.292 91.2899C182.292 92.5414 182.563 93.5901 183.104 94.4357C183.645 95.2814 184.322 95.9241 185.134 96.3638C185.979 96.7697 186.842 96.9727 187.721 96.9727C188.736 96.9727 189.666 96.7528 190.512 96.3131C191.358 95.8733 192.034 95.2306 192.541 94.385C193.049 93.5393 193.303 92.5076 193.303 91.2899ZM217.87 103.467C215.164 103.467 212.813 102.977 210.817 101.996C208.855 100.981 207.333 99.5604 206.251 97.7338C205.168 95.9072 204.627 93.7592 204.627 91.2899C204.627 88.7867 205.151 86.6218 206.2 84.7952C207.249 82.9686 208.754 81.5648 210.716 80.5838C212.712 79.6029 215.062 79.1124 217.769 79.1124C220.475 79.1124 222.758 79.586 224.618 80.5331C226.479 81.4464 227.9 82.7826 228.88 84.5415C229.861 86.3005 230.352 88.4315 230.352 90.9347C230.352 91.3068 230.352 91.6789 230.352 92.051C230.352 92.3892 230.318 92.6768 230.25 92.9135H208.94V88.6514H223.35L221.523 90.9854C221.692 90.7487 221.828 90.4611 221.929 90.1229C222.064 89.7508 222.132 89.4463 222.132 89.2096C222.132 88.1948 221.946 87.3153 221.574 86.5711C221.202 85.8269 220.678 85.2519 220.001 84.846C219.325 84.44 218.53 84.2371 217.616 84.2371C216.466 84.2371 215.502 84.4908 214.724 84.9982C213.946 85.5056 213.354 86.2836 212.948 87.3322C212.576 88.347 212.373 89.6324 212.339 91.1884C212.339 92.6091 212.542 93.8268 212.948 94.8416C213.354 95.8564 213.963 96.6344 214.775 97.1757C215.587 97.6831 216.585 97.9367 217.769 97.9367C219.122 97.9367 220.272 97.6831 221.219 97.1757C222.2 96.6683 222.978 95.9072 223.553 94.8924L230.403 96.5668C229.185 98.867 227.527 100.592 225.43 101.742C223.367 102.892 220.847 103.467 217.87 103.467ZM232.343 79.6198H247.971V85.9622H232.343V79.6198ZM236.453 71.5015H243.81V102.96H236.453V71.5015ZM250.78 70.8419C250.78 69.6241 251.219 68.6431 252.099 67.899C252.978 67.121 254.027 66.732 255.245 66.732C256.496 66.732 257.545 67.121 258.391 67.899C259.27 68.6431 259.71 69.6241 259.71 70.8419C259.71 72.0596 259.27 73.0575 258.391 73.8355C257.545 74.6135 256.496 75.0025 255.245 75.0025C254.027 75.0025 252.978 74.6135 252.099 73.8355C251.219 73.0575 250.78 72.0596 250.78 70.8419ZM251.541 79.6198H258.949V102.96H251.541V79.6198ZM262.519 79.6198H278.147V85.9622H262.519V79.6198ZM266.629 71.5015H273.986V102.96H266.629V71.5015ZM280.956 70.8419C280.956 69.6241 281.396 68.6431 282.275 67.899C283.155 67.121 284.203 66.732 285.421 66.732C286.673 66.732 287.721 67.121 288.567 67.899C289.446 68.6431 289.886 69.6241 289.886 70.8419C289.886 72.0596 289.446 73.0575 288.567 73.8355C287.721 74.6135 286.673 75.0025 285.421 75.0025C284.203 75.0025 283.155 74.6135 282.275 73.8355C281.396 73.0575 280.956 72.0596 280.956 70.8419ZM281.717 79.6198H289.125V102.96H281.717V79.6198ZM292.289 79.6198H300.458L305.837 92.5584L311.164 79.6198H319.334L305.837 105.7L292.289 79.6198ZM333.322 103.467C330.616 103.467 328.265 102.977 326.269 101.996C324.307 100.981 322.785 99.5604 321.703 97.7338C320.62 95.9072 320.079 93.7592 320.079 91.2899C320.079 88.7867 320.603 86.6218 321.652 84.7952C322.701 82.9686 324.206 81.5648 326.168 80.5838C328.164 79.6029 330.515 79.1124 333.221 79.1124C335.927 79.1124 338.21 79.586 340.071 80.5331C341.931 81.4464 343.352 82.7826 344.333 84.5415C345.314 86.3005 345.804 88.4315 345.804 90.9347C345.804 91.3068 345.804 91.6789 345.804 92.051C345.804 92.3892 345.77 92.6768 345.703 92.9135H324.392V88.6514H338.802L336.975 90.9854C337.145 90.7487 337.28 90.4611 337.381 90.1229C337.517 89.7508 337.584 89.4463 337.584 89.2096C337.584 88.1948 337.398 87.3153 337.026 86.5711C336.654 85.8269 336.13 85.2519 335.453 84.846C334.777 84.44 333.982 84.2371 333.068 84.2371C331.918 84.2371 330.954 84.4908 330.176 84.9982C329.398 85.5056 328.806 86.2836 328.4 87.3322C328.028 88.347 327.825 89.6324 327.792 91.1884C327.792 92.6091 327.995 93.8268 328.4 94.8416C328.806 95.8564 329.415 96.6344 330.227 97.1757C331.039 97.6831 332.037 97.9367 333.221 97.9367C334.574 97.9367 335.724 97.6831 336.671 97.1757C337.652 96.6683 338.43 95.9072 339.005 94.8924L345.855 96.5668C344.637 98.867 342.98 100.592 340.882 101.742C338.819 102.892 336.299 103.467 333.322 103.467ZM372.09 96.1101L372.698 89.5647H390.305L390.863 96.1101H372.09ZM381.375 80.4824L376.402 91.9495L376.808 93.8269L372.394 102.96H362.703L381.375 65.2098L400.098 102.96H390.356L386.094 94.182L386.398 92.0002L381.375 80.4824ZM418.23 88.7529C418.23 87.366 417.959 86.3005 417.418 85.5563C416.91 84.8121 416.048 84.44 414.83 84.44C414.018 84.44 413.308 84.6092 412.699 84.9474C412.09 85.2857 411.617 85.7762 411.278 86.4189C410.94 87.0616 410.771 87.8396 410.771 88.7529V102.96H403.058V79.6198H410.771V83.1208C411.447 81.8354 412.361 80.8375 413.511 80.1272C414.695 79.4168 416.149 79.0617 417.874 79.0617C420.783 79.0617 422.898 79.8397 424.217 81.3957C425.536 82.9517 426.196 85.1335 426.196 87.9411V102.96H418.23V88.7529ZM438.18 95.6535C438.18 96.2623 438.332 96.7867 438.637 97.2264C438.941 97.6323 439.347 97.9537 439.855 98.1904C440.362 98.3934 440.92 98.4949 441.529 98.4949C442.408 98.4949 443.22 98.3088 443.964 97.9367C444.709 97.5647 445.317 97.0065 445.791 96.2623C446.265 95.5182 446.501 94.6049 446.501 93.5224L447.313 96.5668C447.313 98.0551 446.907 99.3236 446.095 100.372C445.284 101.387 444.235 102.165 442.95 102.706C441.664 103.214 440.277 103.467 438.789 103.467C437.301 103.467 435.914 103.197 434.628 102.656C433.377 102.08 432.362 101.235 431.584 100.119C430.84 99.0023 430.468 97.6492 430.468 96.0594C430.468 93.8269 431.263 92.0679 432.852 90.7825C434.442 89.4633 436.692 88.8036 439.601 88.8036C441.022 88.8036 442.29 88.9389 443.406 89.2096C444.556 89.4802 445.537 89.8184 446.349 90.2243C447.161 90.6303 447.77 91.0531 448.176 91.4928V94.8924C447.364 94.2835 446.417 93.8269 445.334 93.5224C444.286 93.1841 443.17 93.015 441.986 93.015C441.072 93.015 440.345 93.1165 439.804 93.3195C439.263 93.5224 438.857 93.8268 438.586 94.2328C438.315 94.6049 438.18 95.0784 438.18 95.6535ZM434.781 86.7741L432.193 81.6494C433.512 81.0067 435.102 80.3978 436.962 79.8227C438.823 79.2477 440.852 78.9602 443.051 78.9602C445.115 78.9602 446.958 79.2646 448.582 79.8735C450.205 80.4485 451.491 81.2942 452.438 82.4105C453.385 83.5267 453.859 84.8967 453.859 86.5204V102.96H446.501V88.2455C446.501 87.6705 446.4 87.18 446.197 86.7741C446.028 86.3343 445.757 85.9622 445.385 85.6578C445.013 85.3534 444.539 85.1335 443.964 84.9982C443.423 84.8629 442.797 84.7952 442.087 84.7952C441.038 84.7952 440.007 84.9136 438.992 85.1504C438.011 85.3872 437.148 85.6747 436.404 86.013C435.66 86.3174 435.119 86.5711 434.781 86.7741ZM459.595 63.3831H467.308V102.96H459.595V63.3831ZM497.17 79.6198L481.948 114.123H474.235L479.918 101.083L469.821 79.6198H478.244L485.804 98.3427L481.846 98.2919L489.305 79.6198H497.17ZM501 94.4865C502.184 95.4674 503.249 96.2454 504.196 96.8205C505.177 97.3617 506.04 97.7507 506.784 97.9875C507.528 98.1904 508.171 98.2919 508.712 98.2919C509.49 98.2919 510.065 98.1228 510.437 97.7845C510.809 97.4463 510.995 97.0065 510.995 96.4653C510.995 95.9579 510.843 95.5351 510.539 95.1968C510.234 94.8247 509.71 94.4696 508.966 94.1313C508.255 93.793 507.274 93.4378 506.023 93.0658C504.907 92.6598 503.841 92.1863 502.826 91.6451C501.845 91.07 501.033 90.3089 500.391 89.3618C499.748 88.4146 499.427 87.1969 499.427 85.7085C499.427 84.2878 499.799 83.087 500.543 82.106C501.321 81.1251 502.353 80.3809 503.638 79.8735C504.957 79.3661 506.463 79.1124 508.154 79.1124C509.507 79.1124 510.759 79.2646 511.909 79.569C513.093 79.8735 514.192 80.2794 515.207 80.7868C516.255 81.2942 517.236 81.8862 518.15 82.5627L515.41 87.5352C514.429 86.6218 513.312 85.8777 512.061 85.3026C510.809 84.6937 509.659 84.3893 508.611 84.3893C507.9 84.3893 507.359 84.5246 506.987 84.7952C506.649 85.0658 506.479 85.421 506.479 85.8607C506.479 86.3681 506.682 86.791 507.088 87.1292C507.528 87.4675 508.137 87.7888 508.915 88.0933C509.727 88.3639 510.708 88.7191 511.858 89.1588C513.076 89.5986 514.192 90.106 515.207 90.681C516.255 91.256 517.084 91.9833 517.693 92.8628C518.336 93.7423 518.657 94.9093 518.657 96.3638C518.657 98.867 517.879 100.761 516.323 102.047C514.801 103.298 512.653 103.924 509.879 103.924C508.188 103.924 506.615 103.721 505.16 103.315C503.74 102.943 502.42 102.436 501.203 101.793C499.985 101.116 498.852 100.372 497.803 99.5604L501 94.4865ZM522.414 70.8419C522.414 69.6241 522.854 68.6431 523.734 67.899C524.613 67.121 525.662 66.732 526.88 66.732C528.131 66.732 529.18 67.121 530.025 67.899C530.905 68.6431 531.345 69.6241 531.345 70.8419C531.345 72.0596 530.905 73.0575 530.025 73.8355C529.18 74.6135 528.131 75.0025 526.88 75.0025C525.662 75.0025 524.613 74.6135 523.734 73.8355C522.854 73.0575 522.414 72.0596 522.414 70.8419ZM523.176 79.6198H530.584V102.96H523.176V79.6198ZM538.162 94.4865C539.346 95.4674 540.412 96.2454 541.359 96.8205C542.34 97.3617 543.202 97.7507 543.947 97.9875C544.691 98.1904 545.334 98.2919 545.875 98.2919C546.653 98.2919 547.228 98.1228 547.6 97.7845C547.972 97.4463 548.158 97.0065 548.158 96.4653C548.158 95.9579 548.006 95.5351 547.701 95.1968C547.397 94.8247 546.873 94.4696 546.128 94.1313C545.418 93.793 544.437 93.4378 543.186 93.0658C542.069 92.6598 541.004 92.1863 539.989 91.6451C539.008 91.07 538.196 90.3089 537.553 89.3618C536.911 88.4146 536.589 87.1969 536.589 85.7085C536.589 84.2878 536.961 83.087 537.706 82.106C538.484 81.1251 539.515 80.3809 540.801 79.8735C542.12 79.3661 543.625 79.1124 545.317 79.1124C546.67 79.1124 547.921 79.2646 549.071 79.569C550.255 79.8735 551.355 80.2794 552.369 80.7868C553.418 81.2942 554.399 81.8862 555.312 82.5627L552.572 87.5352C551.591 86.6218 550.475 85.8777 549.224 85.3026C547.972 84.6937 546.822 84.3893 545.773 84.3893C545.063 84.3893 544.522 84.5246 544.15 84.7952C543.811 85.0658 543.642 85.421 543.642 85.8607C543.642 86.3681 543.845 86.791 544.251 87.1292C544.691 87.4675 545.3 87.7888 546.078 88.0933C546.89 88.3639 547.87 88.7191 549.021 89.1588C550.238 89.5986 551.355 90.106 552.369 90.681C553.418 91.256 554.247 91.9833 554.856 92.8628C555.498 93.7423 555.82 94.9093 555.82 96.3638C555.82 98.867 555.042 100.761 553.486 102.047C551.963 103.298 549.815 103.924 547.042 103.924C545.35 103.924 543.777 103.721 542.323 103.315C540.902 102.943 539.583 102.436 538.365 101.793C537.148 101.116 536.014 100.372 534.966 99.5604L538.162 94.4865Z" fill="#47C1F0"/>
</svg>
