<svg width="210" height="41" viewBox="0 0 210 41" fill="none" xmlns="http://www.w3.org/2000/svg">
<rect y="0.89209" width="39.1594" height="39.1586" rx="6.59983" fill="#47C1F0"/>
<path d="M11.2031 30.3611C11.3582 30.3298 11.5134 30.2968 11.6633 30.2533C12.8117 29.9342 13.8417 29.2875 14.6268 28.3925C15.6102 27.2761 16.1524 25.8407 16.1522 24.3546V17.2246L15.8349 17.3011C14.5463 17.6632 13.4117 18.4355 12.6039 19.5004C11.796 20.5653 11.3592 21.8644 11.3599 23.1999V29.3681C11.3599 29.5959 11.2362 30.2741 11.0392 30.3837" fill="white"/>
<path d="M28.0556 17.3098C27.6839 16.0209 26.902 14.8875 25.8279 14.0809C24.7539 13.2742 23.4459 12.8379 22.1014 12.8379C20.757 12.8379 19.449 13.2742 18.375 14.0809C17.3009 14.8875 16.519 16.0209 16.1473 17.3098C16.6703 16.1412 18.4014 15.5708 19.9476 15.5708C20.416 15.5705 20.8798 15.6626 21.3123 15.8416C21.7449 16.0207 22.1378 16.2832 22.4684 16.6141C22.799 16.9451 23.0608 17.3379 23.2388 17.77C23.4168 18.2021 23.5075 18.6651 23.5056 19.1323V28.1508C23.5056 28.784 23.7578 29.3913 24.2067 29.8391C24.6556 30.2869 25.2644 30.5384 25.8991 30.5384C26.5339 30.5384 27.1427 30.2869 27.5916 29.8391C28.0405 29.3913 28.2926 28.784 28.2926 28.1508V19.021C28.2956 18.4422 28.2157 17.866 28.0556 17.3098Z" fill="white"/>
<path d="M15.218 12.5287C15.218 12.9493 15.093 13.3605 14.8587 13.7103C14.6244 14.06 14.2914 14.3326 13.9019 14.4936C13.5123 14.6546 13.0836 14.6967 12.6701 14.6146C12.2565 14.5325 11.8766 14.33 11.5784 14.0325C11.2803 13.7351 11.0772 13.3561 10.9949 12.9436C10.9127 12.531 10.9549 12.1034 11.1163 11.7148C11.2776 11.3261 11.5509 10.994 11.9015 10.7603C12.2521 10.5266 12.6643 10.4019 13.086 10.4019C13.366 10.4016 13.6434 10.4565 13.9021 10.5633C14.1609 10.6701 14.396 10.8267 14.5941 11.0243C14.7921 11.2218 14.9491 11.4564 15.0562 11.7145C15.1632 11.9726 15.2182 12.2493 15.218 12.5287Z" fill="white"/>
<g clip-path="url(#clip0_167_5801)">
<path d="M57.2904 34.8469C57.5543 34.7936 57.8183 34.7374 58.0733 34.6634C60.027 34.1206 61.7793 33.0204 63.1149 31.4979C64.7878 29.5987 65.7102 27.1568 65.7098 24.6285V12.499L65.1701 12.6292C62.978 13.2452 61.0478 14.5591 59.6735 16.3707C58.2991 18.1822 57.556 20.3923 57.5573 22.6641V33.1576C57.5573 33.5452 57.3467 34.6989 57.0116 34.8853" fill="#47C1F0"/>
<path d="M64.1199 4.50925C64.1199 5.22485 63.9072 5.92438 63.5087 6.51938C63.1101 7.11438 62.5437 7.57812 61.8809 7.85197C61.2182 8.12582 60.4889 8.19747 59.7854 8.05787C59.0818 7.91826 58.4355 7.57367 57.9283 7.06766C57.421 6.56165 57.0756 5.91696 56.9357 5.21511C56.7957 4.51326 56.8675 3.78578 57.1421 3.12465C57.4166 2.46352 57.8815 1.89845 58.4779 1.50088C59.0744 1.10331 59.7756 0.891114 60.4929 0.891114C60.9694 0.890725 61.4412 0.984046 61.8814 1.16574C62.3216 1.34743 62.7216 1.61392 63.0585 1.94997C63.3954 2.28603 63.6625 2.68504 63.8446 3.12419C64.0268 3.56334 64.1203 4.034 64.1199 4.50925Z" fill="#47C1F0"/>
<path d="M85.9587 12.6452C85.3265 10.4525 83.9963 8.52447 82.1691 7.15213C80.3419 5.77978 78.1168 5.0376 75.8296 5.0376C73.5424 5.0376 71.3173 5.77978 69.4901 7.15213C67.6628 8.52447 66.3327 10.4525 65.7004 12.6452C66.5901 10.6571 69.535 9.68679 72.1655 9.68679C72.9623 9.68639 73.7512 9.84299 74.4871 10.1476C75.223 10.4522 75.8914 10.8988 76.4538 11.4618C77.0162 12.0247 77.4616 12.693 77.7644 13.4281C78.0673 14.1632 78.2215 14.9508 78.2184 15.7456V31.0879C78.2184 32.1652 78.6474 33.1984 79.411 33.9601C80.1746 34.7219 81.2103 35.1498 82.2902 35.1498C83.3702 35.1498 84.4058 34.7219 85.1695 33.9601C85.9331 33.1984 86.3621 32.1652 86.3621 31.0879V15.5563C86.3671 14.5717 86.2312 13.5915 85.9587 12.6452Z" fill="#47C1F0"/>
<path d="M107.1 12.3694C107.984 12.3453 108.865 12.454 109.716 12.6918C110.635 13.0074 111.528 13.3952 112.385 13.8515C113.776 14.6089 115.351 14.4195 116.419 13.2598C116.763 12.9017 117.022 12.4708 117.177 11.999C117.331 11.5272 117.378 11.0268 117.312 10.5348C117.246 10.0428 117.07 9.57198 116.797 9.15719C116.523 8.74239 116.16 8.39432 115.733 8.13883C114.5 7.36153 113.182 6.72729 111.804 6.24841C110.153 5.71072 108.424 5.45273 106.688 5.48514C104.109 5.46325 101.563 6.07273 99.2742 7.26018C97.0005 8.44564 95.0989 10.2341 93.7788 12.4285C92.4146 14.6651 91.7236 17.3158 91.7236 20.3038C91.7236 23.2918 92.4146 25.9248 93.7788 28.1761C95.0968 30.376 96.9986 32.1698 99.2742 33.3593C101.563 34.5467 104.109 35.1562 106.688 35.1343C108.424 35.1667 110.153 34.9087 111.804 34.3711C113.186 33.8905 114.509 33.2532 115.745 32.4718C116.239 32.1773 116.646 31.7591 116.927 31.2587C117.208 30.7584 117.353 30.1933 117.347 29.6199C117.338 28.7746 117.007 27.9643 116.422 27.3537C115.921 26.8157 115.252 26.4639 114.524 26.3563C113.796 26.2487 113.053 26.3918 112.418 26.762C111.55 27.2278 110.647 27.6235 109.716 27.9454C108.866 28.1843 107.984 28.294 107.1 28.2708C104.488 28.2708 102.516 27.5638 101.077 26.1112C99.6389 24.6586 98.9301 22.7623 98.9301 20.3245C98.9301 17.8868 99.63 15.9786 101.077 14.526C102.525 13.0735 104.488 12.3694 107.1 12.3694Z" fill="#47C1F0"/>
<path d="M137.437 6.539C137.11 6.19916 136.717 5.93019 136.282 5.74896C135.847 5.56773 135.378 5.47814 134.907 5.4858H134.652C132.152 5.4858 129.836 6.46208 127.736 8.38801C127.569 7.78887 127.246 7.24409 126.802 6.80821C126.118 6.13685 125.197 5.76177 124.238 5.76454C123.279 5.76731 122.36 6.14771 121.68 6.82301C121.015 7.50278 120.647 8.41757 120.657 9.36724V31.3216C120.65 31.7919 120.739 32.2586 120.918 32.6938C121.097 33.129 121.362 33.5236 121.698 33.854C122.03 34.1866 122.426 34.4493 122.862 34.6267C123.298 34.804 123.766 34.8924 124.236 34.8865C125.187 34.8948 126.102 34.5291 126.784 33.8688C127.13 33.5406 127.404 33.1447 127.59 32.706C127.776 32.2672 127.869 31.7949 127.863 31.3187V16.1509C128.606 15.0947 129.565 14.2082 130.678 13.5504C131.849 12.8606 133.188 12.5054 134.548 12.5239H134.803C135.745 12.5498 136.661 12.2093 137.356 11.5742C137.703 11.2537 137.976 10.8636 138.16 10.4295C138.344 9.99551 138.433 9.52754 138.421 9.05661C138.438 8.12074 138.085 7.2159 137.437 6.539Z" fill="#47C1F0"/>
<path d="M163.961 22.1659C164.613 21.4916 164.971 20.5877 164.958 19.6512C164.976 17.2362 164.441 14.8489 163.392 12.6723C162.356 10.5312 160.74 8.72224 158.727 7.45071C156.683 6.14901 154.243 5.48633 151.479 5.48633C148.528 5.48633 145.989 6.19931 143.937 7.60159C141.923 8.96515 140.344 10.8758 139.385 13.1072C138.413 15.3861 137.924 17.8405 137.946 20.3168C137.946 24.9408 139.251 28.6004 141.826 31.2097C144.4 33.819 147.997 35.1444 152.502 35.1444C154.69 35.1444 156.452 34.9432 157.882 34.532C159.357 34.0934 160.776 33.4858 162.111 32.7215C163.742 31.7866 164.083 30.5796 164.083 29.7335C164.09 29.289 164.002 28.8481 163.825 28.44C163.648 28.032 163.386 27.6661 163.057 27.3667C162.551 26.9112 161.922 26.615 161.248 26.5155C160.574 26.416 159.886 26.5176 159.269 26.8076C157.306 27.8174 155.119 28.3179 152.911 28.2631C150.539 28.2631 148.703 27.6981 147.442 26.5828C146.451 25.6898 145.755 24.5164 145.45 23.219H161.325C161.813 23.2334 162.299 23.1474 162.753 22.9662C163.206 22.785 163.618 22.5125 163.961 22.1659ZM145.378 16.8999C145.528 16.107 145.83 15.3506 146.268 14.6722C146.83 13.7915 147.629 13.0855 148.572 12.6338C149.475 12.1931 150.466 11.9639 151.471 11.9639C152.476 11.9639 153.468 12.1931 154.37 12.6338C155.323 13.0902 156.132 13.7996 156.707 14.684C157.154 15.3561 157.464 16.1089 157.621 16.8999H145.378Z" fill="#47C1F0"/>
<path d="M184.056 18.547C182.384 17.9231 180.675 17.3995 178.94 16.979C177.033 16.5619 175.634 16.1329 174.771 15.701C174.543 15.6197 174.348 15.4664 174.216 15.2646C174.084 15.0627 174.021 14.8233 174.038 14.5827C174.038 14.1656 174.148 13.6183 175.017 13.0651C175.886 12.5118 177.093 12.2663 178.668 12.2663C180.548 12.2829 182.416 12.5821 184.207 13.1538C184.525 13.2419 184.853 13.2896 185.183 13.2958C185.626 13.3007 186.066 13.2142 186.474 13.0416C186.883 12.869 187.251 12.6141 187.556 12.2929C188.096 11.7432 188.427 11.0214 188.488 10.2536C188.55 9.48579 188.34 8.72073 187.894 8.09196C187.485 7.49098 186.879 7.05144 186.179 6.84943C183.655 5.9373 180.988 5.4776 178.303 5.49152C174.785 5.49152 172.013 6.35537 170.055 8.05646C168.048 9.80192 167.03 12.0858 167.03 14.8608C167.03 16.8814 167.623 18.5529 168.765 19.825C169.827 21.0043 171.153 21.9167 172.635 22.4876C174.314 23.1122 176.033 23.6232 177.781 24.0171C179.168 24.3377 180.526 24.7731 181.841 25.3188C182.434 25.591 182.434 25.8247 182.434 25.9667C182.434 26.6116 182.434 28.3334 178.006 28.3334C176.867 28.3478 175.731 28.2226 174.622 27.9607C173.569 27.6958 172.539 27.3435 171.544 26.9075C170.915 26.6074 170.207 26.5145 169.522 26.6421C168.837 26.7697 168.211 27.1113 167.733 27.6175C167.155 28.2399 166.837 29.0588 166.844 29.9073C166.832 30.4422 166.955 30.9714 167.201 31.4468C167.447 31.9222 167.808 32.3286 168.252 32.629L168.371 32.703C171.424 34.3541 174.848 35.2013 178.321 35.1644C181.755 35.1644 184.489 34.3419 186.443 32.7207C187.411 31.9569 188.189 30.9803 188.715 29.8672C189.242 28.7541 189.504 27.5346 189.48 26.3039C189.48 24.2331 188.92 22.5231 187.817 21.2332C186.805 20.0411 185.513 19.1181 184.056 18.547Z" fill="#47C1F0"/>
<path d="M209.044 28.9428C208.468 28.3772 207.694 28.0587 206.885 28.0553C206.593 28.0514 206.3 28.0792 206.013 28.1382L205.494 28.2624C204.19 28.6529 202.825 28.579 202.048 28.1441C201.968 28.0997 201.752 27.7388 201.752 26.7122V12.5118H206.28C206.717 12.5193 207.15 12.4371 207.553 12.2701C207.956 12.1032 208.32 11.8551 208.623 11.5415C209.216 10.9298 209.545 10.1111 209.54 9.26054C209.548 8.83098 209.469 8.40421 209.308 8.00575C209.147 7.6073 208.907 7.24535 208.602 6.94155C208.298 6.63775 207.935 6.39834 207.535 6.23764C207.136 6.07694 206.708 5.99826 206.277 6.00629H201.74V3.16917C201.744 2.58602 201.523 2.02367 201.123 1.59826C200.269 0.669316 198.834 0.595356 197.733 1.7018L190.803 8.46769C190.527 8.68413 190.304 8.9599 190.15 9.27442C189.996 9.58894 189.915 9.9341 189.913 10.2842C189.912 10.5785 189.97 10.87 190.082 11.1421C190.195 11.4142 190.36 11.6614 190.569 11.8695C190.777 12.0776 191.025 12.2425 191.298 12.3548C191.571 12.4671 191.863 12.5244 192.158 12.5237H194.53V27.1205C194.53 30.78 196.052 35.1437 203.291 35.1437C204.965 35.1477 206.619 34.7841 208.137 34.0786C208.694 33.8212 209.165 33.4098 209.494 32.8933C209.824 32.3768 209.998 31.7769 209.996 31.1646C210 30.7488 209.917 30.3367 209.753 29.9543C209.59 29.5719 209.348 29.2275 209.044 28.9428Z" fill="#47C1F0"/>
</g>
<defs>
<clipPath id="clip0_167_5801">
<rect width="153.134" height="34.2584" fill="white" transform="translate(56.8661 0.89209)"/>
</clipPath>
</defs>
</svg>
