<svg width="364" height="127" viewBox="0 0 364 127" fill="none" xmlns="http://www.w3.org/2000/svg">
<path d="M24 24.0986C28.42 24.0986 32 20.5186 32 16.0986C32 11.6786 28.42 8.09863 24 8.09863C19.58 8.09863 16 11.6786 16 16.0986C16 20.5186 19.58 24.0986 24 24.0986ZM24 28.0986C18.66 28.0986 8 30.7786 8 36.0986V40.0986H40V36.0986C40 30.7786 29.34 28.0986 24 28.0986Z" fill="white"/>
<path d="M103 24.0986C107.42 24.0986 111 20.5186 111 16.0986C111 11.6786 107.42 8.09863 103 8.09863C98.58 8.09863 95 11.6786 95 16.0986C95 20.5186 98.58 24.0986 103 24.0986ZM103 28.0986C97.66 28.0986 87 30.7786 87 36.0986V40.0986H119V36.0986C119 30.7786 108.34 28.0986 103 28.0986Z" fill="white"/>
<path d="M182 24.0986C186.42 24.0986 190 20.5186 190 16.0986C190 11.6786 186.42 8.09863 182 8.09863C177.58 8.09863 174 11.6786 174 16.0986C174 20.5186 177.58 24.0986 182 24.0986ZM182 28.0986C176.66 28.0986 166 30.7786 166 36.0986V40.0986H198V36.0986C198 30.7786 187.34 28.0986 182 28.0986Z" fill="white"/>
<path d="M261 24.0986C265.42 24.0986 269 20.5186 269 16.0986C269 11.6786 265.42 8.09863 261 8.09863C256.58 8.09863 253 11.6786 253 16.0986C253 20.5186 256.58 24.0986 261 24.0986ZM261 28.0986C255.66 28.0986 245 30.7786 245 36.0986V40.0986H277V36.0986C277 30.7786 266.34 28.0986 261 28.0986Z" fill="white"/>
<path d="M340 24.0986C344.42 24.0986 348 20.5186 348 16.0986C348 11.6786 344.42 8.09863 340 8.09863C335.58 8.09863 332 11.6786 332 16.0986C332 20.5186 335.58 24.0986 340 24.0986ZM340 28.0986C334.66 28.0986 324 30.7786 324 36.0986V40.0986H356V36.0986C356 30.7786 345.34 28.0986 340 28.0986Z" fill="white"/>
<path d="M24 102.934C28.42 102.934 32 99.3536 32 94.9336C32 90.5136 28.42 86.9336 24 86.9336C19.58 86.9336 16 90.5136 16 94.9336C16 99.3536 19.58 102.934 24 102.934ZM24 106.934C18.66 106.934 8 109.614 8 114.934V118.934H40V114.934C40 109.614 29.34 106.934 24 106.934Z" fill="white"/>
<path d="M103 102.934C107.42 102.934 111 99.3536 111 94.9336C111 90.5136 107.42 86.9336 103 86.9336C98.58 86.9336 95 90.5136 95 94.9336C95 99.3536 98.58 102.934 103 102.934ZM103 106.934C97.66 106.934 87 109.614 87 114.934V118.934H119V114.934C119 109.614 108.34 106.934 103 106.934Z" fill="white"/>
<g opacity="0.3">
<path d="M182 102.934C186.42 102.934 190 99.3536 190 94.9336C190 90.5136 186.42 86.9336 182 86.9336C177.58 86.9336 174 90.5136 174 94.9336C174 99.3536 177.58 102.934 182 102.934ZM182 106.934C176.66 106.934 166 109.614 166 114.934V118.934H198V114.934C198 109.614 187.34 106.934 182 106.934Z" fill="white"/>
</g>
<g opacity="0.3">
<path d="M261 102.934C265.42 102.934 269 99.3536 269 94.9336C269 90.5136 265.42 86.9336 261 86.9336C256.58 86.9336 253 90.5136 253 94.9336C253 99.3536 256.58 102.934 261 102.934ZM261 106.934C255.66 106.934 245 109.614 245 114.934V118.934H277V114.934C277 109.614 266.34 106.934 261 106.934Z" fill="white"/>
</g>
<g opacity="0.3">
<path d="M340 102.934C344.42 102.934 348 99.3536 348 94.9336C348 90.5136 344.42 86.9336 340 86.9336C335.58 86.9336 332 90.5136 332 94.9336C332 99.3536 335.58 102.934 340 102.934ZM340 106.934C334.66 106.934 324 109.614 324 114.934V118.934H356V114.934C356 109.614 345.34 106.934 340 106.934Z" fill="white"/>
</g>
</svg>
