<svg width="364" height="128" viewBox="0 0 364 128" fill="none" xmlns="http://www.w3.org/2000/svg">
<path d="M24 24.4287C28.42 24.4287 32 20.8487 32 16.4287C32 12.0087 28.42 8.42871 24 8.42871C19.58 8.42871 16 12.0087 16 16.4287C16 20.8487 19.58 24.4287 24 24.4287ZM24 28.4287C18.66 28.4287 8 31.1087 8 36.4287V40.4287H40V36.4287C40 31.1087 29.34 28.4287 24 28.4287Z" fill="white"/>
<path d="M103 24.4287C107.42 24.4287 111 20.8487 111 16.4287C111 12.0087 107.42 8.42871 103 8.42871C98.58 8.42871 95 12.0087 95 16.4287C95 20.8487 98.58 24.4287 103 24.4287ZM103 28.4287C97.66 28.4287 87 31.1087 87 36.4287V40.4287H119V36.4287C119 31.1087 108.34 28.4287 103 28.4287Z" fill="white"/>
<path d="M182 24.4287C186.42 24.4287 190 20.8487 190 16.4287C190 12.0087 186.42 8.42871 182 8.42871C177.58 8.42871 174 12.0087 174 16.4287C174 20.8487 177.58 24.4287 182 24.4287ZM182 28.4287C176.66 28.4287 166 31.1087 166 36.4287V40.4287H198V36.4287C198 31.1087 187.34 28.4287 182 28.4287Z" fill="white"/>
<path d="M261 24.4287C265.42 24.4287 269 20.8487 269 16.4287C269 12.0087 265.42 8.42871 261 8.42871C256.58 8.42871 253 12.0087 253 16.4287C253 20.8487 256.58 24.4287 261 24.4287ZM261 28.4287C255.66 28.4287 245 31.1087 245 36.4287V40.4287H277V36.4287C277 31.1087 266.34 28.4287 261 28.4287Z" fill="white"/>
<path d="M340 24.4287C344.42 24.4287 348 20.8487 348 16.4287C348 12.0087 344.42 8.42871 340 8.42871C335.58 8.42871 332 12.0087 332 16.4287C332 20.8487 335.58 24.4287 340 24.4287ZM340 28.4287C334.66 28.4287 324 31.1087 324 36.4287V40.4287H356V36.4287C356 31.1087 345.34 28.4287 340 28.4287Z" fill="white"/>
<path d="M24 103.264C28.42 103.264 32 99.6837 32 95.2637C32 90.8437 28.42 87.2637 24 87.2637C19.58 87.2637 16 90.8437 16 95.2637C16 99.6837 19.58 103.264 24 103.264ZM24 107.264C18.66 107.264 8 109.944 8 115.264V119.264H40V115.264C40 109.944 29.34 107.264 24 107.264Z" fill="white"/>
<path d="M103 103.264C107.42 103.264 111 99.6837 111 95.2637C111 90.8437 107.42 87.2637 103 87.2637C98.58 87.2637 95 90.8437 95 95.2637C95 99.6837 98.58 103.264 103 103.264ZM103 107.264C97.66 107.264 87 109.944 87 115.264V119.264H119V115.264C119 109.944 108.34 107.264 103 107.264Z" fill="white"/>
<path d="M182 103.264C186.42 103.264 190 99.6837 190 95.2637C190 90.8437 186.42 87.2637 182 87.2637C177.58 87.2637 174 90.8437 174 95.2637C174 99.6837 177.58 103.264 182 103.264ZM182 107.264C176.66 107.264 166 109.944 166 115.264V119.264H198V115.264C198 109.944 187.34 107.264 182 107.264Z" fill="white"/>
<path d="M261 103.264C265.42 103.264 269 99.6837 269 95.2637C269 90.8437 265.42 87.2637 261 87.2637C256.58 87.2637 253 90.8437 253 95.2637C253 99.6837 256.58 103.264 261 103.264ZM261 107.264C255.66 107.264 245 109.944 245 115.264V119.264H277V115.264C277 109.944 266.34 107.264 261 107.264Z" fill="white"/>
<g opacity="0.2">
<path d="M340 103.264C344.42 103.264 348 99.6837 348 95.2637C348 90.8437 344.42 87.2637 340 87.2637C335.58 87.2637 332 90.8437 332 95.2637C332 99.6837 335.58 103.264 340 103.264ZM340 107.264C334.66 107.264 324 109.944 324 115.264V119.264H356V115.264C356 109.944 345.34 107.264 340 107.264Z" fill="white"/>
</g>
</svg>
