<svg width="364" height="128" viewBox="0 0 364 128" fill="none" xmlns="http://www.w3.org/2000/svg">
<path d="M24 24.2637C28.42 24.2637 32 20.6837 32 16.2637C32 11.8437 28.42 8.26367 24 8.26367C19.58 8.26367 16 11.8437 16 16.2637C16 20.6837 19.58 24.2637 24 24.2637ZM24 28.2637C18.66 28.2637 8 30.9437 8 36.2637V40.2637H40V36.2637C40 30.9437 29.34 28.2637 24 28.2637Z" fill="white"/>
<g opacity="0.3">
<path d="M103 24.2637C107.42 24.2637 111 20.6837 111 16.2637C111 11.8437 107.42 8.26367 103 8.26367C98.58 8.26367 95 11.8437 95 16.2637C95 20.6837 98.58 24.2637 103 24.2637ZM103 28.2637C97.66 28.2637 87 30.9437 87 36.2637V40.2637H119V36.2637C119 30.9437 108.34 28.2637 103 28.2637Z" fill="white"/>
</g>
<g opacity="0.3">
<path d="M182 24.2637C186.42 24.2637 190 20.6837 190 16.2637C190 11.8437 186.42 8.26367 182 8.26367C177.58 8.26367 174 11.8437 174 16.2637C174 20.6837 177.58 24.2637 182 24.2637ZM182 28.2637C176.66 28.2637 166 30.9437 166 36.2637V40.2637H198V36.2637C198 30.9437 187.34 28.2637 182 28.2637Z" fill="white"/>
</g>
<g opacity="0.3">
<path d="M261 24.2637C265.42 24.2637 269 20.6837 269 16.2637C269 11.8437 265.42 8.26367 261 8.26367C256.58 8.26367 253 11.8437 253 16.2637C253 20.6837 256.58 24.2637 261 24.2637ZM261 28.2637C255.66 28.2637 245 30.9437 245 36.2637V40.2637H277V36.2637C277 30.9437 266.34 28.2637 261 28.2637Z" fill="white"/>
</g>
<g opacity="0.3">
<path d="M340 24.2637C344.42 24.2637 348 20.6837 348 16.2637C348 11.8437 344.42 8.26367 340 8.26367C335.58 8.26367 332 11.8437 332 16.2637C332 20.6837 335.58 24.2637 340 24.2637ZM340 28.2637C334.66 28.2637 324 30.9437 324 36.2637V40.2637H356V36.2637C356 30.9437 345.34 28.2637 340 28.2637Z" fill="white"/>
</g>
<g opacity="0.3">
<path d="M24 103.099C28.42 103.099 32 99.5186 32 95.0986C32 90.6786 28.42 87.0986 24 87.0986C19.58 87.0986 16 90.6786 16 95.0986C16 99.5186 19.58 103.099 24 103.099ZM24 107.099C18.66 107.099 8 109.779 8 115.099V119.099H40V115.099C40 109.779 29.34 107.099 24 107.099Z" fill="white"/>
<path d="M103 103.099C107.42 103.099 111 99.5186 111 95.0986C111 90.6786 107.42 87.0986 103 87.0986C98.58 87.0986 95 90.6786 95 95.0986C95 99.5186 98.58 103.099 103 103.099ZM103 107.099C97.66 107.099 87 109.779 87 115.099V119.099H119V115.099C119 109.779 108.34 107.099 103 107.099Z" fill="white"/>
<path d="M182 103.099C186.42 103.099 190 99.5186 190 95.0986C190 90.6786 186.42 87.0986 182 87.0986C177.58 87.0986 174 90.6786 174 95.0986C174 99.5186 177.58 103.099 182 103.099ZM182 107.099C176.66 107.099 166 109.779 166 115.099V119.099H198V115.099C198 109.779 187.34 107.099 182 107.099Z" fill="white"/>
<path d="M261 103.099C265.42 103.099 269 99.5186 269 95.0986C269 90.6786 265.42 87.0986 261 87.0986C256.58 87.0986 253 90.6786 253 95.0986C253 99.5186 256.58 103.099 261 103.099ZM261 107.099C255.66 107.099 245 109.779 245 115.099V119.099H277V115.099C277 109.779 266.34 107.099 261 107.099Z" fill="white"/>
<path d="M340 103.099C344.42 103.099 348 99.5186 348 95.0986C348 90.6786 344.42 87.0986 340 87.0986C335.58 87.0986 332 90.6786 332 95.0986C332 99.5186 335.58 103.099 340 103.099ZM340 107.099C334.66 107.099 324 109.779 324 115.099V119.099H356V115.099C356 109.779 345.34 107.099 340 107.099Z" fill="white"/>
</g>
</svg>
