<svg width="80" height="34" viewBox="0 0 80 34" fill="none" xmlns="http://www.w3.org/2000/svg">
<g clip-path="url(#clip0_1487_47756)">
<path d="M22.7832 10.1555L23.9945 10.1455C23.9945 10.1455 33.4486 18.0052 38.1953 21.9152C38.2249 21.8952 38.2643 21.8852 38.2939 21.8653C38.2939 17.9754 38.2939 10.1655 38.2939 10.1655H43.6315V32.4979L42.4004 32.5478C42.4004 32.5478 32.8873 24.3389 28.0519 20.1597C28.0519 24.3489 28.0519 32.478 28.0519 32.478L22.8127 32.5179L22.7832 10.1555Z" fill="#959BA4"/>
<path d="M16.8059 26.2145L19.8392 30.3139C19.8392 30.3139 19.5339 30.6331 19.3763 30.7528C17.9287 31.8898 16.2741 32.5183 14.4917 32.8474C13.2902 33.0668 12.0789 33.1167 10.8676 33.0269C7.89352 32.8075 5.25425 31.7801 3.13693 29.5858C1.65973 28.0498 0.743861 26.1946 0.3007 24.11C0.0741958 23.0526 -0.0439803 21.9854 0.0151078 20.8982C0.162828 17.8062 1.16732 15.0633 3.38313 12.8589C4.92927 11.3329 6.79054 10.4152 8.88817 9.94642C10.2767 9.62724 11.685 9.56736 13.0933 9.66716C15.1121 9.80679 17.0226 10.3454 18.7461 11.4625C19.1301 11.7119 19.5141 11.9712 19.849 12.3702C18.8445 13.7367 16.7863 16.5096 16.7863 16.5096C16.7863 16.5096 16.5893 16.3698 16.481 16.31C15.2894 15.5519 14.0092 14.9934 12.6009 14.8638C9.4692 14.5844 6.46556 16.2801 5.74666 19.7711C5.49061 20.998 5.5103 22.2547 5.87468 23.4616C6.56404 25.7058 8.05108 27.1421 10.3161 27.6608C12.6402 28.1994 14.8068 27.7705 16.7174 26.2743C16.7174 26.2544 16.8059 26.2145 16.8059 26.2145Z" fill="#959BA4"/>
<path d="M63.9872 26.2143C65.0115 27.5908 66.0159 28.9572 67.0303 30.3237C66.5477 30.8423 66.0061 31.2014 65.4349 31.5306C64.0266 32.3285 62.51 32.7575 60.9146 32.9569C60.048 33.0667 59.1814 33.0766 58.3148 33.0367C55.6558 32.9071 53.2332 32.0992 51.1651 30.3636C49.2645 28.7577 48.0925 26.693 47.5214 24.2593C47.2259 23.0026 47.1373 21.7259 47.2358 20.4592C47.5805 16.1801 49.5008 12.8986 53.3415 10.9137C54.6021 10.2554 55.9611 9.90633 57.3792 9.73676C58.2951 9.62707 59.211 9.60711 60.1268 9.6669C62.3722 9.80661 64.4797 10.3951 66.331 11.7516C66.5674 11.9211 67.05 12.3401 67.05 12.3401L63.9675 16.5093C63.9675 16.5093 63.682 16.3198 63.5539 16.24C62.3721 15.5218 61.1313 14.9633 59.7526 14.8535C56.7194 14.6042 53.8143 16.1702 52.9772 19.5016C52.6128 20.9579 52.662 22.4041 53.1643 23.8105C53.893 25.8552 55.3308 27.1519 57.4087 27.6506C59.467 28.1593 61.4366 27.8601 63.2684 26.733C63.4948 26.5834 63.7115 26.4138 63.9872 26.2143Z" fill="#959BA4"/>
<path d="M72.9213 5.15873C69.9472 5.15873 64.1467 5.15873 64.1467 5.15873L64.1172 0.959555C64.1172 0.959555 78.6824 0.849838 79.3619 0.939606C77.4416 5.25847 76.4764 9.78677 76.3484 14.5246C76.3484 14.6044 76.3385 14.774 76.3385 14.774H71.6706C71.6706 14.774 71.6608 14.5545 71.6509 14.4448C71.6016 12.9287 71.7691 11.4226 71.966 9.93638C72.163 8.34054 72.4683 6.76459 72.9213 5.15873Z" fill="#959BA4"/>
</g>
<defs>
<clipPath id="clip0_1487_47756">
<rect width="80" height="32.1649" fill="white" transform="translate(0 0.904297)"/>
</clipPath>
</defs>
</svg>
