<svg width="117" height="20" viewBox="0 0 117 20" fill="none" xmlns="http://www.w3.org/2000/svg">
<path d="M0.603699 1.43523C0.603699 0.845475 1.09209 0.35709 1.6542 0.35709C2.24395 0.35709 2.73234 0.845475 2.73234 1.43523V17.3678H12.5001C13.0346 17.3678 13.4677 17.8285 13.4677 18.363C13.4677 18.8974 13.0346 19.3305 12.5001 19.3305H1.6542C1.09209 19.3305 0.603699 18.8421 0.603699 18.2524V1.43523Z" fill="#959BA4"/>
<path d="M16.4259 11.4518V1.43523C16.4259 0.845475 16.9143 0.35709 17.4764 0.35709C18.0661 0.35709 18.5545 0.845475 18.5545 1.43523V11.3136C18.5545 15.3774 20.7385 17.6626 24.3138 17.6626C27.7878 17.6626 29.9902 15.5617 29.9902 11.4426V1.43523C29.9902 0.845475 30.4786 0.35709 31.0683 0.35709C31.6305 0.35709 32.1188 0.845475 32.1188 1.43523V11.2859C32.1188 16.778 28.9674 19.6254 24.2585 19.6254C19.605 19.6346 16.4259 16.778 16.4259 11.4518Z" fill="#959BA4"/>
<path d="M62.2056 18.658L54.935 1.88691C54.8521 1.72104 54.8244 1.59203 54.8244 1.39852C54.8244 0.864058 55.3128 0.348022 55.9026 0.348022C56.4371 0.348022 56.8149 0.698187 57.0084 1.15893L63.5233 16.769L70.0659 1.10364C70.2502 0.725834 70.628 0.348022 71.1164 0.348022C71.7061 0.348022 72.1669 0.836415 72.1669 1.37088C72.1669 1.53675 72.1392 1.66575 72.0839 1.80397L64.795 18.658C64.5554 19.1925 64.1776 19.5426 63.5602 19.5426H63.4496C62.8322 19.5518 62.4267 19.2017 62.2056 18.658Z" fill="#959BA4"/>
<path d="M76.3686 1.43523C76.3686 0.845475 76.8569 0.35709 77.4191 0.35709C78.0088 0.35709 78.4972 0.845475 78.4972 1.43523V18.3906C78.4972 18.9804 78.0088 19.4688 77.4191 19.4688C76.8569 19.4688 76.3686 18.9804 76.3686 18.3906V1.43523Z" fill="#959BA4"/>
<path d="M88.9929 2.45815H83.5285C82.994 2.45815 82.5333 2.02505 82.5333 1.49058C82.5333 0.956121 82.994 0.495378 83.5285 0.495378H96.6044C97.1389 0.495378 97.5996 0.956121 97.5996 1.49058C97.5996 2.02505 97.1389 2.45815 96.6044 2.45815H91.14V18.3907C91.14 18.9804 90.6516 19.4688 90.0619 19.4688C89.4721 19.4688 88.9837 18.9804 88.9837 18.3907V2.45815H88.9929Z" fill="#959BA4"/>
<path d="M107.238 11.931L100.244 2.13556C100.106 1.92362 100.004 1.67482 100.004 1.40758C100.004 0.845476 100.511 0.35709 101.11 0.35709C101.571 0.35709 101.866 0.624322 102.133 1.00213L108.353 9.96821L114.628 1.00213C114.896 0.624322 115.163 0.35709 115.624 0.35709C116.213 0.35709 116.674 0.845476 116.674 1.40758C116.674 1.67482 116.508 1.96969 116.379 2.19085L109.413 11.8757V18.3906C109.413 18.9804 108.924 19.4688 108.335 19.4688C107.745 19.4688 107.256 18.9804 107.256 18.3906V11.931H107.238Z" fill="#959BA4"/>
<path d="M52.059 6.1441V6.08881C52.059 4.60521 51.5246 3.28748 50.6031 2.37521C49.4144 1.18649 47.5622 0.495378 45.2492 0.495378H38.1998C37.6377 0.495378 37.1493 0.983762 37.1493 1.57351V18.3907C37.1493 19.091 37.822 19.6347 38.5039 19.4228C38.9739 19.2753 39.278 18.8146 39.278 18.317V2.46736C39.278 2.46736 39.278 2.45815 39.2872 2.45815H45.0926C48.1335 2.45815 49.912 3.85881 49.912 6.17174V6.22703C49.912 8.44782 48.2164 9.8577 45.7468 10.0696C44.4015 9.84848 43.9499 11.1201 44.6963 12.0232L49.9857 18.8975C50.2253 19.22 50.5478 19.4596 50.9809 19.4596C51.5154 19.4596 52.059 18.9712 52.059 18.4091C52.059 18.1142 51.9208 17.8746 51.7089 17.6258L47.0369 11.6085V11.5993C49.9672 11.0372 52.059 9.2403 52.059 6.1441Z" fill="#959BA4"/>
</svg>
