<svg width="134" height="30" viewBox="0 0 134 30" fill="none" xmlns="http://www.w3.org/2000/svg">
<path d="M22.227 9.37792C22.227 12.7036 22.2262 15.9963 22.2278 19.2891C22.228 19.8172 22.0527 20.2342 21.5879 20.5375C21.3099 20.7189 21.0839 20.9805 20.8359 21.2075C20.0513 21.9256 19.27 22.6474 18.4825 23.3623C17.6002 24.1633 16.7123 24.9582 15.8271 25.756C14.9338 26.5611 14.041 27.3669 13.1474 28.1718C12.721 28.5558 12.2969 28.9425 11.8648 29.3201C11.4998 29.6392 10.7899 29.6526 10.3871 29.2693C9.43967 28.3674 8.43758 27.5231 7.4617 26.651C6.9521 26.1955 6.4542 25.727 5.94569 25.2703C4.91489 24.3445 3.87942 23.4239 2.84802 22.4988C2.36368 22.0644 1.88279 21.6262 1.40326 21.1864C1.07461 20.8851 0.754531 20.5743 0.423936 20.2751C0.192868 20.066 0.0977128 19.8085 0.0977508 19.5038C0.0985004 13.478 0.0993317 7.45232 0.0963136 1.4266C0.0960792 0.958699 0.451735 0.472736 1.1165 0.421784C1.18197 0.416766 1.24815 0.421079 1.31401 0.421079C7.87755 0.421077 14.4411 0.42539 21.0046 0.415163C21.7547 0.413995 22.2375 0.894301 22.233 1.6401C22.2174 4.20831 22.227 6.77668 22.227 9.37792ZM14.6532 24.0315C15.2356 23.5147 15.8219 23.0022 16.3993 22.4798C17.1799 21.7736 17.9512 21.0571 18.7315 20.3505C19.035 20.0756 19.3572 19.8214 19.6616 19.5473C19.9765 19.2637 20.2057 18.9875 20.2029 18.4796C20.1742 13.2664 20.1853 8.05299 20.1853 2.83962C20.1853 2.72201 20.1853 2.6044 20.1853 2.47624C14.1602 2.47624 8.16266 2.47624 2.13994 2.47624C2.13994 2.60725 2.13994 2.72517 2.13994 2.84309C2.13994 8.11133 2.14154 13.3796 2.13552 18.6478C2.1352 18.9297 2.18165 19.1309 2.42462 19.3306C3.08476 19.8733 3.70796 20.4611 4.3431 21.034C5.49391 22.072 6.64436 23.1105 7.79185 24.1523C8.57123 24.8598 9.34241 25.5764 10.1231 26.2825C10.4635 26.5904 10.8187 26.8821 11.1738 27.1868C11.3366 27.0221 11.4684 26.8741 11.6151 26.7428C12.6149 25.8482 13.6178 24.9571 14.6532 24.0315Z" fill="#959BA4"/>
<path d="M10.3476 21.1141V19.2179C9.72145 19.1116 9.178 18.9285 8.71726 18.6686C8.26832 18.4087 7.89027 18.1074 7.58311 17.7648C7.27594 17.4104 7.03966 17.0382 6.87427 16.6484C6.72068 16.2585 6.62617 15.8804 6.59073 15.5142L9.03623 14.9649C9.05986 15.2248 9.11893 15.4729 9.21345 15.7091C9.31977 15.9454 9.46745 16.1522 9.65647 16.3294C9.8455 16.5066 10.0818 16.6484 10.3653 16.7547C10.6489 16.861 10.9796 16.9142 11.3577 16.9142C11.8066 16.9142 12.1729 16.8138 12.4564 16.6129C12.7399 16.4121 12.8817 16.1404 12.8817 15.7978C12.8817 15.2897 12.5155 14.953 11.783 14.7877L10.2058 14.4155C9.20163 14.1792 8.416 13.7716 7.84892 13.1928C7.28185 12.6139 6.99831 11.8991 6.99831 11.0485C6.99831 10.5523 7.08692 10.0975 7.26413 9.68399C7.44134 9.27049 7.67762 8.91017 7.97297 8.603C8.28014 8.28402 8.63456 8.02411 9.03623 7.82327C9.44973 7.61062 9.88685 7.46295 10.3476 7.38025V5.46637H12.3855V7.43341C12.8699 7.53974 13.2893 7.70513 13.6437 7.9296C14.0099 8.14225 14.3171 8.38444 14.5652 8.65616C14.8133 8.92789 15.0082 9.22324 15.15 9.54222C15.3036 9.8612 15.4099 10.1684 15.469 10.4637L13.0058 11.1194C12.9821 10.9776 12.9408 10.824 12.8817 10.6586C12.8226 10.4932 12.7222 10.3338 12.5804 10.1802C12.4505 10.0266 12.2733 9.90255 12.0488 9.80803C11.8362 9.70171 11.5526 9.64854 11.1982 9.64854C10.702 9.64854 10.3299 9.77259 10.0818 10.0207C9.83368 10.257 9.70964 10.5169 9.70964 10.8004C9.70964 11.3084 10.0582 11.6451 10.7552 11.8105L12.2969 12.1472C12.8876 12.2772 13.3897 12.4603 13.8032 12.6966C14.2285 12.9328 14.5711 13.2046 14.831 13.5117C15.1027 13.8071 15.2977 14.1379 15.4158 14.5041C15.5458 14.8704 15.6108 15.2543 15.6108 15.656C15.6108 16.0695 15.5399 16.4652 15.3981 16.8433C15.2563 17.2213 15.0437 17.5699 14.7601 17.8888C14.4884 18.2078 14.1517 18.4795 13.75 18.704C13.3484 18.9285 12.8935 19.088 12.3855 19.1825V21.1141H10.3476Z" fill="#959BA4"/>
<path d="M47.6381 22.5867V12.4264L43.6388 22.5867H40.8718L36.8725 12.5561V22.5867H33.6298V7.25972H38.0831L42.2985 17.6146L46.2978 7.25972H50.9889V22.5867H47.6381Z" fill="#959BA4"/>
<path d="M61.0418 22.5867C61.013 22.4858 60.9914 22.3201 60.977 22.0895C60.9626 21.8445 60.9553 21.65 60.9553 21.5058C60.6671 21.967 60.2492 22.3057 59.7015 22.5219C59.1683 22.7236 58.6278 22.8245 58.0802 22.8245C57.4316 22.8245 56.848 22.7164 56.3291 22.5003C55.8247 22.2697 55.3996 21.967 55.0537 21.5923C54.7078 21.2032 54.4412 20.7564 54.2538 20.252C54.0809 19.7476 53.9944 19.2071 53.9944 18.6307V11.8427H57.2803V17.9389C57.2803 18.4577 57.4172 18.8973 57.6911 19.2576C57.9793 19.6179 58.4189 19.798 59.0097 19.798C59.5574 19.798 59.9898 19.6323 60.3068 19.3008C60.6383 18.9549 60.804 18.5082 60.804 17.9605V11.8427H64.0899V20.6627C64.0899 21.1527 64.1043 21.5779 64.1332 21.9382C64.162 22.2841 64.1836 22.5003 64.198 22.5867H61.0418Z" fill="#959BA4"/>
<path d="M66.9803 22.5867V6.93545H70.2662V22.5867H66.9803Z" fill="#959BA4"/>
<path d="M77.1003 11.8427H79.1972V14.7179H77.1003V18.7388C77.1003 19.1855 77.2084 19.4882 77.4246 19.6467C77.6407 19.7908 77.929 19.8629 78.2893 19.8629C78.4622 19.8629 78.6207 19.8557 78.7649 19.8413C78.9234 19.8124 79.0531 19.7836 79.154 19.7548V22.4786C79.0819 22.5075 78.909 22.5651 78.6351 22.6516C78.3613 22.738 77.965 22.7813 77.4462 22.7813C76.322 22.7813 75.4429 22.4786 74.8088 21.8733C74.1747 21.2536 73.8576 20.4033 73.8576 19.3224V14.7179H71.9553V11.8427H72.4957C73.0578 11.8427 73.4757 11.677 73.7495 11.3455C74.0234 11.014 74.1603 10.5961 74.1603 10.0916V8.70811H77.1003V11.8427Z" fill="#959BA4"/>
<path d="M81.5258 22.5867V11.8427H84.8118V22.5867H81.5258ZM81.2448 8.55679C81.2448 8.29737 81.2953 8.05237 81.3961 7.82178C81.497 7.57678 81.6339 7.36781 81.8069 7.19487C81.9798 7.02192 82.1816 6.88501 82.4122 6.78413C82.6428 6.68325 82.8878 6.6328 83.1472 6.6328C83.6948 6.6328 84.156 6.82016 84.5307 7.19487C84.9054 7.56957 85.0928 8.02355 85.0928 8.55679C85.0928 9.09002 84.9054 9.544 84.5307 9.91871C84.156 10.2934 83.6948 10.4808 83.1472 10.4808C82.8878 10.4808 82.6428 10.4303 82.4122 10.3294C82.1816 10.2286 81.9798 10.0916 81.8069 9.91871C81.6339 9.74576 81.497 9.544 81.3961 9.31341C81.2953 9.06841 81.2448 8.8162 81.2448 8.55679Z" fill="#959BA4"/>
<path d="M93.3325 14.1342C93.9811 14.1342 94.5071 13.9612 94.9106 13.6153C95.3142 13.2695 95.5159 12.7939 95.5159 12.1886C95.5159 11.5689 95.3142 11.0861 94.9106 10.7402C94.5071 10.3943 93.9811 10.2214 93.3325 10.2214H91.3437V14.1342H93.3325ZM91.3221 17.0742V22.5867H87.9065V7.25972H93.6784C94.4566 7.25972 95.1628 7.38222 95.797 7.62722C96.4455 7.87222 97.0003 8.2109 97.4615 8.64326C97.9371 9.07561 98.2974 9.59444 98.5424 10.1997C98.8018 10.805 98.9315 11.4608 98.9315 12.167C98.9315 12.8875 98.8018 13.5505 98.5424 14.1558C98.2974 14.7611 97.9371 15.2799 97.4615 15.7123C97.0003 16.1446 96.4455 16.4833 95.797 16.7283C95.1628 16.9589 94.4566 17.0742 93.6784 17.0742H91.3221Z" fill="#959BA4"/>
<path d="M105.286 19.8845C105.603 19.8845 105.906 19.8341 106.194 19.7332C106.482 19.6179 106.734 19.4521 106.95 19.236C107.181 19.0054 107.361 18.7243 107.491 18.3929C107.635 18.0614 107.707 17.6651 107.707 17.2039C107.707 16.7571 107.635 16.368 107.491 16.0365C107.361 15.6907 107.181 15.4096 106.95 15.1934C106.734 14.9773 106.482 14.8187 106.194 14.7179C105.906 14.6026 105.603 14.5449 105.286 14.5449C104.983 14.5449 104.681 14.6026 104.378 14.7179C104.09 14.8187 103.83 14.9773 103.6 15.1934C103.383 15.4096 103.203 15.6907 103.059 16.0365C102.929 16.368 102.865 16.7571 102.865 17.2039C102.865 17.6507 102.929 18.047 103.059 18.3929C103.203 18.7243 103.383 19.0054 103.6 19.236C103.83 19.4521 104.09 19.6179 104.378 19.7332C104.681 19.8341 104.983 19.8845 105.286 19.8845ZM105.286 11.5184C106.093 11.5184 106.842 11.6625 107.534 11.9508C108.226 12.2246 108.824 12.6137 109.328 13.1181C109.847 13.6226 110.251 14.2206 110.539 14.9124C110.842 15.6042 110.993 16.368 110.993 17.2039C110.993 18.0398 110.842 18.8108 110.539 19.517C110.251 20.2088 109.847 20.8069 109.328 21.3113C108.824 21.8157 108.226 22.212 107.534 22.5003C106.842 22.7741 106.093 22.911 105.286 22.911C104.479 22.911 103.729 22.7741 103.038 22.5003C102.346 22.212 101.74 21.8157 101.222 21.3113C100.717 20.8069 100.314 20.2088 100.011 19.517C99.7228 18.8108 99.5787 18.0398 99.5787 17.2039C99.5787 16.368 99.7228 15.6042 100.011 14.9124C100.314 14.2206 100.717 13.6226 101.222 13.1181C101.74 12.6137 102.346 12.2246 103.038 11.9508C103.729 11.6625 104.479 11.5184 105.286 11.5184Z" fill="#959BA4"/>
<path d="M113.108 22.5867V6.93545H116.394V22.5867H113.108Z" fill="#959BA4"/>
<path d="M119.294 22.5867V6.93545H122.58V22.5867H119.294Z" fill="#959BA4"/>
<path d="M127.382 19.0414C127.41 19.4161 127.554 19.7548 127.814 20.0574C128.088 20.3457 128.506 20.4898 129.068 20.4898C129.486 20.4898 129.796 20.3961 129.997 20.2088C130.213 20.0214 130.322 19.8052 130.322 19.5602C130.322 19.3585 130.242 19.1855 130.084 19.0414C129.94 18.8829 129.666 18.7604 129.262 18.6739L128.03 18.3929C127.454 18.2632 126.964 18.0902 126.56 17.874C126.157 17.6579 125.825 17.4057 125.566 17.1174C125.306 16.8292 125.119 16.5121 125.004 16.1662C124.888 15.8204 124.831 15.4601 124.831 15.0854C124.831 14.5954 124.932 14.1342 125.133 13.7018C125.335 13.2695 125.616 12.8948 125.976 12.5777C126.351 12.2462 126.791 11.9868 127.295 11.7995C127.799 11.6121 128.354 11.5184 128.96 11.5184C129.738 11.5184 130.394 11.6265 130.927 11.8427C131.46 12.0589 131.892 12.3327 132.224 12.6642C132.57 12.9812 132.822 13.3271 132.981 13.7018C133.139 14.0621 133.233 14.4008 133.262 14.7179L130.538 15.2151C130.494 14.8548 130.35 14.5449 130.105 14.2855C129.875 14.0261 129.507 13.8964 129.003 13.8964C128.686 13.8964 128.412 13.9828 128.181 14.1558C127.951 14.3143 127.836 14.5377 127.836 14.8259C127.836 15.0565 127.915 15.2367 128.073 15.3664C128.232 15.4961 128.434 15.5826 128.679 15.6258L130.105 15.9068C131.23 16.1374 132.058 16.5626 132.591 17.1823C133.139 17.7876 133.413 18.4866 133.413 19.2792C133.413 19.7404 133.326 20.1872 133.153 20.6195C132.981 21.0519 132.714 21.441 132.354 21.7869C131.993 22.1183 131.547 22.385 131.013 22.5867C130.48 22.8029 129.853 22.911 129.133 22.911C128.282 22.911 127.569 22.7957 126.992 22.5651C126.43 22.3201 125.976 22.0247 125.631 21.6788C125.285 21.3329 125.025 20.9654 124.852 20.5763C124.694 20.1871 124.607 19.8413 124.593 19.5386L127.382 19.0414Z" fill="#959BA4"/>
</svg>
