<svg width="88" height="28" viewBox="0 0 88 28" fill="none" xmlns="http://www.w3.org/2000/svg">
<path d="M78.676 22.3077H71.4818V22.0188L73.1864 19.6496V3.29658L71.4818 0.927413V0.638489H78.676C82.7787 0.638489 87.6037 3.23879 87.6037 11.4731C87.6037 19.7074 82.7787 22.3077 78.676 22.3077ZM78.676 21.7298H78.9649C80.8429 21.7298 81.6808 17.1938 81.6808 11.3286C81.6808 5.60796 80.8429 1.21634 78.9649 1.21634H78.676V21.7298Z" fill="#959BA4"/>
<path d="M70.3241 22.3077H57.1203V22.0188L58.8249 19.6496V3.29658L57.1203 0.927413V0.638489H70.3241V6.09913H70.0351L64.8923 1.21634H64.3145V10.7508L69.1684 8.46829H69.4573V13.6111H69.1684L64.3145 11.3286V21.7298H64.8923L70.0351 16.8471H70.3241V22.3077Z" fill="#959BA4"/>
<path d="M55.9626 22.3077H42.7588V22.0188L44.4635 19.6496V3.29658L42.7588 0.927413V0.638489H55.9626V6.09913H55.6737L50.5308 1.21634H49.953V10.7508L54.8069 8.46829H55.0958V13.6111H54.8069L49.953 11.3286V21.7298H50.5308L55.6737 16.8471H55.9626V22.3077Z" fill="#959BA4"/>
<path d="M37.8672 22.3077H28.6795V22.0188L30.3841 19.6496V3.29658L28.6795 0.927413V0.638489H41.8832V6.67697H41.5943L36.4515 1.21634H35.8737V11.3286L40.7276 9.04614H41.0165V14.189H40.7276L35.8737 11.9065V19.6496L37.8672 22.0188V22.3077Z" fill="#959BA4"/>
<path d="M20.7871 23.2033L19.747 9.73955L18.3024 8.67054L18.3602 8.49718L21.625 6.64808H21.7984L22.9541 20.6319C25.0632 17.6849 28.1547 12.7155 27.6924 8.93057C27.3746 9.47952 26.7967 9.76844 26.2189 9.76844C25.4099 9.76844 24.9187 9.21949 24.9187 8.49718C24.9187 7.34149 25.9011 6.64808 26.7101 6.64808C28.0969 6.64808 28.2991 8.41051 28.2991 9.42174C28.2413 15.9225 19.4292 27.3349 15.2398 27.3349C14.0552 27.3349 13.5641 26.6993 13.5641 25.9192C13.5641 24.8213 14.5753 24.1568 15.3843 24.1568C16.1644 24.1568 16.6267 24.7057 16.6267 25.3703C16.6267 25.977 16.3377 26.4104 16.0777 26.6704C17.4067 26.2659 19.1403 24.9369 20.7871 23.2033Z" fill="#959BA4"/>
<path d="M15.9569 22.3077H11.392L11.4209 22.1343L12.7499 20.5164L14.5701 3.00766H14.5123L8.12714 22.3077H7.54929L7.1448 3.18101H7.05813L2.92653 19.3896L3.7933 22.1343L3.73551 22.3077H0.412903L0.441795 22.1343L2.52204 19.3896L6.79809 2.71873L5.96022 0.811844L5.98911 0.638489H9.36951L9.60065 16.7604H9.65843L14.9168 0.638489H18.3839L18.355 0.811844L16.8815 2.42981L15.0035 20.5164L15.9858 22.1343L15.9569 22.3077Z" fill="#959BA4"/>
</svg>
