<svg width="167" height="18" viewBox="0 0 167 18" fill="none" xmlns="http://www.w3.org/2000/svg">
<g clip-path="url(#clip0_179_9288)">
<path d="M9.63424 17.7832H16.7552V0.190247H12.1475V6.264H10.9956V4.06488C10.8909 1.13273 9.9484 0.190247 7.01624 0.190247H0V17.7832H4.60768V11.7094H5.7596V13.9086C5.7596 16.8407 6.70208 17.7832 9.63424 17.7832Z" fill="#959BA4"/>
<path d="M33.0915 17.7832V8.04425C33.0915 3.33185 31.6254 2.17993 25.6564 2.17993C19.6874 2.17993 18.2213 3.33185 18.2213 8.04425V17.7832H25.1328V15.2699H26.2847V17.7832H33.0915ZM25.1328 11.6047V6.68289H26.2847V11.6047H25.1328Z" fill="#959BA4"/>
<path d="M49.5326 6.26405C49.5326 3.12246 47.6476 2.07526 42.0975 2.07526C36.1284 2.07526 34.6624 3.3319 34.6624 8.67261V11.0812C34.6624 16.3172 36.2332 17.5738 42.0975 17.5738C46.0768 17.5738 48.7995 16.8408 49.5326 16.6313V11.8142C48.9043 12.3378 47.7523 12.7567 46.0768 12.7567C42.6211 12.7567 41.5739 11.6048 41.5739 7.83485V6.68293H42.7258V7.83485C42.7258 10.767 43.4588 11.6048 46.0768 11.6048C48.7995 11.6048 49.5326 10.767 49.5326 7.93957V6.26405Z" fill="#959BA4"/>
<path d="M65.9736 17.7832V2.17993H59.0621V6.78761H57.9102V2.17993H51.1034V17.7832H57.9102V13.0708H59.0621V17.7832H65.9736Z" fill="#959BA4"/>
<path d="M74.8748 2.17993C68.9058 2.17993 67.4397 3.43657 67.4397 8.77729V11.1858C67.4397 16.5266 68.8011 17.7832 74.8748 17.7832C80.9486 17.7832 82.3099 16.5266 82.3099 11.1858V8.77729C82.3099 3.43657 80.8438 2.17993 74.8748 2.17993ZM75.5031 13.2802H74.3512V6.68289H75.5031V13.2802Z" fill="#959BA4"/>
<path d="M93.8291 17.7832H100.845V0.190247H96.2377V6.264H95.0858V4.06488C95.0858 1.13273 94.1433 0.190247 91.2111 0.190247H84.1949V17.7832H88.8026V11.7094H89.9545V13.9086C89.9545 16.8407 90.897 17.7832 93.8291 17.7832Z" fill="#959BA4"/>
<path d="M117.286 17.7832V8.04425C117.286 3.33185 115.82 2.17993 109.851 2.17993C103.882 2.17993 102.416 3.33185 102.416 8.04425V17.7832H109.328V15.2699H110.48V17.7832H117.286ZM109.223 11.6047V6.68289H110.375V11.6047H109.223Z" fill="#959BA4"/>
<path d="M133.623 6.26405C133.623 3.12246 131.738 2.07526 126.188 2.07526C120.219 2.07526 118.752 3.3319 118.752 8.67261V11.0812C118.752 16.3172 120.323 17.5738 126.188 17.5738C130.167 17.5738 132.89 16.8408 133.623 16.6313V11.8142C132.994 12.1284 131.842 12.5473 130.167 12.5473C126.711 12.5473 125.664 11.3953 125.664 7.62541V6.68293H126.816V7.83485C126.816 10.767 127.549 11.6048 130.167 11.6048C132.89 11.6048 133.623 10.767 133.623 7.93957V6.26405Z" fill="#959BA4"/>
<path d="M150.064 17.7832V2.17993H143.152V6.78761H142.105V2.17993H135.193V17.7832H142.105V13.0708H143.152V17.7832H150.064Z" fill="#959BA4"/>
<path d="M159.07 2.17993C153.101 2.17993 151.635 3.43657 151.635 8.77729V11.1858C151.635 16.5266 152.996 17.7832 159.07 17.7832C165.143 17.7832 166.505 16.5266 166.505 11.1858V8.77729C166.4 3.43657 164.934 2.17993 159.07 2.17993ZM159.593 13.2802H158.441V6.68289H159.593V13.2802Z" fill="#959BA4"/>
</g>
<defs>
<clipPath id="clip0_179_9288">
<rect width="166.4" height="17.593" fill="white" transform="translate(0 0.190247)"/>
</clipPath>
</defs>
</svg>
