<svg width="147" height="55" viewBox="0 0 147 55" fill="none" xmlns="http://www.w3.org/2000/svg">
<path d="M17.0541 0.705396C15.5061 0.921396 11.9781 2.0914 12.1401 2.3434C12.1941 2.4514 12.1581 2.4694 12.0321 2.3974C11.7621 2.2174 9.83608 3.3694 9.98008 3.6034C10.0341 3.7114 9.99808 3.7294 9.89008 3.6574C9.62008 3.4954 8.73808 4.0714 8.90008 4.3234C8.95408 4.4314 8.91808 4.4494 8.79208 4.3774C8.46808 4.1614 6.32608 6.3574 5.28208 7.9594C4.76008 8.7514 4.13008 9.8854 3.86008 10.4974C2.04208 14.6374 2.24008 19.8934 4.38208 24.6094C4.74208 25.4014 5.10208 26.0494 5.17408 26.0494C5.24608 26.0494 5.30008 26.1574 5.30008 26.2654C5.30008 26.5894 6.34408 28.2454 7.58608 29.9194C9.00808 31.8094 13.4001 36.1834 13.7601 36.0574C13.9041 36.0034 13.9761 36.0214 13.9041 36.1114C13.7241 36.4354 19.3041 40.5214 19.7181 40.3594C19.8441 40.3234 19.9161 40.3414 19.8621 40.4314C19.7001 40.6834 20.2221 40.8094 21.3561 40.8094C24.5241 40.8094 26.0001 36.9034 23.6601 34.7074C23.4081 34.4914 23.1201 34.3474 22.9941 34.4194C22.8861 34.4914 22.8321 34.4374 22.8501 34.2934C22.8861 34.1674 22.7781 34.0594 22.6341 34.0594C22.4901 34.0594 22.3821 34.1854 22.4181 34.3294C22.4541 34.4734 22.4181 34.5274 22.3461 34.4554C22.1481 34.2574 22.0941 33.7714 22.2921 33.8974C22.3821 33.9514 22.4541 33.9514 22.4541 33.8974C22.4541 33.6814 20.8161 32.7094 20.6181 32.8174C20.5101 32.8894 20.4741 32.8714 20.5281 32.7634C20.6001 32.6554 19.9521 32.0254 19.1061 31.3594C18.2781 30.6934 16.8741 29.4694 16.0101 28.6234C15.1461 27.7774 14.3721 27.0934 14.3001 27.1114C14.2101 27.1294 14.1921 27.0574 14.2461 26.9854C14.3001 26.8954 14.1741 26.6614 13.9581 26.4814C13.7601 26.2834 13.0401 25.3114 12.3561 24.3034C9.83608 20.4874 9.06208 16.7794 10.1961 13.8274C10.3941 13.2874 10.5021 12.7654 10.4481 12.6574C10.3941 12.5494 10.3941 12.5134 10.4841 12.5854C10.5561 12.6574 10.8621 12.3694 11.1501 11.9194C11.4381 11.4874 12.0141 10.8214 12.4281 10.4614C12.8421 10.0834 13.1661 9.7054 13.1301 9.6154C13.1121 9.5254 13.1481 9.5074 13.2381 9.5614C13.3101 9.6154 13.6161 9.4894 13.9221 9.2914C15.9021 7.9594 18.8361 7.3474 21.5001 7.7074C22.3821 7.8334 23.3001 7.9414 23.5701 7.9414C23.8221 7.9594 24.0021 8.0134 23.9481 8.0854C23.9121 8.1754 23.9841 8.2294 24.1101 8.2294C24.2361 8.2294 25.1541 8.6254 26.1441 9.0934C27.7101 9.8674 28.1061 10.1554 29.2941 11.4154C30.1581 12.3334 30.9321 13.3954 31.4361 14.3314C32.0121 15.4294 32.2641 15.7714 32.3901 15.5914C32.4981 15.4114 32.5161 15.4654 32.4441 15.7354C32.2101 16.5814 34.4061 17.4634 36.0441 17.1574C37.3581 16.9054 38.6541 15.2134 38.6361 13.7734C38.6361 12.8914 38.0781 11.3794 37.8441 11.5954C37.7721 11.6674 37.7541 11.6314 37.8261 11.5054C38.0241 11.1634 37.7721 10.8754 37.4661 11.1274C37.2861 11.2714 37.2141 11.2714 37.2141 11.1274C37.2141 11.0194 37.3041 10.9294 37.4121 10.9294C37.7001 10.9294 37.5021 10.5154 36.4221 8.8774C35.1081 6.9154 31.5621 3.4954 31.2021 3.8554C31.1481 3.9094 31.0941 3.8734 31.0941 3.7474C31.0941 3.4594 28.2141 2.0914 26.3241 1.4794C23.5341 0.579396 20.0241 0.273396 17.0541 0.705396ZM15.5241 1.5334C15.4701 1.5874 15.3261 1.5334 15.2001 1.4074C15.0381 1.2274 15.0561 1.2094 15.3081 1.3174C15.4881 1.3714 15.5781 1.4794 15.5241 1.5334ZM16.5141 1.4614C16.5141 1.4974 16.3881 1.5874 16.2261 1.6414C16.0821 1.6954 16.0101 1.6774 16.0641 1.5694C16.1721 1.3894 16.5141 1.3174 16.5141 1.4614ZM12.1941 2.9374C12.1941 2.9734 12.0681 3.0094 11.9241 3.0094C11.7801 3.0094 11.6541 2.9374 11.6541 2.8294C11.6541 2.7394 11.7801 2.7034 11.9241 2.7574C12.0681 2.8294 12.1941 2.9014 12.1941 2.9374ZM30.6801 4.1974C30.6261 4.2514 30.4641 4.2694 30.3381 4.2154C30.1941 4.1614 30.2481 4.1074 30.4461 4.1074C30.6441 4.0894 30.7521 4.1434 30.6801 4.1974ZM8.23408 5.6914C8.23408 5.7634 8.12608 5.8354 8.00008 5.8354C7.85608 5.8354 7.74808 5.7274 7.74808 5.6014C7.74808 5.4754 7.85608 5.4214 8.00008 5.4754C8.12608 5.5294 8.23408 5.6194 8.23408 5.6914ZM6.68608 7.1134C6.74008 7.2034 6.66808 7.2754 6.52408 7.2754C6.38008 7.2754 6.30808 7.2034 6.36208 7.1134C6.41608 7.0414 6.48808 6.9694 6.52408 6.9694C6.56008 6.9694 6.63208 7.0414 6.68608 7.1134ZM34.6941 7.0594C34.6941 7.0954 34.5861 7.2034 34.4601 7.3114C34.2801 7.4554 34.2081 7.4374 34.2081 7.2754C34.2081 7.1314 34.3161 7.0234 34.4601 7.0234C34.5861 7.0234 34.6941 7.0414 34.6941 7.0594ZM6.18208 8.2654C6.25408 8.3914 6.23608 8.4094 6.11008 8.3374C5.98408 8.2654 5.89408 8.3014 5.89408 8.4274C5.89408 8.5534 5.84008 8.6074 5.78608 8.5354C5.67808 8.4454 5.84008 8.0494 5.98408 8.0494C6.02008 8.0494 6.11008 8.1394 6.18208 8.2654ZM35.5041 8.5714C35.5581 8.6614 35.5401 8.7874 35.4501 8.8414C35.3601 8.8954 35.2881 8.8234 35.2881 8.6794C35.2881 8.3734 35.3421 8.3374 35.5041 8.5714ZM28.0341 9.0574C28.0341 9.2014 27.6921 9.2914 27.6021 9.1654C27.5481 9.0754 27.6201 9.0034 27.7641 9.0034C27.9081 9.0034 28.0341 9.0394 28.0341 9.0574ZM28.5741 9.4894C28.7181 9.5794 28.7721 9.6694 28.6641 9.6694C28.5741 9.6694 28.3581 9.5794 28.2141 9.4894C28.0701 9.3994 28.0341 9.3094 28.1241 9.3094C28.2321 9.3094 28.4301 9.3994 28.5741 9.4894ZM36.9981 10.4794C36.9441 10.5334 36.8361 10.4434 36.7821 10.2634C36.6741 10.0114 36.6921 9.9934 36.8721 10.1554C36.9981 10.2814 37.0521 10.4254 36.9981 10.4794ZM11.7801 10.4974C11.7261 10.5514 11.5821 10.6054 11.4381 10.6414C11.3121 10.6594 11.0781 10.7494 10.9341 10.8394C10.7181 10.9654 10.7001 10.9474 10.8801 10.7314C10.9881 10.5874 11.2761 10.4614 11.4921 10.4434C11.6901 10.4254 11.8341 10.4434 11.7801 10.4974ZM29.5821 11.0374C29.6001 11.1994 29.5821 11.2714 29.5101 11.2174C29.4561 11.1454 29.3841 10.9654 29.3661 10.8214C29.3481 10.6594 29.3661 10.5874 29.4381 10.6414C29.4921 10.7134 29.5641 10.8934 29.5821 11.0374ZM3.24808 16.4194C3.19408 16.5814 3.10408 16.6714 3.06808 16.6174C3.01408 16.5634 3.03208 16.4554 3.10408 16.3474C3.26608 16.0594 3.37408 16.1134 3.24808 16.4194ZM9.63808 19.2994C9.58408 19.3534 9.47608 19.2634 9.42208 19.0834C9.31408 18.8314 9.33208 18.8134 9.51208 18.9754C9.63808 19.1014 9.69208 19.2454 9.63808 19.2994ZM10.2141 21.5674C10.2141 21.6754 10.1421 21.6934 10.0341 21.6394C9.94408 21.5854 9.85408 21.4414 9.85408 21.3514C9.85408 21.2434 9.94408 21.2254 10.0341 21.2794C10.1421 21.3334 10.2141 21.4774 10.2141 21.5674ZM5.37208 24.8794C5.57008 24.7714 5.58808 24.7894 5.40808 24.9694C5.15608 25.2394 4.74208 24.9874 4.43608 24.3574C4.31008 24.1234 4.41808 24.1774 4.67008 24.5014C4.97608 24.8614 5.19208 24.9874 5.37208 24.8794ZM12.2121 24.7354C12.4461 25.0234 12.4281 25.0414 12.1581 24.8074C11.9781 24.6814 11.8341 24.5374 11.8341 24.5014C11.8341 24.3574 11.9781 24.4474 12.2121 24.7354ZM12.6261 25.3114C12.6801 25.3834 12.5541 25.6174 12.3201 25.7974C11.9241 26.1394 11.9241 26.1394 12.2481 25.7614C12.4101 25.5634 12.5001 25.3294 12.4281 25.2754C12.3741 25.2034 12.3561 25.1494 12.4281 25.1494C12.4821 25.1494 12.5721 25.2214 12.6261 25.3114ZM7.69408 28.8574C7.69408 29.0014 7.35208 29.0914 7.26208 28.9654C7.20808 28.8754 7.28008 28.8034 7.42408 28.8034C7.56808 28.8034 7.69408 28.8394 7.69408 28.8574ZM19.6461 32.5474C19.5921 32.6374 19.4661 32.6734 19.3761 32.6014C19.2861 32.5474 19.2501 32.4214 19.3221 32.3314C19.3761 32.2414 19.5021 32.2054 19.5921 32.2774C19.6821 32.3314 19.7181 32.4574 19.6461 32.5474ZM11.9241 33.6094C11.8701 33.6994 11.7081 33.7894 11.6001 33.7894C11.4741 33.7894 11.4921 33.7174 11.6541 33.6094C11.9961 33.3934 12.0681 33.3934 11.9241 33.6094ZM17.1621 38.0914C17.1801 38.1994 17.1621 38.2174 17.1261 38.1274C17.0721 38.0194 16.9281 37.9834 16.7841 38.0374C16.6581 38.0914 16.5141 38.0554 16.4421 37.9654C16.3881 37.8754 16.5321 37.8214 16.7301 37.8394C16.9461 37.8574 17.1441 37.9654 17.1621 38.0914ZM23.7321 38.5954C23.5161 38.9554 23.4801 38.8474 23.6421 38.3794C23.7141 38.2174 23.8041 38.1274 23.8401 38.1814C23.8941 38.2174 23.8401 38.4154 23.7321 38.5954ZM17.7741 38.3614C17.7741 38.3974 17.6481 38.4874 17.4861 38.5414C17.3421 38.5954 17.2701 38.5774 17.3241 38.4694C17.4321 38.2894 17.7741 38.2174 17.7741 38.3614Z" fill="#959BA4"/>
<path d="M18.8541 14.2054C17.9721 14.4574 17.1081 15.1594 16.6941 15.9694C16.2261 16.8874 16.2261 18.3634 16.6581 19.2094C17.1261 20.0914 19.1961 21.7474 19.6641 21.6214C19.8981 21.5494 19.9521 21.5854 19.7901 21.6934C19.6281 21.8014 19.8981 22.1074 20.7261 22.7914C21.3741 23.3134 21.9501 23.7454 22.0221 23.7634C22.3821 23.8534 26.3421 28.1914 27.3501 29.6134C28.3041 30.9454 28.5741 31.2154 28.7721 31.0354C28.9701 30.8554 28.9701 30.8734 28.7721 31.1254C28.5921 31.3774 28.6821 31.6474 29.2941 32.8714C30.5901 35.4634 31.0401 38.4514 30.4821 40.6294C30.3381 41.1694 30.2661 41.6914 30.3201 41.7994C30.3921 41.8894 30.3561 41.9254 30.2841 41.8354C30.0861 41.6734 29.6181 42.7534 29.7801 43.0234C29.8341 43.1134 29.7981 43.1494 29.6901 43.0774C29.4921 42.9514 28.6281 44.2114 28.7181 44.4994C28.7541 44.5894 28.7181 44.6254 28.6641 44.5534C28.4661 44.3734 26.9361 45.6694 27.0801 45.9034C27.1341 46.0114 27.0981 46.0294 26.9901 45.9574C26.8821 45.8854 26.4861 45.9934 26.1081 46.1734C25.0101 46.7314 23.7681 47.1094 22.3461 47.3074C19.9341 47.6314 16.6761 46.9294 14.3901 45.5614C13.8321 45.2374 13.2381 44.8954 13.0941 44.8414C12.5361 44.6074 10.4661 42.0154 9.62007 40.5034C8.63007 38.7034 8.48607 38.5234 7.98207 38.2714C7.62207 38.0914 7.60407 38.0914 7.94607 38.3614C8.14407 38.5234 8.21607 38.6494 8.12607 38.6494C8.01807 38.6494 7.76607 38.4514 7.55007 38.1994C7.20807 37.8034 7.01007 37.7494 6.03807 37.7494C4.77807 37.7494 4.49007 37.8754 4.56207 38.3434C4.58007 38.5054 4.52607 38.6134 4.43607 38.5414C4.34607 38.4874 4.31007 38.3614 4.36407 38.2714C4.54407 37.9834 4.16607 38.0914 3.68007 38.4694C3.01407 38.9914 2.47407 40.2334 2.47407 41.2594C2.47407 41.9074 2.65407 42.4654 3.14007 43.4374C3.50007 44.1574 3.87807 44.6974 3.96807 44.6434C4.07607 44.5894 4.09407 44.6254 4.02207 44.7514C3.78807 45.1294 6.30807 48.4594 6.66807 48.2434C6.77607 48.1894 6.79407 48.2254 6.74007 48.3154C6.59607 48.5314 8.32407 50.2234 9.54807 51.0514C10.6281 51.7894 13.3641 53.0854 13.9041 53.1214C14.1381 53.1214 14.2821 53.1934 14.2461 53.2474C14.2101 53.3194 14.8581 53.5354 15.6681 53.7514C20.6181 55.0294 25.0101 54.6514 29.1861 52.5634C30.7341 51.7894 33.1101 50.0254 32.9481 49.7554C32.8941 49.6654 32.9121 49.6294 33.0201 49.6834C33.2361 49.8094 33.8301 49.2154 34.8561 47.7934C37.8981 43.5814 38.6181 38.0194 36.8181 32.4934C36.6021 31.8274 36.3501 31.3414 36.2601 31.3954C36.1521 31.4494 36.1341 31.4134 36.1881 31.3234C36.3681 31.0354 35.9541 29.9914 35.7201 30.1354C35.6301 30.1894 35.5941 30.1534 35.6661 30.0454C35.8281 29.7754 35.0361 28.2094 34.8021 28.3354C34.6941 28.3894 34.6581 28.3894 34.7301 28.2994C34.8741 28.1554 34.2441 26.9674 33.9201 26.7514C33.8301 26.6974 33.7941 26.6074 33.8121 26.5714C34.0281 26.3014 30.8421 22.4134 28.6281 20.2714C25.7121 17.4454 21.8961 14.5114 20.7441 14.1874C19.8981 13.9534 19.7001 13.9534 18.8541 14.2054ZM17.5401 15.7354C17.4681 15.7894 17.5221 15.9694 17.6481 16.1314C17.8461 16.3834 17.8281 16.3834 17.5581 16.1674C17.2701 15.9514 17.2701 15.6094 17.5401 15.6094C17.6121 15.6094 17.5941 15.6634 17.5401 15.7354ZM23.8401 16.7794C23.8401 16.9234 23.7681 16.9954 23.6781 16.9414C23.5881 16.8874 23.5701 16.7614 23.6241 16.6714C23.7861 16.4374 23.8401 16.4734 23.8401 16.7794ZM24.3981 17.3194C24.3441 17.3734 24.2361 17.2834 24.1821 17.1034C24.0741 16.8514 24.0921 16.8334 24.2721 16.9954C24.3981 17.1214 24.4521 17.2654 24.3981 17.3194ZM25.4061 17.7334C25.4601 17.8234 25.3881 17.8954 25.2441 17.8954C25.1001 17.8954 25.0281 17.8234 25.0821 17.7334C25.1361 17.6614 25.2081 17.5894 25.2441 17.5894C25.2801 17.5894 25.3521 17.6614 25.4061 17.7334ZM17.2521 18.4354C17.0361 18.7954 17.0001 18.6874 17.1621 18.2194C17.2341 18.0574 17.3241 17.9674 17.3601 18.0214C17.4141 18.0574 17.3601 18.2554 17.2521 18.4354ZM17.6841 19.2454C17.7741 19.1734 17.7741 19.2274 17.7021 19.3534C17.5941 19.5334 17.5041 19.5334 17.3061 19.3714C17.1621 19.2634 17.0541 19.1194 17.0541 19.0834C17.0541 19.0294 17.1621 19.0834 17.2881 19.1914C17.4321 19.2994 17.6121 19.3174 17.6841 19.2454ZM30.8421 22.9354C30.6621 23.1334 30.5001 23.0614 30.4461 22.7554C30.4101 22.4854 30.4461 22.4674 30.6621 22.6474C30.8061 22.7554 30.8781 22.8994 30.8421 22.9354ZM23.3181 24.1234C23.4621 24.3034 23.4261 24.3574 23.1201 24.3754C22.9041 24.3754 22.8321 24.3574 22.9581 24.3034C23.0661 24.2494 23.1381 24.1414 23.0661 24.0514C22.9221 23.7994 23.1021 23.8534 23.3181 24.1234ZM31.1661 24.2674C31.1121 24.3574 30.9861 24.3934 30.8961 24.3214C30.8061 24.2674 30.7701 24.1414 30.8421 24.0514C30.8961 23.9614 31.0221 23.9254 31.1121 23.9974C31.2021 24.0514 31.2381 24.1774 31.1661 24.2674ZM33.1461 26.0314C33.2001 26.1034 33.0741 26.1574 32.8941 26.1394C32.4081 26.1034 32.3001 25.9594 32.7141 25.9234C32.9121 25.9054 33.1101 25.9594 33.1461 26.0314ZM27.2961 28.8214C27.1881 28.9294 27.0441 28.9114 26.9181 28.7674C26.7201 28.5874 26.7561 28.5694 27.0441 28.6774C27.3321 28.7854 27.3681 28.7674 27.1881 28.5514C27.0621 28.4254 26.9541 28.2454 26.9541 28.1374C26.9541 28.0474 27.0621 28.1194 27.2061 28.3174C27.3681 28.5334 27.4041 28.7314 27.2961 28.8214ZM34.2081 28.4074C34.0641 28.5514 33.9741 28.5334 33.8841 28.3714C33.7941 28.2274 33.8121 28.1914 33.9381 28.2814C34.0641 28.3534 34.1541 28.3174 34.1541 28.1914C34.1541 28.0654 34.2081 28.0294 34.2801 28.0834C34.3521 28.1554 34.3161 28.2994 34.2081 28.4074ZM35.3601 31.8454C35.3061 31.9894 35.2521 31.9354 35.2521 31.7374C35.2341 31.5394 35.2881 31.4314 35.3421 31.5034C35.3961 31.5574 35.4141 31.7194 35.3601 31.8454ZM8.91807 39.8374C8.84607 39.8914 8.70207 39.7474 8.59407 39.5134C8.37807 39.1174 8.37807 39.1174 8.70207 39.4054C8.88207 39.5854 8.97207 39.7654 8.91807 39.8374ZM30.3021 43.1494C30.3021 43.3654 30.2301 43.4374 30.1401 43.3474C30.0501 43.2574 30.0321 43.0954 30.0861 42.9874C30.2661 42.7174 30.3021 42.7354 30.3021 43.1494ZM4.27407 43.9594C4.50807 44.2114 4.61607 44.4094 4.52607 44.4094C4.38207 44.3914 3.62607 43.5094 3.78807 43.5094C3.82407 43.5094 4.04007 43.7074 4.27407 43.9594ZM11.3661 44.1574C11.4201 44.3014 11.4021 44.3734 11.2941 44.3194C11.1861 44.2654 11.1141 44.1394 11.1141 44.0314C11.1141 43.7794 11.2401 43.8334 11.3661 44.1574ZM11.0241 44.9134C10.9701 44.9674 10.8261 44.9134 10.7001 44.7874C10.5381 44.6074 10.5561 44.5894 10.8081 44.6974C10.9881 44.7514 11.0781 44.8594 11.0241 44.9134ZM8.54007 49.7194C8.54007 49.8634 8.46807 49.9354 8.37807 49.8814C8.28807 49.8274 8.27007 49.7014 8.32407 49.6114C8.48607 49.3774 8.54007 49.4134 8.54007 49.7194ZM31.0401 50.9794C31.0401 51.1234 30.9681 51.1954 30.8781 51.1414C30.7881 51.0874 30.7701 50.9614 30.8241 50.8714C30.9861 50.6374 31.0401 50.6734 31.0401 50.9794ZM11.2941 51.2494C11.4381 51.3394 11.4921 51.4294 11.3841 51.4294C11.2941 51.4294 11.0781 51.3394 10.9341 51.2494C10.7901 51.1594 10.7541 51.0694 10.8441 51.0694C10.9521 51.0694 11.1501 51.1594 11.2941 51.2494ZM30.2841 51.5914C30.3381 51.6814 30.3201 51.8074 30.2301 51.8614C30.1401 51.9154 30.0681 51.8434 30.0681 51.6994C30.0681 51.3934 30.1221 51.3574 30.2841 51.5914Z" fill="#959BA4"/>
<path d="M37.0881 17.7154C36.4761 17.8414 35.6301 18.7774 35.4861 19.4974C35.2341 20.8114 36.3501 22.2694 37.6101 22.2694C40.1481 22.2694 41.0121 19.0474 38.7621 17.9494C38.0061 17.5894 37.8441 17.5714 37.0881 17.7154ZM36.4401 21.0994C36.4401 21.2434 36.3681 21.3154 36.2781 21.2614C36.1881 21.2074 36.1701 21.0814 36.2241 20.9914C36.3861 20.7574 36.4401 20.7934 36.4401 21.0994ZM38.4741 20.9014C38.4741 20.9374 38.3481 21.0634 38.2041 21.1894C37.9701 21.3874 37.9521 21.3694 38.0421 21.1174C38.1321 20.8654 38.4741 20.7034 38.4741 20.9014Z" fill="#959BA4"/>
<path d="M106.37 24.7714C106.424 30.2614 106.442 30.5494 106.802 31.0174C107.558 32.0434 108.044 32.2594 109.538 32.2594H110.924L111.032 30.2434L110.222 30.2794C109.7 30.2974 109.448 30.2434 109.52 30.1354C109.592 30.0274 109.52 29.9914 109.34 30.0634C109.178 30.1174 108.998 30.0814 108.926 29.9734C108.836 29.8474 108.89 29.8294 109.034 29.9194C109.214 30.0274 109.25 29.9914 109.16 29.7574C109.088 29.5774 109.034 27.0934 109.034 24.2314V19.0294H106.316L106.37 24.7714ZM108.314 30.8194C108.314 30.8554 108.134 30.9814 107.918 31.0894C107.522 31.2874 107.522 31.2694 107.846 31.0174C108.224 30.7114 108.314 30.6754 108.314 30.8194Z" fill="#959BA4"/>
<path d="M55.2861 19.9114C54.1161 20.2534 52.9821 20.9374 53.1621 21.2074C53.2161 21.2974 53.1621 21.3514 53.0361 21.3334C52.9101 21.2974 52.6581 21.6754 52.4601 22.2154C51.6861 24.3214 52.6941 26.0314 55.1241 26.7334C55.8261 26.9314 56.9781 27.2734 57.6801 27.4894C59.1921 27.9214 59.6781 28.4074 59.4261 29.2354C59.3541 29.5234 59.3001 29.7934 59.3181 29.8474C59.3361 29.9194 59.2461 29.9554 59.1201 29.9554C58.9941 29.9374 58.5441 30.0454 58.1121 30.1714C56.8341 30.5494 54.9441 30.1714 53.0181 29.1454C52.8201 29.0554 52.1181 30.5494 52.2261 30.8374C52.2801 30.9994 52.2441 31.0534 52.1541 30.9994C52.0461 30.9454 51.9741 30.9634 51.9741 31.0534C51.9741 31.4854 54.4221 32.2954 56.2041 32.4574C59.7141 32.7814 62.2341 31.1794 62.2341 28.6234C62.2341 27.0394 61.2081 25.9594 59.0841 25.3654C58.4001 25.1674 57.3201 24.8614 56.6901 24.6814C56.0781 24.5194 55.4841 24.2674 55.3761 24.1234C55.2681 23.9974 55.1241 23.9254 55.0521 23.9614C54.9981 24.0154 54.9441 23.6914 54.9441 23.2594C54.9441 22.8274 54.9801 22.4854 55.0341 22.5034C55.0881 22.5214 55.3581 22.3774 55.6461 22.1794C56.4381 21.6574 58.3821 21.7114 59.8221 22.3054L60.9381 22.7554L61.1181 22.1254C61.2261 21.7654 61.2621 21.4054 61.2081 21.3154C61.1541 21.2074 61.1901 21.1894 61.2801 21.2434C61.3881 21.3154 61.5141 21.1894 61.5681 20.9914C61.6401 20.7034 61.5321 20.5594 61.0461 20.3614C60.7041 20.2174 60.3261 20.1454 60.2181 20.2174C60.1101 20.2894 60.0741 20.2714 60.1281 20.1634C60.2721 19.9294 58.5081 19.5694 57.3021 19.5874C56.7981 19.5874 55.8981 19.7314 55.2861 19.9114ZM55.2861 20.2534C55.3401 20.3434 55.2681 20.4154 55.1241 20.4154C54.9801 20.4154 54.9081 20.3434 54.9621 20.2534C55.0161 20.1814 55.0881 20.1094 55.1241 20.1094C55.1601 20.1094 55.2321 20.1814 55.2861 20.2534ZM53.4501 25.0594C53.4501 25.1494 53.3601 25.2394 53.2341 25.2574C53.1081 25.2934 53.1261 25.2754 53.2521 25.2034C53.3961 25.1314 53.3781 25.0594 53.2161 24.9334C53.0181 24.7894 53.0181 24.7714 53.1981 24.8254C53.3421 24.8614 53.4501 24.9694 53.4501 25.0594ZM59.3001 25.9774C59.2461 26.0314 59.0841 26.0494 58.9581 25.9954C58.8141 25.9414 58.8681 25.8874 59.0661 25.8874C59.2641 25.8694 59.3721 25.9234 59.3001 25.9774ZM53.7741 30.0994C53.6481 30.2434 53.4681 30.3694 53.3601 30.3694C53.2521 30.3694 53.3241 30.2434 53.5221 30.0994C53.9721 29.7574 54.0621 29.7574 53.7741 30.0994Z" fill="#959BA4"/>
<path d="M98.8101 25.3654C98.8641 29.7214 98.9001 30.1534 99.2421 30.8194C99.7461 31.8094 100.826 32.3494 102.302 32.3494C103.58 32.3494 104.606 32.0614 104.462 31.7194C104.426 31.5934 104.282 31.1434 104.156 30.7474C103.976 30.1714 103.868 30.0274 103.652 30.1174C102.878 30.4414 102.392 30.4054 101.942 29.9554C101.492 29.5054 101.474 29.4154 101.474 27.2194V24.9694H103.814V22.9894H101.474V20.6494H98.7561L98.8101 25.3654Z" fill="#959BA4"/>
<path d="M67.6341 22.8094C67.6341 22.8994 67.5261 22.9354 67.3821 22.8814C66.6981 22.6114 64.0701 24.5194 64.3041 25.0954C64.3401 25.2394 64.3221 25.3114 64.2321 25.2574C63.9261 25.0594 63.5841 26.3374 63.5841 27.5794C63.6021 28.6594 63.6921 29.0014 64.1421 29.8294C64.7361 30.9094 65.9241 31.8454 67.0581 32.1694C68.0481 32.4394 69.7941 32.3854 70.7841 32.0614C71.5761 31.7734 73.0341 30.5854 73.0341 30.2074C73.0341 30.1174 72.5841 29.7934 72.0441 29.5054L71.0541 28.9654L70.4241 29.5954C69.8121 30.2074 69.7581 30.2254 68.6781 30.1534C67.6881 30.0814 67.5261 30.0094 66.9861 29.4334C66.0141 28.3714 65.9421 26.7694 66.8241 25.7254C67.0581 25.4374 67.2381 25.1674 67.1841 25.1314C67.1481 25.0774 67.2561 25.0234 67.4181 25.0054C67.5801 24.9874 68.0661 24.9154 68.4981 24.8614C69.3981 24.7354 70.1901 25.0054 70.6761 25.6174L71.0181 26.0494L72.0261 25.5634C72.5661 25.2754 73.0161 24.9694 73.0341 24.8794C73.0521 24.3394 70.7481 22.6474 70.3341 22.8994C70.2441 22.9534 70.1361 22.9174 70.0641 22.8094C69.9201 22.5754 67.6341 22.5754 67.6341 22.8094ZM65.7441 23.8894C65.3481 24.3394 65.5821 24.3574 66.0861 23.9254C66.4641 23.6194 66.4641 23.6194 66.1401 23.9974C65.9781 24.1954 65.8881 24.4294 65.9601 24.5194C66.0501 24.5914 65.9241 24.5554 65.6901 24.4474C65.2761 24.2314 65.2761 24.2134 65.5821 23.8714C65.7441 23.6914 65.9241 23.5294 65.9781 23.5294C66.0321 23.5294 65.9241 23.6914 65.7441 23.8894ZM71.9721 24.3754C71.9541 24.4474 71.8821 24.5374 71.7741 24.5374C71.3601 24.5914 71.3421 24.6274 71.5941 24.7894C71.8281 24.9514 71.8281 24.9694 71.5941 24.9694C71.3601 24.9694 71.3601 24.9874 71.5941 25.1674C71.8281 25.3294 71.8281 25.3474 71.5941 25.2754C71.2521 25.1854 71.2341 24.7894 71.5581 24.3754C71.8281 24.0694 72.0081 24.0694 71.9721 24.3754ZM66.3741 25.2214C66.3741 25.2754 66.3021 25.3654 66.1941 25.4194C66.1041 25.4734 66.0141 25.4374 66.0141 25.3474C66.0141 25.2394 66.1041 25.1494 66.1941 25.1494C66.3021 25.1494 66.3741 25.1854 66.3741 25.2214ZM64.4841 26.0494C64.5381 26.1574 64.4661 26.1754 64.3221 26.1214C63.9981 25.9954 63.9441 25.8694 64.1961 25.8694C64.3041 25.8694 64.4301 25.9414 64.4841 26.0494ZM65.7621 28.5514C65.6001 28.7314 65.5281 28.9294 65.6001 29.0194C65.6901 29.0914 65.6361 29.1094 65.5101 29.0374C65.3121 28.9114 65.3301 28.8394 65.5461 28.5874C65.7081 28.4074 65.7801 28.2094 65.7081 28.1194C65.6181 28.0474 65.6721 28.0294 65.7981 28.1014C65.9961 28.2274 65.9781 28.2994 65.7621 28.5514ZM64.4481 29.4154C64.3941 29.5414 64.3401 29.6494 64.3041 29.6494C64.2681 29.6494 64.2141 29.5414 64.1601 29.4154C64.1061 29.2714 64.1781 29.1634 64.3041 29.1634C64.4301 29.1634 64.5021 29.2714 64.4481 29.4154ZM72.0441 30.7114C72.0981 30.8014 72.0441 30.9454 71.9361 31.0174C71.7921 31.1074 71.7741 31.0714 71.8641 30.9094C71.9721 30.7294 71.9361 30.6934 71.7021 30.7834C71.5221 30.8554 71.4321 30.8374 71.5041 30.7294C71.6481 30.4954 71.9001 30.4954 72.0441 30.7114ZM66.2841 30.9094C66.3381 31.0174 66.2661 31.0354 66.1221 30.9814C65.7981 30.8554 65.7441 30.7294 65.9961 30.7294C66.1041 30.7294 66.2301 30.8014 66.2841 30.9094ZM65.9241 31.2334C65.8701 31.2874 65.7261 31.2334 65.6001 31.1074C65.4381 30.9274 65.4561 30.9094 65.7081 31.0174C65.8881 31.0714 65.9781 31.1794 65.9241 31.2334Z" fill="#959BA4"/>
<path d="M77.3181 22.9354C75.6081 23.5114 74.3121 25.1314 74.0421 27.0214C73.9521 27.5254 73.9701 27.8494 74.0601 27.7954C74.1501 27.7414 74.2041 27.9214 74.1501 28.1914C74.1141 28.4614 74.2041 29.0014 74.3661 29.3614C74.6181 29.9914 74.6901 30.0274 74.9781 29.8114C75.2481 29.5774 75.2661 29.5954 75.0501 29.8654C74.7261 30.2794 74.9781 30.7114 75.8961 31.3414C76.9401 32.0794 77.8221 32.3314 79.2441 32.3314C80.5401 32.3314 81.4941 32.0974 82.3221 31.5394C82.7001 31.2874 82.7541 31.1974 82.5561 31.0534C82.3761 30.9274 82.4121 30.9094 82.7001 30.9994C83.1321 31.1074 83.6181 30.5494 84.1401 29.3434C84.5361 28.3714 84.5181 26.4994 84.0681 25.5094C83.4741 24.1594 81.4581 22.6294 80.5581 22.8634C80.3781 22.9174 80.2701 22.8814 80.3421 22.7914C80.3961 22.7014 80.2701 22.6294 80.0721 22.6294C79.8921 22.6294 79.6761 22.7374 79.6401 22.8454C79.5681 23.0254 79.5321 23.0254 79.5321 22.8454C79.5141 22.5394 78.3621 22.5934 77.3181 22.9354ZM82.2861 23.8174C82.3761 24.0694 82.3581 24.0874 82.1241 23.8894C81.8181 23.6374 81.7821 23.5294 82.0161 23.5294C82.1061 23.5294 82.2321 23.6554 82.2861 23.8174ZM82.7001 24.1774C82.6461 24.2494 82.7721 24.4474 82.9881 24.6454L83.3841 24.9874L82.8981 24.6814C82.4661 24.4294 82.3581 24.0694 82.7001 24.0694C82.7721 24.0694 82.7721 24.1234 82.7001 24.1774ZM76.7241 24.6094C76.6701 24.6994 76.5081 24.7894 76.4001 24.7894C76.2741 24.7894 76.2921 24.7174 76.4541 24.6094C76.7961 24.3934 76.8681 24.3934 76.7241 24.6094ZM80.6481 25.2214C80.9901 25.4554 81.3321 25.6174 81.3861 25.5814C81.4401 25.5454 81.4581 25.5454 81.4221 25.6174C81.3861 25.6714 81.4761 26.0854 81.6021 26.5354C81.8901 27.4714 81.7821 28.4254 81.3501 29.1094C81.1881 29.3614 81.0801 29.6134 81.0981 29.6854C81.1161 29.7754 81.0801 29.8114 80.9901 29.7934C80.9181 29.7754 80.6301 29.8654 80.3601 29.9734C80.0721 30.0994 79.4781 30.1894 79.0281 30.1894C78.3261 30.1894 78.1281 30.0994 77.5341 29.5054C75.2481 27.2374 78.0201 23.4394 80.6481 25.2214ZM81.2601 25.0594C81.2601 25.2034 81.1881 25.2754 81.0981 25.2214C81.0081 25.1674 80.9901 25.0414 81.0441 24.9514C81.2061 24.7174 81.2601 24.7534 81.2601 25.0594ZM82.6461 29.2174C82.7001 29.3614 82.6821 29.4334 82.5741 29.3794C82.4661 29.3254 82.3941 29.1994 82.3941 29.0914C82.3941 28.8394 82.5201 28.8934 82.6461 29.2174ZM77.1201 30.2794C77.1201 30.4234 77.0481 30.4954 76.9581 30.4414C76.8681 30.3874 76.8501 30.2614 76.9041 30.1714C77.0661 29.9374 77.1201 29.9734 77.1201 30.2794ZM76.0581 30.9994C76.0041 31.0534 75.8961 30.9634 75.8421 30.7834C75.7341 30.5314 75.7521 30.5134 75.9321 30.6754C76.0581 30.8014 76.1121 30.9454 76.0581 30.9994Z" fill="#959BA4"/>
<path d="M114.83 22.8814C113.714 23.2414 112.868 23.9614 112.31 25.0234C111.896 25.8334 111.824 26.1754 111.824 27.5614C111.824 28.6954 111.896 29.1994 112.058 29.2534C112.166 29.2894 112.238 29.3974 112.184 29.4694C112.058 29.6674 112.796 30.8554 113.282 31.3054C114.794 32.6374 117.872 32.6914 119.24 31.4134L119.654 31.0354V32.3494H122.174V22.8094H120.824C119.51 22.8094 119.474 22.8274 119.474 23.2594C119.474 23.8174 119.42 23.8174 118.646 23.2414C117.89 22.6474 116.054 22.4854 114.83 22.8814ZM113.894 24.0694C114.002 24.2674 114.038 24.4294 114.002 24.4294C113.948 24.4294 113.822 24.2674 113.714 24.0694C113.606 23.8714 113.57 23.7094 113.606 23.7094C113.66 23.7094 113.786 23.8714 113.894 24.0694ZM119.42 24.3394C119.42 24.4834 119.348 24.5554 119.258 24.5014C119.168 24.4474 119.15 24.3214 119.204 24.2314C119.366 23.9974 119.42 24.0334 119.42 24.3394ZM118.124 25.0414C118.322 25.1674 118.646 25.3114 118.826 25.3474C119.186 25.4194 119.222 25.5094 119.402 27.1294C119.546 28.3894 119.186 29.3254 118.358 29.8294C117.602 30.2974 116.324 30.2974 115.586 29.8474C114.002 28.8754 114.074 25.9954 115.712 25.1134C116.432 24.7354 117.638 24.6814 118.124 25.0414Z" fill="#959BA4"/>
<path d="M127.25 22.8814C126.926 22.9894 126.71 23.1514 126.8 23.2414C126.872 23.3314 126.854 23.3494 126.728 23.2774C126.386 23.0794 126.026 23.3494 126.332 23.5654C126.512 23.6914 126.476 23.7094 126.206 23.6374C125.63 23.4754 124.316 25.0414 124.622 25.5454C124.694 25.6714 124.676 25.6894 124.55 25.6174C124.28 25.4554 124.082 26.5894 124.208 27.7594C124.442 30.1174 126.368 31.8094 128.816 31.8094C129.896 31.8094 131.048 31.4854 130.886 31.2334C130.796 31.1074 130.85 31.0894 130.976 31.1794C131.12 31.2514 131.354 31.1614 131.552 30.9274C131.984 30.4594 132.308 30.4414 132.182 30.8554C132.146 31.0354 132.038 31.4674 131.984 31.8094C131.912 32.1514 131.768 32.5294 131.678 32.6554C131.588 32.7814 131.57 32.9794 131.642 33.1054C131.714 33.2314 131.696 33.2854 131.624 33.1954C131.534 33.1234 131.264 33.2134 131.012 33.3754C130.652 33.6274 130.184 33.6994 129.014 33.6994C127.718 33.6994 127.358 33.6274 126.584 33.2314L125.684 32.7454L125.18 33.6634C124.586 34.7614 124.658 34.8694 126.224 35.4454C127.502 35.8954 130.418 36.0034 131.696 35.6254C132.668 35.3194 134.054 33.9694 134.396 32.9794C134.576 32.4754 134.666 30.8734 134.72 27.5254L134.81 22.8094H132.254V23.4214C132.254 23.7634 132.164 24.1054 132.038 24.1774C131.93 24.2494 131.894 24.2314 131.948 24.1054C132.11 23.8714 131.12 23.0254 130.526 22.8814C130.274 22.8094 129.968 22.8634 129.77 23.0074C129.5 23.2414 129.482 23.2234 129.716 22.9354C129.932 22.6474 129.878 22.6294 128.906 22.6474C128.312 22.6474 127.574 22.7554 127.25 22.8814ZM132.722 23.7994C132.704 23.9434 132.632 24.1054 132.578 24.1774C132.488 24.2494 132.506 23.8894 132.596 23.5654C132.65 23.4034 132.758 23.5834 132.722 23.7994ZM125.864 24.2314C125.918 24.3214 125.9 24.4474 125.81 24.5014C125.72 24.5554 125.648 24.4834 125.648 24.3394C125.648 24.0334 125.702 23.9974 125.864 24.2314ZM132.74 24.6994C132.74 24.8434 132.668 24.9694 132.578 24.9694C132.398 24.9694 132.38 24.7174 132.56 24.5554C132.722 24.3754 132.74 24.3934 132.74 24.6994ZM128.456 24.9514C129.248 24.6814 130.49 24.8434 131.138 25.2934C131.426 25.5094 131.714 25.6174 131.786 25.5634C131.858 25.4914 131.858 25.5634 131.804 25.7254C131.732 25.8874 131.804 26.1214 131.93 26.2474C132.272 26.5534 132.074 27.9934 131.624 28.6774C131.426 28.9654 131.282 29.2354 131.3 29.2894C131.318 29.3434 131.192 29.3974 131.03 29.4154C130.868 29.4334 130.22 29.5234 129.608 29.5954C128.978 29.6854 128.51 29.7214 128.564 29.6854C128.618 29.6314 128.438 29.4874 128.186 29.3434C127.79 29.1454 127.646 29.1454 127.412 29.3254C127.16 29.5234 127.16 29.5234 127.358 29.2534C127.502 29.0734 127.52 28.9114 127.412 28.8574C127.322 28.7854 127.196 28.8214 127.124 28.9294C126.98 29.1634 126.674 28.9834 126.674 28.6954C126.674 28.5514 126.728 28.5514 126.836 28.7314C126.926 28.8754 127.034 28.8934 127.106 28.7854C127.232 28.5694 127.052 27.9934 126.872 28.1014C126.8 28.1554 126.818 27.7234 126.89 27.1654C126.98 26.6074 127.052 25.9954 127.07 25.8334C127.088 25.6714 127.142 25.5634 127.196 25.5994C127.232 25.6534 127.376 25.5994 127.52 25.4914C127.718 25.3114 127.718 25.2214 127.538 24.9874C127.34 24.7354 127.34 24.7354 127.592 24.9154C127.808 25.0954 128.024 25.0954 128.456 24.9514ZM132.56 26.1754C132.56 26.3374 132.488 26.3554 132.308 26.2114C132.182 26.1034 132.074 25.9954 132.074 25.9594C132.074 25.9414 132.182 25.9234 132.308 25.9234C132.452 25.9234 132.56 26.0314 132.56 26.1754ZM125.594 29.8294C125.594 29.9194 125.468 30.0094 125.306 30.0094C125.162 30.0094 125.09 29.9194 125.144 29.8294C125.198 29.7214 125.324 29.6494 125.432 29.6494C125.522 29.6494 125.594 29.7214 125.594 29.8294ZM130.994 29.8294C131.138 29.9194 131.192 30.0094 131.084 30.0094C130.994 30.0094 130.778 29.9194 130.634 29.8294C130.49 29.7394 130.454 29.6494 130.544 29.6494C130.652 29.6494 130.85 29.7394 130.994 29.8294ZM128.384 30.1894C128.33 30.2794 128.168 30.3694 128.06 30.3694C127.934 30.3694 127.952 30.2974 128.114 30.1894C128.456 29.9734 128.528 29.9734 128.384 30.1894ZM130.724 30.4234C130.526 30.5854 130.454 30.7654 130.544 30.9274C130.652 31.1254 130.634 31.1434 130.454 30.9634C130.256 30.7834 130.256 30.6934 130.454 30.4594C130.58 30.3154 130.76 30.1894 130.868 30.1894C130.976 30.1894 130.922 30.2974 130.724 30.4234ZM127.16 30.8194C127.16 30.9634 127.088 31.0354 126.998 30.9814C126.908 30.9274 126.89 30.8014 126.944 30.7114C127.106 30.4774 127.16 30.5134 127.16 30.8194ZM132.956 30.9634C132.956 31.1254 132.92 31.1074 132.848 30.9454C132.812 30.8374 132.668 30.7834 132.578 30.8374C132.452 30.9094 132.434 30.8734 132.506 30.7474C132.668 30.5134 132.974 30.6574 132.956 30.9634ZM132.92 31.7194C132.92 31.8634 132.848 31.9354 132.758 31.8814C132.668 31.8274 132.65 31.7014 132.704 31.6114C132.866 31.3774 132.92 31.4134 132.92 31.7194Z" fill="#959BA4"/>
<path d="M140.354 22.7914C139.562 23.0434 138.482 23.6554 138.086 24.1054C137.474 24.8074 137.096 25.5094 137.222 25.7254C137.294 25.8334 137.276 25.8694 137.168 25.8154C136.7 25.5274 136.628 27.9394 137.042 29.1814C137.402 30.2074 138.752 31.7374 139.166 31.5754C139.328 31.5034 139.49 31.5574 139.562 31.6654C139.652 31.7914 139.598 31.8094 139.436 31.7194C139.238 31.6114 139.238 31.6294 139.4 31.8094C139.508 31.9354 139.868 32.0434 140.156 32.0614C140.462 32.0794 140.714 32.1514 140.714 32.2414C140.714 32.3134 141.47 32.3494 142.388 32.3134C143.99 32.2234 145.124 31.9174 144.926 31.6114C144.872 31.5214 144.944 31.5034 145.088 31.5394C145.394 31.6654 146.006 30.9994 145.844 30.7294C145.79 30.6394 145.646 30.5854 145.556 30.6394C145.466 30.6934 145.448 30.6394 145.484 30.5134C145.538 30.3694 145.394 30.0814 145.16 29.8654L144.728 29.4514L144.116 29.7934C142.766 30.5674 140.984 30.4414 140.138 29.4874C139.886 29.1994 139.616 28.9834 139.562 29.0374C139.508 29.0734 139.526 29.0194 139.598 28.9294C139.688 28.8214 141.326 28.4254 143.252 28.0474C145.394 27.6334 146.744 27.2734 146.726 27.1474C146.708 27.0394 146.69 26.7334 146.69 26.4814C146.672 26.2294 146.582 26.0674 146.492 26.1394C146.402 26.1934 146.258 26.1394 146.186 26.0314C146.114 25.8874 146.132 25.8694 146.258 25.9414C146.618 26.1574 146.492 25.5454 146.024 24.8074C145.448 23.8894 144.548 23.2054 143.486 22.8814C142.586 22.6114 141.092 22.5754 140.354 22.7914ZM143.108 24.9154C143.432 25.0774 143.756 25.2034 143.828 25.1854C143.918 25.1674 143.936 25.2214 143.864 25.3294C143.702 25.5994 144.116 26.0674 144.386 25.9234C144.494 25.8694 144.458 25.9414 144.314 26.1034C144.17 26.2474 143.162 26.5534 142.064 26.7694C140.984 26.9854 139.904 27.2014 139.688 27.2554C139.31 27.3454 139.292 27.3094 139.4 26.7514C139.454 26.4094 139.652 25.9234 139.832 25.6714C140.012 25.4194 140.12 25.1494 140.084 25.0774C140.03 25.0234 140.048 25.0054 140.102 25.0414C140.156 25.0774 140.408 25.0054 140.678 24.8614C141.344 24.5194 142.406 24.5374 143.108 24.9154ZM139.004 25.6894C139.022 25.8694 138.968 25.9954 138.896 25.9414C138.824 25.9054 138.77 25.7074 138.788 25.5094C138.824 25.0954 138.968 25.2034 139.004 25.6894ZM142.244 27.3094C142.19 27.3994 142.028 27.4894 141.92 27.4894C141.794 27.4894 141.812 27.4174 141.974 27.3094C142.316 27.0934 142.388 27.0934 142.244 27.3094ZM142.964 27.3094C142.91 27.3994 142.748 27.4894 142.64 27.4894C142.514 27.4894 142.532 27.4174 142.694 27.3094C143.036 27.0934 143.108 27.0934 142.964 27.3094ZM140.264 27.8314C140.318 27.9214 140.3 28.0474 140.21 28.1014C140.12 28.1554 140.048 28.0834 140.048 27.9394C140.048 27.6334 140.102 27.5974 140.264 27.8314ZM139.292 28.2634C139.148 28.4074 139.04 28.3894 138.878 28.2274C138.68 28.0474 138.716 28.0294 138.986 28.1374C139.256 28.2454 139.292 28.2094 139.184 28.0294C139.076 27.8674 139.112 27.8314 139.256 27.9394C139.418 28.0294 139.436 28.1194 139.292 28.2634ZM140.264 30.5494C140.12 30.7114 140.03 30.8914 140.084 30.9454C140.138 30.9814 140.048 31.0354 139.904 31.0354C139.76 31.0354 139.706 30.9454 139.76 30.8554C139.832 30.7294 139.742 30.7114 139.526 30.7834C139.256 30.8914 139.274 30.8374 139.616 30.5854C140.174 30.1354 140.66 30.1174 140.264 30.5494ZM145.142 30.5134C145.142 30.6934 144.998 30.8374 144.818 30.8374C144.53 30.8374 144.53 30.8014 144.8 30.5134C144.962 30.3334 145.106 30.1894 145.106 30.1894C145.124 30.1894 145.142 30.3334 145.142 30.5134ZM139.04 30.9994C139.04 31.1434 138.968 31.2154 138.878 31.1614C138.788 31.1074 138.77 30.9814 138.824 30.8914C138.986 30.6574 139.04 30.6934 139.04 30.9994Z" fill="#959BA4"/>
<path d="M86.5341 25.9954C86.5341 27.7594 86.6241 29.5054 86.7141 29.8654C87.1461 31.3954 88.5501 32.3494 90.4041 32.3494C91.4661 32.3494 92.8341 31.8994 93.0861 31.4674C93.3201 31.0894 93.5541 31.2694 93.5541 31.8094V32.3494H96.0741V22.8094H93.3741V25.6354C93.3741 28.1734 93.3381 28.5514 93.0141 29.0734C92.4921 29.9194 91.5561 30.2794 90.6021 30.0094C90.1881 29.9014 89.7561 29.7934 89.6301 29.7574C89.5041 29.7394 89.3061 29.6134 89.1801 29.4694C89.0001 29.2534 89.0181 29.2534 89.2881 29.4514C89.6301 29.7214 89.7021 29.4694 89.3781 29.1454C89.2161 28.9834 89.1261 27.9934 89.0721 25.8694L89.0181 22.8094H86.5341V25.9954ZM93.0501 29.7034C92.8341 29.9374 92.7081 30.1894 92.7801 30.2794C92.8701 30.3514 92.8161 30.3694 92.6901 30.2974C92.4921 30.1894 92.5461 30.0634 92.8521 29.7214C93.0681 29.4874 93.3021 29.2894 93.3381 29.2894C93.3921 29.2894 93.2661 29.4694 93.0501 29.7034ZM92.9241 30.7114C92.9781 30.8014 92.9601 30.9274 92.8701 30.9814C92.7801 31.0354 92.7081 30.9634 92.7081 30.8194C92.7081 30.5134 92.7621 30.4774 92.9241 30.7114Z" fill="#959BA4"/>
<path d="M1.93407 32.6014C1.68207 32.7274 1.50207 32.9254 1.53807 33.0514C1.55607 33.1774 1.50207 33.2314 1.41207 33.1594C1.17807 33.0154 0.674072 34.0054 0.674072 34.5994C0.674072 35.8054 1.57407 36.7054 2.90607 36.7954C3.73407 36.8494 3.95007 36.7954 4.41807 36.3994C5.46207 35.5174 5.58807 34.1134 4.68807 33.0514C4.32807 32.6194 4.18407 32.5654 3.96807 32.7274C3.77007 32.9074 3.73407 32.9074 3.77007 32.6914C3.84207 32.3674 2.52807 32.2774 1.93407 32.6014ZM3.46407 32.7094C3.41007 32.7994 3.21207 32.8894 3.05007 32.8714C2.79807 32.8714 2.81607 32.8354 3.10407 32.7094C3.59007 32.5114 3.59007 32.5114 3.46407 32.7094ZM4.45407 35.9494C4.45407 36.0394 4.36407 36.1294 4.25607 36.1294C4.16607 36.1294 4.13007 36.0394 4.18407 35.9494C4.23807 35.8414 4.32807 35.7694 4.38207 35.7694C4.41807 35.7694 4.45407 35.8414 4.45407 35.9494Z" fill="#959BA4"/>
</svg>
