<svg width="180" height="52" viewBox="0 0 180 52" fill="none" xmlns="http://www.w3.org/2000/svg">
<path d="M3.53076 35.6566L37.3593 0.0667114L4.56891 24.6739C5.22459 17.349 11.3346 11.5989 18.7881 11.5539L23.5129 8.39126C22.0344 7.99914 20.482 7.79022 18.8781 7.79022C8.87261 7.79022 0.763408 15.9348 0.763408 25.9853C0.763408 26.4931 0.782693 26.9913 0.824476 27.4863C1.06553 30.4722 2.02655 33.2524 3.53076 35.6566Z" fill="#959BA4"/>
<path d="M34.2253 16.3137L0.400024 51.9067L33.1872 27.2963C32.5283 34.6534 26.3733 40.4195 18.8779 40.4195C18.8651 40.4195 18.849 40.4195 18.8362 40.4195L14.51 43.6497C15.9113 43.9968 17.3737 44.1832 18.8779 44.1832C28.8835 44.1832 36.9959 36.0355 36.9959 25.9849C36.9959 25.4803 36.9734 24.9789 36.9348 24.4839C36.6905 21.5013 35.7295 18.7178 34.2253 16.3137Z" fill="#959BA4"/>
<path d="M54.8832 33.0433C53.8708 33.0433 52.8937 32.9051 51.9519 32.6319C51.007 32.3587 50.2549 32.0019 49.6892 31.5648L50.692 29.3406C51.232 29.7456 51.878 30.0702 52.6333 30.3177C53.3854 30.5588 54.1407 30.6777 54.8961 30.6777C55.7349 30.6777 56.352 30.5556 56.7474 30.3049C57.1491 30.0574 57.3516 29.7263 57.3516 29.3149C57.3516 29.0064 57.2295 28.7557 56.9917 28.5564C56.7602 28.3507 56.4581 28.19 56.0917 28.0679C55.7221 27.9489 55.2207 27.8172 54.5875 27.6693C53.6104 27.4379 52.8133 27.2065 52.1962 26.9751C51.5791 26.7436 51.0455 26.3772 50.602 25.8694C50.1649 25.3551 49.9463 24.6737 49.9463 23.8252C49.9463 23.0892 50.1424 22.4207 50.5377 21.8196C50.9395 21.2122 51.5437 20.7332 52.3505 20.3797C53.154 20.0294 54.144 19.8526 55.3203 19.8526C56.1238 19.8526 56.9177 19.9522 57.6988 20.1483C58.4766 20.3379 59.158 20.6175 59.7429 20.9839L58.8301 23.221C57.6538 22.5524 56.4774 22.2182 55.2946 22.2182C54.4718 22.2182 53.8611 22.3564 53.469 22.6296C53.0737 22.8963 52.8776 23.2467 52.8776 23.6838C52.8776 24.1209 53.1026 24.4488 53.559 24.6609C54.0122 24.8666 54.7064 25.0723 55.6417 25.278C56.6092 25.5094 57.4031 25.7408 58.0202 25.9722C58.6437 26.2037 59.1772 26.5701 59.6144 27.065C60.0579 27.5632 60.2829 28.2414 60.2829 29.0964C60.2829 29.826 60.0772 30.4913 59.6658 31.0891C59.2608 31.6902 58.6534 32.1658 57.8402 32.5162C57.0334 32.8665 56.0467 33.0433 54.8832 33.0433Z" fill="#959BA4"/>
<path d="M77.6077 20.0687V32.8223H74.6635V27.5897H68.8653V32.8223H65.9212V20.0687H68.8653V25.0956H74.6635V20.0687H77.6077Z" fill="#959BA4"/>
<path d="M90.3679 28.3097V32.8223H87.411V28.2711L82.4741 20.0687H85.6111L89.018 25.7384L92.425 20.0687H95.3177L90.3679 28.3097Z" fill="#959BA4"/>
<path d="M105.685 20.0687C106.817 20.0687 107.797 20.2583 108.629 20.6344C109.459 21.0137 110.098 21.5472 110.545 22.2414C110.998 22.9293 111.226 23.7457 111.226 24.697C111.226 25.6323 110.998 26.4519 110.545 27.1526C110.098 27.8469 109.459 28.3836 108.629 28.7597C107.797 29.1293 106.817 29.3125 105.685 29.3125H103.114V32.8223H100.17V20.0687H105.685ZM105.518 26.8955C106.408 26.8955 107.08 26.7091 107.537 26.3298C107.999 25.9441 108.231 25.4009 108.231 24.697C108.231 23.9771 107.999 23.4307 107.537 23.0514C107.08 22.6657 106.408 22.4729 105.518 22.4729H103.114V26.8955H105.518Z" fill="#959BA4"/>
<path d="M121.146 22.4343V25.8027H127.047V28.1811H121.146V32.8223H118.202V20.0687H127.831V22.4343H121.146Z" fill="#959BA4"/>
<path d="M139.621 33.0433C138.3 33.0433 137.108 32.7604 136.047 32.1948C134.983 31.6227 134.148 30.832 133.54 29.8292C132.939 28.8264 132.64 27.7014 132.64 26.4479C132.64 25.1976 132.939 24.0695 133.54 23.0667C134.148 22.0639 134.983 21.2796 136.047 20.714C137.108 20.1419 138.3 19.8526 139.621 19.8526C140.939 19.8526 142.128 20.1419 143.183 20.714C144.243 21.2796 145.079 22.0639 145.69 23.0667C146.297 24.0695 146.602 25.1976 146.602 26.4479C146.602 27.7014 146.297 28.8264 145.69 29.8292C145.079 30.832 144.243 31.6227 143.183 32.1948C142.128 32.7604 140.939 33.0433 139.621 33.0433ZM139.621 30.5234C140.373 30.5234 141.055 30.3531 141.665 30.0092C142.273 29.6685 142.749 29.1864 143.093 28.5692C143.433 27.9457 143.607 27.2386 143.607 26.4479C143.607 25.6605 143.433 24.9566 143.093 24.3395C142.749 23.7159 142.273 23.2306 141.665 22.8867C141.055 22.546 140.373 22.3724 139.621 22.3724C138.866 22.3724 138.185 22.546 137.577 22.8867C136.966 23.2306 136.491 23.7159 136.15 24.3395C135.806 24.9566 135.636 25.6605 135.636 26.4479C135.636 27.2386 135.806 27.9457 136.15 28.5692C136.491 29.1864 136.966 29.6685 137.577 30.0092C138.185 30.3531 138.866 30.5234 139.621 30.5234Z" fill="#959BA4"/>
<path d="M160.558 32.8223L158.089 29.2739H155.377V32.8223H152.432V20.0687H157.948C159.079 20.0687 160.06 20.2583 160.892 20.6344C161.721 21.0137 162.361 21.5472 162.808 22.2414C163.261 22.9293 163.489 23.7457 163.489 24.697C163.489 25.6484 163.258 26.468 162.795 27.1526C162.338 27.8404 161.696 28.3611 160.866 28.7211L163.72 32.8223H160.558ZM160.493 24.697C160.493 23.9771 160.262 23.4307 159.799 23.0514C159.343 22.6657 158.671 22.4729 157.781 22.4729H155.377V26.9212H157.781C158.671 26.9212 159.343 26.7283 159.799 26.3427C160.262 25.9505 160.493 25.4009 160.493 24.697Z" fill="#959BA4"/>
<path d="M172.064 22.4729H167.988V20.0687H179.096V22.4729H175.021V32.8223H172.064V22.4729Z" fill="#959BA4"/>
</svg>
