<svg width="465" height="465" viewBox="0 0 465 465" fill="none" xmlns="http://www.w3.org/2000/svg">
<circle cx="22.3928" cy="22.3928" r="22.3928" transform="matrix(-1 0 0 1 45.0164 210.126)" fill="url(#paint0_linear_179_8867)"/>
<circle cx="22.3928" cy="22.3928" r="22.3928" transform="matrix(-1 0 0 1 45.2972 199.173)" fill="url(#paint1_linear_179_8867)"/>
<circle cx="22.3928" cy="22.3928" r="22.3928" transform="matrix(-1 0 0 1 46.1463 188.212)" fill="url(#paint2_linear_179_8867)"/>
<circle cx="22.3928" cy="22.3928" r="22.3928" transform="matrix(-1 0 0 1 47.566 177.311)" fill="url(#paint3_linear_179_8867)"/>
<circle cx="22.3928" cy="22.3928" r="22.3928" transform="matrix(-1 0 0 1 49.5555 166.5)" fill="url(#paint4_linear_179_8867)"/>
<circle cx="22.3928" cy="22.3928" r="22.3928" transform="matrix(-1 0 0 1 52.1115 155.808)" fill="url(#paint5_linear_179_8867)"/>
<circle cx="22.3928" cy="22.3928" r="22.3928" transform="matrix(-1 0 0 1 55.2276 145.265)" fill="url(#paint6_linear_179_8867)"/>
<circle cx="22.3928" cy="22.3928" r="22.3928" transform="matrix(-1 0 0 1 58.896 134.902)" fill="url(#paint7_linear_179_8867)"/>
<circle cx="22.3928" cy="22.3928" r="22.3928" transform="matrix(-1 0 0 1 63.1054 124.746)" fill="url(#paint8_linear_179_8867)"/>
<circle cx="22.3928" cy="22.3928" r="22.3928" transform="matrix(-1 0 0 1 67.8436 114.826)" fill="url(#paint9_linear_179_8867)"/>
<circle cx="22.3928" cy="22.3928" r="22.3928" transform="matrix(-1 0 0 1 73.0963 105.169)" fill="url(#paint10_linear_179_8867)"/>
<circle cx="22.3928" cy="22.3928" r="22.3928" transform="matrix(-1 0 0 1 78.8479 95.7998)" fill="url(#paint11_linear_179_8867)"/>
<circle cx="22.3928" cy="22.3928" r="22.3928" transform="matrix(-1 0 0 1 85.0816 86.7444)" fill="url(#paint12_linear_179_8867)"/>
<circle cx="22.3928" cy="22.3928" r="22.3928" transform="matrix(-1 0 0 1 91.7792 78.0266)" fill="url(#paint13_linear_179_8867)"/>
<circle cx="22.3928" cy="22.3928" r="22.3928" transform="matrix(-1 0 0 1 98.922 69.6697)" fill="url(#paint14_linear_179_8867)"/>
<circle cx="22.3928" cy="22.3928" r="22.3928" transform="matrix(-1 0 0 1 106.49 61.6956)" fill="url(#paint15_linear_179_8867)"/>
<circle cx="22.3928" cy="22.3928" r="22.3928" transform="matrix(-1 0 0 1 114.462 54.126)" fill="url(#paint16_linear_179_8867)"/>
<circle cx="22.3928" cy="22.3928" r="22.3928" transform="matrix(-1 0 0 1 122.818 46.9818)" fill="url(#paint17_linear_179_8867)"/>
<circle cx="22.3928" cy="22.3928" r="22.3928" transform="matrix(-1 0 0 1 131.535 40.2826)" fill="url(#paint18_linear_179_8867)"/>
<circle cx="22.3928" cy="22.3928" r="22.3928" transform="matrix(-1 0 0 1 140.589 34.0471)" fill="url(#paint19_linear_179_8867)"/>
<circle cx="22.3928" cy="22.3928" r="22.3928" transform="matrix(-1 0 0 1 149.957 28.2938)" fill="url(#paint20_linear_179_8867)"/>
<circle cx="22.3928" cy="22.3928" r="22.3928" transform="matrix(-1 0 0 1 159.613 23.0392)" fill="url(#paint21_linear_179_8867)"/>
<circle cx="22.3928" cy="22.3928" r="22.3928" transform="matrix(-1 0 0 1 169.532 18.2991)" fill="url(#paint22_linear_179_8867)"/>
<circle cx="22.3928" cy="22.3928" r="22.3928" transform="matrix(-1 0 0 1 179.687 14.0876)" fill="url(#paint23_linear_179_8867)"/>
<circle cx="22.3928" cy="22.3928" r="22.3928" transform="matrix(-1 0 0 1 190.05 10.4175)" fill="url(#paint24_linear_179_8867)"/>
<circle cx="22.3928" cy="22.3928" r="22.3928" transform="matrix(-1 0 0 1 200.591 7.29919)" fill="url(#paint25_linear_179_8867)"/>
<circle cx="22.3928" cy="22.3928" r="22.3928" transform="matrix(-1 0 0 1 211.283 4.74097)" fill="url(#paint26_linear_179_8867)"/>
<circle cx="22.3928" cy="22.3928" r="22.3928" transform="matrix(-1 0 0 1 222.094 2.74963)" fill="url(#paint27_linear_179_8867)"/>
<circle cx="22.3928" cy="22.3928" r="22.3928" transform="matrix(-1 0 0 1 232.995 1.32788)" fill="url(#paint28_linear_179_8867)"/>
<circle cx="22.3928" cy="22.3928" r="22.3928" transform="matrix(-1 0 0 1 243.955 0.476562)" fill="url(#paint29_linear_179_8867)"/>
<circle cx="22.3928" cy="22.3928" r="22.3928" transform="matrix(-1 0 0 1 254.948 0.193726)" fill="url(#paint30_linear_179_8867)"/>
<circle cx="22.3928" cy="22.3928" r="22.3928" transform="matrix(-1 0 0 1 265.902 0.474487)" fill="url(#paint31_linear_179_8867)"/>
<circle cx="22.3928" cy="22.3928" r="22.3928" transform="matrix(-1 0 0 1 276.862 1.32361)" fill="url(#paint32_linear_179_8867)"/>
<circle cx="22.3928" cy="22.3928" r="22.3928" transform="matrix(-1 0 0 1 287.763 2.74316)" fill="url(#paint33_linear_179_8867)"/>
<circle cx="22.3928" cy="22.3928" r="22.3928" transform="matrix(-1 0 0 1 298.575 4.73279)" fill="url(#paint34_linear_179_8867)"/>
<circle cx="22.3928" cy="22.3928" r="22.3928" transform="matrix(-1 0 0 1 309.267 7.28857)" fill="url(#paint35_linear_179_8867)"/>
<circle cx="22.3928" cy="22.3928" r="22.3928" transform="matrix(-1 0 0 1 319.809 10.4052)" fill="url(#paint36_linear_179_8867)"/>
<circle cx="22.3928" cy="22.3928" r="22.3928" transform="matrix(-1 0 0 1 330.173 14.0731)" fill="url(#paint37_linear_179_8867)"/>
<circle cx="22.3928" cy="22.3928" r="22.3928" transform="matrix(-1 0 0 1 340.328 18.2827)" fill="url(#paint38_linear_179_8867)"/>
<circle cx="22.3928" cy="22.3928" r="22.3928" transform="matrix(-1 0 0 1 350.248 23.0209)" fill="url(#paint39_linear_179_8867)"/>
<circle cx="22.3928" cy="22.3928" r="22.3928" transform="matrix(-1 0 0 1 359.906 28.2737)" fill="url(#paint40_linear_179_8867)"/>
<circle cx="22.3928" cy="22.3928" r="22.3928" transform="matrix(-1 0 0 1 369.275 34.0253)" fill="url(#paint41_linear_179_8867)"/>
<circle cx="22.3928" cy="22.3928" r="22.3928" transform="matrix(-1 0 0 1 378.33 40.259)" fill="url(#paint42_linear_179_8867)"/>
<circle cx="22.3928" cy="22.3928" r="22.3928" transform="matrix(-1 0 0 1 387.048 46.9565)" fill="url(#paint43_linear_179_8867)"/>
<circle cx="22.3928" cy="22.3928" r="22.3928" transform="matrix(-1 0 0 1 395.405 54.0994)" fill="url(#paint44_linear_179_8867)"/>
<circle cx="22.3928" cy="22.3928" r="22.3928" transform="matrix(-1 0 0 1 403.379 61.6674)" fill="url(#paint45_linear_179_8867)"/>
<circle cx="22.3928" cy="22.3928" r="22.3928" transform="matrix(-1 0 0 1 410.948 69.6398)" fill="url(#paint46_linear_179_8867)"/>
<circle cx="22.3928" cy="22.3928" r="22.3928" transform="matrix(-1 0 0 1 418.092 77.9955)" fill="url(#paint47_linear_179_8867)"/>
<circle cx="22.3928" cy="22.3928" r="22.3928" transform="matrix(-1 0 0 1 424.792 86.7119)" fill="url(#paint48_linear_179_8867)"/>
<circle cx="22.3928" cy="22.3928" r="22.3928" transform="matrix(-1 0 0 1 431.027 95.7662)" fill="url(#paint49_linear_179_8867)"/>
<circle cx="22.3928" cy="22.3928" r="22.3928" transform="matrix(-1 0 0 1 436.781 105.134)" fill="url(#paint50_linear_179_8867)"/>
<circle cx="22.3928" cy="22.3928" r="22.3928" transform="matrix(-1 0 0 1 442.035 114.79)" fill="url(#paint51_linear_179_8867)"/>
<circle cx="22.3928" cy="22.3928" r="22.3928" transform="matrix(-1 0 0 1 446.775 124.709)" fill="url(#paint52_linear_179_8867)"/>
<circle cx="22.3928" cy="22.3928" r="22.3928" transform="matrix(-1 0 0 1 450.987 134.864)" fill="url(#paint53_linear_179_8867)"/>
<circle cx="22.3928" cy="22.3928" r="22.3928" transform="matrix(-1 0 0 1 454.657 145.227)" fill="url(#paint54_linear_179_8867)"/>
<circle cx="22.3928" cy="22.3928" r="22.3928" transform="matrix(-1 0 0 1 457.775 155.769)" fill="url(#paint55_linear_179_8867)"/>
<circle cx="22.3928" cy="22.3928" r="22.3928" transform="matrix(-1 0 0 1 460.333 166.46)" fill="url(#paint56_linear_179_8867)"/>
<circle cx="22.3928" cy="22.3928" r="22.3928" transform="matrix(-1 0 0 1 462.325 177.271)" fill="url(#paint57_linear_179_8867)"/>
<circle cx="22.3928" cy="22.3928" r="22.3928" transform="matrix(-1 0 0 1 463.747 188.172)" fill="url(#paint58_linear_179_8867)"/>
<circle cx="22.3928" cy="22.3928" r="22.3928" transform="matrix(-1 0 0 1 464.598 199.133)" fill="url(#paint59_linear_179_8867)"/>
<circle cx="22.3928" cy="22.3928" r="22.3928" transform="matrix(-1 0 0 1 464.881 210.126)" fill="url(#paint60_linear_179_8867)"/>
<circle cx="22.3928" cy="22.3928" r="22.3928" transform="matrix(-1 0 0 1 464.6 221.079)" fill="url(#paint61_linear_179_8867)"/>
<circle cx="22.3928" cy="22.3928" r="22.3928" transform="matrix(-1 0 0 1 463.751 232.039)" fill="url(#paint62_linear_179_8867)"/>
<circle cx="22.3928" cy="22.3928" r="22.3928" transform="matrix(-1 0 0 1 462.331 242.94)" fill="url(#paint63_linear_179_8867)"/>
<circle cx="22.3928" cy="22.3928" r="22.3928" transform="matrix(-1 0 0 1 460.341 253.752)" fill="url(#paint64_linear_179_8867)"/>
<circle cx="22.3928" cy="22.3928" r="22.3928" transform="matrix(-1 0 0 1 457.786 264.444)" fill="url(#paint65_linear_179_8867)"/>
<circle cx="22.3928" cy="22.3928" r="22.3928" transform="matrix(-1 0 0 1 454.669 274.986)" fill="url(#paint66_linear_179_8867)"/>
<circle cx="22.3928" cy="22.3928" r="22.3928" transform="matrix(-1 0 0 1 451.001 285.35)" fill="url(#paint67_linear_179_8867)"/>
<circle cx="22.3928" cy="22.3928" r="22.3928" transform="matrix(-1 0 0 1 446.792 295.506)" fill="url(#paint68_linear_179_8867)"/>
<circle cx="22.3928" cy="22.3928" r="22.3928" transform="matrix(-1 0 0 1 442.053 305.426)" fill="url(#paint69_linear_179_8867)"/>
<circle cx="22.3928" cy="22.3928" r="22.3928" transform="matrix(-1 0 0 1 436.801 315.083)" fill="url(#paint70_linear_179_8867)"/>
<circle cx="22.3928" cy="22.3928" r="22.3928" transform="matrix(-1 0 0 1 431.049 324.452)" fill="url(#paint71_linear_179_8867)"/>
<circle cx="22.3928" cy="22.3928" r="22.3928" transform="matrix(-1 0 0 1 424.815 333.507)" fill="url(#paint72_linear_179_8867)"/>
<circle cx="22.3928" cy="22.3928" r="22.3928" transform="matrix(-1 0 0 1 418.118 342.225)" fill="url(#paint73_linear_179_8867)"/>
<circle cx="22.3928" cy="22.3928" r="22.3928" transform="matrix(-1 0 0 1 410.975 350.582)" fill="url(#paint74_linear_179_8867)"/>
<circle cx="22.3928" cy="22.3928" r="22.3928" transform="matrix(-1 0 0 1 403.407 358.556)" fill="url(#paint75_linear_179_8867)"/>
<circle cx="22.3928" cy="22.3928" r="22.3928" transform="matrix(-1 0 0 1 395.435 366.125)" fill="url(#paint76_linear_179_8867)"/>
<circle cx="22.3928" cy="22.3928" r="22.3928" transform="matrix(-1 0 0 1 387.079 373.27)" fill="url(#paint77_linear_179_8867)"/>
<circle cx="22.3928" cy="22.3928" r="22.3928" transform="matrix(-1 0 0 1 378.362 379.969)" fill="url(#paint78_linear_179_8867)"/>
<circle cx="22.3928" cy="22.3928" r="22.3928" transform="matrix(-1 0 0 1 369.308 386.205)" fill="url(#paint79_linear_179_8867)"/>
<circle cx="22.3928" cy="22.3928" r="22.3928" transform="matrix(-1 0 0 1 359.94 391.958)" fill="url(#paint80_linear_179_8867)"/>
<circle cx="22.3928" cy="22.3928" r="22.3928" transform="matrix(-1 0 0 1 350.284 397.212)" fill="url(#paint81_linear_179_8867)"/>
<circle cx="22.3928" cy="22.3928" r="22.3928" transform="matrix(-1 0 0 1 340.365 401.953)" fill="url(#paint82_linear_179_8867)"/>
<circle cx="22.3928" cy="22.3928" r="22.3928" transform="matrix(-1 0 0 1 330.21 406.164)" fill="url(#paint83_linear_179_8867)"/>
<circle cx="22.3928" cy="22.3928" r="22.3928" transform="matrix(-1 0 0 1 319.847 409.834)" fill="url(#paint84_linear_179_8867)"/>
<circle cx="22.3928" cy="22.3928" r="22.3928" transform="matrix(-1 0 0 1 309.306 412.953)" fill="url(#paint85_linear_179_8867)"/>
<circle cx="22.3928" cy="22.3928" r="22.3928" transform="matrix(-1 0 0 1 298.614 415.51)" fill="url(#paint86_linear_179_8867)"/>
<circle cx="22.3928" cy="22.3928" r="22.3928" transform="matrix(-1 0 0 1 287.803 417.502)" fill="url(#paint87_linear_179_8867)"/>
<circle cx="22.3928" cy="22.3928" r="22.3928" transform="matrix(-1 0 0 1 276.902 418.924)" fill="url(#paint88_linear_179_8867)"/>
<circle cx="22.3928" cy="22.3928" r="22.3928" transform="matrix(-1 0 0 1 265.942 419.775)" fill="url(#paint89_linear_179_8867)"/>
<circle cx="22.3928" cy="22.3928" r="22.3928" transform="matrix(-1 0 0 1 254.948 420.058)" fill="url(#paint90_linear_179_8867)"/>
<circle cx="22.3928" cy="22.3928" r="22.3928" transform="matrix(-1 0 0 1 243.995 419.777)" fill="url(#paint91_linear_179_8867)"/>
<circle cx="22.3928" cy="22.3928" r="22.3928" transform="matrix(-1 0 0 1 233.035 418.928)" fill="url(#paint92_linear_179_8867)"/>
<circle cx="22.3928" cy="22.3928" r="22.3928" transform="matrix(-1 0 0 1 222.134 417.508)" fill="url(#paint93_linear_179_8867)"/>
<circle cx="22.3928" cy="22.3928" r="22.3928" transform="matrix(-1 0 0 1 211.322 415.519)" fill="url(#paint94_linear_179_8867)"/>
<circle cx="22.3928" cy="22.3928" r="22.3928" transform="matrix(-1 0 0 1 200.63 412.963)" fill="url(#paint95_linear_179_8867)"/>
<circle cx="22.3928" cy="22.3928" r="22.3928" transform="matrix(-1 0 0 1 190.088 409.847)" fill="url(#paint96_linear_179_8867)"/>
<circle cx="22.3928" cy="22.3928" r="22.3928" transform="matrix(-1 0 0 1 179.724 406.178)" fill="url(#paint97_linear_179_8867)"/>
<circle cx="22.3928" cy="22.3928" r="22.3928" transform="matrix(-1 0 0 1 169.569 401.969)" fill="url(#paint98_linear_179_8867)"/>
<circle cx="22.3928" cy="22.3928" r="22.3928" transform="matrix(-1 0 0 1 159.649 397.231)" fill="url(#paint99_linear_179_8867)"/>
<circle cx="22.3928" cy="22.3928" r="22.3928" transform="matrix(-1 0 0 1 149.991 391.978)" fill="url(#paint100_linear_179_8867)"/>
<circle cx="22.3928" cy="22.3928" r="22.3928" transform="matrix(-1 0 0 1 140.622 386.226)" fill="url(#paint101_linear_179_8867)"/>
<circle cx="22.3928" cy="22.3928" r="22.3928" transform="matrix(-1 0 0 1 131.567 379.993)" fill="url(#paint102_linear_179_8867)"/>
<circle cx="22.3928" cy="22.3928" r="22.3928" transform="matrix(-1 0 0 1 122.849 373.295)" fill="url(#paint103_linear_179_8867)"/>
<circle cx="22.3928" cy="22.3928" r="22.3928" transform="matrix(-1 0 0 1 114.492 366.152)" fill="url(#paint104_linear_179_8867)"/>
<circle cx="22.3928" cy="22.3928" r="22.3928" transform="matrix(-1 0 0 1 106.518 358.584)" fill="url(#paint105_linear_179_8867)"/>
<circle cx="22.3928" cy="22.3928" r="22.3928" transform="matrix(-1 0 0 1 98.9488 350.612)" fill="url(#paint106_linear_179_8867)"/>
<circle cx="22.3928" cy="22.3928" r="22.3928" transform="matrix(-1 0 0 1 91.8045 342.256)" fill="url(#paint107_linear_179_8867)"/>
<circle cx="22.3928" cy="22.3928" r="22.3928" transform="matrix(-1 0 0 1 85.1052 333.54)" fill="url(#paint108_linear_179_8867)"/>
<circle cx="22.3928" cy="22.3928" r="22.3928" transform="matrix(-1 0 0 1 78.8698 324.486)" fill="url(#paint109_linear_179_8867)"/>
<circle cx="22.3928" cy="22.3928" r="22.3928" transform="matrix(-1 0 0 1 73.1165 315.118)" fill="url(#paint110_linear_179_8867)"/>
<circle cx="22.3928" cy="22.3928" r="22.3928" transform="matrix(-1 0 0 1 67.8618 305.461)" fill="url(#paint111_linear_179_8867)"/>
<circle cx="22.3928" cy="22.3928" r="22.3928" transform="matrix(-1 0 0 1 63.1218 295.542)" fill="url(#paint112_linear_179_8867)"/>
<circle cx="22.3928" cy="22.3928" r="22.3928" transform="matrix(-1 0 0 1 58.9103 285.387)" fill="url(#paint113_linear_179_8867)"/>
<circle cx="22.3928" cy="22.3928" r="22.3928" transform="matrix(-1 0 0 1 55.2401 275.025)" fill="url(#paint114_linear_179_8867)"/>
<circle cx="22.3928" cy="22.3928" r="22.3928" transform="matrix(-1 0 0 1 52.1217 264.483)" fill="url(#paint115_linear_179_8867)"/>
<circle cx="22.3928" cy="22.3928" r="22.3928" transform="matrix(-1 0 0 1 49.5638 253.792)" fill="url(#paint116_linear_179_8867)"/>
<circle cx="22.3928" cy="22.3928" r="22.3928" transform="matrix(-1 0 0 1 47.5722 242.98)" fill="url(#paint117_linear_179_8867)"/>
<circle cx="22.3928" cy="22.3928" r="22.3928" transform="matrix(-1 0 0 1 46.1504 232.08)" fill="url(#paint118_linear_179_8867)"/>
<circle cx="22.3928" cy="22.3928" r="22.3928" transform="matrix(-1 0 0 1 45.2993 221.119)" fill="url(#paint119_linear_179_8867)"/>
<defs>
<linearGradient id="paint0_linear_179_8867" x1="22.3928" y1="16.2207" x2="22.3928" y2="44.7855" gradientUnits="userSpaceOnUse">
<stop stop-color="#010114"/>
<stop offset="1" stop-color="#34D186"/>
</linearGradient>
<linearGradient id="paint1_linear_179_8867" x1="22.3928" y1="16.2207" x2="22.3928" y2="44.7855" gradientUnits="userSpaceOnUse">
<stop stop-color="#010114"/>
<stop offset="1" stop-color="#34D186"/>
</linearGradient>
<linearGradient id="paint2_linear_179_8867" x1="22.3928" y1="16.2207" x2="22.3928" y2="44.7855" gradientUnits="userSpaceOnUse">
<stop stop-color="#010114"/>
<stop offset="1" stop-color="#34D186"/>
</linearGradient>
<linearGradient id="paint3_linear_179_8867" x1="22.3928" y1="16.2207" x2="22.3928" y2="44.7855" gradientUnits="userSpaceOnUse">
<stop stop-color="#010114"/>
<stop offset="1" stop-color="#34D186"/>
</linearGradient>
<linearGradient id="paint4_linear_179_8867" x1="22.3928" y1="16.2207" x2="22.3928" y2="44.7855" gradientUnits="userSpaceOnUse">
<stop stop-color="#010114"/>
<stop offset="1" stop-color="#34D186"/>
</linearGradient>
<linearGradient id="paint5_linear_179_8867" x1="22.3928" y1="16.2207" x2="22.3928" y2="44.7855" gradientUnits="userSpaceOnUse">
<stop stop-color="#010114"/>
<stop offset="1" stop-color="#34D186"/>
</linearGradient>
<linearGradient id="paint6_linear_179_8867" x1="22.3928" y1="16.2207" x2="22.3928" y2="44.7855" gradientUnits="userSpaceOnUse">
<stop stop-color="#010114"/>
<stop offset="1" stop-color="#34D186"/>
</linearGradient>
<linearGradient id="paint7_linear_179_8867" x1="22.3928" y1="16.2207" x2="22.3928" y2="44.7855" gradientUnits="userSpaceOnUse">
<stop stop-color="#010114"/>
<stop offset="1" stop-color="#34D186"/>
</linearGradient>
<linearGradient id="paint8_linear_179_8867" x1="22.3928" y1="16.2207" x2="22.3928" y2="44.7855" gradientUnits="userSpaceOnUse">
<stop stop-color="#010114"/>
<stop offset="1" stop-color="#34D186"/>
</linearGradient>
<linearGradient id="paint9_linear_179_8867" x1="22.3928" y1="16.2207" x2="22.3928" y2="44.7855" gradientUnits="userSpaceOnUse">
<stop stop-color="#010114"/>
<stop offset="1" stop-color="#34D186"/>
</linearGradient>
<linearGradient id="paint10_linear_179_8867" x1="22.3928" y1="16.2207" x2="22.3928" y2="44.7855" gradientUnits="userSpaceOnUse">
<stop stop-color="#010114"/>
<stop offset="1" stop-color="#34D186"/>
</linearGradient>
<linearGradient id="paint11_linear_179_8867" x1="22.3928" y1="16.2207" x2="22.3928" y2="44.7855" gradientUnits="userSpaceOnUse">
<stop stop-color="#010114"/>
<stop offset="1" stop-color="#34D186"/>
</linearGradient>
<linearGradient id="paint12_linear_179_8867" x1="22.3928" y1="16.2207" x2="22.3928" y2="44.7855" gradientUnits="userSpaceOnUse">
<stop stop-color="#010114"/>
<stop offset="1" stop-color="#34D186"/>
</linearGradient>
<linearGradient id="paint13_linear_179_8867" x1="22.3928" y1="16.2207" x2="22.3928" y2="44.7855" gradientUnits="userSpaceOnUse">
<stop stop-color="#010114"/>
<stop offset="1" stop-color="#34D186"/>
</linearGradient>
<linearGradient id="paint14_linear_179_8867" x1="22.3928" y1="16.2207" x2="22.3928" y2="44.7855" gradientUnits="userSpaceOnUse">
<stop stop-color="#010114"/>
<stop offset="1" stop-color="#34D186"/>
</linearGradient>
<linearGradient id="paint15_linear_179_8867" x1="22.3928" y1="16.2207" x2="22.3928" y2="44.7855" gradientUnits="userSpaceOnUse">
<stop stop-color="#010114"/>
<stop offset="1" stop-color="#34D186"/>
</linearGradient>
<linearGradient id="paint16_linear_179_8867" x1="22.3928" y1="16.2207" x2="22.3928" y2="44.7855" gradientUnits="userSpaceOnUse">
<stop stop-color="#010114"/>
<stop offset="1" stop-color="#34D186"/>
</linearGradient>
<linearGradient id="paint17_linear_179_8867" x1="22.3928" y1="16.2207" x2="22.3928" y2="44.7855" gradientUnits="userSpaceOnUse">
<stop stop-color="#010114"/>
<stop offset="1" stop-color="#34D186"/>
</linearGradient>
<linearGradient id="paint18_linear_179_8867" x1="22.3928" y1="16.2207" x2="22.3928" y2="44.7855" gradientUnits="userSpaceOnUse">
<stop stop-color="#010114"/>
<stop offset="1" stop-color="#34D186"/>
</linearGradient>
<linearGradient id="paint19_linear_179_8867" x1="22.3928" y1="16.2207" x2="22.3928" y2="44.7855" gradientUnits="userSpaceOnUse">
<stop stop-color="#010114"/>
<stop offset="1" stop-color="#34D186"/>
</linearGradient>
<linearGradient id="paint20_linear_179_8867" x1="22.3928" y1="16.2207" x2="22.3928" y2="44.7855" gradientUnits="userSpaceOnUse">
<stop stop-color="#010114"/>
<stop offset="1" stop-color="#34D186"/>
</linearGradient>
<linearGradient id="paint21_linear_179_8867" x1="22.3928" y1="16.2207" x2="22.3928" y2="44.7855" gradientUnits="userSpaceOnUse">
<stop stop-color="#010114"/>
<stop offset="1" stop-color="#34D186"/>
</linearGradient>
<linearGradient id="paint22_linear_179_8867" x1="22.3928" y1="16.2207" x2="22.3928" y2="44.7855" gradientUnits="userSpaceOnUse">
<stop stop-color="#010114"/>
<stop offset="1" stop-color="#34D186"/>
</linearGradient>
<linearGradient id="paint23_linear_179_8867" x1="22.3928" y1="16.2207" x2="22.3928" y2="44.7855" gradientUnits="userSpaceOnUse">
<stop stop-color="#010114"/>
<stop offset="1" stop-color="#34D186"/>
</linearGradient>
<linearGradient id="paint24_linear_179_8867" x1="22.3928" y1="16.2207" x2="22.3928" y2="44.7855" gradientUnits="userSpaceOnUse">
<stop stop-color="#010114"/>
<stop offset="1" stop-color="#34D186"/>
</linearGradient>
<linearGradient id="paint25_linear_179_8867" x1="22.3928" y1="16.2207" x2="22.3928" y2="44.7855" gradientUnits="userSpaceOnUse">
<stop stop-color="#010114"/>
<stop offset="1" stop-color="#34D186"/>
</linearGradient>
<linearGradient id="paint26_linear_179_8867" x1="22.3928" y1="16.2207" x2="22.3928" y2="44.7855" gradientUnits="userSpaceOnUse">
<stop stop-color="#010114"/>
<stop offset="1" stop-color="#34D186"/>
</linearGradient>
<linearGradient id="paint27_linear_179_8867" x1="22.3928" y1="16.2207" x2="22.3928" y2="44.7855" gradientUnits="userSpaceOnUse">
<stop stop-color="#010114"/>
<stop offset="1" stop-color="#34D186"/>
</linearGradient>
<linearGradient id="paint28_linear_179_8867" x1="22.3928" y1="16.2207" x2="22.3928" y2="44.7855" gradientUnits="userSpaceOnUse">
<stop stop-color="#010114"/>
<stop offset="1" stop-color="#34D186"/>
</linearGradient>
<linearGradient id="paint29_linear_179_8867" x1="22.3928" y1="16.2207" x2="22.3928" y2="44.7855" gradientUnits="userSpaceOnUse">
<stop stop-color="#010114"/>
<stop offset="1" stop-color="#34D186"/>
</linearGradient>
<linearGradient id="paint30_linear_179_8867" x1="22.3928" y1="16.2207" x2="22.3928" y2="44.7855" gradientUnits="userSpaceOnUse">
<stop stop-color="#010114"/>
<stop offset="1" stop-color="#34D186"/>
</linearGradient>
<linearGradient id="paint31_linear_179_8867" x1="22.3928" y1="16.2207" x2="22.3928" y2="44.7855" gradientUnits="userSpaceOnUse">
<stop stop-color="#010114"/>
<stop offset="1" stop-color="#34D186"/>
</linearGradient>
<linearGradient id="paint32_linear_179_8867" x1="22.3928" y1="16.2207" x2="22.3928" y2="44.7855" gradientUnits="userSpaceOnUse">
<stop stop-color="#010114"/>
<stop offset="1" stop-color="#34D186"/>
</linearGradient>
<linearGradient id="paint33_linear_179_8867" x1="22.3928" y1="16.2207" x2="22.3928" y2="44.7855" gradientUnits="userSpaceOnUse">
<stop stop-color="#010114"/>
<stop offset="1" stop-color="#34D186"/>
</linearGradient>
<linearGradient id="paint34_linear_179_8867" x1="22.3928" y1="16.2207" x2="22.3928" y2="44.7855" gradientUnits="userSpaceOnUse">
<stop stop-color="#010114"/>
<stop offset="1" stop-color="#34D186"/>
</linearGradient>
<linearGradient id="paint35_linear_179_8867" x1="22.3928" y1="16.2207" x2="22.3928" y2="44.7855" gradientUnits="userSpaceOnUse">
<stop stop-color="#010114"/>
<stop offset="1" stop-color="#34D186"/>
</linearGradient>
<linearGradient id="paint36_linear_179_8867" x1="22.3928" y1="16.2207" x2="22.3928" y2="44.7855" gradientUnits="userSpaceOnUse">
<stop stop-color="#010114"/>
<stop offset="1" stop-color="#34D186"/>
</linearGradient>
<linearGradient id="paint37_linear_179_8867" x1="22.3928" y1="16.2207" x2="22.3928" y2="44.7855" gradientUnits="userSpaceOnUse">
<stop stop-color="#010114"/>
<stop offset="1" stop-color="#34D186"/>
</linearGradient>
<linearGradient id="paint38_linear_179_8867" x1="22.3928" y1="16.2207" x2="22.3928" y2="44.7855" gradientUnits="userSpaceOnUse">
<stop stop-color="#010114"/>
<stop offset="1" stop-color="#34D186"/>
</linearGradient>
<linearGradient id="paint39_linear_179_8867" x1="22.3928" y1="16.2207" x2="22.3928" y2="44.7855" gradientUnits="userSpaceOnUse">
<stop stop-color="#010114"/>
<stop offset="1" stop-color="#34D186"/>
</linearGradient>
<linearGradient id="paint40_linear_179_8867" x1="22.3928" y1="16.2207" x2="22.3928" y2="44.7855" gradientUnits="userSpaceOnUse">
<stop stop-color="#010114"/>
<stop offset="1" stop-color="#34D186"/>
</linearGradient>
<linearGradient id="paint41_linear_179_8867" x1="22.3928" y1="16.2207" x2="22.3928" y2="44.7855" gradientUnits="userSpaceOnUse">
<stop stop-color="#010114"/>
<stop offset="1" stop-color="#34D186"/>
</linearGradient>
<linearGradient id="paint42_linear_179_8867" x1="22.3928" y1="16.2207" x2="22.3928" y2="44.7855" gradientUnits="userSpaceOnUse">
<stop stop-color="#010114"/>
<stop offset="1" stop-color="#34D186"/>
</linearGradient>
<linearGradient id="paint43_linear_179_8867" x1="22.3928" y1="16.2207" x2="22.3928" y2="44.7855" gradientUnits="userSpaceOnUse">
<stop stop-color="#010114"/>
<stop offset="1" stop-color="#34D186"/>
</linearGradient>
<linearGradient id="paint44_linear_179_8867" x1="22.3928" y1="16.2207" x2="22.3928" y2="44.7855" gradientUnits="userSpaceOnUse">
<stop stop-color="#010114"/>
<stop offset="1" stop-color="#34D186"/>
</linearGradient>
<linearGradient id="paint45_linear_179_8867" x1="22.3928" y1="16.2207" x2="22.3928" y2="44.7855" gradientUnits="userSpaceOnUse">
<stop stop-color="#010114"/>
<stop offset="1" stop-color="#34D186"/>
</linearGradient>
<linearGradient id="paint46_linear_179_8867" x1="22.3928" y1="16.2207" x2="22.3928" y2="44.7855" gradientUnits="userSpaceOnUse">
<stop stop-color="#010114"/>
<stop offset="1" stop-color="#34D186"/>
</linearGradient>
<linearGradient id="paint47_linear_179_8867" x1="22.3928" y1="16.2207" x2="22.3928" y2="44.7855" gradientUnits="userSpaceOnUse">
<stop stop-color="#010114"/>
<stop offset="1" stop-color="#34D186"/>
</linearGradient>
<linearGradient id="paint48_linear_179_8867" x1="22.3928" y1="16.2207" x2="22.3928" y2="44.7855" gradientUnits="userSpaceOnUse">
<stop stop-color="#010114"/>
<stop offset="1" stop-color="#34D186"/>
</linearGradient>
<linearGradient id="paint49_linear_179_8867" x1="22.3928" y1="16.2207" x2="22.3928" y2="44.7855" gradientUnits="userSpaceOnUse">
<stop stop-color="#010114"/>
<stop offset="1" stop-color="#34D186"/>
</linearGradient>
<linearGradient id="paint50_linear_179_8867" x1="22.3928" y1="16.2207" x2="22.3928" y2="44.7855" gradientUnits="userSpaceOnUse">
<stop stop-color="#010114"/>
<stop offset="1" stop-color="#34D186"/>
</linearGradient>
<linearGradient id="paint51_linear_179_8867" x1="22.3928" y1="16.2207" x2="22.3928" y2="44.7855" gradientUnits="userSpaceOnUse">
<stop stop-color="#010114"/>
<stop offset="1" stop-color="#34D186"/>
</linearGradient>
<linearGradient id="paint52_linear_179_8867" x1="22.3928" y1="16.2207" x2="22.3928" y2="44.7855" gradientUnits="userSpaceOnUse">
<stop stop-color="#010114"/>
<stop offset="1" stop-color="#34D186"/>
</linearGradient>
<linearGradient id="paint53_linear_179_8867" x1="22.3928" y1="16.2207" x2="22.3928" y2="44.7855" gradientUnits="userSpaceOnUse">
<stop stop-color="#010114"/>
<stop offset="1" stop-color="#34D186"/>
</linearGradient>
<linearGradient id="paint54_linear_179_8867" x1="22.3928" y1="16.2207" x2="22.3928" y2="44.7855" gradientUnits="userSpaceOnUse">
<stop stop-color="#010114"/>
<stop offset="1" stop-color="#34D186"/>
</linearGradient>
<linearGradient id="paint55_linear_179_8867" x1="22.3928" y1="16.2207" x2="22.3928" y2="44.7855" gradientUnits="userSpaceOnUse">
<stop stop-color="#010114"/>
<stop offset="1" stop-color="#34D186"/>
</linearGradient>
<linearGradient id="paint56_linear_179_8867" x1="22.3928" y1="16.2207" x2="22.3928" y2="44.7855" gradientUnits="userSpaceOnUse">
<stop stop-color="#010114"/>
<stop offset="1" stop-color="#34D186"/>
</linearGradient>
<linearGradient id="paint57_linear_179_8867" x1="22.3928" y1="16.2207" x2="22.3928" y2="44.7855" gradientUnits="userSpaceOnUse">
<stop stop-color="#010114"/>
<stop offset="1" stop-color="#34D186"/>
</linearGradient>
<linearGradient id="paint58_linear_179_8867" x1="22.3928" y1="16.2207" x2="22.3928" y2="44.7855" gradientUnits="userSpaceOnUse">
<stop stop-color="#010114"/>
<stop offset="1" stop-color="#34D186"/>
</linearGradient>
<linearGradient id="paint59_linear_179_8867" x1="22.3928" y1="16.2207" x2="22.3928" y2="44.7855" gradientUnits="userSpaceOnUse">
<stop stop-color="#010114"/>
<stop offset="1" stop-color="#34D186"/>
</linearGradient>
<linearGradient id="paint60_linear_179_8867" x1="22.3928" y1="16.2207" x2="22.3928" y2="44.7855" gradientUnits="userSpaceOnUse">
<stop stop-color="#010114"/>
<stop offset="1" stop-color="#34D186"/>
</linearGradient>
<linearGradient id="paint61_linear_179_8867" x1="22.3928" y1="16.2207" x2="22.3928" y2="44.7855" gradientUnits="userSpaceOnUse">
<stop stop-color="#010114"/>
<stop offset="1" stop-color="#34D186"/>
</linearGradient>
<linearGradient id="paint62_linear_179_8867" x1="22.3928" y1="16.2207" x2="22.3928" y2="44.7855" gradientUnits="userSpaceOnUse">
<stop stop-color="#010114"/>
<stop offset="1" stop-color="#34D186"/>
</linearGradient>
<linearGradient id="paint63_linear_179_8867" x1="22.3928" y1="16.2207" x2="22.3928" y2="44.7855" gradientUnits="userSpaceOnUse">
<stop stop-color="#010114"/>
<stop offset="1" stop-color="#34D186"/>
</linearGradient>
<linearGradient id="paint64_linear_179_8867" x1="22.3928" y1="16.2207" x2="22.3928" y2="44.7855" gradientUnits="userSpaceOnUse">
<stop stop-color="#010114"/>
<stop offset="1" stop-color="#34D186"/>
</linearGradient>
<linearGradient id="paint65_linear_179_8867" x1="22.3928" y1="16.2207" x2="22.3928" y2="44.7855" gradientUnits="userSpaceOnUse">
<stop stop-color="#010114"/>
<stop offset="1" stop-color="#34D186"/>
</linearGradient>
<linearGradient id="paint66_linear_179_8867" x1="22.3928" y1="16.2207" x2="22.3928" y2="44.7855" gradientUnits="userSpaceOnUse">
<stop stop-color="#010114"/>
<stop offset="1" stop-color="#34D186"/>
</linearGradient>
<linearGradient id="paint67_linear_179_8867" x1="22.3928" y1="16.2207" x2="22.3928" y2="44.7855" gradientUnits="userSpaceOnUse">
<stop stop-color="#010114"/>
<stop offset="1" stop-color="#34D186"/>
</linearGradient>
<linearGradient id="paint68_linear_179_8867" x1="22.3928" y1="16.2207" x2="22.3928" y2="44.7855" gradientUnits="userSpaceOnUse">
<stop stop-color="#010114"/>
<stop offset="1" stop-color="#34D186"/>
</linearGradient>
<linearGradient id="paint69_linear_179_8867" x1="22.3928" y1="16.2207" x2="22.3928" y2="44.7855" gradientUnits="userSpaceOnUse">
<stop stop-color="#010114"/>
<stop offset="1" stop-color="#34D186"/>
</linearGradient>
<linearGradient id="paint70_linear_179_8867" x1="22.3928" y1="16.2207" x2="22.3928" y2="44.7855" gradientUnits="userSpaceOnUse">
<stop stop-color="#010114"/>
<stop offset="1" stop-color="#34D186"/>
</linearGradient>
<linearGradient id="paint71_linear_179_8867" x1="22.3928" y1="16.2207" x2="22.3928" y2="44.7855" gradientUnits="userSpaceOnUse">
<stop stop-color="#010114"/>
<stop offset="1" stop-color="#34D186"/>
</linearGradient>
<linearGradient id="paint72_linear_179_8867" x1="22.3928" y1="16.2207" x2="22.3928" y2="44.7855" gradientUnits="userSpaceOnUse">
<stop stop-color="#010114"/>
<stop offset="1" stop-color="#34D186"/>
</linearGradient>
<linearGradient id="paint73_linear_179_8867" x1="22.3928" y1="16.2207" x2="22.3928" y2="44.7855" gradientUnits="userSpaceOnUse">
<stop stop-color="#010114"/>
<stop offset="1" stop-color="#34D186"/>
</linearGradient>
<linearGradient id="paint74_linear_179_8867" x1="22.3928" y1="16.2207" x2="22.3928" y2="44.7855" gradientUnits="userSpaceOnUse">
<stop stop-color="#010114"/>
<stop offset="1" stop-color="#34D186"/>
</linearGradient>
<linearGradient id="paint75_linear_179_8867" x1="22.3928" y1="16.2207" x2="22.3928" y2="44.7855" gradientUnits="userSpaceOnUse">
<stop stop-color="#010114"/>
<stop offset="1" stop-color="#34D186"/>
</linearGradient>
<linearGradient id="paint76_linear_179_8867" x1="22.3928" y1="16.2207" x2="22.3928" y2="44.7855" gradientUnits="userSpaceOnUse">
<stop stop-color="#010114"/>
<stop offset="1" stop-color="#34D186"/>
</linearGradient>
<linearGradient id="paint77_linear_179_8867" x1="22.3928" y1="16.2207" x2="22.3928" y2="44.7855" gradientUnits="userSpaceOnUse">
<stop stop-color="#010114"/>
<stop offset="1" stop-color="#34D186"/>
</linearGradient>
<linearGradient id="paint78_linear_179_8867" x1="22.3928" y1="16.2207" x2="22.3928" y2="44.7855" gradientUnits="userSpaceOnUse">
<stop stop-color="#010114"/>
<stop offset="1" stop-color="#34D186"/>
</linearGradient>
<linearGradient id="paint79_linear_179_8867" x1="22.3928" y1="16.2207" x2="22.3928" y2="44.7855" gradientUnits="userSpaceOnUse">
<stop stop-color="#010114"/>
<stop offset="1" stop-color="#34D186"/>
</linearGradient>
<linearGradient id="paint80_linear_179_8867" x1="22.3928" y1="16.2207" x2="22.3928" y2="44.7855" gradientUnits="userSpaceOnUse">
<stop stop-color="#010114"/>
<stop offset="1" stop-color="#34D186"/>
</linearGradient>
<linearGradient id="paint81_linear_179_8867" x1="22.3928" y1="16.2207" x2="22.3928" y2="44.7855" gradientUnits="userSpaceOnUse">
<stop stop-color="#010114"/>
<stop offset="1" stop-color="#34D186"/>
</linearGradient>
<linearGradient id="paint82_linear_179_8867" x1="22.3928" y1="16.2207" x2="22.3928" y2="44.7855" gradientUnits="userSpaceOnUse">
<stop stop-color="#010114"/>
<stop offset="1" stop-color="#34D186"/>
</linearGradient>
<linearGradient id="paint83_linear_179_8867" x1="22.3928" y1="16.2207" x2="22.3928" y2="44.7855" gradientUnits="userSpaceOnUse">
<stop stop-color="#010114"/>
<stop offset="1" stop-color="#34D186"/>
</linearGradient>
<linearGradient id="paint84_linear_179_8867" x1="22.3928" y1="16.2207" x2="22.3928" y2="44.7855" gradientUnits="userSpaceOnUse">
<stop stop-color="#010114"/>
<stop offset="1" stop-color="#34D186"/>
</linearGradient>
<linearGradient id="paint85_linear_179_8867" x1="22.3928" y1="16.2207" x2="22.3928" y2="44.7855" gradientUnits="userSpaceOnUse">
<stop stop-color="#010114"/>
<stop offset="1" stop-color="#34D186"/>
</linearGradient>
<linearGradient id="paint86_linear_179_8867" x1="22.3928" y1="16.2207" x2="22.3928" y2="44.7855" gradientUnits="userSpaceOnUse">
<stop stop-color="#010114"/>
<stop offset="1" stop-color="#34D186"/>
</linearGradient>
<linearGradient id="paint87_linear_179_8867" x1="22.3928" y1="16.2207" x2="22.3928" y2="44.7855" gradientUnits="userSpaceOnUse">
<stop stop-color="#010114"/>
<stop offset="1" stop-color="#34D186"/>
</linearGradient>
<linearGradient id="paint88_linear_179_8867" x1="22.3928" y1="16.2207" x2="22.3928" y2="44.7855" gradientUnits="userSpaceOnUse">
<stop stop-color="#010114"/>
<stop offset="1" stop-color="#34D186"/>
</linearGradient>
<linearGradient id="paint89_linear_179_8867" x1="22.3928" y1="16.2207" x2="22.3928" y2="44.7855" gradientUnits="userSpaceOnUse">
<stop stop-color="#010114"/>
<stop offset="1" stop-color="#34D186"/>
</linearGradient>
<linearGradient id="paint90_linear_179_8867" x1="22.3928" y1="16.2207" x2="22.3928" y2="44.7855" gradientUnits="userSpaceOnUse">
<stop stop-color="#010114"/>
<stop offset="1" stop-color="#34D186"/>
</linearGradient>
<linearGradient id="paint91_linear_179_8867" x1="22.3928" y1="16.2207" x2="22.3928" y2="44.7855" gradientUnits="userSpaceOnUse">
<stop stop-color="#010114"/>
<stop offset="1" stop-color="#34D186"/>
</linearGradient>
<linearGradient id="paint92_linear_179_8867" x1="22.3928" y1="16.2207" x2="22.3928" y2="44.7855" gradientUnits="userSpaceOnUse">
<stop stop-color="#010114"/>
<stop offset="1" stop-color="#34D186"/>
</linearGradient>
<linearGradient id="paint93_linear_179_8867" x1="22.3928" y1="16.2207" x2="22.3928" y2="44.7855" gradientUnits="userSpaceOnUse">
<stop stop-color="#010114"/>
<stop offset="1" stop-color="#34D186"/>
</linearGradient>
<linearGradient id="paint94_linear_179_8867" x1="22.3928" y1="16.2207" x2="22.3928" y2="44.7855" gradientUnits="userSpaceOnUse">
<stop stop-color="#010114"/>
<stop offset="1" stop-color="#34D186"/>
</linearGradient>
<linearGradient id="paint95_linear_179_8867" x1="22.3928" y1="16.2207" x2="22.3928" y2="44.7855" gradientUnits="userSpaceOnUse">
<stop stop-color="#010114"/>
<stop offset="1" stop-color="#34D186"/>
</linearGradient>
<linearGradient id="paint96_linear_179_8867" x1="22.3928" y1="16.2207" x2="22.3928" y2="44.7855" gradientUnits="userSpaceOnUse">
<stop stop-color="#010114"/>
<stop offset="1" stop-color="#34D186"/>
</linearGradient>
<linearGradient id="paint97_linear_179_8867" x1="22.3928" y1="16.2207" x2="22.3928" y2="44.7855" gradientUnits="userSpaceOnUse">
<stop stop-color="#010114"/>
<stop offset="1" stop-color="#34D186"/>
</linearGradient>
<linearGradient id="paint98_linear_179_8867" x1="22.3928" y1="16.2207" x2="22.3928" y2="44.7855" gradientUnits="userSpaceOnUse">
<stop stop-color="#010114"/>
<stop offset="1" stop-color="#34D186"/>
</linearGradient>
<linearGradient id="paint99_linear_179_8867" x1="22.3928" y1="16.2207" x2="22.3928" y2="44.7855" gradientUnits="userSpaceOnUse">
<stop stop-color="#010114"/>
<stop offset="1" stop-color="#34D186"/>
</linearGradient>
<linearGradient id="paint100_linear_179_8867" x1="22.3928" y1="16.2207" x2="22.3928" y2="44.7855" gradientUnits="userSpaceOnUse">
<stop stop-color="#010114"/>
<stop offset="1" stop-color="#34D186"/>
</linearGradient>
<linearGradient id="paint101_linear_179_8867" x1="22.3928" y1="16.2207" x2="22.3928" y2="44.7855" gradientUnits="userSpaceOnUse">
<stop stop-color="#010114"/>
<stop offset="1" stop-color="#34D186"/>
</linearGradient>
<linearGradient id="paint102_linear_179_8867" x1="22.3928" y1="16.2207" x2="22.3928" y2="44.7855" gradientUnits="userSpaceOnUse">
<stop stop-color="#010114"/>
<stop offset="1" stop-color="#34D186"/>
</linearGradient>
<linearGradient id="paint103_linear_179_8867" x1="22.3928" y1="16.2207" x2="22.3928" y2="44.7855" gradientUnits="userSpaceOnUse">
<stop stop-color="#010114"/>
<stop offset="1" stop-color="#34D186"/>
</linearGradient>
<linearGradient id="paint104_linear_179_8867" x1="22.3928" y1="16.2207" x2="22.3928" y2="44.7855" gradientUnits="userSpaceOnUse">
<stop stop-color="#010114"/>
<stop offset="1" stop-color="#34D186"/>
</linearGradient>
<linearGradient id="paint105_linear_179_8867" x1="22.3928" y1="16.2207" x2="22.3928" y2="44.7855" gradientUnits="userSpaceOnUse">
<stop stop-color="#010114"/>
<stop offset="1" stop-color="#34D186"/>
</linearGradient>
<linearGradient id="paint106_linear_179_8867" x1="22.3928" y1="16.2207" x2="22.3928" y2="44.7855" gradientUnits="userSpaceOnUse">
<stop stop-color="#010114"/>
<stop offset="1" stop-color="#34D186"/>
</linearGradient>
<linearGradient id="paint107_linear_179_8867" x1="22.3928" y1="16.2207" x2="22.3928" y2="44.7855" gradientUnits="userSpaceOnUse">
<stop stop-color="#010114"/>
<stop offset="1" stop-color="#34D186"/>
</linearGradient>
<linearGradient id="paint108_linear_179_8867" x1="22.3928" y1="16.2207" x2="22.3928" y2="44.7855" gradientUnits="userSpaceOnUse">
<stop stop-color="#010114"/>
<stop offset="1" stop-color="#34D186"/>
</linearGradient>
<linearGradient id="paint109_linear_179_8867" x1="22.3928" y1="16.2207" x2="22.3928" y2="44.7855" gradientUnits="userSpaceOnUse">
<stop stop-color="#010114"/>
<stop offset="1" stop-color="#34D186"/>
</linearGradient>
<linearGradient id="paint110_linear_179_8867" x1="22.3928" y1="16.2207" x2="22.3928" y2="44.7855" gradientUnits="userSpaceOnUse">
<stop stop-color="#010114"/>
<stop offset="1" stop-color="#34D186"/>
</linearGradient>
<linearGradient id="paint111_linear_179_8867" x1="22.3928" y1="16.2207" x2="22.3928" y2="44.7855" gradientUnits="userSpaceOnUse">
<stop stop-color="#010114"/>
<stop offset="1" stop-color="#34D186"/>
</linearGradient>
<linearGradient id="paint112_linear_179_8867" x1="22.3928" y1="16.2207" x2="22.3928" y2="44.7855" gradientUnits="userSpaceOnUse">
<stop stop-color="#010114"/>
<stop offset="1" stop-color="#34D186"/>
</linearGradient>
<linearGradient id="paint113_linear_179_8867" x1="22.3928" y1="16.2207" x2="22.3928" y2="44.7855" gradientUnits="userSpaceOnUse">
<stop stop-color="#010114"/>
<stop offset="1" stop-color="#34D186"/>
</linearGradient>
<linearGradient id="paint114_linear_179_8867" x1="22.3928" y1="16.2207" x2="22.3928" y2="44.7855" gradientUnits="userSpaceOnUse">
<stop stop-color="#010114"/>
<stop offset="1" stop-color="#34D186"/>
</linearGradient>
<linearGradient id="paint115_linear_179_8867" x1="22.3928" y1="16.2207" x2="22.3928" y2="44.7855" gradientUnits="userSpaceOnUse">
<stop stop-color="#010114"/>
<stop offset="1" stop-color="#34D186"/>
</linearGradient>
<linearGradient id="paint116_linear_179_8867" x1="22.3928" y1="16.2207" x2="22.3928" y2="44.7855" gradientUnits="userSpaceOnUse">
<stop stop-color="#010114"/>
<stop offset="1" stop-color="#34D186"/>
</linearGradient>
<linearGradient id="paint117_linear_179_8867" x1="22.3928" y1="16.2207" x2="22.3928" y2="44.7855" gradientUnits="userSpaceOnUse">
<stop stop-color="#010114"/>
<stop offset="1" stop-color="#34D186"/>
</linearGradient>
<linearGradient id="paint118_linear_179_8867" x1="22.3928" y1="16.2207" x2="22.3928" y2="44.7855" gradientUnits="userSpaceOnUse">
<stop stop-color="#010114"/>
<stop offset="1" stop-color="#34D186"/>
</linearGradient>
<linearGradient id="paint119_linear_179_8867" x1="22.3928" y1="16.2207" x2="22.3928" y2="44.7855" gradientUnits="userSpaceOnUse">
<stop stop-color="#010114"/>
<stop offset="1" stop-color="#34D186"/>
</linearGradient>
</defs>
</svg>
