<svg width="531" height="509" viewBox="0 0 531 509" fill="none" xmlns="http://www.w3.org/2000/svg">
<path d="M517.865 14.3197C528.533 25.5391 531.813 42.9091 528.442 64.8723C525.072 86.8255 515.07 113.256 499.335 142.443C467.867 200.81 413.537 270.079 343.794 336.397C274.051 402.714 202.135 453.489 142.258 481.978C112.316 496.225 85.4157 504.884 63.3207 507.144C41.2156 509.406 24.0328 505.256 13.3645 494.037C2.6963 482.818 -0.583463 465.448 2.78796 443.484C6.15786 421.531 16.1597 395.101 31.895 365.914C63.3625 307.546 117.693 238.277 187.436 171.96C257.179 105.643 329.095 54.8681 388.972 26.3782C418.914 12.1318 445.814 3.47285 467.909 1.21218C490.014 -1.04955 507.197 3.10028 517.865 14.3197Z" stroke="white" stroke-width="1.188"/>
</svg>
