<svg width="1440" height="577" viewBox="0 0 1440 577" fill="none" xmlns="http://www.w3.org/2000/svg">
<g opacity="0.3">
<line x1="-68.3535" y1="529.358" x2="264.964" y2="53.3317" stroke="white" stroke-width="0.328425"/>
<line x1="76.1098" y1="545.49" x2="357.843" y2="37.2299" stroke="white" stroke-width="0.328425"/>
<line x1="208.208" y1="558.838" x2="435.27" y2="23.9125" stroke="white" stroke-width="0.328425"/>
<line x1="340.162" y1="569.256" x2="510.065" y2="13.5269" stroke="white" stroke-width="0.328425"/>
<line x1="471.947" y1="576.63" x2="582.83" y2="6.18577" stroke="white" stroke-width="0.328425"/>
<line x1="602.271" y1="580.88" x2="652.919" y2="1.97028" stroke="white" stroke-width="0.328425"/>
<line x1="719.836" y1="582" x2="719.836" y2="0.878731" stroke="white" stroke-width="0.328425"/>
<line y1="-0.109887" x2="581.121" y2="-0.109887" transform="matrix(-0.573576 -0.819152 -0.819152 0.573577 1508.22 529.453)" stroke="white" stroke-width="0.219775"/>
<line y1="-0.109887" x2="581.121" y2="-0.109887" transform="matrix(-0.48481 -0.87462 -0.87462 0.48481 1363.75 545.57)" stroke="white" stroke-width="0.219775"/>
<line y1="-0.109887" x2="581.121" y2="-0.109887" transform="matrix(-0.390731 -0.920505 -0.920505 0.390731 1231.64 558.902)" stroke="white" stroke-width="0.219775"/>
<line y1="-0.109887" x2="581.121" y2="-0.109887" transform="matrix(-0.292372 -0.956305 -0.956305 0.292372 1099.68 569.304)" stroke="white" stroke-width="0.219775"/>
<line y1="-0.109887" x2="581.121" y2="-0.109887" transform="matrix(-0.190809 -0.981627 -0.981627 0.190809 967.894 576.662)" stroke="white" stroke-width="0.219775"/>
<line y1="-0.109887" x2="581.121" y2="-0.109887" transform="matrix(-0.0871557 -0.996195 -0.996195 0.0871557 832.092 580.894)" stroke="white" stroke-width="0.219775"/>
<line x1="264.807" y1="22.2229" x2="1175.07" y2="22.2229" stroke="white" stroke-width="0.328425"/>
<line x1="216.57" y1="91.3872" x2="1223.5" y2="91.3873" stroke="white" stroke-width="0.328425"/>
<line x1="167.408" y1="161.452" x2="1272.56" y2="161.452" stroke="white" stroke-width="0.328425"/>
<line x1="118.282" y1="231.516" x2="1321.62" y2="231.516" stroke="white" stroke-width="0.328425"/>
<line x1="69.3514" y1="301.579" x2="1370.68" y2="301.58" stroke="white" stroke-width="0.328425"/>
<line x1="20.1305" y1="371.643" x2="1419.74" y2="371.644" stroke="white" stroke-width="0.328425"/>
<line x1="-28.8423" y1="441.707" x2="1468.83" y2="441.707" stroke="white" stroke-width="0.328425"/>
<line x1="-42.4497" y1="511.772" x2="1482.65" y2="511.772" stroke="white" stroke-width="0.328425"/>
</g>
</svg>
