<svg width="25" height="36" viewBox="0 0 25 36" fill="none" xmlns="http://www.w3.org/2000/svg">
<path d="M12.4777 35.2185C19.405 35.2185 24.5 30.2578 24.5 23.5543V2.28174C24.5 2.28174 22.7392 0.781738 21.5 0.781738C20.2608 0.781738 18.1536 2.28174 18.1536 2.28174L18.1089 13.9459C16.5 12.6499 14.3547 11.8455 12.1201 11.8455C5.23743 11.8455 0.5 16.672 0.5 23.5543C0.5 29.945 5.68436 35.2185 12.4777 35.2185ZM12.4777 29.23C9.21508 29.23 6.84637 26.6826 6.84637 23.5543C6.84637 20.426 9.21508 17.8339 12.4777 17.8339C15.7402 17.8339 18.1536 20.426 18.1536 23.5543C18.1536 26.6826 15.7402 29.23 12.4777 29.23Z" fill="white"/>
</svg>
