<svg width="200" height="36" viewBox="0 0 200 36" fill="none" xmlns="http://www.w3.org/2000/svg">
<rect y="0.679688" width="34.4937" height="34.4937" rx="5.74895" fill="#FAFAFB"/>
<path d="M17.2338 28.2377C21.3822 28.2377 24.4334 25.267 24.4334 21.2526V8.51351C24.4334 8.51351 23.3789 7.61523 22.6368 7.61523C21.8947 7.61523 20.6328 8.51351 20.6328 8.51351L20.6061 15.4986C19.6426 14.7225 18.3579 14.2407 17.0197 14.2407C12.898 14.2407 10.061 17.1311 10.061 21.2526C10.061 25.0797 13.1656 28.2377 17.2338 28.2377ZM17.2338 24.6515C15.28 24.6515 13.8615 23.126 13.8615 21.2526C13.8615 19.3792 15.28 17.827 17.2338 17.827C19.1876 17.827 20.6328 19.3792 20.6328 21.2526C20.6328 23.126 19.1876 24.6515 17.2338 24.6515Z" fill="#010114"/>
<path d="M54.6018 28.2377C58.7503 28.2377 61.8014 25.267 61.8014 21.2526V8.51351C61.8014 8.51351 60.747 7.61523 60.0049 7.61523C59.2628 7.61523 58.0009 8.51351 58.0009 8.51351L57.9741 15.4986C57.0106 14.7225 55.7259 14.2407 54.3877 14.2407C50.266 14.2407 47.429 17.1311 47.429 21.2526C47.429 25.0797 50.5337 28.2377 54.6018 28.2377ZM54.6018 24.6515C52.648 24.6515 51.2295 23.126 51.2295 21.2526C51.2295 19.3792 52.648 17.827 54.6018 17.827C56.5556 17.827 58.0009 19.3792 58.0009 21.2526C58.0009 23.126 56.5556 24.6515 54.6018 24.6515Z" fill="#FAFAFB"/>
<path d="M70.2955 28.2118C66.5702 28.2118 63.9573 25.1591 63.9573 21.4338C63.9573 17.7602 66.9582 14.6816 70.8905 14.6816C74.9004 14.6816 77.8496 17.5791 77.8496 21.4338V27.8755H74.3571V26.375C73.4517 27.5133 72.0547 28.2118 70.2955 28.2118ZM70.8905 24.771C72.779 24.771 74.176 23.2706 74.176 21.4597C74.176 19.6487 72.779 18.1483 70.8905 18.1483C69.002 18.1483 67.6308 19.6487 67.6308 21.4597C67.6308 23.2706 69.002 24.771 70.8905 24.771Z" fill="#FAFAFB"/>
<path d="M83.0291 25.7541L79.1227 15.0697H83.0291L86.3923 24.6158L89.7295 15.0697H93.6359L89.6778 25.7541C89.0569 27.4098 87.9445 28.2377 86.3664 28.2377C84.8142 28.2377 83.6241 27.4098 83.0291 25.7541ZM86.3664 24.7193C86.3923 24.7193 86.3923 24.7193 86.3923 24.7193H86.3664Z" fill="#FAFAFB"/>
<path d="M97.6792 13.1553C96.4374 13.1553 95.4026 12.1463 95.4026 10.8787C95.4026 9.63693 96.4374 8.60212 97.6792 8.60212C98.921 8.60212 99.9299 9.63693 99.9299 10.8787C99.9299 12.1463 98.921 13.1553 97.6792 13.1553ZM95.8424 15.0697H99.516V27.8755H95.8424V15.0697Z" fill="#FAFAFB"/>
<path d="M109.259 28.2377C113.407 28.2377 116.458 25.267 116.458 21.2526V8.51351C116.458 8.51351 115.404 7.61523 114.662 7.61523C113.919 7.61523 112.658 8.51351 112.658 8.51351L112.631 15.4986C111.667 14.7225 110.383 14.2407 109.044 14.2407C104.923 14.2407 102.086 17.1311 102.086 21.2526C102.086 25.0797 105.19 28.2377 109.259 28.2377ZM109.259 24.6515C107.305 24.6515 105.886 23.126 105.886 21.2526C105.886 19.3792 107.305 17.827 109.259 17.827C111.212 17.827 112.658 19.3792 112.658 21.2526C112.658 23.126 111.212 24.6515 109.259 24.6515Z" fill="#FAFAFB"/>
<path d="M130.67 27.2508C128.005 27.2508 126.142 26.2677 125.082 24.3533L127.798 22.827C128.341 23.8618 129.195 24.3016 130.488 24.3016C131.678 24.3016 132.429 23.8359 132.429 23.0857C132.429 21.016 125.392 22.8011 125.392 17.8599C125.392 15.5574 127.41 13.7465 130.566 13.7465C133.308 13.7465 134.964 15.04 135.74 16.5146L133.024 18.041C132.61 17.1096 131.678 16.6698 130.644 16.6698C129.738 16.6698 129.066 17.1096 129.066 17.7823C129.066 19.8519 136.102 18.1962 136.102 23.0081C136.102 25.5951 133.593 27.2508 130.67 27.2508Z" fill="#FAFAFB"/>
<path d="M142.827 26.8886H139.154V8.18438H142.827V14.8589C143.785 14.1604 145.052 13.7206 146.449 13.7206C150.356 13.7206 152.399 16.2042 152.399 20.2399V26.8886L148.726 26.8627V20.6021C148.726 18.7912 147.743 17.1872 145.88 17.1872C144.043 17.1872 142.827 18.636 142.827 20.6539V26.8886Z" fill="#FAFAFB"/>
<path d="M157.867 12.1684C156.625 12.1684 155.59 11.1595 155.59 9.89182C155.59 8.65005 156.625 7.61523 157.867 7.61523C159.109 7.61523 160.118 8.65005 160.118 9.89182C160.118 11.1595 159.109 12.1684 157.867 12.1684ZM156.03 14.0828H159.704V26.8886H156.03V14.0828Z" fill="#FAFAFB"/>
<path d="M169.891 27.2508C166.191 27.2508 164.355 25.0259 164.355 21.818V17.1872H162.001V14.0828H164.355V10.8232H168.028V14.0828H172.556V17.1872H168.028V21.7145C168.028 23.1374 168.882 23.9653 170.227 23.9653C170.977 23.9653 171.935 23.7324 172.556 23.3444V26.6299C171.909 27.0438 170.796 27.2508 169.891 27.2508Z" fill="#FAFAFB"/>
<path d="M181.866 27.2508C178.167 27.2508 176.33 25.0259 176.33 21.818V17.1872H173.976V14.0828H176.33V10.8232H180.003V14.0828H184.531V17.1872H180.003V21.7145C180.003 23.1374 180.857 23.9653 182.202 23.9653C182.953 23.9653 183.91 23.7324 184.531 23.3444V26.6299C183.884 27.0438 182.772 27.2508 181.866 27.2508Z" fill="#FAFAFB"/>
<path d="M193.481 23.6807C195.369 23.6807 196.327 21.9991 196.327 20.0071V14.0828H200V20.4469C200 24.1981 197.775 27.2249 193.481 27.2249C189.212 27.2249 186.987 24.1981 186.987 20.4469V14.0828H190.661V20.033C190.661 21.9991 191.592 23.6807 193.481 23.6807Z" fill="#FAFAFB"/>
</svg>
