<svg width="25" height="36" viewBox="0 0 25 36" fill="none" xmlns="http://www.w3.org/2000/svg">
<path d="M12.0167 35.2185C18.9441 35.2185 24.0391 30.2578 24.0391 23.5543V2.28174C24.0391 2.28174 22.2783 0.781738 21.0391 0.781738C19.7999 0.781738 17.6927 2.28174 17.6927 2.28174L17.648 13.9459C16.0391 12.6499 13.8938 11.8455 11.6592 11.8455C4.77649 11.8455 0.0390625 16.672 0.0390625 23.5543C0.0390625 29.945 5.22342 35.2185 12.0167 35.2185ZM12.0167 29.23C8.75415 29.23 6.38543 26.6826 6.38543 23.5543C6.38543 20.426 8.75415 17.8339 12.0167 17.8339C15.2793 17.8339 17.6927 20.426 17.6927 23.5543C17.6927 26.6826 15.2793 29.23 12.0167 29.23Z" fill="#121212"/>
</svg>
