<svg width="953" height="326" viewBox="0 0 953 326" fill="none" xmlns="http://www.w3.org/2000/svg">
<rect width="952" height="300" transform="translate(0.539062 25.5117)" fill="#010114"/>
<path d="M3.40863 36.3378C3.40863 39.3117 5.4608 40.79 7.53037 40.79C9.61732 40.79 11.6695 39.3117 11.6695 36.3378C11.6695 33.3639 9.61732 31.8856 7.53037 31.8856C5.4608 31.8856 3.40863 33.3639 3.40863 36.3378ZM1.2695 36.3378C1.2695 32.303 4.29558 29.9204 7.53037 29.9204C10.7651 29.9204 13.8086 32.303 13.8086 36.3378C13.8086 40.39 10.7651 42.7726 7.53037 42.7726C4.29558 42.7726 1.2695 40.39 1.2695 36.3378ZM17.8214 42.5117H15.804V29.9204H17.8214V42.5117ZM21.7801 38.2508C21.7801 39.8682 22.6844 40.9465 24.0584 40.9465C25.3801 40.9465 26.3018 39.8508 26.3018 38.2335C26.3018 36.6161 25.3975 35.6074 24.0757 35.6074C22.754 35.6074 21.7801 36.6335 21.7801 38.2508ZM28.2497 29.9204V40.9639C28.2497 41.7291 28.3192 42.3726 28.3366 42.5117H26.4062C26.3714 42.3204 26.3192 41.7639 26.3192 41.4161C25.9192 42.1291 25.0323 42.7204 23.8323 42.7204C21.3975 42.7204 19.7627 40.8074 19.7627 38.2508C19.7627 35.8161 21.4149 33.8161 23.7975 33.8161C25.2757 33.8161 26.0236 34.4943 26.2844 35.0335V29.9204H28.2497ZM38.9559 31.6422C38.4342 31.6422 37.7037 31.8856 37.7037 32.9291V34.0422H41.3211V29.9204H43.3211V42.5117H41.3211V35.7987H37.7037V42.5117H35.669V35.7987H34.1907V34.0422H35.669V32.8769C35.669 30.9813 36.8863 29.8335 38.6255 29.8335C39.1298 29.8335 39.5472 29.9378 39.6863 30.0074V31.7291C39.5646 31.6943 39.3385 31.6422 38.9559 31.6422ZM49.6548 40.9639C50.907 40.9639 52.02 40.0422 52.02 38.2682C52.02 36.5117 50.907 35.6074 49.6548 35.6074C48.42 35.6074 47.2896 36.5117 47.2896 38.2682C47.2896 40.0248 48.42 40.9639 49.6548 40.9639ZM49.6548 33.7813C52.194 33.7813 54.0548 35.6769 54.0548 38.2682C54.0548 40.8769 52.194 42.7726 49.6548 42.7726C47.1331 42.7726 45.2722 40.8769 45.2722 38.2682C45.2722 35.6769 47.1331 33.7813 49.6548 33.7813ZM60.6006 34.0422H62.6876L64.6876 39.903L66.3745 34.0422H68.4267L65.7137 42.5117H63.6963L61.5919 36.4248L59.5397 42.5117H57.4702L54.7223 34.0422H56.8789L58.6006 39.903L60.6006 34.0422Z" fill="#FAFAFB"/>
<rect x="0.539062" y="72.6338" width="194.638" height="54.3835" rx="3" fill="white"/>
<path d="M67.7527 96.2716C67.6959 95.6987 67.4521 95.2536 67.0212 94.9363C66.5903 94.6191 66.0056 94.4605 65.2669 94.4605C64.765 94.4605 64.3413 94.5315 63.9956 94.6736C63.65 94.8109 63.3848 95.0026 63.2002 95.2488C63.0202 95.4951 62.9303 95.7744 62.9303 96.0869C62.9208 96.3473 62.9753 96.5746 63.0936 96.7687C63.2167 96.9629 63.3848 97.1309 63.5979 97.273C63.811 97.4103 64.0572 97.531 64.3365 97.6352C64.6159 97.7346 64.9142 97.8199 65.2314 97.8909L66.5382 98.2034C67.1727 98.3454 67.7551 98.5348 68.2854 98.7716C68.8157 99.0083 69.275 99.2995 69.6632 99.6452C70.0515 99.9908 70.3521 100.398 70.5652 100.867C70.783 101.335 70.8943 101.873 70.899 102.479C70.8943 103.369 70.667 104.141 70.2172 104.794C69.7721 105.443 69.1282 105.947 68.2854 106.307C67.4473 106.662 66.4364 106.84 65.2527 106.84C64.0785 106.84 63.0557 106.66 62.1845 106.3C61.3181 105.94 60.641 105.407 60.1533 104.702C59.6703 103.992 59.417 103.113 59.3933 102.067H62.3692C62.4023 102.555 62.542 102.962 62.7882 103.289C63.0392 103.611 63.373 103.854 63.7896 104.02C64.211 104.181 64.6869 104.262 65.2172 104.262C65.738 104.262 66.1902 104.186 66.5737 104.034C66.962 103.883 67.2627 103.672 67.4757 103.402C67.6888 103.132 67.7953 102.822 67.7953 102.472C67.7953 102.145 67.6983 101.871 67.5041 101.648C67.3147 101.425 67.0354 101.236 66.6661 101.08C66.3015 100.924 65.854 100.782 65.3237 100.654L63.7399 100.256C62.5136 99.9577 61.5453 99.4913 60.8351 98.8568C60.1249 98.2223 59.7721 97.3677 59.7769 96.2929C59.7721 95.4122 60.0065 94.6428 60.48 93.9846C60.9582 93.3265 61.614 92.8128 62.4473 92.4434C63.2807 92.0741 64.2276 91.8895 65.2882 91.8895C66.3678 91.8895 67.31 92.0741 68.1149 92.4434C68.9246 92.8128 69.5543 93.3265 70.0041 93.9846C70.4539 94.6428 70.686 95.4051 70.7002 96.2716H67.7527ZM75.6628 92.0883V106.634H72.5876V92.0883H75.6628ZM87.4579 96.79C87.3585 96.4444 87.2188 96.139 87.0389 95.8738C86.859 95.604 86.6388 95.3767 86.3784 95.192C86.1227 95.0026 85.8291 94.8582 85.4977 94.7588C85.171 94.6594 84.8088 94.6096 84.411 94.6096C83.6677 94.6096 83.0143 94.7943 82.4508 95.1636C81.8921 95.5329 81.4565 96.0703 81.144 96.7758C80.8315 97.4766 80.6752 98.3336 80.6752 99.3469C80.6752 100.36 80.8291 101.222 81.1369 101.932C81.4447 102.642 81.8803 103.184 82.4437 103.559C83.0072 103.928 83.6724 104.112 84.4394 104.112C85.1355 104.112 85.7297 103.989 86.2221 103.743C86.7193 103.492 87.0981 103.139 87.3585 102.685C87.6236 102.23 87.7562 101.693 87.7562 101.073L88.3812 101.165H84.6312V98.8497H90.7179V100.682C90.7179 101.96 90.448 103.059 89.9082 103.978C89.3684 104.891 88.6251 105.597 87.6781 106.094C86.7311 106.586 85.6468 106.833 84.4252 106.833C83.0616 106.833 81.8637 106.532 80.8315 105.931C79.7993 105.325 78.9944 104.465 78.4167 103.353C77.8438 102.235 77.5573 100.909 77.5573 99.3753C77.5573 98.1963 77.7278 97.1452 78.0687 96.2219C78.4144 95.2938 78.8973 94.5078 79.5176 93.8639C80.1378 93.22 80.8599 92.7299 81.6838 92.3937C82.5076 92.0576 83.4001 91.8895 84.3613 91.8895C85.1852 91.8895 85.9522 92.0102 86.6625 92.2517C87.3727 92.4884 88.0024 92.8246 88.5517 93.2602C89.1056 93.6958 89.5578 94.2143 89.9082 94.8156C90.2586 95.4122 90.4835 96.0703 90.5829 96.79H87.4579ZM104.814 92.0883V106.634H102.158L95.8297 97.479H95.7232V106.634H92.6479V92.0883H95.3467L101.625 101.236H101.753V92.0883H104.814ZM120.208 92.0883H123.283V101.534C123.283 102.595 123.03 103.523 122.524 104.318C122.022 105.114 121.319 105.734 120.414 106.179C119.51 106.62 118.456 106.84 117.254 106.84C116.046 106.84 114.99 106.62 114.086 106.179C113.182 105.734 112.479 105.114 111.977 104.318C111.475 103.523 111.224 102.595 111.224 101.534V92.0883H114.299V101.272C114.299 101.826 114.42 102.318 114.661 102.749C114.908 103.18 115.253 103.518 115.698 103.764C116.143 104.011 116.662 104.134 117.254 104.134C117.85 104.134 118.369 104.011 118.809 103.764C119.254 103.518 119.597 103.18 119.839 102.749C120.085 102.318 120.208 101.826 120.208 101.272V92.0883ZM125.434 106.634V92.0883H131.172C132.276 92.0883 133.215 92.299 133.992 92.7204C134.768 93.1371 135.36 93.7171 135.767 94.4605C136.179 95.1991 136.385 96.0514 136.385 97.0173C136.385 97.9832 136.177 98.8355 135.76 99.5741C135.344 100.313 134.74 100.888 133.949 101.3C133.163 101.712 132.212 101.918 131.094 101.918H127.436V99.4534H130.597C131.189 99.4534 131.677 99.3516 132.06 99.148C132.448 98.9397 132.737 98.6532 132.927 98.2886C133.121 97.9193 133.218 97.4955 133.218 97.0173C133.218 96.5344 133.121 96.113 132.927 95.7531C132.737 95.3885 132.448 95.1068 132.06 94.9079C131.672 94.7043 131.179 94.6025 130.583 94.6025H128.509V106.634H125.434Z" fill="black" fill-opacity="0.8"/>
<rect x="273.44" y="72.8252" width="228" height="54" rx="3" fill="white"/>
<path d="M296.566 106.825V92.2797H299.641V98.6931H299.833L305.067 92.2797H308.753L303.355 98.7925L308.817 106.825H305.138L301.154 100.845L299.641 102.692V106.825H296.566ZM309.282 92.2797H312.727L316.044 98.5439H316.186L319.503 92.2797H322.947L317.642 101.683V106.825H314.588V101.683L309.282 92.2797ZM336.362 97.3721H333.251C333.194 96.9696 333.078 96.6121 332.903 96.2996C332.728 95.9824 332.503 95.7125 332.228 95.49C331.954 95.2674 331.636 95.097 331.276 94.9786C330.921 94.8602 330.535 94.801 330.119 94.801C329.366 94.801 328.71 94.9881 328.151 95.3621C327.593 95.7314 327.16 96.2712 326.852 96.9814C326.544 97.6869 326.39 98.5439 326.39 99.5525C326.39 100.589 326.544 101.461 326.852 102.166C327.164 102.872 327.6 103.404 328.159 103.764C328.717 104.124 329.364 104.304 330.098 104.304C330.509 104.304 330.891 104.249 331.241 104.141C331.596 104.032 331.911 103.873 332.186 103.665C332.46 103.452 332.687 103.194 332.867 102.891C333.052 102.588 333.18 102.242 333.251 101.854L336.362 101.868C336.281 102.535 336.08 103.179 335.758 103.8C335.441 104.415 335.012 104.967 334.473 105.454C333.937 105.937 333.298 106.321 332.555 106.605C331.816 106.884 330.981 107.024 330.048 107.024C328.75 107.024 327.59 106.73 326.568 106.143C325.55 105.556 324.745 104.706 324.153 103.594C323.566 102.481 323.272 101.134 323.272 99.5525C323.272 97.9663 323.571 96.6169 324.167 95.5042C324.764 94.3915 325.573 93.5439 326.596 92.9616C327.619 92.3744 328.769 92.0809 330.048 92.0809C330.891 92.0809 331.672 92.1992 332.392 92.436C333.116 92.6727 333.758 93.0184 334.316 93.4729C334.875 93.9227 335.33 94.4743 335.68 95.1278C336.035 95.7812 336.262 96.5293 336.362 97.3721ZM345.384 92.2797L348.899 103.331H349.034L352.557 92.2797H355.966L350.952 106.825H346.989L341.968 92.2797H345.384ZM357.497 106.825V92.2797H367.298V94.8153H360.572V98.2812H366.794V100.817H360.572V104.29H367.326V106.825H357.497ZM369.523 106.825V92.2797H375.262C376.36 92.2797 377.298 92.4762 378.074 92.8692C378.855 93.2575 379.45 93.8091 379.857 94.5241C380.269 95.2343 380.475 96.07 380.475 97.0312C380.475 97.9971 380.266 98.828 379.85 99.5241C379.433 100.215 378.829 100.746 378.039 101.115C377.253 101.484 376.301 101.669 375.183 101.669H371.341V99.1974H374.686C375.273 99.1974 375.761 99.1169 376.149 98.9559C376.538 98.7949 376.826 98.5534 377.016 98.2314C377.21 97.9095 377.307 97.5094 377.307 97.0312C377.307 96.5482 377.21 96.141 377.016 95.8096C376.826 95.4781 376.535 95.2272 376.142 95.0567C375.754 94.8815 375.264 94.7939 374.672 94.7939H372.598V106.825H369.523ZM377.378 100.206L380.993 106.825H377.598L374.061 100.206H377.378ZM385.503 92.2797V106.825H382.428V92.2797H385.503ZM387.813 106.825V92.2797H397.444V94.8153H390.889V98.2812H396.805V100.817H390.889V106.825H387.813ZM402.368 92.2797V106.825H399.293V92.2797H402.368ZM417.512 97.3721H414.401C414.344 96.9696 414.228 96.6121 414.053 96.2996C413.878 95.9824 413.653 95.7125 413.378 95.49C413.104 95.2674 412.787 95.097 412.427 94.9786C412.072 94.8602 411.686 94.801 411.269 94.801C410.516 94.801 409.86 94.9881 409.302 95.3621C408.743 95.7314 408.31 96.2712 408.002 96.9814C407.694 97.6869 407.54 98.5439 407.54 99.5525C407.54 100.589 407.694 101.461 408.002 102.166C408.314 102.872 408.75 103.404 409.309 103.764C409.867 104.124 410.514 104.304 411.248 104.304C411.66 104.304 412.041 104.249 412.391 104.141C412.746 104.032 413.061 103.873 413.336 103.665C413.61 103.452 413.838 103.194 414.018 102.891C414.202 102.588 414.33 102.242 414.401 101.854L417.512 101.868C417.431 102.535 417.23 103.179 416.908 103.8C416.591 104.415 416.162 104.967 415.623 105.454C415.088 105.937 414.448 106.321 413.705 106.605C412.966 106.884 412.131 107.024 411.198 107.024C409.901 107.024 408.741 106.73 407.718 106.143C406.7 105.556 405.895 104.706 405.303 103.594C404.716 102.481 404.422 101.134 404.422 99.5525C404.422 97.9663 404.721 96.6169 405.317 95.5042C405.914 94.3915 406.724 93.5439 407.746 92.9616C408.769 92.3744 409.92 92.0809 411.198 92.0809C412.041 92.0809 412.822 92.1992 413.542 92.436C414.266 92.6727 414.908 93.0184 415.466 93.4729C416.025 93.9227 416.48 94.4743 416.83 95.1278C417.185 95.7812 417.412 96.5293 417.512 97.3721ZM421.731 106.825H418.435L423.457 92.2797H427.42L432.434 106.825H429.138L425.495 95.6036H425.381L421.731 106.825ZM421.525 101.108H429.309V103.508H421.525V101.108ZM431.633 94.8153V92.2797H443.579V94.8153H439.126V106.825H436.086V94.8153H431.633ZM448.402 92.2797V106.825H445.327V92.2797H448.402ZM464.079 99.5525C464.079 101.139 463.778 102.488 463.177 103.601C462.58 104.713 461.766 105.563 460.733 106.15C459.706 106.733 458.551 107.024 457.268 107.024C455.975 107.024 454.815 106.73 453.787 106.143C452.76 105.556 451.948 104.706 451.351 103.594C450.755 102.481 450.456 101.134 450.456 99.5525C450.456 97.9663 450.755 96.6169 451.351 95.5042C451.948 94.3915 452.76 93.5439 453.787 92.9616C454.815 92.3744 455.975 92.0809 457.268 92.0809C458.551 92.0809 459.706 92.3744 460.733 92.9616C461.766 93.5439 462.58 94.3915 463.177 95.5042C463.778 96.6169 464.079 97.9663 464.079 99.5525ZM460.961 99.5525C460.961 98.525 460.807 97.6585 460.499 96.953C460.196 96.2475 459.768 95.7125 459.214 95.3479C458.66 94.9833 458.011 94.801 457.268 94.801C456.524 94.801 455.875 94.9833 455.322 95.3479C454.768 95.7125 454.337 96.2475 454.029 96.953C453.726 97.6585 453.574 98.525 453.574 99.5525C453.574 100.58 453.726 101.446 454.029 102.152C454.337 102.857 454.768 103.392 455.322 103.757C455.875 104.122 456.524 104.304 457.268 104.304C458.011 104.304 458.66 104.122 459.214 103.757C459.768 103.392 460.196 102.857 460.499 102.152C460.807 101.446 460.961 100.58 460.961 99.5525ZM478.303 92.2797V106.825H475.647L469.318 97.6704H469.212V106.825H466.137V92.2797H468.836L475.114 101.427H475.242V92.2797H478.303Z" fill="black" fill-opacity="0.8"/>
<path d="M199.178 98.3252C198.349 98.3252 197.678 98.9968 197.678 99.8252C197.678 100.654 198.349 101.325 199.178 101.325V98.3252ZM254.441 106.485C254.441 107.314 255.455 107.9 256.173 107.485L267.709 100.825C268.426 100.411 268.426 99.2394 267.709 98.8252L256.173 92.1649C255.455 91.7507 254.441 92.3365 254.441 93.1649V106.485ZM199.178 101.325H255.941V98.3252H199.178V101.325Z" fill="#F9F9F9"/>
<path d="M653.857 59.0435C655.634 58.0858 657.774 58.0858 659.551 59.0435L730.551 94.5435C734.755 96.8095 734.755 102.841 730.551 105.107L659.551 140.607C657.774 141.565 655.634 141.565 653.857 140.607L582.857 105.107C578.653 102.841 578.653 96.8095 582.857 94.5435L653.857 59.0435Z" fill="#14AE5C"/>
<path d="M627.036 106.325H624.4L628.417 94.6888H631.587L635.599 106.325H632.962L630.048 97.3479H629.957L627.036 106.325ZM626.871 101.751H633.099V103.672H626.871V101.751ZM646.543 98.7627H644.055C644.009 98.4407 643.916 98.1547 643.776 97.9047C643.636 97.651 643.456 97.435 643.237 97.257C643.017 97.079 642.763 96.9426 642.475 96.8479C642.191 96.7532 641.882 96.7059 641.549 96.7059C640.947 96.7059 640.422 96.8555 639.975 97.1547C639.528 97.4502 639.182 97.882 638.935 98.4502C638.689 99.0146 638.566 99.7002 638.566 100.507C638.566 101.337 638.689 102.034 638.935 102.598C639.185 103.162 639.534 103.588 639.981 103.876C640.428 104.164 640.945 104.308 641.532 104.308C641.862 104.308 642.166 104.265 642.447 104.177C642.731 104.09 642.983 103.963 643.202 103.797C643.422 103.626 643.604 103.42 643.748 103.177C643.896 102.935 643.998 102.659 644.055 102.348L646.543 102.359C646.479 102.893 646.318 103.409 646.06 103.905C645.807 104.397 645.464 104.838 645.032 105.229C644.604 105.615 644.093 105.922 643.498 106.149C642.907 106.373 642.238 106.484 641.492 106.484C640.454 106.484 639.526 106.249 638.708 105.78C637.894 105.31 637.25 104.63 636.776 103.74C636.307 102.85 636.072 101.772 636.072 100.507C636.072 99.2381 636.31 98.1585 636.788 97.2684C637.265 96.3782 637.913 95.7002 638.731 95.2343C639.549 94.7646 640.47 94.5297 641.492 94.5297C642.166 94.5297 642.791 94.6244 643.367 94.8138C643.947 95.0032 644.46 95.2797 644.907 95.6434C645.354 96.0032 645.718 96.4445 645.998 96.9672C646.282 97.49 646.464 98.0885 646.543 98.7627ZM658.399 98.7627H655.91C655.865 98.4407 655.772 98.1547 655.632 97.9047C655.491 97.651 655.312 97.435 655.092 97.257C654.872 97.079 654.618 96.9426 654.33 96.8479C654.046 96.7532 653.738 96.7059 653.404 96.7059C652.802 96.7059 652.277 96.8555 651.83 97.1547C651.383 97.4502 651.037 97.882 650.791 98.4502C650.544 99.0146 650.421 99.7002 650.421 100.507C650.421 101.337 650.544 102.034 650.791 102.598C651.041 103.162 651.389 103.588 651.836 103.876C652.283 104.164 652.8 104.308 653.387 104.308C653.717 104.308 654.022 104.265 654.302 104.177C654.586 104.09 654.838 103.963 655.058 103.797C655.277 103.626 655.459 103.42 655.603 103.177C655.751 102.935 655.853 102.659 655.91 102.348L658.399 102.359C658.334 102.893 658.173 103.409 657.916 103.905C657.662 104.397 657.319 104.838 656.887 105.229C656.459 105.615 655.948 105.922 655.353 106.149C654.762 106.373 654.094 106.484 653.347 106.484C652.31 106.484 651.382 106.249 650.563 105.78C649.749 105.31 649.105 104.63 648.632 103.74C648.162 102.85 647.927 101.772 647.927 100.507C647.927 99.2381 648.166 98.1585 648.643 97.2684C649.12 96.3782 649.768 95.7002 650.586 95.2343C651.404 94.7646 652.325 94.5297 653.347 94.5297C654.022 94.5297 654.647 94.6244 655.222 94.8138C655.802 95.0032 656.315 95.2797 656.762 95.6434C657.209 96.0032 657.573 96.4445 657.853 96.9672C658.137 97.49 658.319 98.0885 658.399 98.7627ZM659.987 106.325V94.6888H667.828V96.7172H662.447V99.49H667.424V101.518H662.447V104.297H667.85V106.325H659.987ZM675.92 98.0354C675.875 97.5771 675.68 97.221 675.335 96.9672C674.99 96.7135 674.522 96.5866 673.932 96.5866C673.53 96.5866 673.191 96.6434 672.915 96.757C672.638 96.8669 672.426 97.0203 672.278 97.2172C672.134 97.4142 672.062 97.6377 672.062 97.8877C672.055 98.096 672.098 98.2778 672.193 98.4331C672.291 98.5885 672.426 98.7229 672.596 98.8366C672.767 98.9464 672.964 99.043 673.187 99.1263C673.411 99.2059 673.649 99.2741 673.903 99.3309L674.949 99.5809C675.456 99.6945 675.922 99.846 676.346 100.035C676.771 100.225 677.138 100.458 677.449 100.734C677.759 101.011 678 101.337 678.17 101.712C678.344 102.087 678.433 102.516 678.437 103.001C678.433 103.713 678.252 104.331 677.892 104.854C677.536 105.373 677.021 105.776 676.346 106.064C675.676 106.348 674.867 106.49 673.92 106.49C672.981 106.49 672.163 106.346 671.466 106.058C670.772 105.77 670.231 105.344 669.841 104.78C669.454 104.212 669.252 103.509 669.233 102.672H671.613C671.64 103.062 671.752 103.388 671.949 103.649C672.149 103.907 672.416 104.102 672.75 104.234C673.087 104.363 673.468 104.427 673.892 104.427C674.308 104.427 674.67 104.367 674.977 104.246C675.288 104.124 675.528 103.956 675.699 103.74C675.869 103.524 675.954 103.276 675.954 102.996C675.954 102.734 675.877 102.515 675.721 102.337C675.57 102.159 675.346 102.007 675.051 101.882C674.759 101.757 674.401 101.643 673.977 101.541L672.71 101.223C671.729 100.984 670.954 100.611 670.386 100.104C669.818 99.596 669.536 98.9123 669.54 98.0525C669.536 97.3479 669.723 96.7324 670.102 96.2059C670.485 95.6794 671.009 95.2684 671.676 94.9729C672.343 94.6775 673.1 94.5297 673.949 94.5297C674.812 94.5297 675.566 94.6775 676.21 94.9729C676.858 95.2684 677.362 95.6794 677.721 96.2059C678.081 96.7324 678.267 97.3422 678.278 98.0354H675.92ZM686.229 98.0354C686.183 97.5771 685.988 97.221 685.643 96.9672C685.299 96.7135 684.831 96.5866 684.24 96.5866C683.838 96.5866 683.499 96.6434 683.223 96.757C682.946 96.8669 682.734 97.0203 682.587 97.2172C682.443 97.4142 682.371 97.6377 682.371 97.8877C682.363 98.096 682.407 98.2778 682.501 98.4331C682.6 98.5885 682.734 98.7229 682.905 98.8366C683.075 98.9464 683.272 99.043 683.496 99.1263C683.719 99.2059 683.958 99.2741 684.212 99.3309L685.257 99.5809C685.765 99.6945 686.23 99.846 686.655 100.035C687.079 100.225 687.446 100.458 687.757 100.734C688.068 101.011 688.308 101.337 688.479 101.712C688.653 102.087 688.742 102.516 688.746 103.001C688.742 103.713 688.56 104.331 688.2 104.854C687.844 105.373 687.329 105.776 686.655 106.064C685.984 106.348 685.176 106.49 684.229 106.49C683.289 106.49 682.471 106.346 681.774 106.058C681.081 105.77 680.539 105.344 680.149 104.78C679.763 104.212 679.56 103.509 679.541 102.672H681.922C681.948 103.062 682.06 103.388 682.257 103.649C682.458 103.907 682.725 104.102 683.058 104.234C683.395 104.363 683.776 104.427 684.2 104.427C684.617 104.427 684.979 104.367 685.285 104.246C685.596 104.124 685.837 103.956 686.007 103.74C686.177 103.524 686.263 103.276 686.263 102.996C686.263 102.734 686.185 102.515 686.03 102.337C685.878 102.159 685.655 102.007 685.359 101.882C685.068 101.757 684.71 101.643 684.285 101.541L683.018 101.223C682.037 100.984 681.263 100.611 680.694 100.104C680.126 99.596 679.844 98.9123 679.848 98.0525C679.844 97.3479 680.032 96.7324 680.41 96.2059C680.793 95.6794 681.318 95.2684 681.984 94.9729C682.651 94.6775 683.409 94.5297 684.257 94.5297C685.121 94.5297 685.874 94.6775 686.518 94.9729C687.166 95.2684 687.67 95.6794 688.03 96.2059C688.39 96.7324 688.575 97.3422 688.587 98.0354H686.229Z" fill="white"/>
<path d="M505.44 98.3252C504.612 98.3252 503.94 98.9968 503.94 99.8252C503.94 100.654 504.612 101.325 505.44 101.325V98.3252ZM560.704 106.485C560.704 107.314 561.719 107.9 562.436 107.485L573.972 100.825C574.689 100.411 574.689 99.2394 573.972 98.8252L562.436 92.1649C561.719 91.7507 560.704 92.3365 560.704 93.1649V106.485ZM505.44 101.325H562.204V98.3252H505.44V101.325Z" fill="#F9F9F9"/>
<rect x="811.967" y="72.792" width="140.572" height="54.0662" rx="3" fill="#2475FF"/>
<path d="M865.975 106.792H862.679L867.7 92.2465H871.663L876.678 106.792H873.382L869.739 95.5704H869.625L865.975 106.792ZM865.769 101.075H873.553V103.475H865.769V101.075ZM878.048 106.792V92.2465H883.787C884.89 92.2465 885.83 92.4572 886.607 92.8786C887.383 93.2953 887.975 93.8753 888.382 94.6187C888.794 95.3573 889 96.2096 889 97.1755C889 98.1414 888.792 98.9937 888.375 99.7323C887.958 100.471 887.355 101.046 886.564 101.458C885.778 101.87 884.826 102.076 883.709 102.076H880.051V99.6116H883.212C883.804 99.6116 884.291 99.5098 884.675 99.3062C885.063 99.0979 885.352 98.8114 885.541 98.4468C885.735 98.0775 885.832 97.6537 885.832 97.1755C885.832 96.6926 885.735 96.2712 885.541 95.9113C885.352 95.5467 885.063 95.265 884.675 95.0661C884.287 94.8625 883.794 94.7607 883.197 94.7607H881.124V106.792H878.048ZM890.618 106.792V92.2465H896.356C897.459 92.2465 898.399 92.4572 899.176 92.8786C899.952 93.2953 900.544 93.8753 900.951 94.6187C901.363 95.3573 901.569 96.2096 901.569 97.1755C901.569 98.1414 901.361 98.9937 900.944 99.7323C900.528 100.471 899.924 101.046 899.133 101.458C898.347 101.87 897.396 102.076 896.278 102.076H892.62V99.6116H895.781C896.373 99.6116 896.86 99.5098 897.244 99.3062C897.632 99.0979 897.921 98.8114 898.11 98.4468C898.305 98.0775 898.402 97.6537 898.402 97.1755C898.402 96.6926 898.305 96.2712 898.11 95.9113C897.921 95.5467 897.632 95.265 897.244 95.0661C896.856 94.8625 896.363 94.7607 895.767 94.7607H893.693V106.792H890.618Z" fill="white"/>
<path d="M737.704 98.3252C736.876 98.3252 736.204 98.9968 736.204 99.8252C736.204 100.654 736.876 101.325 737.704 101.325V98.3252ZM792.967 106.485C792.967 107.314 793.981 107.9 794.699 107.485L806.235 100.825C806.952 100.411 806.952 99.2394 806.235 98.8252L794.699 92.1649C793.981 91.7507 792.967 92.3365 792.967 93.1649V106.485ZM737.704 101.325H794.467V98.3252H737.704V101.325Z" fill="#18FF04"/>
<path d="M816.672 47.8333L811.183 39.4261L806.647 48.3839L816.672 47.8333ZM377.177 62.817C377.678 62.521 378.179 62.2263 378.68 61.9328L377.802 60.4319C377.298 60.7265 376.795 61.0224 376.292 61.3196L377.177 62.817ZM381.691 60.1874C382.695 59.6107 383.699 59.039 384.704 58.4723L383.85 56.9574C382.841 57.5263 381.832 58.1003 380.824 58.6794L381.691 60.1874ZM387.721 56.7875C388.727 56.2308 389.734 55.6792 390.741 55.1325L389.912 53.604C388.9 54.1529 387.89 54.7068 386.879 55.2657L387.721 56.7875ZM393.77 53.5045C394.796 52.958 395.823 52.4166 396.851 51.8803L396.046 50.3386C395.014 50.8771 393.983 51.4207 392.953 51.9694L393.77 53.5045ZM399.934 50.2867C400.963 49.7605 401.992 49.2394 403.021 48.7233L402.241 47.1687C401.208 47.6869 400.175 48.2101 399.142 48.7384L399.934 50.2867ZM406.109 47.1899C407.139 46.6838 408.17 46.1826 409.2 45.6864L408.446 44.1194C407.411 44.6177 406.377 45.1209 405.342 45.6291L406.109 47.1899ZM412.336 44.1928C413.385 43.6983 414.434 43.2089 415.483 42.7245L414.755 41.1454C413.701 41.6318 412.647 42.1232 411.594 42.6197L412.336 44.1928ZM418.633 41.2864C419.683 40.8121 420.734 40.3428 421.785 39.8784L421.082 38.2877C420.027 38.754 418.972 39.2252 417.917 39.7015L418.633 41.2864ZM424.937 38.5002C425.998 38.0415 427.06 37.5879 428.121 37.1392L427.444 35.5373C426.378 35.9878 425.313 36.4433 424.247 36.9039L424.937 38.5002ZM431.327 35.7993C432.396 35.3578 433.465 34.9212 434.534 34.4896L433.883 32.8769C432.81 33.3102 431.736 33.7486 430.663 34.192L431.327 35.7993ZM437.742 33.2098C438.812 32.7882 439.881 32.3715 440.951 31.9597L440.326 30.3367C439.252 30.7501 438.178 31.1685 437.104 31.5919L437.742 33.2098ZM444.182 30.7307C445.268 30.3227 446.354 29.9196 447.44 29.5216L446.841 27.8887C445.751 28.2883 444.66 28.693 443.57 29.1027L444.182 30.7307ZM450.698 28.3423C451.784 27.9542 452.87 27.571 453.956 27.1927L453.384 25.5504C452.293 25.9302 451.203 26.3149 450.113 26.7046L450.698 28.3423ZM457.214 26.0725C458.306 25.7019 459.398 25.3362 460.49 24.9754L459.944 23.3241C458.848 23.6864 457.751 24.0535 456.655 24.4257L457.214 26.0725ZM463.793 23.8983C464.895 23.5442 465.996 23.1951 467.096 22.8508L466.577 21.191C465.472 21.5366 464.367 21.8872 463.261 22.2427L463.793 23.8983ZM470.398 21.8326C471.499 21.4981 472.599 21.1684 473.699 20.8435L473.206 19.1756C472.102 19.5018 470.997 19.8328 469.893 20.1687L470.398 21.8326ZM477.017 19.8778C478.132 19.5581 479.246 19.2434 480.36 18.9334L479.894 17.2579C478.776 17.5691 477.657 17.8851 476.538 18.206L477.017 19.8778ZM483.702 18.0182C484.816 17.718 485.929 17.4225 487.041 17.1319L486.602 15.4492C485.485 15.741 484.367 16.0376 483.249 16.3391L483.702 18.0182ZM490.378 16.2742C491.498 15.9911 492.617 15.7129 493.735 15.4393L493.322 13.75C492.199 14.0246 491.076 14.3039 489.952 14.5881L490.378 16.2742ZM497.112 14.6276C498.237 14.3618 499.362 14.1008 500.486 13.8445L500.099 12.1489C498.971 12.4062 497.842 12.6682 496.712 12.9351L497.112 14.6276ZM503.857 13.0897C504.98 12.8429 506.102 12.6007 507.224 12.3631L506.863 10.6617C505.737 10.9002 504.61 11.1433 503.483 11.3912L503.857 13.0897ZM510.616 11.6583C511.752 11.427 512.886 11.2004 514.02 10.9785L513.686 9.27175C512.548 9.49452 511.409 9.72199 510.269 9.9542L510.616 11.6583ZM517.42 10.3267C518.553 10.1141 519.685 9.90612 520.816 9.70272L520.508 7.99105C519.373 8.19523 518.236 8.40402 517.1 8.61746L517.42 10.3267ZM524.207 9.10619C525.349 8.90965 526.491 8.71774 527.632 8.53043L527.35 6.81428C526.205 7.0023 525.059 7.19494 523.912 7.39224L524.207 9.10619ZM531.057 7.98128C532.198 7.80281 533.338 7.62891 534.477 7.45952L534.221 5.7393C533.078 5.90933 531.934 6.0839 530.788 6.26305L531.057 7.98128ZM537.891 6.96484C539.031 6.80411 540.169 6.64787 541.306 6.49607L541.076 4.77223C539.935 4.9246 538.792 5.08143 537.649 5.24276L537.891 6.96484ZM544.754 6.04896C545.902 5.90443 547.049 5.7644 548.195 5.6288L547.991 3.90172C546.841 4.03782 545.689 4.17838 544.537 4.32345L544.754 6.04896ZM551.63 5.23528C552.773 5.10852 553.915 4.98614 555.056 4.86811L554.877 3.13821C553.732 3.25668 552.586 3.3795 551.438 3.50674L551.63 5.23528ZM558.499 4.52475C559.653 4.41389 560.806 4.30744 561.958 4.20536L561.804 2.47302C560.649 2.57548 559.491 2.68232 558.333 2.79359L558.499 4.52475ZM565.409 3.91211C566.558 3.81869 567.705 3.72957 568.851 3.64471L568.723 1.91033C567.572 1.9955 566.421 2.08494 565.268 2.1787L565.409 3.91211ZM572.285 3.40284C573.442 3.32546 574.599 3.25239 575.753 3.18357L575.65 1.44752C574.491 1.51658 573.331 1.58992 572.169 1.66759L572.285 3.40284ZM579.218 2.98959C580.371 2.92916 581.522 2.87295 582.672 2.8209L582.593 1.08355C581.439 1.13578 580.284 1.19219 579.127 1.25284L579.218 2.98959ZM586.117 2.6772C587.269 2.63318 588.42 2.59332 589.57 2.55755L589.516 0.819264C588.362 0.855153 587.207 0.895157 586.05 0.939331L586.117 2.6772ZM593.045 2.46172C594.201 2.43392 595.356 2.41024 596.508 2.39062L596.479 0.651742C595.322 0.671429 594.163 0.695195 593.003 0.723096L593.045 2.46172ZM599.961 2.3439C601.11 2.33236 602.256 2.32482 603.401 2.32123L603.396 0.582109C602.247 0.585709 601.096 0.593274 599.943 0.60486L599.961 2.3439ZM606.879 2.32245C608.038 2.32689 609.195 2.33535 610.349 2.34777L610.368 0.608736C609.21 0.596276 608.049 0.587789 606.886 0.583334L606.879 2.32245ZM613.807 2.39684C614.957 2.41711 616.105 2.44129 617.251 2.4693L617.293 0.730691C616.144 0.702579 614.992 0.67832 613.837 0.657975L613.807 2.39684ZM620.711 2.56574C621.871 2.60205 623.029 2.64227 624.185 2.68633L624.251 0.948462C623.092 0.904248 621.93 0.863894 620.765 0.827463L620.711 2.56574ZM627.644 2.83C628.795 2.88169 629.943 2.93717 631.089 2.99637L631.179 1.25956C630.029 1.20016 628.877 1.14449 627.723 1.09262L627.644 2.83ZM634.53 3.1858C635.691 3.25361 636.85 3.32523 638.006 3.40057L638.119 1.66512C636.959 1.58953 635.797 1.51767 634.632 1.44962L634.53 3.1858ZM641.464 3.6377C642.615 3.72043 643.762 3.80682 644.906 3.8968L645.043 2.16302C643.894 2.07273 642.743 1.98606 641.589 1.90305L641.464 3.6377ZM648.331 4.17748C649.491 4.27641 650.648 4.37899 651.802 4.48517L651.961 2.75336C650.804 2.64683 649.643 2.5439 648.479 2.44464L648.331 4.17748ZM655.257 4.81472C656.406 4.92812 657.551 5.04505 658.694 5.16544L658.876 3.43589C657.73 3.3151 656.581 3.19778 655.428 3.084L655.257 4.81472ZM662.111 5.53692C663.266 5.6663 664.418 5.79919 665.566 5.93551L665.771 4.20851C664.619 4.07174 663.463 3.93841 662.305 3.8086L662.111 5.53692ZM669.014 6.35651C670.16 6.50025 671.303 6.64738 672.442 6.79783L672.67 5.07367C671.527 4.92273 670.381 4.77512 669.231 4.6309L669.014 6.35651ZM675.848 7.25901C676.998 7.41861 678.145 7.58155 679.288 7.74776L679.538 6.02674C678.392 5.85998 677.241 5.6965 676.087 5.53638L675.848 7.25901ZM682.727 8.25938C683.869 8.43317 685.007 8.61019 686.141 8.79036L686.414 7.07276C685.276 6.892 684.134 6.7144 682.988 6.54003L682.727 8.25938ZM689.532 9.34024C690.679 9.53008 691.822 9.72311 692.961 9.91924L693.256 8.20535C692.114 8.00858 690.967 7.81492 689.816 7.62445L689.532 9.34024ZM696.385 10.5207C697.522 10.7243 698.655 10.9309 699.783 11.1405L700.1 9.43064C698.969 9.22036 697.832 9.01305 696.691 8.8088L696.385 10.5207ZM703.154 11.7781C704.299 11.9986 705.439 12.2221 706.575 12.4485L706.915 10.743C705.775 10.5158 704.631 10.2916 703.482 10.0704L703.154 11.7781ZM709.98 13.1392C711.11 13.3723 712.235 13.6083 713.355 13.847L713.717 12.1461C712.594 11.9066 711.465 11.6698 710.331 11.4359L709.98 13.1392ZM716.707 14.573C717.85 14.8245 718.988 15.0788 720.12 15.3358L720.505 13.6399C719.369 13.382 718.228 13.1268 717.081 12.8745L716.707 14.573ZM723.499 16.115C724.62 16.3774 725.736 16.6425 726.845 16.91L727.253 15.2193C726.14 14.9509 725.02 14.685 723.896 14.4217L723.499 16.115ZM730.2 17.7309C731.334 18.0124 732.462 18.2965 733.584 18.5831L734.014 16.8981C732.889 16.6106 731.757 16.3255 730.619 16.043L730.2 17.7309ZM736.93 19.4501C738.039 19.7415 739.141 20.0353 740.237 20.3313L740.691 18.6523C739.591 18.3553 738.484 18.0605 737.372 17.7681L736.93 19.4501ZM743.606 21.2535C744.728 21.5648 745.842 21.8785 746.95 22.1943L747.427 20.5218C746.315 20.2049 745.197 19.8901 744.071 19.5777L743.606 21.2535ZM750.252 23.1481C751.363 23.4733 752.467 23.8007 753.563 24.1301L754.064 22.4645C752.963 22.134 751.855 21.8054 750.74 21.479L750.252 23.1481ZM756.903 25.1469C758.009 25.4877 759.106 25.8306 760.195 26.1752L760.72 24.517C759.626 24.1712 758.525 23.8271 757.416 23.485L756.903 25.1469ZM763.454 27.2194C764.574 27.5827 765.684 27.9478 766.786 28.3146L767.335 26.6645C766.23 26.2964 765.115 25.9299 763.991 25.5652L763.454 27.2194ZM770.063 29.4195C771.146 29.7893 772.219 30.1606 773.284 30.5332L773.858 28.8918C772.79 28.5177 771.712 28.1449 770.625 27.7737L770.063 29.4195ZM776.593 31.7069C777.689 32.1003 778.773 32.495 779.847 32.8907L780.449 31.2588C779.37 30.8615 778.281 30.4652 777.181 30.0702L776.593 31.7069ZM783.037 34.0809C784.143 34.4987 785.237 34.9175 786.319 35.3371L786.947 33.7156C785.861 33.2943 784.762 32.8737 783.652 32.4541L783.037 34.0809ZM789.537 36.6019C790.603 37.026 791.656 37.4508 792.696 37.8758L793.354 36.2659C792.309 35.8388 791.251 35.4122 790.18 34.9861L789.537 36.6019ZM795.947 39.2224C797.017 39.6715 798.072 40.1207 799.112 40.5697L799.801 38.9729C798.755 38.5216 797.695 38.0702 796.62 37.6189L795.947 39.2224ZM802.267 41.9505C803.346 42.4292 804.408 42.9075 805.453 43.385L806.176 41.8033C805.125 41.3231 804.057 40.8422 802.973 40.3609L802.267 41.9505ZM808.536 44.8149C809.611 45.3213 810.667 45.8264 811.703 46.3299L812.463 44.7657C811.421 44.259 810.358 43.7508 809.276 43.2414L808.536 44.8149Z" fill="#FAFAFB"/>
<path d="M475.478 210.759C476.064 211.345 477.014 211.345 477.6 210.759L487.146 201.213C487.731 200.628 487.731 199.678 487.146 199.092C486.56 198.506 485.61 198.506 485.024 199.092L476.539 207.577L468.054 199.092C467.468 198.506 466.518 198.506 465.932 199.092C465.347 199.678 465.347 200.628 465.932 201.213L475.478 210.759ZM475.039 141.325L475.039 175.512L478.039 175.512L478.039 141.325L475.039 141.325ZM475.039 175.512L475.039 209.699L478.039 209.699L478.039 175.512L475.039 175.512Z" fill="#FAFAFB"/>
<path d="M8.24341 226.698L5.65211 221.829H4.12167V226.698H2.01732V214.368H6.74776C9.13037 214.368 10.6086 216.02 10.6086 218.107C10.6086 219.863 9.54776 221.203 7.82602 221.62L10.6086 226.698H8.24341ZM4.12167 219.985H6.36515C7.65211 219.985 8.48689 219.237 8.48689 218.107C8.48689 216.959 7.65211 216.211 6.36515 216.211H4.12167V219.985ZM13.782 221.533H17.9385C17.9037 220.542 17.2429 219.655 15.8516 219.655C14.582 219.655 13.8516 220.629 13.782 221.533ZM18.1646 223.742L19.869 224.281C19.4168 225.759 18.0776 226.959 16.0429 226.959C13.7472 226.959 11.7124 225.29 11.7124 222.42C11.7124 219.742 13.695 217.968 15.8342 217.968C18.4429 217.968 19.9733 219.69 19.9733 222.368C19.9733 222.698 19.9385 222.977 19.9211 223.011H13.7298C13.782 224.298 14.7907 225.22 16.0429 225.22C17.2603 225.22 17.8863 224.577 18.1646 223.742ZM23.2577 222.437C23.2577 224.055 24.162 225.133 25.5359 225.133C26.8577 225.133 27.7794 224.037 27.7794 222.42C27.7794 220.803 26.8751 219.794 25.5533 219.794C24.2316 219.794 23.2577 220.82 23.2577 222.437ZM29.7272 214.107V225.15C29.7272 225.916 29.7968 226.559 29.8142 226.698H27.8838C27.849 226.507 27.7968 225.95 27.7968 225.603C27.3968 226.316 26.5098 226.907 25.3098 226.907C22.8751 226.907 21.2403 224.994 21.2403 222.437C21.2403 220.003 22.8925 218.003 25.2751 218.003C26.7533 218.003 27.5012 218.681 27.762 219.22V214.107H29.7272ZM33.7718 221.533H37.9283C37.8935 220.542 37.2327 219.655 35.8414 219.655C34.5718 219.655 33.8414 220.629 33.7718 221.533ZM38.1544 223.742L39.8588 224.281C39.4066 225.759 38.0675 226.959 36.0327 226.959C33.737 226.959 31.7022 225.29 31.7022 222.42C31.7022 219.742 33.6848 217.968 35.824 217.968C38.4327 217.968 39.9631 219.69 39.9631 222.368C39.9631 222.698 39.9283 222.977 39.9109 223.011H33.7196C33.7718 224.298 34.7805 225.22 36.0327 225.22C37.2501 225.22 37.8762 224.577 38.1544 223.742ZM41.1431 224.403L42.8997 223.916C42.9692 224.681 43.5431 225.359 44.6214 225.359C45.4562 225.359 45.891 224.907 45.891 224.385C45.891 223.933 45.5779 223.585 44.8997 223.446L43.6475 223.168C42.1518 222.837 41.3692 221.863 41.3692 220.698C41.3692 219.22 42.7257 217.968 44.4823 217.968C46.8475 217.968 47.6127 219.498 47.7518 220.333L46.0475 220.82C45.9779 220.333 45.6127 219.55 44.4823 219.55C43.7692 219.55 43.2649 220.003 43.2649 220.524C43.2649 220.977 43.5953 221.307 44.1171 221.411L45.404 221.672C47.004 222.02 47.8388 222.994 47.8388 224.246C47.8388 225.533 46.7953 226.959 44.6388 226.959C42.1866 226.959 41.2475 225.359 41.1431 224.403ZM51.8393 226.698H49.8393V218.229H51.8393V226.698ZM49.5263 215.255C49.5263 214.524 50.1176 213.933 50.8306 213.933C51.5611 213.933 52.1524 214.524 52.1524 215.255C52.1524 215.985 51.5611 216.559 50.8306 216.559C50.1176 216.559 49.5263 215.985 49.5263 215.255ZM53.8332 227.168L55.6941 226.681C55.8332 227.724 56.6506 228.507 57.8158 228.507C59.4158 228.507 60.2158 227.69 60.2158 225.968V225.081C59.8506 225.742 58.9984 226.316 57.7637 226.316C55.5028 226.316 53.8506 224.577 53.8506 222.194C53.8506 219.933 55.4332 218.072 57.7637 218.072C59.0854 218.072 59.9028 218.611 60.268 219.307V218.229H62.2158V225.898C62.2158 228.159 61.0506 230.263 57.868 230.263C55.6245 230.263 54.0593 228.872 53.8332 227.168ZM58.0941 224.594C59.381 224.594 60.268 223.655 60.268 222.194C60.268 220.75 59.3463 219.811 58.0941 219.811C56.8071 219.811 55.8854 220.75 55.8854 222.194C55.8854 223.672 56.7723 224.594 58.0941 224.594ZM66.7005 221.811V226.698H64.6831V218.229H66.6483V219.359C67.2048 218.385 68.2135 217.985 69.1526 217.985C71.2222 217.985 72.2135 219.481 72.2135 221.342V226.698H70.1961V221.69C70.1961 220.646 69.7266 219.811 68.457 219.811C67.3092 219.811 66.7005 220.698 66.7005 221.811ZM76.0782 221.533H80.2347C80.1999 220.542 79.5391 219.655 78.1478 219.655C76.8782 219.655 76.1478 220.629 76.0782 221.533ZM80.4608 223.742L82.1652 224.281C81.713 225.759 80.3738 226.959 78.3391 226.959C76.0434 226.959 74.0086 225.29 74.0086 222.42C74.0086 219.742 75.9912 217.968 78.1304 217.968C80.7391 217.968 82.2695 219.69 82.2695 222.368C82.2695 222.698 82.2347 222.977 82.2173 223.011H76.026C76.0782 224.298 77.0869 225.22 78.3391 225.22C79.5565 225.22 80.1825 224.577 80.4608 223.742ZM85.5539 222.437C85.5539 224.055 86.4582 225.133 87.8321 225.133C89.1539 225.133 90.0756 224.037 90.0756 222.42C90.0756 220.803 89.1713 219.794 87.8495 219.794C86.5278 219.794 85.5539 220.82 85.5539 222.437ZM92.0234 214.107V225.15C92.0234 225.916 92.093 226.559 92.1104 226.698H90.18C90.1452 226.507 90.093 225.95 90.093 225.603C89.693 226.316 88.806 226.907 87.606 226.907C85.1713 226.907 83.5365 224.994 83.5365 222.437C83.5365 220.003 85.1886 218.003 87.5713 218.003C89.0495 218.003 89.7973 218.681 90.0582 219.22V214.107H92.0234ZM101.234 226.698H99.1471V214.368H106.817V216.333H101.234V219.794H106.243V221.724H101.234V226.698ZM110.722 226.698H108.705V214.107H110.722V226.698ZM117.046 225.15C118.298 225.15 119.411 224.229 119.411 222.455C119.411 220.698 118.298 219.794 117.046 219.794C115.811 219.794 114.681 220.698 114.681 222.455C114.681 224.211 115.811 225.15 117.046 225.15ZM117.046 217.968C119.585 217.968 121.446 219.863 121.446 222.455C121.446 225.063 119.585 226.959 117.046 226.959C114.524 226.959 112.664 225.063 112.664 222.455C112.664 219.863 114.524 217.968 117.046 217.968ZM127.992 218.229H130.079L132.079 224.09L133.766 218.229H135.818L133.105 226.698H131.088L128.983 220.611L126.931 226.698H124.861L122.114 218.229H124.27L125.992 224.09L127.992 218.229Z" fill="#FAFAFB"/>
<rect x="0.539062" y="256.82" width="194.638" height="54.3835" rx="3" fill="white"/>
<path d="M67.7527 280.458C67.6959 279.885 67.4521 279.44 67.0212 279.123C66.5903 278.806 66.0056 278.647 65.2669 278.647C64.765 278.647 64.3413 278.718 63.9956 278.86C63.65 278.997 63.3848 279.189 63.2002 279.435C63.0202 279.682 62.9303 279.961 62.9303 280.273C62.9208 280.534 62.9753 280.761 63.0936 280.955C63.2167 281.149 63.3848 281.317 63.5979 281.46C63.811 281.597 64.0572 281.718 64.3365 281.822C64.6159 281.921 64.9142 282.006 65.2314 282.077L66.5382 282.39C67.1727 282.532 67.7551 282.721 68.2854 282.958C68.8157 283.195 69.275 283.486 69.6632 283.832C70.0515 284.177 70.3521 284.585 70.5652 285.053C70.783 285.522 70.8943 286.059 70.899 286.665C70.8943 287.556 70.667 288.327 70.2172 288.981C69.7721 289.629 69.1282 290.134 68.2854 290.494C67.4473 290.849 66.4364 291.026 65.2527 291.026C64.0785 291.026 63.0557 290.846 62.1845 290.487C61.3181 290.127 60.641 289.594 60.1533 288.888C59.6703 288.178 59.417 287.3 59.3933 286.254H62.3692C62.4023 286.741 62.542 287.148 62.7882 287.475C63.0392 287.797 63.373 288.041 63.7896 288.207C64.211 288.368 64.6869 288.448 65.2172 288.448C65.738 288.448 66.1902 288.372 66.5737 288.221C66.962 288.069 67.2627 287.859 67.4757 287.589C67.6888 287.319 67.7953 287.009 67.7953 286.658C67.7953 286.332 67.6983 286.057 67.5041 285.835C67.3147 285.612 67.0354 285.423 66.6661 285.266C66.3015 285.11 65.854 284.968 65.3237 284.84L63.7399 284.442C62.5136 284.144 61.5453 283.678 60.8351 283.043C60.1249 282.409 59.7721 281.554 59.7769 280.479C59.7721 279.599 60.0065 278.829 60.48 278.171C60.9582 277.513 61.614 276.999 62.4473 276.63C63.2807 276.261 64.2276 276.076 65.2882 276.076C66.3678 276.076 67.31 276.261 68.1149 276.63C68.9246 276.999 69.5543 277.513 70.0041 278.171C70.4539 278.829 70.686 279.592 70.7002 280.458H67.7527ZM75.6628 276.275V290.82H72.5876V276.275H75.6628ZM87.4579 280.977C87.3585 280.631 87.2188 280.326 87.0389 280.06C86.859 279.79 86.6388 279.563 86.3784 279.379C86.1227 279.189 85.8291 279.045 85.4977 278.945C85.171 278.846 84.8088 278.796 84.411 278.796C83.6677 278.796 83.0143 278.981 82.4508 279.35C81.8921 279.719 81.4565 280.257 81.144 280.962C80.8315 281.663 80.6752 282.52 80.6752 283.533C80.6752 284.547 80.8291 285.408 81.1369 286.119C81.4447 286.829 81.8803 287.371 82.4437 287.745C83.0072 288.114 83.6724 288.299 84.4394 288.299C85.1355 288.299 85.7297 288.176 86.2221 287.93C86.7193 287.679 87.0981 287.326 87.3585 286.871C87.6236 286.417 87.7562 285.879 87.7562 285.259L88.3812 285.352H84.6312V283.036H90.7179V284.869C90.7179 286.147 90.448 287.246 89.9082 288.164C89.3684 289.078 88.6251 289.783 87.6781 290.281C86.7311 290.773 85.6468 291.019 84.4252 291.019C83.0616 291.019 81.8637 290.719 80.8315 290.117C79.7993 289.511 78.9944 288.652 78.4167 287.539C77.8438 286.422 77.5573 285.096 77.5573 283.562C77.5573 282.383 77.7278 281.332 78.0687 280.408C78.4144 279.48 78.8973 278.694 79.5176 278.05C80.1378 277.406 80.8599 276.916 81.6838 276.58C82.5076 276.244 83.4001 276.076 84.3613 276.076C85.1852 276.076 85.9522 276.197 86.6625 276.438C87.3727 276.675 88.0024 277.011 88.5517 277.447C89.1056 277.882 89.5578 278.401 89.9082 279.002C90.2586 279.599 90.4835 280.257 90.5829 280.977H87.4579ZM104.814 276.275V290.82H102.158L95.8297 281.665H95.7232V290.82H92.6479V276.275H95.3467L101.625 285.423H101.753V276.275H104.814ZM120.208 276.275H123.283V285.721C123.283 286.781 123.03 287.71 122.524 288.505C122.022 289.3 121.319 289.921 120.414 290.366C119.51 290.806 118.456 291.026 117.254 291.026C116.046 291.026 114.99 290.806 114.086 290.366C113.182 289.921 112.479 289.3 111.977 288.505C111.475 287.71 111.224 286.781 111.224 285.721V276.275H114.299V285.458C114.299 286.012 114.42 286.504 114.661 286.935C114.908 287.366 115.253 287.705 115.698 287.951C116.143 288.197 116.662 288.32 117.254 288.32C117.85 288.32 118.369 288.197 118.809 287.951C119.254 287.705 119.597 287.366 119.839 286.935C120.085 286.504 120.208 286.012 120.208 285.458V276.275ZM125.434 290.82V276.275H131.172C132.276 276.275 133.215 276.486 133.992 276.907C134.768 277.324 135.36 277.904 135.767 278.647C136.179 279.386 136.385 280.238 136.385 281.204C136.385 282.17 136.177 283.022 135.76 283.761C135.344 284.499 134.74 285.075 133.949 285.487C133.163 285.898 132.212 286.104 131.094 286.104H127.436V283.64H130.597C131.189 283.64 131.677 283.538 132.06 283.335C132.448 283.126 132.737 282.84 132.927 282.475C133.121 282.106 133.218 281.682 133.218 281.204C133.218 280.721 133.121 280.299 132.927 279.94C132.737 279.575 132.448 279.293 132.06 279.094C131.672 278.891 131.179 278.789 130.583 278.789H128.509V290.82H125.434Z" fill="black" fill-opacity="0.8"/>
<path d="M346.869 243.262C348.677 242.262 350.872 242.262 352.679 243.262L421.679 278.762C425.806 281.045 425.806 286.978 421.679 289.262L352.679 324.762C350.872 325.762 348.677 325.762 346.869 324.762L277.869 289.262C273.743 286.978 273.743 281.045 277.869 278.762L346.869 243.262Z" fill="#14AE5C"/>
<path d="M320.106 290.512H317.47L321.487 278.875H324.658L328.669 290.512H326.033L323.118 281.534H323.027L320.106 290.512ZM319.942 285.938H326.169V287.858H319.942V285.938ZM339.614 282.949H337.125C337.08 282.627 336.987 282.341 336.847 282.091C336.707 281.837 336.527 281.622 336.307 281.444C336.087 281.266 335.833 281.129 335.546 281.034C335.261 280.94 334.953 280.892 334.619 280.892C334.017 280.892 333.492 281.042 333.046 281.341C332.599 281.637 332.252 282.069 332.006 282.637C331.76 283.201 331.636 283.887 331.636 284.694C331.636 285.523 331.76 286.22 332.006 286.784C332.256 287.349 332.604 287.775 333.051 288.063C333.498 288.351 334.015 288.495 334.602 288.495C334.932 288.495 335.237 288.451 335.517 288.364C335.801 288.277 336.053 288.15 336.273 287.983C336.492 287.813 336.674 287.606 336.818 287.364C336.966 287.122 337.068 286.845 337.125 286.534L339.614 286.546C339.549 287.08 339.388 287.595 339.131 288.091C338.877 288.584 338.534 289.025 338.102 289.415C337.674 289.801 337.163 290.108 336.568 290.336C335.977 290.559 335.309 290.671 334.563 290.671C333.525 290.671 332.597 290.436 331.778 289.966C330.964 289.497 330.32 288.817 329.847 287.926C329.377 287.036 329.142 285.959 329.142 284.694C329.142 283.425 329.381 282.345 329.858 281.455C330.335 280.565 330.983 279.887 331.801 279.421C332.619 278.951 333.54 278.716 334.563 278.716C335.237 278.716 335.862 278.811 336.438 279C337.017 279.19 337.53 279.466 337.977 279.83C338.424 280.19 338.788 280.631 339.068 281.154C339.352 281.676 339.534 282.275 339.614 282.949ZM351.469 282.949H348.98C348.935 282.627 348.842 282.341 348.702 282.091C348.562 281.837 348.382 281.622 348.162 281.444C347.942 281.266 347.689 281.129 347.401 281.034C347.117 280.94 346.808 280.892 346.475 280.892C345.872 280.892 345.348 281.042 344.901 281.341C344.454 281.637 344.107 282.069 343.861 282.637C343.615 283.201 343.492 283.887 343.492 284.694C343.492 285.523 343.615 286.22 343.861 286.784C344.111 287.349 344.459 287.775 344.906 288.063C345.353 288.351 345.87 288.495 346.458 288.495C346.787 288.495 347.092 288.451 347.372 288.364C347.656 288.277 347.908 288.15 348.128 287.983C348.348 287.813 348.53 287.606 348.673 287.364C348.821 287.122 348.923 286.845 348.98 286.534L351.469 286.546C351.405 287.08 351.244 287.595 350.986 288.091C350.732 288.584 350.389 289.025 349.958 289.415C349.53 289.801 349.018 290.108 348.423 290.336C347.833 290.559 347.164 290.671 346.418 290.671C345.38 290.671 344.452 290.436 343.634 289.966C342.819 289.497 342.175 288.817 341.702 287.926C341.232 287.036 340.997 285.959 340.997 284.694C340.997 283.425 341.236 282.345 341.713 281.455C342.191 280.565 342.838 279.887 343.656 279.421C344.475 278.951 345.395 278.716 346.418 278.716C347.092 278.716 347.717 278.811 348.293 279C348.872 279.19 349.386 279.466 349.833 279.83C350.28 280.19 350.643 280.631 350.923 281.154C351.208 281.676 351.389 282.275 351.469 282.949ZM353.057 290.512V278.875H360.898V280.904H355.517V283.676H360.495V285.705H355.517V288.483H360.921V290.512H353.057ZM368.991 282.222C368.945 281.764 368.75 281.408 368.405 281.154C368.061 280.9 367.593 280.773 367.002 280.773C366.6 280.773 366.261 280.83 365.985 280.944C365.708 281.053 365.496 281.207 365.348 281.404C365.205 281.601 365.133 281.824 365.133 282.074C365.125 282.283 365.169 282.464 365.263 282.62C365.362 282.775 365.496 282.909 365.667 283.023C365.837 283.133 366.034 283.23 366.258 283.313C366.481 283.392 366.72 283.461 366.973 283.517L368.019 283.767C368.527 283.881 368.992 284.033 369.417 284.222C369.841 284.411 370.208 284.644 370.519 284.921C370.83 285.197 371.07 285.523 371.241 285.898C371.415 286.273 371.504 286.703 371.508 287.188C371.504 287.9 371.322 288.517 370.962 289.04C370.606 289.559 370.091 289.962 369.417 290.25C368.746 290.534 367.937 290.676 366.991 290.676C366.051 290.676 365.233 290.533 364.536 290.245C363.843 289.957 363.301 289.531 362.911 288.966C362.525 288.398 362.322 287.695 362.303 286.858H364.684C364.71 287.248 364.822 287.574 365.019 287.836C365.22 288.093 365.487 288.288 365.82 288.421C366.157 288.55 366.538 288.614 366.962 288.614C367.379 288.614 367.741 288.553 368.047 288.432C368.358 288.311 368.598 288.142 368.769 287.926C368.939 287.711 369.025 287.462 369.025 287.182C369.025 286.921 368.947 286.701 368.792 286.523C368.64 286.345 368.417 286.194 368.121 286.069C367.83 285.944 367.472 285.83 367.047 285.728L365.78 285.409C364.799 285.171 364.025 284.798 363.456 284.29C362.888 283.783 362.606 283.099 362.61 282.239C362.606 281.534 362.794 280.919 363.172 280.392C363.555 279.866 364.08 279.455 364.746 279.159C365.413 278.864 366.17 278.716 367.019 278.716C367.883 278.716 368.636 278.864 369.28 279.159C369.928 279.455 370.432 279.866 370.792 280.392C371.152 280.919 371.337 281.529 371.348 282.222H368.991ZM379.299 282.222C379.253 281.764 379.058 281.408 378.714 281.154C378.369 280.9 377.901 280.773 377.31 280.773C376.909 280.773 376.57 280.83 376.293 280.944C376.017 281.053 375.805 281.207 375.657 281.404C375.513 281.601 375.441 281.824 375.441 282.074C375.433 282.283 375.477 282.464 375.572 282.62C375.67 282.775 375.805 282.909 375.975 283.023C376.145 283.133 376.342 283.23 376.566 283.313C376.789 283.392 377.028 283.461 377.282 283.517L378.327 283.767C378.835 283.881 379.301 284.033 379.725 284.222C380.149 284.411 380.517 284.644 380.827 284.921C381.138 285.197 381.378 285.523 381.549 285.898C381.723 286.273 381.812 286.703 381.816 287.188C381.812 287.9 381.63 288.517 381.27 289.04C380.914 289.559 380.399 289.962 379.725 290.25C379.055 290.534 378.246 290.676 377.299 290.676C376.36 290.676 375.541 290.533 374.844 290.245C374.151 289.957 373.61 289.531 373.219 288.966C372.833 288.398 372.63 287.695 372.611 286.858H374.992C375.019 287.248 375.13 287.574 375.327 287.836C375.528 288.093 375.795 288.288 376.128 288.421C376.466 288.55 376.846 288.614 377.27 288.614C377.687 288.614 378.049 288.553 378.356 288.432C378.666 288.311 378.907 288.142 379.077 287.926C379.248 287.711 379.333 287.462 379.333 287.182C379.333 286.921 379.255 286.701 379.1 286.523C378.949 286.345 378.725 286.194 378.43 286.069C378.138 285.944 377.78 285.83 377.356 285.728L376.089 285.409C375.108 285.171 374.333 284.798 373.765 284.29C373.197 283.783 372.914 283.099 372.918 282.239C372.914 281.534 373.102 280.919 373.481 280.392C373.863 279.866 374.388 279.455 375.055 279.159C375.721 278.864 376.479 278.716 377.327 278.716C378.191 278.716 378.945 278.864 379.589 279.159C380.236 279.455 380.74 279.866 381.1 280.392C381.46 280.919 381.645 281.529 381.657 282.222H379.299Z" fill="white"/>
<path d="M199.178 282.512C198.349 282.512 197.678 283.183 197.678 284.012C197.678 284.84 198.349 285.512 199.178 285.512V282.512ZM255.775 290.672C255.775 291.5 256.789 292.086 257.507 291.672L269.043 285.012C269.76 284.598 269.76 283.426 269.043 283.012L257.507 276.351C256.789 275.937 255.775 276.523 255.775 277.351V290.672ZM199.178 285.512H257.275V282.512H199.178V285.512Z" fill="#F9F9F9"/>
<rect x="504.37" y="256.979" width="140.572" height="54.0662" rx="3" fill="#2475FF"/>
<path d="M558.378 290.979H555.082L560.104 276.433H564.067L569.081 290.979H565.786L562.142 279.757H562.028L558.378 290.979ZM558.172 285.261H565.956V287.662H558.172V285.261ZM570.452 290.979V276.433H576.19C577.294 276.433 578.233 276.644 579.01 277.065C579.786 277.482 580.378 278.062 580.785 278.805C581.197 279.544 581.403 280.396 581.403 281.362C581.403 282.328 581.195 283.18 580.778 283.919C580.362 284.657 579.758 285.233 578.967 285.645C578.181 286.057 577.23 286.263 576.112 286.263H572.455V283.798H575.615C576.207 283.798 576.695 283.696 577.078 283.493C577.466 283.284 577.755 282.998 577.945 282.633C578.139 282.264 578.236 281.84 578.236 281.362C578.236 280.879 578.139 280.458 577.945 280.098C577.755 279.733 577.466 279.452 577.078 279.253C576.69 279.049 576.197 278.947 575.601 278.947H573.527V290.979H570.452ZM583.021 290.979V276.433H588.76C589.863 276.433 590.803 276.644 591.579 277.065C592.356 277.482 592.947 278.062 593.355 278.805C593.767 279.544 593.973 280.396 593.973 281.362C593.973 282.328 593.764 283.18 593.348 283.919C592.931 284.657 592.327 285.233 591.537 285.645C590.751 286.057 589.799 286.263 588.681 286.263H585.024V283.798H588.184C588.776 283.798 589.264 283.696 589.647 283.493C590.036 283.284 590.324 282.998 590.514 282.633C590.708 282.264 590.805 281.84 590.805 281.362C590.805 280.879 590.708 280.458 590.514 280.098C590.324 279.733 590.036 279.452 589.647 279.253C589.259 279.049 588.767 278.947 588.17 278.947H586.096V290.979H583.021Z" fill="white"/>
<path d="M428.774 282.512C427.946 282.512 427.274 283.183 427.274 284.012C427.274 284.84 427.946 285.512 428.774 285.512V282.512ZM485.37 290.672C485.37 291.5 486.385 292.086 487.102 291.672L498.638 285.012C499.356 284.598 499.356 283.426 498.638 283.012L487.102 276.351C486.385 275.937 485.37 276.523 485.37 277.351V290.672ZM428.774 285.512H486.87V282.512H428.774V285.512Z" fill="#18FF04"/>
<rect x="724.539" y="257.012" width="228" height="54" rx="3" fill="white"/>
<path d="M747.664 291.012V276.466H750.739V282.88H750.931L756.166 276.466H759.852L754.454 282.979L759.916 291.012H756.237L752.252 285.032L750.739 286.878V291.012H747.664ZM760.381 276.466H763.826L767.142 282.73H767.284L770.601 276.466H774.046L768.74 285.87V291.012H765.686V285.87L760.381 276.466ZM787.46 281.559H784.35C784.293 281.156 784.177 280.799 784.002 280.486C783.826 280.169 783.601 279.899 783.327 279.676C783.052 279.454 782.735 279.283 782.375 279.165C782.02 279.047 781.634 278.988 781.217 278.988C780.465 278.988 779.809 279.175 779.25 279.549C778.691 279.918 778.258 280.458 777.95 281.168C777.643 281.873 777.489 282.73 777.489 283.739C777.489 284.776 777.643 285.647 777.95 286.353C778.263 287.058 778.699 287.591 779.257 287.951C779.816 288.31 780.462 288.49 781.196 288.49C781.608 288.49 781.989 288.436 782.34 288.327C782.695 288.218 783.01 288.06 783.284 287.851C783.559 287.638 783.786 287.38 783.966 287.077C784.151 286.774 784.279 286.428 784.35 286.04L787.46 286.054C787.38 286.722 787.179 287.366 786.857 287.986C786.539 288.602 786.111 289.153 785.571 289.641C785.036 290.124 784.397 290.507 783.654 290.792C782.915 291.071 782.079 291.211 781.146 291.211C779.849 291.211 778.689 290.917 777.666 290.33C776.648 289.743 775.843 288.893 775.252 287.78C774.664 286.667 774.371 285.32 774.371 283.739C774.371 282.153 774.669 280.803 775.266 279.691C775.862 278.578 776.672 277.73 777.695 277.148C778.717 276.561 779.868 276.267 781.146 276.267C781.989 276.267 782.77 276.386 783.49 276.623C784.215 276.859 784.856 277.205 785.415 277.659C785.974 278.109 786.428 278.661 786.779 279.314C787.134 279.968 787.361 280.716 787.46 281.559ZM796.482 276.466L799.998 287.517H800.133L803.656 276.466H807.065L802.051 291.012H798.087L793.066 276.466H796.482ZM808.595 291.012V276.466H818.397V279.002H811.671V282.468H817.892V285.003H811.671V288.476H818.425V291.012H808.595ZM820.622 291.012V276.466H826.36C827.459 276.466 828.396 276.663 829.173 277.056C829.954 277.444 830.548 277.996 830.955 278.711C831.367 279.421 831.573 280.257 831.573 281.218C831.573 282.184 831.365 283.015 830.948 283.711C830.532 284.402 829.928 284.932 829.137 285.301C828.351 285.671 827.399 285.855 826.282 285.855H822.44V283.384H825.785C826.372 283.384 826.86 283.303 827.248 283.142C827.636 282.981 827.925 282.74 828.114 282.418C828.309 282.096 828.406 281.696 828.406 281.218C828.406 280.735 828.309 280.328 828.114 279.996C827.925 279.665 827.634 279.414 827.241 279.243C826.853 279.068 826.363 278.98 825.771 278.98H823.697V291.012H820.622ZM828.477 284.392L832.092 291.012H828.697L825.16 284.392H828.477ZM836.602 276.466V291.012H833.527V276.466H836.602ZM838.912 291.012V276.466H848.543V279.002H841.987V282.468H847.903V285.003H841.987V291.012H838.912ZM853.467 276.466V291.012H850.391V276.466H853.467ZM868.611 281.559H865.5C865.443 281.156 865.327 280.799 865.152 280.486C864.977 280.169 864.752 279.899 864.477 279.676C864.202 279.454 863.885 279.283 863.525 279.165C863.17 279.047 862.784 278.988 862.368 278.988C861.615 278.988 860.959 279.175 860.4 279.549C859.842 279.918 859.408 280.458 859.101 281.168C858.793 281.873 858.639 282.73 858.639 283.739C858.639 284.776 858.793 285.647 859.101 286.353C859.413 287.058 859.849 287.591 860.407 287.951C860.966 288.31 861.612 288.49 862.346 288.49C862.758 288.49 863.139 288.436 863.49 288.327C863.845 288.218 864.16 288.06 864.434 287.851C864.709 287.638 864.936 287.38 865.116 287.077C865.301 286.774 865.429 286.428 865.5 286.04L868.611 286.054C868.53 286.722 868.329 287.366 868.007 287.986C867.69 288.602 867.261 289.153 866.721 289.641C866.186 290.124 865.547 290.507 864.804 290.792C864.065 291.071 863.229 291.211 862.297 291.211C860.999 291.211 859.839 290.917 858.816 290.33C857.798 289.743 856.994 288.893 856.402 287.78C855.815 286.667 855.521 285.32 855.521 283.739C855.521 282.153 855.819 280.803 856.416 279.691C857.013 278.578 857.822 277.73 858.845 277.148C859.868 276.561 861.018 276.267 862.297 276.267C863.139 276.267 863.921 276.386 864.64 276.623C865.365 276.859 866.006 277.205 866.565 277.659C867.124 278.109 867.578 278.661 867.929 279.314C868.284 279.968 868.511 280.716 868.611 281.559ZM872.829 291.012H869.534L874.555 276.466H878.518L883.533 291.012H880.237L876.594 279.79H876.48L872.829 291.012ZM872.623 285.294H880.408V287.695H872.623V285.294ZM882.732 279.002V276.466H894.678V279.002H890.225V291.012H887.185V279.002H882.732ZM899.501 276.466V291.012H896.425V276.466H899.501ZM915.177 283.739C915.177 285.325 914.877 286.675 914.275 287.787C913.679 288.9 912.864 289.75 911.832 290.337C910.805 290.919 909.649 291.211 908.366 291.211C907.074 291.211 905.914 290.917 904.886 290.33C903.859 289.743 903.047 288.893 902.45 287.78C901.853 286.667 901.555 285.32 901.555 283.739C901.555 282.153 901.853 280.803 902.45 279.691C903.047 278.578 903.859 277.73 904.886 277.148C905.914 276.561 907.074 276.267 908.366 276.267C909.649 276.267 910.805 276.561 911.832 277.148C912.864 277.73 913.679 278.578 914.275 279.691C914.877 280.803 915.177 282.153 915.177 283.739ZM912.059 283.739C912.059 282.712 911.905 281.845 911.598 281.14C911.295 280.434 910.866 279.899 910.312 279.534C909.758 279.17 909.11 278.988 908.366 278.988C907.623 278.988 906.974 279.17 906.42 279.534C905.866 279.899 905.435 280.434 905.128 281.14C904.825 281.845 904.673 282.712 904.673 283.739C904.673 284.766 904.825 285.633 905.128 286.338C905.435 287.044 905.866 287.579 906.42 287.944C906.974 288.308 907.623 288.49 908.366 288.49C909.11 288.49 909.758 288.308 910.312 287.944C910.866 287.579 911.295 287.044 911.598 286.338C911.905 285.633 912.059 284.766 912.059 283.739ZM929.401 276.466V291.012H926.745L920.417 281.857H920.311V291.012H917.235V276.466H919.934L926.213 285.614H926.34V276.466H929.401Z" fill="black" fill-opacity="0.8"/>
<path d="M648.942 282.512C648.114 282.512 647.442 283.183 647.442 284.012C647.442 284.84 648.114 285.512 648.942 285.512V282.512ZM705.539 290.672C705.539 291.5 706.554 292.086 707.271 291.672L718.807 285.012C719.525 284.598 719.525 283.426 718.807 283.012L707.271 276.351C706.554 275.937 705.539 276.523 705.539 277.351V290.672ZM648.942 285.512H707.039V282.512H648.942V285.512Z" fill="#18FF04"/>
</svg>
