<svg width="1200" height="497" viewBox="0 0 1200 497" fill="none" xmlns="http://www.w3.org/2000/svg">
<rect width="1200" height="496" transform="translate(0 0.229492)" fill="black"/>
<path d="M54.488 67.8295C54.488 68.9015 54.712 69.8535 55.16 70.6855C55.608 71.5175 56.224 72.1735 57.008 72.6535C57.792 73.1335 58.704 73.3735 59.744 73.3735C60.784 73.3735 61.696 73.1335 62.48 72.6535C63.264 72.1735 63.872 71.5175 64.304 70.6855C64.752 69.8535 64.976 68.9015 64.976 67.8295C64.976 66.7575 64.76 65.8055 64.328 64.9735C63.896 64.1415 63.288 63.4855 62.504 63.0055C61.72 62.5255 60.8 62.2855 59.744 62.2855C58.704 62.2855 57.792 62.5255 57.008 63.0055C56.224 63.4855 55.608 64.1415 55.16 64.9735C54.712 65.8055 54.488 66.7575 54.488 67.8295ZM50.864 67.8295C50.864 66.5495 51.088 65.3815 51.536 64.3255C51.984 63.2535 52.608 62.3255 53.408 61.5415C54.208 60.7575 55.144 60.1575 56.216 59.7415C57.304 59.3095 58.48 59.0935 59.744 59.0935C61.024 59.0935 62.2 59.3095 63.272 59.7415C64.344 60.1575 65.28 60.7575 66.08 61.5415C66.896 62.3255 67.52 63.2535 67.952 64.3255C68.4 65.3815 68.624 66.5495 68.624 67.8295C68.624 69.0935 68.4 70.2695 67.952 71.3575C67.52 72.4295 66.904 73.3655 66.104 74.1655C65.32 74.9655 64.384 75.5895 63.296 76.0375C62.224 76.4695 61.04 76.6855 59.744 76.6855C58.448 76.6855 57.256 76.4695 56.168 76.0375C55.096 75.5895 54.16 74.9655 53.36 74.1655C52.56 73.3655 51.944 72.4295 51.512 71.3575C51.08 70.2695 50.864 69.0935 50.864 67.8295ZM70.9891 57.5095H74.1091V76.2295H70.9891V57.5095ZM85.5046 57.5095H88.6246V76.2295H85.5046V57.5095ZM76.4326 70.7095C76.4326 69.4775 76.6806 68.4375 77.1766 67.5895C77.6726 66.7255 78.3286 66.0695 79.1446 65.6215C79.9606 65.1735 80.8246 64.9495 81.7366 64.9495C82.6646 64.9495 83.4806 65.1815 84.1846 65.6455C84.9046 66.1095 85.4646 66.7735 85.8646 67.6375C86.2806 68.4855 86.4886 69.5095 86.4886 70.7095C86.4886 71.8935 86.2806 72.9175 85.8646 73.7815C85.4646 74.6455 84.9046 75.3095 84.1846 75.7735C83.4806 76.2375 82.6646 76.4695 81.7366 76.4695C80.8246 76.4695 79.9606 76.2455 79.1446 75.7975C78.3286 75.3495 77.6726 74.6935 77.1766 73.8295C76.6806 72.9655 76.4326 71.9255 76.4326 70.7095ZM79.6486 70.7095C79.6486 71.3655 79.7846 71.9335 80.0566 72.4135C80.3286 72.8935 80.6966 73.2615 81.1606 73.5175C81.6246 73.7735 82.1206 73.9015 82.6486 73.9015C83.1126 73.9015 83.5606 73.7815 83.9926 73.5415C84.4406 73.2855 84.8006 72.9175 85.0726 72.4375C85.3606 71.9575 85.5046 71.3815 85.5046 70.7095C85.5046 70.0375 85.3606 69.4615 85.0726 68.9815C84.8006 68.5015 84.4406 68.1415 83.9926 67.9015C83.5606 67.6455 83.1126 67.5175 82.6486 67.5175C82.1206 67.5175 81.6246 67.6455 81.1606 67.9015C80.6966 68.1575 80.3286 68.5255 80.0566 69.0055C79.7846 69.4855 79.6486 70.0535 79.6486 70.7095ZM97.8734 65.1895H104.785V67.8055H97.8734V65.1895ZM104.449 60.6295C104.289 60.3895 104.105 60.2295 103.897 60.1495C103.705 60.0535 103.513 60.0055 103.321 60.0055C103.081 60.0055 102.873 60.0695 102.697 60.1975C102.537 60.3095 102.409 60.5015 102.313 60.7735C102.217 61.0455 102.169 61.3895 102.169 61.8055V76.2295H99.1694V61.1095C99.1694 60.2615 99.3134 59.5495 99.6014 58.9735C99.8894 58.3975 100.321 57.9575 100.897 57.6535C101.473 57.3335 102.177 57.1735 103.009 57.1735C103.505 57.1735 103.929 57.2375 104.281 57.3655C104.633 57.4775 104.929 57.6215 105.169 57.7975C105.425 57.9735 105.625 58.1415 105.769 58.3015L104.449 60.6295ZM106.638 57.5095H109.758V76.2295H106.638V57.5095ZM112.081 70.7095C112.081 69.5575 112.345 68.5495 112.873 67.6855C113.417 66.8215 114.145 66.1495 115.057 65.6695C115.985 65.1895 117.033 64.9495 118.201 64.9495C119.369 64.9495 120.409 65.1895 121.321 65.6695C122.249 66.1495 122.977 66.8215 123.505 67.6855C124.049 68.5495 124.321 69.5575 124.321 70.7095C124.321 71.8455 124.049 72.8535 123.505 73.7335C122.977 74.5975 122.249 75.2695 121.321 75.7495C120.409 76.2295 119.369 76.4695 118.201 76.4695C117.033 76.4695 115.985 76.2295 115.057 75.7495C114.145 75.2695 113.417 74.5975 112.873 73.7335C112.345 72.8535 112.081 71.8455 112.081 70.7095ZM115.249 70.7095C115.249 71.3335 115.377 71.8855 115.633 72.3655C115.905 72.8295 116.265 73.1975 116.713 73.4695C117.161 73.7255 117.657 73.8535 118.201 73.8535C118.745 73.8535 119.241 73.7255 119.689 73.4695C120.137 73.1975 120.489 72.8295 120.745 72.3655C121.017 71.8855 121.153 71.3335 121.153 70.7095C121.153 70.0855 121.017 69.5335 120.745 69.0535C120.489 68.5735 120.137 68.2055 119.689 67.9495C119.241 67.6935 118.745 67.5655 118.201 67.5655C117.657 67.5655 117.161 67.6935 116.713 67.9495C116.265 68.2055 115.905 68.5735 115.633 69.0535C115.377 69.5335 115.249 70.0855 115.249 70.7095ZM124.67 65.1895H127.982L130.406 71.3095L133.526 64.3495L136.766 71.3335L139.214 65.1895H142.502L137.102 76.9735L133.55 69.9415L130.094 76.9735L124.67 65.1895Z" fill="white"/>
<rect x="50" y="121.995" width="288" height="80.4695" rx="2.41408" fill="white"/>
<path d="M163.894 158.632C163.838 158.059 163.594 157.614 163.163 157.297C162.732 156.98 162.147 156.821 161.409 156.821C160.907 156.821 160.483 156.892 160.137 157.034C159.792 157.172 159.527 157.363 159.342 157.61C159.162 157.856 159.072 158.135 159.072 158.448C159.063 158.708 159.117 158.935 159.235 159.13C159.358 159.324 159.527 159.492 159.74 159.634C159.953 159.771 160.199 159.892 160.478 159.996C160.758 160.095 161.056 160.181 161.373 160.252L162.68 160.564C163.314 160.706 163.897 160.896 164.427 161.132C164.957 161.369 165.417 161.66 165.805 162.006C166.193 162.352 166.494 162.759 166.707 163.228C166.925 163.696 167.036 164.234 167.041 164.84C167.036 165.73 166.809 166.502 166.359 167.155C165.914 167.804 165.27 168.308 164.427 168.668C163.589 169.023 162.578 169.201 161.394 169.201C160.22 169.201 159.197 169.021 158.326 168.661C157.46 168.301 156.783 167.768 156.295 167.063C155.812 166.353 155.559 165.474 155.535 164.428H158.511C158.544 164.916 158.684 165.323 158.93 165.649C159.181 165.971 159.515 166.215 159.931 166.381C160.353 166.542 160.829 166.622 161.359 166.622C161.88 166.622 162.332 166.547 162.715 166.395C163.104 166.244 163.404 166.033 163.617 165.763C163.831 165.493 163.937 165.183 163.937 164.833C163.937 164.506 163.84 164.231 163.646 164.009C163.456 163.786 163.177 163.597 162.808 163.441C162.443 163.284 161.996 163.142 161.465 163.015L159.882 162.617C158.655 162.318 157.687 161.852 156.977 161.218C156.267 160.583 155.914 159.729 155.919 158.654C155.914 157.773 156.148 157.004 156.622 156.345C157.1 155.687 157.756 155.174 158.589 154.804C159.422 154.435 160.369 154.25 161.43 154.25C162.509 154.25 163.452 154.435 164.257 154.804C165.066 155.174 165.696 155.687 166.146 156.345C166.596 157.004 166.828 157.766 166.842 158.632H163.894ZM171.805 154.449V168.995H168.729V154.449H171.805ZM183.6 159.151C183.5 158.805 183.361 158.5 183.181 158.235C183.001 157.965 182.781 157.738 182.52 157.553C182.264 157.363 181.971 157.219 181.639 157.12C181.313 157.02 180.95 156.97 180.553 156.97C179.809 156.97 179.156 157.155 178.593 157.524C178.034 157.894 177.598 158.431 177.286 159.137C176.973 159.837 176.817 160.694 176.817 161.708C176.817 162.721 176.971 163.583 177.279 164.293C177.586 165.003 178.022 165.545 178.585 165.919C179.149 166.289 179.814 166.473 180.581 166.473C181.277 166.473 181.871 166.35 182.364 166.104C182.861 165.853 183.24 165.5 183.5 165.046C183.765 164.591 183.898 164.054 183.898 163.434L184.523 163.526H180.773V161.211H186.86V163.043C186.86 164.321 186.59 165.42 186.05 166.338C185.51 167.252 184.767 167.958 183.82 168.455C182.873 168.947 181.789 169.193 180.567 169.193C179.203 169.193 178.005 168.893 176.973 168.292C175.941 167.685 175.136 166.826 174.558 165.713C173.986 164.596 173.699 163.27 173.699 161.736C173.699 160.557 173.87 159.506 174.21 158.583C174.556 157.655 175.039 156.869 175.659 156.225C176.28 155.581 177.002 155.091 177.825 154.755C178.649 154.418 179.542 154.25 180.503 154.25C181.327 154.25 182.094 154.371 182.804 154.613C183.514 154.849 184.144 155.185 184.693 155.621C185.247 156.057 185.7 156.575 186.05 157.176C186.4 157.773 186.625 158.431 186.725 159.151H183.6ZM200.956 154.449V168.995H198.3L191.971 159.84H191.865V168.995H188.79V154.449H191.488L197.767 163.597H197.895V154.449H200.956ZM216.35 154.449H219.425V163.895C219.425 164.956 219.172 165.884 218.665 166.679C218.163 167.475 217.46 168.095 216.556 168.54C215.652 168.98 214.598 169.201 213.395 169.201C212.188 169.201 211.132 168.98 210.228 168.54C209.323 168.095 208.62 167.475 208.118 166.679C207.616 165.884 207.366 164.956 207.366 163.895V154.449H210.441V163.632C210.441 164.186 210.562 164.679 210.803 165.11C211.049 165.541 211.395 165.879 211.84 166.125C212.285 166.372 212.803 166.495 213.395 166.495C213.992 166.495 214.51 166.372 214.951 166.125C215.396 165.879 215.739 165.541 215.981 165.11C216.227 164.679 216.35 164.186 216.35 163.632V154.449ZM221.575 168.995V154.449H227.314C228.417 154.449 229.357 154.66 230.134 155.081C230.91 155.498 231.502 156.078 231.909 156.821C232.321 157.56 232.527 158.412 232.527 159.378C232.527 160.344 232.319 161.196 231.902 161.935C231.485 162.674 230.882 163.249 230.091 163.661C229.305 164.073 228.353 164.279 227.236 164.279H223.578V161.814H226.739C227.331 161.814 227.818 161.712 228.202 161.509C228.59 161.3 228.879 161.014 229.068 160.649C229.262 160.28 229.359 159.856 229.359 159.378C229.359 158.895 229.262 158.474 229.068 158.114C228.879 157.749 228.59 157.468 228.202 157.269C227.814 157.065 227.321 156.963 226.725 156.963H224.651V168.995H221.575Z" fill="black" fill-opacity="0.8"/>
<rect x="374" y="121.995" width="288" height="80.4695" rx="2.41408" fill="white"/>
<path d="M402.917 168.995V154.449H405.992V160.863H406.184L411.418 154.449H415.104L409.706 160.962L415.168 168.995H411.489L407.505 163.015L405.992 164.861V168.995H402.917ZM415.633 154.449H419.078L422.395 160.713H422.537L425.854 154.449H429.298L423.993 163.853V168.995H420.939V163.853L415.633 154.449ZM442.713 159.542H439.602C439.545 159.139 439.429 158.782 439.254 158.469C439.079 158.152 438.854 157.882 438.579 157.659C438.305 157.437 437.987 157.266 437.628 157.148C437.273 157.03 436.887 156.97 436.47 156.97C435.717 156.97 435.061 157.158 434.503 157.532C433.944 157.901 433.511 158.441 433.203 159.151C432.895 159.856 432.741 160.713 432.741 161.722C432.741 162.759 432.895 163.63 433.203 164.336C433.515 165.041 433.951 165.574 434.51 165.934C435.068 166.293 435.715 166.473 436.449 166.473C436.861 166.473 437.242 166.419 437.592 166.31C437.947 166.201 438.262 166.042 438.537 165.834C438.811 165.621 439.039 165.363 439.219 165.06C439.403 164.757 439.531 164.411 439.602 164.023L442.713 164.037C442.632 164.705 442.431 165.349 442.109 165.969C441.792 166.585 441.363 167.136 440.824 167.624C440.289 168.107 439.649 168.49 438.906 168.774C438.167 169.054 437.332 169.193 436.399 169.193C435.102 169.193 433.942 168.9 432.919 168.313C431.901 167.726 431.096 166.876 430.504 165.763C429.917 164.65 429.623 163.303 429.623 161.722C429.623 160.136 429.922 158.786 430.518 157.674C431.115 156.561 431.924 155.713 432.947 155.131C433.97 154.544 435.121 154.25 436.399 154.25C437.242 154.25 438.023 154.369 438.743 154.605C439.467 154.842 440.109 155.188 440.667 155.642C441.226 156.092 441.681 156.644 442.031 157.297C442.386 157.951 442.613 158.699 442.713 159.542ZM450.977 153.767L446.289 171.182H443.682L448.37 153.767H450.977ZM452.271 168.995V154.449H455.346V160.863H455.538L460.772 154.449H464.459L459.061 160.962L464.522 168.995H460.844L456.859 163.015L455.346 164.861V168.995H452.271ZM464.988 154.449H468.432L471.749 160.713H471.891L475.208 154.449H478.653L473.347 163.853V168.995H470.293V163.853L464.988 154.449ZM480.112 168.995V154.449H485.936C487.006 154.449 487.899 154.608 488.614 154.925C489.329 155.242 489.866 155.683 490.226 156.246C490.586 156.805 490.766 157.449 490.766 158.178C490.766 158.746 490.652 159.246 490.425 159.676C490.198 160.103 489.885 160.453 489.487 160.728C489.094 160.997 488.645 161.189 488.138 161.303V161.445C488.692 161.469 489.21 161.625 489.693 161.914C490.181 162.202 490.576 162.607 490.879 163.128C491.182 163.644 491.334 164.26 491.334 164.975C491.334 165.747 491.142 166.435 490.759 167.042C490.38 167.643 489.819 168.119 489.075 168.469C488.332 168.819 487.416 168.995 486.327 168.995H480.112ZM483.188 166.48H485.695C486.552 166.48 487.177 166.317 487.57 165.99C487.963 165.659 488.159 165.219 488.159 164.669C488.159 164.267 488.062 163.912 487.868 163.604C487.674 163.296 487.397 163.055 487.037 162.88C486.682 162.704 486.258 162.617 485.766 162.617H483.188V166.48ZM483.188 160.536H485.467C485.889 160.536 486.263 160.462 486.59 160.316C486.921 160.164 487.181 159.951 487.371 159.676C487.565 159.402 487.662 159.073 487.662 158.689C487.662 158.164 487.475 157.74 487.101 157.418C486.732 157.096 486.206 156.935 485.524 156.935H483.188V160.536ZM500.152 154.449L503.667 165.5H503.802L507.325 154.449H510.734L505.72 168.995H501.757L496.736 154.449H500.152ZM512.265 168.995V154.449H522.066V156.985H515.34V160.451H521.562V162.986H515.34V166.459H522.094V168.995H512.265ZM524.291 168.995V154.449H530.03C531.128 154.449 532.066 154.646 532.842 155.039C533.623 155.427 534.218 155.979 534.625 156.693C535.037 157.404 535.243 158.239 535.243 159.201C535.243 160.167 535.034 160.997 534.618 161.693C534.201 162.385 533.597 162.915 532.807 163.284C532.021 163.654 531.069 163.838 529.951 163.838H526.109V161.367H529.454C530.041 161.367 530.529 161.286 530.917 161.125C531.306 160.964 531.594 160.723 531.784 160.401C531.978 160.079 532.075 159.679 532.075 159.201C532.075 158.718 531.978 158.31 531.784 157.979C531.594 157.648 531.303 157.397 530.91 157.226C530.522 157.051 530.032 156.963 529.44 156.963H527.366V168.995H524.291ZM532.146 162.375L535.761 168.995H532.366L528.829 162.375H532.146ZM540.271 154.449V168.995H537.196V154.449H540.271ZM542.581 168.995V154.449H552.212V156.985H545.657V160.451H551.573V162.986H545.657V168.995H542.581ZM557.136 154.449V168.995H554.061V154.449H557.136ZM572.28 159.542H569.169C569.112 159.139 568.996 158.782 568.821 158.469C568.646 158.152 568.421 157.882 568.146 157.659C567.872 157.437 567.555 157.266 567.195 157.148C566.84 157.03 566.454 156.97 566.037 156.97C565.284 156.97 564.628 157.158 564.07 157.532C563.511 157.901 563.078 158.441 562.77 159.151C562.462 159.856 562.308 160.713 562.308 161.722C562.308 162.759 562.462 163.63 562.77 164.336C563.082 165.041 563.518 165.574 564.077 165.934C564.635 166.293 565.282 166.473 566.016 166.473C566.428 166.473 566.809 166.419 567.159 166.31C567.514 166.201 567.829 166.042 568.104 165.834C568.378 165.621 568.606 165.363 568.786 165.06C568.97 164.757 569.098 164.411 569.169 164.023L572.28 164.037C572.199 164.705 571.998 165.349 571.676 165.969C571.359 166.585 570.93 167.136 570.391 167.624C569.856 168.107 569.216 168.49 568.473 168.774C567.734 169.054 566.899 169.193 565.966 169.193C564.669 169.193 563.509 168.9 562.486 168.313C561.468 167.726 560.663 166.876 560.071 165.763C559.484 164.65 559.19 163.303 559.19 161.722C559.19 160.136 559.489 158.786 560.085 157.674C560.682 156.561 561.492 155.713 562.514 155.131C563.537 154.544 564.688 154.25 565.966 154.25C566.809 154.25 567.59 154.369 568.31 154.605C569.034 154.842 569.676 155.188 570.234 155.642C570.793 156.092 571.248 156.644 571.598 157.297C571.953 157.951 572.18 158.699 572.28 159.542ZM576.499 168.995H573.203L578.225 154.449H582.188L587.202 168.995H583.906L580.263 157.773H580.149L576.499 168.995ZM576.293 163.277H584.077V165.678H576.293V163.277ZM586.401 156.985V154.449H598.347V156.985H593.894V168.995H590.854V156.985H586.401ZM603.17 154.449V168.995H600.095V154.449H603.17ZM618.847 161.722C618.847 163.308 618.546 164.658 617.945 165.77C617.348 166.883 616.534 167.733 615.501 168.32C614.474 168.902 613.319 169.193 612.036 169.193C610.743 169.193 609.583 168.9 608.555 168.313C607.528 167.726 606.716 166.876 606.119 165.763C605.523 164.65 605.224 163.303 605.224 161.722C605.224 160.136 605.523 158.786 606.119 157.674C606.716 156.561 607.528 155.713 608.555 155.131C609.583 154.544 610.743 154.25 612.036 154.25C613.319 154.25 614.474 154.544 615.501 155.131C616.534 155.713 617.348 156.561 617.945 157.674C618.546 158.786 618.847 160.136 618.847 161.722ZM615.729 161.722C615.729 160.694 615.575 159.828 615.267 159.122C614.964 158.417 614.536 157.882 613.982 157.517C613.428 157.153 612.779 156.97 612.036 156.97C611.292 156.97 610.643 157.153 610.09 157.517C609.536 157.882 609.105 158.417 608.797 159.122C608.494 159.828 608.342 160.694 608.342 161.722C608.342 162.749 608.494 163.616 608.797 164.321C609.105 165.027 609.536 165.562 610.09 165.926C610.643 166.291 611.292 166.473 612.036 166.473C612.779 166.473 613.428 166.291 613.982 165.926C614.536 165.562 614.964 165.027 615.267 164.321C615.575 163.616 615.729 162.749 615.729 161.722ZM633.071 154.449V168.995H630.415L624.086 159.84H623.98V168.995H620.905V154.449H623.604L629.882 163.597H630.01V154.449H633.071Z" fill="black" fill-opacity="0.8"/>
<path d="M342 160.729C341.172 160.729 340.5 161.401 340.5 162.229C340.5 163.058 341.172 163.729 342 163.729V160.729ZM355 168.89C355 169.718 356.015 170.304 356.732 169.89L368.268 163.229C368.985 162.815 368.985 161.644 368.268 161.229L356.732 154.569C356.015 154.155 355 154.741 355 155.569V168.89ZM342 163.729H356.5V160.729H342V163.729Z" fill="#F9F9F9"/>
<path d="M798.964 102.054C800.839 100.955 803.161 100.955 805.036 102.054L903.036 157.054C906.988 159.372 906.988 165.087 903.036 167.405L805.036 222.405C803.161 223.504 800.839 223.504 798.964 222.405L700.964 167.405C697.012 165.087 697.012 159.372 700.964 157.054L798.964 102.054Z" fill="#14AE5C"/>
<path d="M770.568 156.229H767.932L771.949 144.593H775.12L779.131 156.229H776.495L773.58 147.252H773.489L770.568 156.229ZM770.404 151.656H776.631V153.576H770.404V151.656ZM790.076 148.667H787.587C787.542 148.345 787.449 148.059 787.309 147.809C787.169 147.555 786.989 147.339 786.769 147.161C786.549 146.983 786.295 146.847 786.008 146.752C785.723 146.658 785.415 146.61 785.081 146.61C784.479 146.61 783.955 146.76 783.508 147.059C783.061 147.354 782.714 147.786 782.468 148.354C782.222 148.919 782.098 149.604 782.098 150.411C782.098 151.241 782.222 151.938 782.468 152.502C782.718 153.067 783.066 153.493 783.513 153.781C783.96 154.069 784.477 154.212 785.064 154.212C785.394 154.212 785.699 154.169 785.979 154.082C786.263 153.995 786.515 153.868 786.735 153.701C786.955 153.531 787.136 153.324 787.28 153.082C787.428 152.839 787.53 152.563 787.587 152.252L790.076 152.264C790.011 152.798 789.85 153.313 789.593 153.809C789.339 154.301 788.996 154.743 788.564 155.133C788.136 155.519 787.625 155.826 787.03 156.053C786.439 156.277 785.771 156.389 785.025 156.389C783.987 156.389 783.059 156.154 782.24 155.684C781.426 155.214 780.782 154.534 780.309 153.644C779.839 152.754 779.604 151.676 779.604 150.411C779.604 149.142 779.843 148.063 780.32 147.173C780.797 146.283 781.445 145.604 782.263 145.139C783.081 144.669 784.002 144.434 785.025 144.434C785.699 144.434 786.324 144.529 786.9 144.718C787.479 144.908 787.992 145.184 788.439 145.548C788.886 145.908 789.25 146.349 789.53 146.872C789.814 147.394 789.996 147.993 790.076 148.667ZM801.931 148.667H799.442C799.397 148.345 799.304 148.059 799.164 147.809C799.024 147.555 798.844 147.339 798.624 147.161C798.404 146.983 798.151 146.847 797.863 146.752C797.579 146.658 797.27 146.61 796.937 146.61C796.334 146.61 795.81 146.76 795.363 147.059C794.916 147.354 794.569 147.786 794.323 148.354C794.077 148.919 793.954 149.604 793.954 150.411C793.954 151.241 794.077 151.938 794.323 152.502C794.573 153.067 794.922 153.493 795.368 153.781C795.815 154.069 796.332 154.212 796.92 154.212C797.249 154.212 797.554 154.169 797.834 154.082C798.118 153.995 798.37 153.868 798.59 153.701C798.81 153.531 798.992 153.324 799.136 153.082C799.283 152.839 799.386 152.563 799.442 152.252L801.931 152.264C801.867 152.798 801.706 153.313 801.448 153.809C801.194 154.301 800.851 154.743 800.42 155.133C799.992 155.519 799.48 155.826 798.886 156.053C798.295 156.277 797.626 156.389 796.88 156.389C795.842 156.389 794.914 156.154 794.096 155.684C793.281 155.214 792.637 154.534 792.164 153.644C791.694 152.754 791.459 151.676 791.459 150.411C791.459 149.142 791.698 148.063 792.175 147.173C792.653 146.283 793.3 145.604 794.118 145.139C794.937 144.669 795.857 144.434 796.88 144.434C797.554 144.434 798.179 144.529 798.755 144.718C799.334 144.908 799.848 145.184 800.295 145.548C800.742 145.908 801.105 146.349 801.386 146.872C801.67 147.394 801.851 147.993 801.931 148.667ZM803.519 156.229V144.593H811.36V146.622H805.979V149.394H810.957V151.423H805.979V154.201H811.383V156.229H803.519ZM819.453 147.94C819.407 147.481 819.212 147.125 818.867 146.872C818.523 146.618 818.055 146.491 817.464 146.491C817.062 146.491 816.723 146.548 816.447 146.661C816.17 146.771 815.958 146.925 815.811 147.122C815.667 147.319 815.595 147.542 815.595 147.792C815.587 148 815.631 148.182 815.725 148.337C815.824 148.493 815.958 148.627 816.129 148.741C816.299 148.851 816.496 148.947 816.72 149.031C816.943 149.11 817.182 149.178 817.436 149.235L818.481 149.485C818.989 149.599 819.454 149.75 819.879 149.94C820.303 150.129 820.67 150.362 820.981 150.639C821.292 150.915 821.532 151.241 821.703 151.616C821.877 151.991 821.966 152.421 821.97 152.906C821.966 153.618 821.784 154.235 821.424 154.758C821.068 155.277 820.553 155.68 819.879 155.968C819.208 156.252 818.4 156.394 817.453 156.394C816.513 156.394 815.695 156.25 814.998 155.962C814.305 155.675 813.763 155.248 813.373 154.684C812.987 154.116 812.784 153.413 812.765 152.576H815.146C815.172 152.966 815.284 153.292 815.481 153.553C815.682 153.811 815.949 154.006 816.282 154.139C816.619 154.267 817 154.332 817.424 154.332C817.841 154.332 818.203 154.271 818.509 154.15C818.82 154.029 819.061 153.86 819.231 153.644C819.401 153.428 819.487 153.18 819.487 152.9C819.487 152.639 819.409 152.419 819.254 152.241C819.102 152.063 818.879 151.911 818.583 151.786C818.292 151.661 817.934 151.548 817.509 151.445L816.242 151.127C815.261 150.889 814.487 150.515 813.918 150.008C813.35 149.5 813.068 148.817 813.072 147.957C813.068 147.252 813.256 146.637 813.634 146.11C814.017 145.584 814.542 145.173 815.208 144.877C815.875 144.582 816.632 144.434 817.481 144.434C818.345 144.434 819.098 144.582 819.742 144.877C820.39 145.173 820.894 145.584 821.254 146.11C821.614 146.637 821.799 147.247 821.811 147.94H819.453ZM829.761 147.94C829.715 147.481 829.52 147.125 829.176 146.872C828.831 146.618 828.363 146.491 827.772 146.491C827.371 146.491 827.032 146.548 826.755 146.661C826.479 146.771 826.267 146.925 826.119 147.122C825.975 147.319 825.903 147.542 825.903 147.792C825.895 148 825.939 148.182 826.034 148.337C826.132 148.493 826.267 148.627 826.437 148.741C826.608 148.851 826.804 148.947 827.028 149.031C827.251 149.11 827.49 149.178 827.744 149.235L828.789 149.485C829.297 149.599 829.763 149.75 830.187 149.94C830.611 150.129 830.979 150.362 831.289 150.639C831.6 150.915 831.84 151.241 832.011 151.616C832.185 151.991 832.274 152.421 832.278 152.906C832.274 153.618 832.092 154.235 831.733 154.758C831.376 155.277 830.861 155.68 830.187 155.968C829.517 156.252 828.708 156.394 827.761 156.394C826.822 156.394 826.003 156.25 825.306 155.962C824.613 155.675 824.072 155.248 823.681 154.684C823.295 154.116 823.092 153.413 823.073 152.576H825.454C825.481 152.966 825.592 153.292 825.789 153.553C825.99 153.811 826.257 154.006 826.59 154.139C826.928 154.267 827.308 154.332 827.733 154.332C828.149 154.332 828.511 154.271 828.818 154.15C829.128 154.029 829.369 153.86 829.539 153.644C829.71 153.428 829.795 153.18 829.795 152.9C829.795 152.639 829.717 152.419 829.562 152.241C829.411 152.063 829.187 151.911 828.892 151.786C828.6 151.661 828.242 151.548 827.818 151.445L826.551 151.127C825.57 150.889 824.795 150.515 824.227 150.008C823.659 149.5 823.376 148.817 823.38 147.957C823.376 147.252 823.564 146.637 823.943 146.11C824.325 145.584 824.85 145.173 825.517 144.877C826.183 144.582 826.941 144.434 827.789 144.434C828.653 144.434 829.407 144.582 830.051 144.877C830.698 145.173 831.202 145.584 831.562 146.11C831.922 146.637 832.108 147.247 832.119 147.94H829.761ZM771.99 172.354C771.91 172.078 771.798 171.834 771.654 171.622C771.51 171.406 771.334 171.224 771.126 171.076C770.921 170.925 770.687 170.809 770.421 170.729C770.16 170.65 769.87 170.61 769.552 170.61C768.957 170.61 768.435 170.758 767.984 171.053C767.537 171.349 767.189 171.779 766.939 172.343C766.689 172.904 766.564 173.589 766.564 174.4C766.564 175.211 766.687 175.9 766.933 176.468C767.179 177.036 767.528 177.47 767.978 177.769C768.429 178.065 768.961 178.212 769.575 178.212C770.132 178.212 770.607 178.114 771.001 177.917C771.399 177.716 771.702 177.434 771.91 177.07C772.122 176.707 772.228 176.277 772.228 175.781L772.728 175.854H769.728V174.002H774.598V175.468C774.598 176.491 774.382 177.37 773.95 178.104C773.518 178.836 772.923 179.4 772.166 179.798C771.408 180.192 770.541 180.389 769.564 180.389C768.473 180.389 767.514 180.148 766.689 179.667C765.863 179.182 765.219 178.495 764.757 177.604C764.298 176.711 764.069 175.65 764.069 174.423C764.069 173.479 764.206 172.639 764.478 171.9C764.755 171.158 765.141 170.529 765.637 170.014C766.134 169.498 766.711 169.106 767.37 168.837C768.029 168.569 768.743 168.434 769.512 168.434C770.171 168.434 770.785 168.531 771.353 168.724C771.921 168.913 772.425 169.182 772.865 169.531C773.308 169.879 773.67 170.294 773.95 170.775C774.23 171.252 774.41 171.779 774.49 172.354H771.99ZM776.27 180.229V168.593H780.861C781.739 168.593 782.489 168.75 783.111 169.065C783.736 169.375 784.211 169.817 784.537 170.389C784.866 170.957 785.031 171.625 785.031 172.394C785.031 173.167 784.864 173.832 784.531 174.389C784.198 174.942 783.715 175.366 783.082 175.661C782.453 175.957 781.692 176.104 780.798 176.104H777.724V174.127H780.4C780.87 174.127 781.26 174.063 781.571 173.934C781.881 173.805 782.112 173.612 782.264 173.354C782.419 173.097 782.497 172.777 782.497 172.394C782.497 172.008 782.419 171.682 782.264 171.417C782.112 171.152 781.879 170.951 781.565 170.815C781.254 170.675 780.862 170.604 780.389 170.604H778.73V180.229H776.27ZM782.554 174.934L785.446 180.229H782.73L779.9 174.934H782.554ZM788.599 180.229H785.963L789.98 168.593H793.15L797.162 180.229H794.525L791.611 171.252H791.52L788.599 180.229ZM788.435 175.656H794.662V177.576H788.435V175.656ZM808.119 168.593V180.229H805.994L800.932 172.906H800.847V180.229H798.386V168.593H800.545L805.568 175.911H805.67V168.593H808.119ZM809.533 170.622V168.593H819.09V170.622H815.527V180.229H813.095V170.622H809.533ZM820.487 180.229V168.593H828.328V170.622H822.948V173.394H827.925V175.423H822.948V178.201H828.351V180.229H820.487ZM834.233 180.229H830.108V168.593H834.267C835.438 168.593 836.445 168.826 837.29 169.292C838.135 169.754 838.785 170.419 839.239 171.286C839.697 172.154 839.927 173.192 839.927 174.4C839.927 175.612 839.697 176.654 839.239 177.525C838.785 178.396 838.131 179.065 837.279 179.531C836.43 179.997 835.415 180.229 834.233 180.229ZM832.569 178.122H834.131C834.858 178.122 835.47 177.993 835.966 177.735C836.466 177.474 836.841 177.07 837.091 176.525C837.345 175.976 837.472 175.267 837.472 174.4C837.472 173.54 837.345 172.837 837.091 172.292C836.841 171.747 836.468 171.345 835.972 171.087C835.476 170.83 834.864 170.701 834.137 170.701H832.569V178.122Z" fill="white"/>
<path d="M666 160.729C665.172 160.729 664.5 161.401 664.5 162.229C664.5 163.058 665.172 163.729 666 163.729V160.729ZM679 168.89C679 169.718 680.015 170.304 680.732 169.89L692.268 163.229C692.985 162.815 692.985 161.644 692.268 161.229L680.732 154.569C680.015 154.155 679 154.741 679 155.569V168.89ZM666 163.729H680.5V160.729H666V163.729Z" fill="#F9F9F9"/>
<rect x="942" y="122.229" width="208" height="80" rx="6" fill="#2475FF"/>
<path d="M1029.72 169.229H1026.43L1031.45 154.684H1035.41L1040.42 169.229H1037.13L1033.49 158.008H1033.37L1029.72 169.229ZM1029.52 163.512H1037.3V165.913H1029.52V163.512ZM1041.8 169.229V154.684H1047.53C1048.64 154.684 1049.58 154.895 1050.35 155.316C1051.13 155.733 1051.72 156.313 1052.13 157.056C1052.54 157.795 1052.75 158.647 1052.75 159.613C1052.75 160.579 1052.54 161.431 1052.12 162.17C1051.71 162.908 1051.1 163.484 1050.31 163.896C1049.53 164.308 1048.57 164.514 1047.46 164.514H1043.8V162.049H1046.96C1047.55 162.049 1048.04 161.947 1048.42 161.744C1048.81 161.535 1049.1 161.249 1049.29 160.884C1049.48 160.515 1049.58 160.091 1049.58 159.613C1049.58 159.13 1049.48 158.709 1049.29 158.349C1049.1 157.984 1048.81 157.703 1048.42 157.504C1048.03 157.3 1047.54 157.198 1046.94 157.198H1044.87V169.229H1041.8ZM1054.36 169.229V154.684H1060.1C1061.21 154.684 1062.15 154.895 1062.92 155.316C1063.7 155.733 1064.29 156.313 1064.7 157.056C1065.11 157.795 1065.32 158.647 1065.32 159.613C1065.32 160.579 1065.11 161.431 1064.69 162.17C1064.27 162.908 1063.67 163.484 1062.88 163.896C1062.09 164.308 1061.14 164.514 1060.03 164.514H1056.37V162.049H1059.53C1060.12 162.049 1060.61 161.947 1060.99 161.744C1061.38 161.535 1061.67 161.249 1061.86 160.884C1062.05 160.515 1062.15 160.091 1062.15 159.613C1062.15 159.13 1062.05 158.709 1061.86 158.349C1061.67 157.984 1061.38 157.703 1060.99 157.504C1060.6 157.3 1060.11 157.198 1059.51 157.198H1057.44V169.229H1054.36Z" fill="white"/>
<path d="M910 160.729C909.172 160.729 908.5 161.401 908.5 162.229C908.5 163.058 909.172 163.729 910 163.729V160.729ZM923 168.89C923 169.718 924.015 170.304 924.732 169.89L936.268 163.229C936.985 162.815 936.985 161.644 936.268 161.229L924.732 154.569C924.015 154.155 923 154.741 923 155.569V168.89ZM910 163.729H924.5V160.729H910V163.729Z" fill="#F9F9F9"/>
<path d="M55.64 291.405H59.264L64.736 299.229H60.68L55.64 291.405ZM51.824 282.429H55.256V299.229H51.824V282.429ZM53.912 285.357V282.429H57.464C58.792 282.429 59.92 282.653 60.848 283.101C61.776 283.549 62.488 284.173 62.984 284.973C63.48 285.773 63.728 286.709 63.728 287.781C63.728 288.837 63.48 289.773 62.984 290.589C62.488 291.389 61.776 292.013 60.848 292.461C59.92 292.909 58.792 293.133 57.464 293.133H53.912V290.397H57.248C57.856 290.397 58.376 290.301 58.808 290.109C59.256 289.901 59.6 289.613 59.84 289.245C60.08 288.861 60.2 288.405 60.2 287.877C60.2 287.349 60.08 286.901 59.84 286.533C59.6 286.149 59.256 285.861 58.808 285.669C58.376 285.461 57.856 285.357 57.248 285.357H53.912ZM71.6268 299.469C70.4268 299.469 69.3788 299.229 68.4828 298.749C67.5868 298.269 66.8908 297.605 66.3948 296.757C65.9148 295.893 65.6748 294.877 65.6748 293.709C65.6748 292.525 65.9148 291.509 66.3948 290.661C66.8908 289.797 67.5868 289.133 68.4828 288.669C69.3788 288.189 70.4348 287.949 71.6508 287.949C72.8668 287.949 73.8988 288.173 74.7468 288.621C75.6108 289.053 76.2668 289.693 76.7148 290.541C77.1628 291.373 77.3868 292.381 77.3868 293.565C77.3868 293.709 77.3788 293.861 77.3628 294.021C77.3628 294.181 77.3548 294.309 77.3388 294.405H67.4508V292.485H74.6268L73.7868 293.589C73.8508 293.493 73.9068 293.365 73.9548 293.205C74.0188 293.029 74.0508 292.885 74.0508 292.773C74.0508 292.229 73.9468 291.765 73.7388 291.381C73.5468 290.997 73.2668 290.693 72.8988 290.469C72.5308 290.245 72.0988 290.133 71.6028 290.133C70.9948 290.133 70.4828 290.269 70.0668 290.541C69.6668 290.797 69.3548 291.189 69.1308 291.717C68.9228 292.229 68.8108 292.869 68.7948 293.637C68.7948 294.373 68.8988 294.997 69.1068 295.509C69.3308 296.021 69.6588 296.413 70.0908 296.685C70.5228 296.957 71.0428 297.093 71.6508 297.093C72.3388 297.093 72.9228 296.965 73.4028 296.709C73.8988 296.437 74.3068 296.037 74.6268 295.509L77.3388 296.349C76.7628 297.389 75.9948 298.173 75.0348 298.701C74.0908 299.213 72.9548 299.469 71.6268 299.469ZM88.0593 280.509H91.1793V299.229H88.0593V280.509ZM78.9873 293.709C78.9873 292.477 79.2353 291.437 79.7313 290.589C80.2273 289.725 80.8833 289.069 81.6993 288.621C82.5153 288.173 83.3793 287.949 84.2913 287.949C85.2193 287.949 86.0353 288.181 86.7393 288.645C87.4593 289.109 88.0193 289.773 88.4193 290.637C88.8353 291.485 89.0433 292.509 89.0433 293.709C89.0433 294.893 88.8353 295.917 88.4193 296.781C88.0193 297.645 87.4593 298.309 86.7393 298.773C86.0353 299.237 85.2193 299.469 84.2913 299.469C83.3793 299.469 82.5153 299.245 81.6993 298.797C80.8833 298.349 80.2273 297.693 79.7313 296.829C79.2353 295.965 78.9873 294.925 78.9873 293.709ZM82.2033 293.709C82.2033 294.365 82.3393 294.933 82.6113 295.413C82.8833 295.893 83.2513 296.261 83.7153 296.517C84.1793 296.773 84.6753 296.901 85.2033 296.901C85.6673 296.901 86.1153 296.781 86.5473 296.541C86.9953 296.285 87.3553 295.917 87.6273 295.437C87.9153 294.957 88.0593 294.381 88.0593 293.709C88.0593 293.037 87.9153 292.461 87.6273 291.981C87.3553 291.501 86.9953 291.141 86.5473 290.901C86.1153 290.645 85.6673 290.517 85.2033 290.517C84.6753 290.517 84.1793 290.645 83.7153 290.901C83.2513 291.157 82.8833 291.525 82.6113 292.005C82.3393 292.485 82.2033 293.053 82.2033 293.709ZM99.3768 299.469C98.1768 299.469 97.1288 299.229 96.2328 298.749C95.3368 298.269 94.6408 297.605 94.1448 296.757C93.6648 295.893 93.4248 294.877 93.4248 293.709C93.4248 292.525 93.6648 291.509 94.1448 290.661C94.6408 289.797 95.3368 289.133 96.2328 288.669C97.1288 288.189 98.1848 287.949 99.4008 287.949C100.617 287.949 101.649 288.173 102.497 288.621C103.361 289.053 104.017 289.693 104.465 290.541C104.913 291.373 105.137 292.381 105.137 293.565C105.137 293.709 105.129 293.861 105.113 294.021C105.113 294.181 105.105 294.309 105.089 294.405H95.2008V292.485H102.377L101.537 293.589C101.601 293.493 101.657 293.365 101.705 293.205C101.769 293.029 101.801 292.885 101.801 292.773C101.801 292.229 101.697 291.765 101.489 291.381C101.297 290.997 101.017 290.693 100.649 290.469C100.281 290.245 99.8488 290.133 99.3528 290.133C98.7448 290.133 98.2328 290.269 97.8168 290.541C97.4168 290.797 97.1048 291.189 96.8808 291.717C96.6728 292.229 96.5608 292.869 96.5448 293.637C96.5448 294.373 96.6488 294.997 96.8568 295.509C97.0808 296.021 97.4088 296.413 97.8408 296.685C98.2728 296.957 98.7928 297.093 99.4008 297.093C100.089 297.093 100.673 296.965 101.153 296.709C101.649 296.437 102.057 296.037 102.377 295.509L105.089 296.349C104.513 297.389 103.745 298.173 102.785 298.701C101.841 299.213 100.705 299.469 99.3768 299.469ZM108.033 295.413C108.497 295.845 108.929 296.197 109.329 296.469C109.729 296.725 110.105 296.917 110.457 297.045C110.825 297.173 111.169 297.237 111.489 297.237C111.905 297.237 112.225 297.149 112.449 296.973C112.673 296.781 112.785 296.525 112.785 296.205C112.785 295.917 112.689 295.677 112.497 295.485C112.321 295.277 112.057 295.093 111.705 294.933C111.353 294.773 110.905 294.605 110.361 294.429C109.849 294.237 109.353 294.013 108.873 293.757C108.393 293.485 107.993 293.133 107.673 292.701C107.369 292.253 107.217 291.685 107.217 290.997C107.217 290.341 107.393 289.789 107.745 289.341C108.097 288.877 108.569 288.533 109.161 288.309C109.769 288.069 110.441 287.949 111.177 287.949C111.801 287.949 112.385 288.029 112.929 288.189C113.473 288.349 113.977 288.565 114.441 288.837C114.905 289.093 115.313 289.397 115.665 289.749L114.297 291.669C113.897 291.237 113.417 290.885 112.857 290.613C112.313 290.341 111.777 290.205 111.249 290.205C110.897 290.205 110.617 290.277 110.409 290.421C110.217 290.549 110.121 290.749 110.121 291.021C110.121 291.261 110.217 291.477 110.409 291.669C110.617 291.845 110.905 292.005 111.273 292.149C111.657 292.293 112.089 292.469 112.569 292.677C113.161 292.901 113.705 293.157 114.201 293.445C114.713 293.717 115.121 294.061 115.425 294.477C115.729 294.893 115.881 295.437 115.881 296.109C115.881 297.213 115.521 298.077 114.801 298.701C114.081 299.309 113.089 299.613 111.825 299.613C111.041 299.613 110.321 299.509 109.665 299.301C109.025 299.093 108.441 298.821 107.913 298.485C107.401 298.133 106.937 297.757 106.521 297.357L108.033 295.413ZM117.884 283.917C117.884 283.405 118.068 282.989 118.436 282.669C118.804 282.333 119.244 282.165 119.756 282.165C120.268 282.165 120.7 282.333 121.052 282.669C121.42 282.989 121.604 283.405 121.604 283.917C121.604 284.413 121.42 284.829 121.052 285.165C120.7 285.501 120.268 285.669 119.756 285.669C119.244 285.669 118.804 285.501 118.436 285.165C118.068 284.829 117.884 284.413 117.884 283.917ZM118.22 288.189H121.244V299.229H118.22V288.189ZM124.016 299.997H127.064C127.08 300.477 127.208 300.885 127.448 301.221C127.688 301.573 128.016 301.845 128.432 302.037C128.848 302.229 129.336 302.325 129.896 302.325C130.408 302.325 130.888 302.205 131.336 301.965C131.8 301.725 132.168 301.357 132.44 300.861C132.728 300.365 132.872 299.741 132.872 298.989V288.189H135.872V298.989C135.872 300.349 135.6 301.469 135.056 302.349C134.528 303.229 133.816 303.869 132.92 304.269C132.024 304.685 131.048 304.893 129.992 304.893C128.712 304.893 127.64 304.685 126.776 304.269C125.912 303.869 125.248 303.293 124.784 302.541C124.336 301.805 124.08 300.957 124.016 299.997ZM123.8 293.613C123.8 292.381 124.048 291.349 124.544 290.517C125.04 289.669 125.696 289.029 126.512 288.597C127.328 288.165 128.192 287.949 129.104 287.949C130.032 287.949 130.848 288.173 131.552 288.621C132.272 289.069 132.832 289.717 133.232 290.565C133.648 291.397 133.856 292.413 133.856 293.613C133.856 294.797 133.648 295.813 133.232 296.661C132.832 297.509 132.272 298.157 131.552 298.605C130.848 299.037 130.032 299.253 129.104 299.253C128.192 299.253 127.328 299.037 126.512 298.605C125.696 298.173 125.04 297.541 124.544 296.709C124.048 295.861 123.8 294.829 123.8 293.613ZM127.016 293.613C127.016 294.269 127.152 294.829 127.424 295.293C127.696 295.741 128.064 296.085 128.528 296.325C128.992 296.565 129.488 296.685 130.016 296.685C130.48 296.685 130.928 296.573 131.36 296.349C131.808 296.109 132.168 295.765 132.44 295.317C132.728 294.853 132.872 294.285 132.872 293.613C132.872 293.101 132.792 292.653 132.632 292.269C132.472 291.885 132.248 291.565 131.96 291.309C131.688 291.053 131.384 290.861 131.048 290.733C130.712 290.589 130.368 290.517 130.016 290.517C129.488 290.517 128.992 290.637 128.528 290.877C128.064 291.117 127.696 291.469 127.424 291.933C127.152 292.381 127.016 292.941 127.016 293.613ZM146.016 292.509C146.016 291.773 145.872 291.213 145.584 290.829C145.296 290.445 144.832 290.253 144.192 290.253C143.76 290.253 143.376 290.349 143.04 290.541C142.704 290.717 142.448 290.973 142.272 291.309C142.096 291.645 142.008 292.045 142.008 292.509V299.229H138.888V288.189H142.008V289.869C142.344 289.245 142.784 288.773 143.328 288.453C143.888 288.117 144.56 287.949 145.344 287.949C146.656 287.949 147.632 288.325 148.272 289.077C148.912 289.813 149.232 290.845 149.232 292.173V299.229H146.016V292.509ZM157.502 299.469C156.302 299.469 155.254 299.229 154.358 298.749C153.462 298.269 152.766 297.605 152.27 296.757C151.79 295.893 151.55 294.877 151.55 293.709C151.55 292.525 151.79 291.509 152.27 290.661C152.766 289.797 153.462 289.133 154.358 288.669C155.254 288.189 156.31 287.949 157.526 287.949C158.742 287.949 159.774 288.173 160.622 288.621C161.486 289.053 162.142 289.693 162.59 290.541C163.038 291.373 163.262 292.381 163.262 293.565C163.262 293.709 163.254 293.861 163.238 294.021C163.238 294.181 163.23 294.309 163.214 294.405H153.326V292.485H160.502L159.662 293.589C159.726 293.493 159.782 293.365 159.83 293.205C159.894 293.029 159.926 292.885 159.926 292.773C159.926 292.229 159.822 291.765 159.614 291.381C159.422 290.997 159.142 290.693 158.774 290.469C158.406 290.245 157.974 290.133 157.478 290.133C156.87 290.133 156.358 290.269 155.942 290.541C155.542 290.797 155.23 291.189 155.006 291.717C154.798 292.229 154.686 292.869 154.67 293.637C154.67 294.373 154.774 294.997 154.982 295.509C155.206 296.021 155.534 296.413 155.966 296.685C156.398 296.957 156.918 297.093 157.526 297.093C158.214 297.093 158.798 296.965 159.278 296.709C159.774 296.437 160.182 296.037 160.502 295.509L163.214 296.349C162.638 297.389 161.87 298.173 160.91 298.701C159.966 299.213 158.83 299.469 157.502 299.469ZM173.934 280.509H177.054V299.229H173.934V280.509ZM164.862 293.709C164.862 292.477 165.11 291.437 165.606 290.589C166.102 289.725 166.758 289.069 167.574 288.621C168.39 288.173 169.254 287.949 170.166 287.949C171.094 287.949 171.91 288.181 172.614 288.645C173.334 289.109 173.894 289.773 174.294 290.637C174.71 291.485 174.918 292.509 174.918 293.709C174.918 294.893 174.71 295.917 174.294 296.781C173.894 297.645 173.334 298.309 172.614 298.773C171.91 299.237 171.094 299.469 170.166 299.469C169.254 299.469 168.39 299.245 167.574 298.797C166.758 298.349 166.102 297.693 165.606 296.829C165.11 295.965 164.862 294.925 164.862 293.709ZM168.078 293.709C168.078 294.365 168.214 294.933 168.486 295.413C168.758 295.893 169.126 296.261 169.59 296.517C170.054 296.773 170.55 296.901 171.078 296.901C171.542 296.901 171.99 296.781 172.422 296.541C172.87 296.285 173.23 295.917 173.502 295.437C173.79 294.957 173.934 294.381 173.934 293.709C173.934 293.037 173.79 292.461 173.502 291.981C173.23 291.501 172.87 291.141 172.422 290.901C171.99 290.645 171.542 290.517 171.078 290.517C170.55 290.517 170.054 290.645 169.59 290.901C169.126 291.157 168.758 291.525 168.486 292.005C168.214 292.485 168.078 293.053 168.078 293.709ZM189.735 285.429V282.429H197.247V285.429H189.735ZM189.735 292.053V289.197H197.007V292.053H189.735ZM187.527 282.429H190.839V299.229H187.527V282.429ZM200.106 280.509H203.226V299.229H200.106V280.509ZM205.55 293.709C205.55 292.557 205.814 291.549 206.342 290.685C206.886 289.821 207.614 289.149 208.526 288.669C209.454 288.189 210.502 287.949 211.67 287.949C212.838 287.949 213.878 288.189 214.79 288.669C215.718 289.149 216.446 289.821 216.974 290.685C217.518 291.549 217.79 292.557 217.79 293.709C217.79 294.845 217.518 295.853 216.974 296.733C216.446 297.597 215.718 298.269 214.79 298.749C213.878 299.229 212.838 299.469 211.67 299.469C210.502 299.469 209.454 299.229 208.526 298.749C207.614 298.269 206.886 297.597 206.342 296.733C205.814 295.853 205.55 294.845 205.55 293.709ZM208.718 293.709C208.718 294.333 208.846 294.885 209.102 295.365C209.374 295.829 209.734 296.197 210.182 296.469C210.63 296.725 211.126 296.853 211.67 296.853C212.214 296.853 212.71 296.725 213.158 296.469C213.606 296.197 213.958 295.829 214.214 295.365C214.486 294.885 214.622 294.333 214.622 293.709C214.622 293.085 214.486 292.533 214.214 292.053C213.958 291.573 213.606 291.205 213.158 290.949C212.71 290.693 212.214 290.565 211.67 290.565C211.126 290.565 210.63 290.693 210.182 290.949C209.734 291.205 209.374 291.573 209.102 292.053C208.846 292.533 208.718 293.085 208.718 293.709ZM218.138 288.189H221.45L223.874 294.309L226.994 287.349L230.234 294.333L232.682 288.189H235.97L230.57 299.973L227.018 292.941L223.562 299.973L218.138 288.189Z" fill="white"/>
<rect x="50" y="344.995" width="288" height="80.4695" rx="2.41408" fill="white"/>
<path d="M163.894 381.632C163.838 381.059 163.594 380.614 163.163 380.297C162.732 379.98 162.147 379.821 161.409 379.821C160.907 379.821 160.483 379.892 160.137 380.034C159.792 380.172 159.527 380.363 159.342 380.61C159.162 380.856 159.072 381.135 159.072 381.448C159.063 381.708 159.117 381.935 159.235 382.13C159.358 382.324 159.527 382.492 159.74 382.634C159.953 382.771 160.199 382.892 160.478 382.996C160.758 383.095 161.056 383.181 161.373 383.252L162.68 383.564C163.314 383.706 163.897 383.896 164.427 384.132C164.957 384.369 165.417 384.66 165.805 385.006C166.193 385.352 166.494 385.759 166.707 386.228C166.925 386.696 167.036 387.234 167.041 387.84C167.036 388.73 166.809 389.502 166.359 390.155C165.914 390.804 165.27 391.308 164.427 391.668C163.589 392.023 162.578 392.201 161.394 392.201C160.22 392.201 159.197 392.021 158.326 391.661C157.46 391.301 156.783 390.768 156.295 390.063C155.812 389.353 155.559 388.474 155.535 387.428H158.511C158.544 387.916 158.684 388.323 158.93 388.649C159.181 388.971 159.515 389.215 159.931 389.381C160.353 389.542 160.829 389.622 161.359 389.622C161.88 389.622 162.332 389.547 162.715 389.395C163.104 389.244 163.404 389.033 163.617 388.763C163.831 388.493 163.937 388.183 163.937 387.833C163.937 387.506 163.84 387.231 163.646 387.009C163.456 386.786 163.177 386.597 162.808 386.441C162.443 386.284 161.996 386.142 161.465 386.015L159.882 385.617C158.655 385.318 157.687 384.852 156.977 384.218C156.267 383.583 155.914 382.729 155.919 381.654C155.914 380.773 156.148 380.004 156.622 379.345C157.1 378.687 157.756 378.174 158.589 377.804C159.422 377.435 160.369 377.25 161.43 377.25C162.509 377.25 163.452 377.435 164.257 377.804C165.066 378.174 165.696 378.687 166.146 379.345C166.596 380.004 166.828 380.766 166.842 381.632H163.894ZM171.805 377.449V391.995H168.729V377.449H171.805ZM183.6 382.151C183.5 381.805 183.361 381.5 183.181 381.235C183.001 380.965 182.781 380.738 182.52 380.553C182.264 380.363 181.971 380.219 181.639 380.12C181.313 380.02 180.95 379.97 180.553 379.97C179.809 379.97 179.156 380.155 178.593 380.524C178.034 380.894 177.598 381.431 177.286 382.137C176.973 382.837 176.817 383.694 176.817 384.708C176.817 385.721 176.971 386.583 177.279 387.293C177.586 388.003 178.022 388.545 178.585 388.919C179.149 389.289 179.814 389.473 180.581 389.473C181.277 389.473 181.871 389.35 182.364 389.104C182.861 388.853 183.24 388.5 183.5 388.046C183.765 387.591 183.898 387.054 183.898 386.434L184.523 386.526H180.773V384.211H186.86V386.043C186.86 387.321 186.59 388.42 186.05 389.338C185.51 390.252 184.767 390.958 183.82 391.455C182.873 391.947 181.789 392.193 180.567 392.193C179.203 392.193 178.005 391.893 176.973 391.292C175.941 390.685 175.136 389.826 174.558 388.713C173.986 387.596 173.699 386.27 173.699 384.736C173.699 383.557 173.87 382.506 174.21 381.583C174.556 380.655 175.039 379.869 175.659 379.225C176.28 378.581 177.002 378.091 177.825 377.755C178.649 377.418 179.542 377.25 180.503 377.25C181.327 377.25 182.094 377.371 182.804 377.613C183.514 377.849 184.144 378.185 184.693 378.621C185.247 379.057 185.7 379.575 186.05 380.176C186.4 380.773 186.625 381.431 186.725 382.151H183.6ZM200.956 377.449V391.995H198.3L191.971 382.84H191.865V391.995H188.79V377.449H191.488L197.767 386.597H197.895V377.449H200.956ZM216.35 377.449H219.425V386.895C219.425 387.956 219.172 388.884 218.665 389.679C218.163 390.475 217.46 391.095 216.556 391.54C215.652 391.98 214.598 392.201 213.395 392.201C212.188 392.201 211.132 391.98 210.228 391.54C209.323 391.095 208.62 390.475 208.118 389.679C207.616 388.884 207.366 387.956 207.366 386.895V377.449H210.441V386.632C210.441 387.186 210.562 387.679 210.803 388.11C211.049 388.541 211.395 388.879 211.84 389.125C212.285 389.372 212.803 389.495 213.395 389.495C213.992 389.495 214.51 389.372 214.951 389.125C215.396 388.879 215.739 388.541 215.981 388.11C216.227 387.679 216.35 387.186 216.35 386.632V377.449ZM221.575 391.995V377.449H227.314C228.417 377.449 229.357 377.66 230.134 378.081C230.91 378.498 231.502 379.078 231.909 379.821C232.321 380.56 232.527 381.412 232.527 382.378C232.527 383.344 232.319 384.196 231.902 384.935C231.485 385.674 230.882 386.249 230.091 386.661C229.305 387.073 228.353 387.279 227.236 387.279H223.578V384.814H226.739C227.331 384.814 227.818 384.712 228.202 384.509C228.59 384.3 228.879 384.014 229.068 383.649C229.262 383.28 229.359 382.856 229.359 382.378C229.359 381.895 229.262 381.474 229.068 381.114C228.879 380.749 228.59 380.468 228.202 380.269C227.814 380.065 227.321 379.963 226.725 379.963H224.651V391.995H221.575Z" fill="black" fill-opacity="0.8"/>
<path d="M474.964 325.054C476.839 323.955 479.161 323.955 481.036 325.054L579.036 380.054C582.988 382.372 582.988 388.087 579.036 390.405L481.036 445.405C479.161 446.504 476.839 446.504 474.964 445.405L376.964 390.405C373.012 388.087 373.012 382.372 376.964 380.054L474.964 325.054Z" fill="#14AE5C"/>
<path d="M446.568 379.229H443.932L447.949 367.593H451.12L455.131 379.229H452.495L449.58 370.252H449.489L446.568 379.229ZM446.404 374.656H452.631V376.576H446.404V374.656ZM466.076 371.667H463.587C463.542 371.345 463.449 371.059 463.309 370.809C463.169 370.555 462.989 370.339 462.769 370.161C462.549 369.983 462.295 369.847 462.008 369.752C461.723 369.658 461.415 369.61 461.081 369.61C460.479 369.61 459.955 369.76 459.508 370.059C459.061 370.354 458.714 370.786 458.468 371.354C458.222 371.919 458.098 372.604 458.098 373.411C458.098 374.241 458.222 374.938 458.468 375.502C458.718 376.067 459.066 376.493 459.513 376.781C459.96 377.069 460.477 377.212 461.064 377.212C461.394 377.212 461.699 377.169 461.979 377.082C462.263 376.995 462.515 376.868 462.735 376.701C462.955 376.531 463.136 376.324 463.28 376.082C463.428 375.839 463.53 375.563 463.587 375.252L466.076 375.264C466.011 375.798 465.85 376.313 465.593 376.809C465.339 377.301 464.996 377.743 464.564 378.133C464.136 378.519 463.625 378.826 463.03 379.053C462.439 379.277 461.771 379.389 461.025 379.389C459.987 379.389 459.059 379.154 458.24 378.684C457.426 378.214 456.782 377.534 456.309 376.644C455.839 375.754 455.604 374.676 455.604 373.411C455.604 372.142 455.843 371.063 456.32 370.173C456.797 369.283 457.445 368.604 458.263 368.139C459.081 367.669 460.002 367.434 461.025 367.434C461.699 367.434 462.324 367.529 462.9 367.718C463.479 367.908 463.992 368.184 464.439 368.548C464.886 368.908 465.25 369.349 465.53 369.872C465.814 370.394 465.996 370.993 466.076 371.667ZM477.931 371.667H475.442C475.397 371.345 475.304 371.059 475.164 370.809C475.024 370.555 474.844 370.339 474.624 370.161C474.404 369.983 474.151 369.847 473.863 369.752C473.579 369.658 473.27 369.61 472.937 369.61C472.334 369.61 471.81 369.76 471.363 370.059C470.916 370.354 470.569 370.786 470.323 371.354C470.077 371.919 469.954 372.604 469.954 373.411C469.954 374.241 470.077 374.938 470.323 375.502C470.573 376.067 470.922 376.493 471.368 376.781C471.815 377.069 472.332 377.212 472.92 377.212C473.249 377.212 473.554 377.169 473.834 377.082C474.118 376.995 474.37 376.868 474.59 376.701C474.81 376.531 474.992 376.324 475.136 376.082C475.283 375.839 475.386 375.563 475.442 375.252L477.931 375.264C477.867 375.798 477.706 376.313 477.448 376.809C477.194 377.301 476.851 377.743 476.42 378.133C475.992 378.519 475.48 378.826 474.886 379.053C474.295 379.277 473.626 379.389 472.88 379.389C471.842 379.389 470.914 379.154 470.096 378.684C469.281 378.214 468.637 377.534 468.164 376.644C467.694 375.754 467.459 374.676 467.459 373.411C467.459 372.142 467.698 371.063 468.175 370.173C468.653 369.283 469.3 368.604 470.118 368.139C470.937 367.669 471.857 367.434 472.88 367.434C473.554 367.434 474.179 367.529 474.755 367.718C475.334 367.908 475.848 368.184 476.295 368.548C476.742 368.908 477.105 369.349 477.386 369.872C477.67 370.394 477.851 370.993 477.931 371.667ZM479.519 379.229V367.593H487.36V369.622H481.979V372.394H486.957V374.423H481.979V377.201H487.383V379.229H479.519ZM495.453 370.94C495.407 370.481 495.212 370.125 494.867 369.872C494.523 369.618 494.055 369.491 493.464 369.491C493.062 369.491 492.723 369.548 492.447 369.661C492.17 369.771 491.958 369.925 491.811 370.122C491.667 370.319 491.595 370.542 491.595 370.792C491.587 371 491.631 371.182 491.725 371.337C491.824 371.493 491.958 371.627 492.129 371.741C492.299 371.851 492.496 371.947 492.72 372.031C492.943 372.11 493.182 372.178 493.436 372.235L494.481 372.485C494.989 372.599 495.454 372.75 495.879 372.94C496.303 373.129 496.67 373.362 496.981 373.639C497.292 373.915 497.532 374.241 497.703 374.616C497.877 374.991 497.966 375.421 497.97 375.906C497.966 376.618 497.784 377.235 497.424 377.758C497.068 378.277 496.553 378.68 495.879 378.968C495.208 379.252 494.4 379.394 493.453 379.394C492.513 379.394 491.695 379.25 490.998 378.962C490.305 378.675 489.763 378.248 489.373 377.684C488.987 377.116 488.784 376.413 488.765 375.576H491.146C491.172 375.966 491.284 376.292 491.481 376.553C491.682 376.811 491.949 377.006 492.282 377.139C492.619 377.267 493 377.332 493.424 377.332C493.841 377.332 494.203 377.271 494.509 377.15C494.82 377.029 495.061 376.86 495.231 376.644C495.401 376.428 495.487 376.18 495.487 375.9C495.487 375.639 495.409 375.419 495.254 375.241C495.102 375.063 494.879 374.911 494.583 374.786C494.292 374.661 493.934 374.548 493.509 374.445L492.242 374.127C491.261 373.889 490.487 373.515 489.918 373.008C489.35 372.5 489.068 371.817 489.072 370.957C489.068 370.252 489.256 369.637 489.634 369.11C490.017 368.584 490.542 368.173 491.208 367.877C491.875 367.582 492.632 367.434 493.481 367.434C494.345 367.434 495.098 367.582 495.742 367.877C496.39 368.173 496.894 368.584 497.254 369.11C497.614 369.637 497.799 370.247 497.811 370.94H495.453ZM505.761 370.94C505.715 370.481 505.52 370.125 505.176 369.872C504.831 369.618 504.363 369.491 503.772 369.491C503.371 369.491 503.032 369.548 502.755 369.661C502.479 369.771 502.267 369.925 502.119 370.122C501.975 370.319 501.903 370.542 501.903 370.792C501.895 371 501.939 371.182 502.034 371.337C502.132 371.493 502.267 371.627 502.437 371.741C502.608 371.851 502.804 371.947 503.028 372.031C503.251 372.11 503.49 372.178 503.744 372.235L504.789 372.485C505.297 372.599 505.763 372.75 506.187 372.94C506.611 373.129 506.979 373.362 507.289 373.639C507.6 373.915 507.84 374.241 508.011 374.616C508.185 374.991 508.274 375.421 508.278 375.906C508.274 376.618 508.092 377.235 507.733 377.758C507.376 378.277 506.861 378.68 506.187 378.968C505.517 379.252 504.708 379.394 503.761 379.394C502.822 379.394 502.003 379.25 501.306 378.962C500.613 378.675 500.072 378.248 499.681 377.684C499.295 377.116 499.092 376.413 499.073 375.576H501.454C501.481 375.966 501.592 376.292 501.789 376.553C501.99 376.811 502.257 377.006 502.59 377.139C502.928 377.267 503.308 377.332 503.733 377.332C504.149 377.332 504.511 377.271 504.818 377.15C505.128 377.029 505.369 376.86 505.539 376.644C505.71 376.428 505.795 376.18 505.795 375.9C505.795 375.639 505.717 375.419 505.562 375.241C505.411 375.063 505.187 374.911 504.892 374.786C504.6 374.661 504.242 374.548 503.818 374.445L502.551 374.127C501.57 373.889 500.795 373.515 500.227 373.008C499.659 372.5 499.376 371.817 499.38 370.957C499.376 370.252 499.564 369.637 499.943 369.11C500.325 368.584 500.85 368.173 501.517 367.877C502.183 367.582 502.941 367.434 503.789 367.434C504.653 367.434 505.407 367.582 506.051 367.877C506.698 368.173 507.202 368.584 507.562 369.11C507.922 369.637 508.108 370.247 508.119 370.94H505.761ZM447.99 395.354C447.91 395.078 447.798 394.834 447.654 394.622C447.51 394.406 447.334 394.224 447.126 394.076C446.921 393.925 446.687 393.809 446.421 393.729C446.16 393.65 445.87 393.61 445.552 393.61C444.957 393.61 444.435 393.758 443.984 394.053C443.537 394.349 443.189 394.779 442.939 395.343C442.689 395.904 442.564 396.589 442.564 397.4C442.564 398.211 442.687 398.9 442.933 399.468C443.179 400.036 443.528 400.47 443.978 400.769C444.429 401.065 444.961 401.212 445.575 401.212C446.132 401.212 446.607 401.114 447.001 400.917C447.399 400.716 447.702 400.434 447.91 400.07C448.122 399.707 448.228 399.277 448.228 398.781L448.728 398.854H445.728V397.002H450.598V398.468C450.598 399.491 450.382 400.37 449.95 401.104C449.518 401.836 448.923 402.4 448.166 402.798C447.408 403.192 446.541 403.389 445.564 403.389C444.473 403.389 443.514 403.148 442.689 402.667C441.863 402.182 441.219 401.495 440.757 400.604C440.298 399.711 440.069 398.65 440.069 397.423C440.069 396.479 440.206 395.639 440.478 394.9C440.755 394.158 441.141 393.529 441.637 393.014C442.134 392.498 442.711 392.106 443.37 391.837C444.029 391.569 444.743 391.434 445.512 391.434C446.171 391.434 446.785 391.531 447.353 391.724C447.921 391.913 448.425 392.182 448.865 392.531C449.308 392.879 449.67 393.294 449.95 393.775C450.23 394.252 450.41 394.779 450.49 395.354H447.99ZM452.27 403.229V391.593H456.861C457.739 391.593 458.489 391.75 459.111 392.065C459.736 392.375 460.211 392.817 460.537 393.389C460.866 393.957 461.031 394.625 461.031 395.394C461.031 396.167 460.864 396.832 460.531 397.389C460.198 397.942 459.715 398.366 459.082 398.661C458.453 398.957 457.692 399.104 456.798 399.104H453.724V397.127H456.4C456.87 397.127 457.26 397.063 457.571 396.934C457.881 396.805 458.112 396.612 458.264 396.354C458.419 396.097 458.497 395.777 458.497 395.394C458.497 395.008 458.419 394.682 458.264 394.417C458.112 394.152 457.879 393.951 457.565 393.815C457.254 393.675 456.862 393.604 456.389 393.604H454.73V403.229H452.27ZM458.554 397.934L461.446 403.229H458.73L455.9 397.934H458.554ZM464.599 403.229H461.963L465.98 391.593H469.15L473.162 403.229H470.525L467.611 394.252H467.52L464.599 403.229ZM464.435 398.656H470.662V400.576H464.435V398.656ZM484.119 391.593V403.229H481.994L476.932 395.906H476.847V403.229H474.386V391.593H476.545L481.568 398.911H481.67V391.593H484.119ZM485.533 393.622V391.593H495.09V393.622H491.527V403.229H489.095V393.622H485.533ZM496.487 403.229V391.593H504.328V393.622H498.948V396.394H503.925V398.423H498.948V401.201H504.351V403.229H496.487ZM510.233 403.229H506.108V391.593H510.267C511.438 391.593 512.445 391.826 513.29 392.292C514.135 392.754 514.785 393.419 515.239 394.286C515.697 395.154 515.927 396.192 515.927 397.4C515.927 398.612 515.697 399.654 515.239 400.525C514.785 401.396 514.131 402.065 513.279 402.531C512.43 402.997 511.415 403.229 510.233 403.229ZM508.569 401.122H510.131C510.858 401.122 511.47 400.993 511.966 400.735C512.466 400.474 512.841 400.07 513.091 399.525C513.345 398.976 513.472 398.267 513.472 397.4C513.472 396.54 513.345 395.837 513.091 395.292C512.841 394.747 512.468 394.345 511.972 394.087C511.476 393.83 510.864 393.701 510.137 393.701H508.569V401.122Z" fill="white"/>
<path d="M342 383.729C341.172 383.729 340.5 384.401 340.5 385.229C340.5 386.058 341.172 386.729 342 386.729V383.729ZM355 391.89C355 392.718 356.015 393.304 356.732 392.89L368.268 386.229C368.985 385.815 368.985 384.644 368.268 384.229L356.732 377.569C356.015 377.155 355 377.741 355 378.569V391.89ZM342 386.729H356.5V383.729H342V386.729Z" fill="#F9F9F9"/>
<rect x="618" y="345.229" width="208" height="80" rx="6" fill="#2475FF"/>
<path d="M705.722 392.229H702.426L707.447 377.684H711.411L716.425 392.229H713.129L709.486 381.008H709.372L705.722 392.229ZM705.516 386.512H713.3V388.913H705.516V386.512ZM717.795 392.229V377.684H723.534C724.637 377.684 725.577 377.895 726.354 378.316C727.13 378.733 727.722 379.313 728.129 380.056C728.541 380.795 728.747 381.647 728.747 382.613C728.747 383.579 728.539 384.431 728.122 385.17C727.705 385.908 727.102 386.484 726.311 386.896C725.525 387.308 724.573 387.514 723.456 387.514H719.798V385.049H722.959C723.551 385.049 724.038 384.947 724.422 384.744C724.81 384.535 725.099 384.249 725.288 383.884C725.482 383.515 725.58 383.091 725.58 382.613C725.58 382.13 725.482 381.709 725.288 381.349C725.099 380.984 724.81 380.703 724.422 380.504C724.034 380.3 723.541 380.198 722.945 380.198H720.871V392.229H717.795ZM730.365 392.229V377.684H736.103C737.207 377.684 738.146 377.895 738.923 378.316C739.699 378.733 740.291 379.313 740.698 380.056C741.11 380.795 741.316 381.647 741.316 382.613C741.316 383.579 741.108 384.431 740.691 385.17C740.275 385.908 739.671 386.484 738.88 386.896C738.094 387.308 737.143 387.514 736.025 387.514H732.368V385.049H735.528C736.12 385.049 736.608 384.947 736.991 384.744C737.379 384.535 737.668 384.249 737.858 383.884C738.052 383.515 738.149 383.091 738.149 382.613C738.149 382.13 738.052 381.709 737.858 381.349C737.668 380.984 737.379 380.703 736.991 380.504C736.603 380.3 736.11 380.198 735.514 380.198H733.44V392.229H730.365Z" fill="white"/>
<path d="M586 383.729C585.172 383.729 584.5 384.401 584.5 385.229C584.5 386.058 585.172 386.729 586 386.729V383.729ZM599 391.89C599 392.718 600.015 393.304 600.732 392.89L612.268 386.229C612.985 385.815 612.985 384.644 612.268 384.229L600.732 377.569C600.015 377.155 599 377.741 599 378.569V391.89ZM586 386.729H600.5V383.729H586V386.729Z" fill="#F9F9F9"/>
<rect x="862" y="344.995" width="288" height="80.4695" rx="2.41408" fill="white"/>
<path d="M890.917 391.995V377.449H893.992V383.863H894.184L899.418 377.449H903.104L897.706 383.962L903.168 391.995H899.489L895.505 386.015L893.992 387.861V391.995H890.917ZM903.633 377.449H907.078L910.395 383.713H910.537L913.854 377.449H917.298L911.993 386.853V391.995H908.939V386.853L903.633 377.449ZM930.713 382.542H927.602C927.545 382.139 927.429 381.782 927.254 381.469C927.079 381.152 926.854 380.882 926.579 380.659C926.305 380.437 925.987 380.266 925.628 380.148C925.273 380.03 924.887 379.97 924.47 379.97C923.717 379.97 923.061 380.158 922.503 380.532C921.944 380.901 921.511 381.441 921.203 382.151C920.895 382.856 920.741 383.713 920.741 384.722C920.741 385.759 920.895 386.63 921.203 387.336C921.515 388.041 921.951 388.574 922.51 388.934C923.068 389.293 923.715 389.473 924.449 389.473C924.861 389.473 925.242 389.419 925.592 389.31C925.947 389.201 926.262 389.042 926.537 388.834C926.811 388.621 927.039 388.363 927.219 388.06C927.403 387.757 927.531 387.411 927.602 387.023L930.713 387.037C930.632 387.705 930.431 388.349 930.109 388.969C929.792 389.585 929.363 390.136 928.824 390.624C928.289 391.107 927.649 391.49 926.906 391.774C926.167 392.054 925.332 392.193 924.399 392.193C923.102 392.193 921.942 391.9 920.919 391.313C919.901 390.726 919.096 389.876 918.504 388.763C917.917 387.65 917.623 386.303 917.623 384.722C917.623 383.136 917.922 381.786 918.518 380.674C919.115 379.561 919.924 378.713 920.947 378.131C921.97 377.544 923.121 377.25 924.399 377.25C925.242 377.25 926.023 377.369 926.743 377.605C927.467 377.842 928.109 378.188 928.667 378.642C929.226 379.092 929.681 379.644 930.031 380.297C930.386 380.951 930.613 381.699 930.713 382.542ZM938.977 376.767L934.289 394.182H931.682L936.37 376.767H938.977ZM940.271 391.995V377.449H943.346V383.863H943.538L948.772 377.449H952.459L947.061 383.962L952.522 391.995H948.844L944.859 386.015L943.346 387.861V391.995H940.271ZM952.988 377.449H956.432L959.749 383.713H959.891L963.208 377.449H966.653L961.347 386.853V391.995H958.293V386.853L952.988 377.449ZM968.112 391.995V377.449H973.936C975.006 377.449 975.899 377.608 976.614 377.925C977.329 378.242 977.866 378.683 978.226 379.246C978.586 379.805 978.766 380.449 978.766 381.178C978.766 381.746 978.652 382.246 978.425 382.676C978.198 383.103 977.885 383.453 977.487 383.728C977.094 383.997 976.645 384.189 976.138 384.303V384.445C976.692 384.469 977.21 384.625 977.693 384.914C978.181 385.202 978.576 385.607 978.879 386.128C979.182 386.644 979.334 387.26 979.334 387.975C979.334 388.747 979.142 389.435 978.759 390.042C978.38 390.643 977.819 391.119 977.075 391.469C976.332 391.819 975.416 391.995 974.327 391.995H968.112ZM971.188 389.48H973.695C974.552 389.48 975.177 389.317 975.57 388.99C975.963 388.659 976.159 388.219 976.159 387.669C976.159 387.267 976.062 386.912 975.868 386.604C975.674 386.296 975.397 386.055 975.037 385.88C974.682 385.704 974.258 385.617 973.766 385.617H971.188V389.48ZM971.188 383.536H973.467C973.889 383.536 974.263 383.462 974.59 383.316C974.921 383.164 975.181 382.951 975.371 382.676C975.565 382.402 975.662 382.073 975.662 381.689C975.662 381.164 975.475 380.74 975.101 380.418C974.732 380.096 974.206 379.935 973.524 379.935H971.188V383.536ZM988.152 377.449L991.667 388.5H991.802L995.325 377.449H998.734L993.72 391.995H989.757L984.736 377.449H988.152ZM1000.26 391.995V377.449H1010.07V379.985H1003.34V383.451H1009.56V385.986H1003.34V389.459H1010.09V391.995H1000.26ZM1012.29 391.995V377.449H1018.03C1019.13 377.449 1020.07 377.646 1020.84 378.039C1021.62 378.427 1022.22 378.979 1022.62 379.693C1023.04 380.404 1023.24 381.239 1023.24 382.201C1023.24 383.167 1023.03 383.997 1022.62 384.693C1022.2 385.385 1021.6 385.915 1020.81 386.284C1020.02 386.654 1019.07 386.838 1017.95 386.838H1014.11V384.367H1017.45C1018.04 384.367 1018.53 384.286 1018.92 384.125C1019.31 383.964 1019.59 383.723 1019.78 383.401C1019.98 383.079 1020.08 382.679 1020.08 382.201C1020.08 381.718 1019.98 381.31 1019.78 380.979C1019.59 380.648 1019.3 380.397 1018.91 380.226C1018.52 380.051 1018.03 379.963 1017.44 379.963H1015.37V391.995H1012.29ZM1020.15 385.375L1023.76 391.995H1020.37L1016.83 385.375H1020.15ZM1028.27 377.449V391.995H1025.2V377.449H1028.27ZM1030.58 391.995V377.449H1040.21V379.985H1033.66V383.451H1039.57V385.986H1033.66V391.995H1030.58ZM1045.14 377.449V391.995H1042.06V377.449H1045.14ZM1060.28 382.542H1057.17C1057.11 382.139 1057 381.782 1056.82 381.469C1056.65 381.152 1056.42 380.882 1056.15 380.659C1055.87 380.437 1055.55 380.266 1055.19 380.148C1054.84 380.03 1054.45 379.97 1054.04 379.97C1053.28 379.97 1052.63 380.158 1052.07 380.532C1051.51 380.901 1051.08 381.441 1050.77 382.151C1050.46 382.856 1050.31 383.713 1050.31 384.722C1050.31 385.759 1050.46 386.63 1050.77 387.336C1051.08 388.041 1051.52 388.574 1052.08 388.934C1052.64 389.293 1053.28 389.473 1054.02 389.473C1054.43 389.473 1054.81 389.419 1055.16 389.31C1055.51 389.201 1055.83 389.042 1056.1 388.834C1056.38 388.621 1056.61 388.363 1056.79 388.06C1056.97 387.757 1057.1 387.411 1057.17 387.023L1060.28 387.037C1060.2 387.705 1060 388.349 1059.68 388.969C1059.36 389.585 1058.93 390.136 1058.39 390.624C1057.86 391.107 1057.22 391.49 1056.47 391.774C1055.73 392.054 1054.9 392.193 1053.97 392.193C1052.67 392.193 1051.51 391.9 1050.49 391.313C1049.47 390.726 1048.66 389.876 1048.07 388.763C1047.48 387.65 1047.19 386.303 1047.19 384.722C1047.19 383.136 1047.49 381.786 1048.09 380.674C1048.68 379.561 1049.49 378.713 1050.51 378.131C1051.54 377.544 1052.69 377.25 1053.97 377.25C1054.81 377.25 1055.59 377.369 1056.31 377.605C1057.03 377.842 1057.68 378.188 1058.23 378.642C1058.79 379.092 1059.25 379.644 1059.6 380.297C1059.95 380.951 1060.18 381.699 1060.28 382.542ZM1064.5 391.995H1061.2L1066.22 377.449H1070.19L1075.2 391.995H1071.91L1068.26 380.773H1068.15L1064.5 391.995ZM1064.29 386.277H1072.08V388.678H1064.29V386.277ZM1074.4 379.985V377.449H1086.35V379.985H1081.89V391.995H1078.85V379.985H1074.4ZM1091.17 377.449V391.995H1088.09V377.449H1091.17ZM1106.85 384.722C1106.85 386.308 1106.55 387.658 1105.94 388.77C1105.35 389.883 1104.53 390.733 1103.5 391.32C1102.47 391.902 1101.32 392.193 1100.04 392.193C1098.74 392.193 1097.58 391.9 1096.56 391.313C1095.53 390.726 1094.72 389.876 1094.12 388.763C1093.52 387.65 1093.22 386.303 1093.22 384.722C1093.22 383.136 1093.52 381.786 1094.12 380.674C1094.72 379.561 1095.53 378.713 1096.56 378.131C1097.58 377.544 1098.74 377.25 1100.04 377.25C1101.32 377.25 1102.47 377.544 1103.5 378.131C1104.53 378.713 1105.35 379.561 1105.94 380.674C1106.55 381.786 1106.85 383.136 1106.85 384.722ZM1103.73 384.722C1103.73 383.694 1103.57 382.828 1103.27 382.122C1102.96 381.417 1102.54 380.882 1101.98 380.517C1101.43 380.153 1100.78 379.97 1100.04 379.97C1099.29 379.97 1098.64 380.153 1098.09 380.517C1097.54 380.882 1097.1 381.417 1096.8 382.122C1096.49 382.828 1096.34 383.694 1096.34 384.722C1096.34 385.749 1096.49 386.616 1096.8 387.321C1097.1 388.027 1097.54 388.562 1098.09 388.926C1098.64 389.291 1099.29 389.473 1100.04 389.473C1100.78 389.473 1101.43 389.291 1101.98 388.926C1102.54 388.562 1102.96 388.027 1103.27 387.321C1103.57 386.616 1103.73 385.749 1103.73 384.722ZM1121.07 377.449V391.995H1118.41L1112.09 382.84H1111.98V391.995H1108.9V377.449H1111.6L1117.88 386.597H1118.01V377.449H1121.07Z" fill="black" fill-opacity="0.8"/>
<path d="M830 383.729C829.172 383.729 828.5 384.401 828.5 385.229C828.5 386.058 829.172 386.729 830 386.729V383.729ZM843 391.89C843 392.718 844.015 393.304 844.732 392.89L856.268 386.229C856.985 385.815 856.985 384.644 856.268 384.229L844.732 377.569C844.015 377.155 843 377.741 843 378.569V391.89ZM830 386.729H844.5V383.729H830V386.729Z" fill="#F9F9F9"/>
</svg>
