<svg width="271" height="30" viewBox="0 0 271 30" fill="none" xmlns="http://www.w3.org/2000/svg">
<g clip-path="url(#clip0_234_452)">
<path d="M16.1334 29.0506H27.6878V0.504395H20.2114V10.3596H18.3423V6.79135C18.1724 2.03365 16.6432 0.504395 11.8855 0.504395H0.500977V29.0506H7.97736V19.1954H9.84645V22.7636C9.84645 27.5213 11.3757 29.0506 16.1334 29.0506Z" fill="#2475FF"/>
<path d="M54.1952 29.0507V13.2483C54.1952 5.60201 51.8164 3.73291 42.1311 3.73291C32.4457 3.73291 30.0669 5.60201 30.0669 13.2483V29.0507H41.2815V24.9726H43.1506V29.0507H54.1952ZM41.2815 19.0255V11.0394H43.1506V19.0255H41.2815Z" fill="#2475FF"/>
<path d="M80.872 10.3597C80.872 5.26217 77.8135 3.56299 68.8078 3.56299C59.1225 3.56299 56.7437 5.602 56.7437 14.2678V18.1759C56.7437 26.6718 59.2924 28.7108 68.8078 28.7108C75.2647 28.7108 79.6826 27.5214 80.872 27.1816V19.3653C79.8525 20.2149 77.9834 20.8946 75.2647 20.8946C69.6574 20.8946 67.9582 19.0255 67.9582 12.9085V11.0394H69.8273V12.9085C69.8273 17.6662 71.0167 19.0255 75.2647 19.0255C79.6826 19.0255 80.872 17.6662 80.872 13.0784V10.3597Z" fill="#2475FF"/>
<path d="M107.549 29.0507V3.73291H96.3347V11.2093H94.4656V3.73291H83.4209V29.0507H94.4656V21.4044H96.3347V29.0507H107.549Z" fill="#2475FF"/>
<path d="M121.992 3.73291C112.307 3.73291 109.928 5.77192 109.928 14.4377V18.3458C109.928 27.0116 112.137 29.0507 121.992 29.0507C131.848 29.0507 134.057 27.0116 134.057 18.3458V14.4377C134.057 5.77192 131.678 3.73291 121.992 3.73291ZM123.012 21.7442H121.143V11.0394H123.012V21.7442Z" fill="#2475FF"/>
<path d="M152.748 29.0506H164.132V0.504395H156.656V10.3596H154.787V6.79135C154.787 2.03365 153.257 0.504395 148.5 0.504395H137.115V29.0506H144.592V19.1954H146.461V22.7636C146.461 27.5213 147.99 29.0506 152.748 29.0506Z" fill="#2475FF"/>
<path d="M190.809 29.0507V13.2483C190.809 5.60201 188.43 3.73291 178.745 3.73291C169.06 3.73291 166.681 5.60201 166.681 13.2483V29.0507H177.895V24.9726H179.764V29.0507H190.809ZM177.725 19.0255V11.0394H179.594V19.0255H177.725Z" fill="#2475FF"/>
<path d="M217.316 10.3597C217.316 5.26217 214.258 3.56299 205.252 3.56299C195.567 3.56299 193.188 5.602 193.188 14.2678V18.1759C193.188 26.6718 195.737 28.7108 205.252 28.7108C211.709 28.7108 216.127 27.5214 217.316 27.1816V19.3653C216.297 19.8751 214.428 20.5548 211.709 20.5548C206.102 20.5548 204.403 18.6857 204.403 12.5686V11.0394H206.272V12.9085C206.272 17.6662 207.461 19.0255 211.709 19.0255C216.127 19.0255 217.316 17.6662 217.316 13.0784V10.3597Z" fill="#2475FF"/>
<path d="M243.993 29.0507V3.73291H232.778V11.2093H231.079V3.73291H219.865V29.0507H231.079V21.4044H232.778V29.0507H243.993Z" fill="#2475FF"/>
<path d="M258.606 3.73291C248.921 3.73291 246.542 5.77192 246.542 14.4377V18.3458C246.542 27.0116 248.751 29.0507 258.606 29.0507C268.461 29.0507 270.67 27.0116 270.67 18.3458V14.4377C270.5 5.77192 268.122 3.73291 258.606 3.73291ZM259.456 21.7442H257.587V11.0394H259.456V21.7442Z" fill="#2475FF"/>
</g>
<defs>
<clipPath id="clip0_234_452">
<rect width="269.999" height="28.5462" fill="white" transform="translate(0.500977 0.504395)"/>
</clipPath>
</defs>
</svg>
