<svg width="49" height="49" viewBox="0 0 49 49" fill="none" xmlns="http://www.w3.org/2000/svg">
<path d="M43.835 37.6925C43.835 38.0904 43.6769 38.4719 43.3956 38.7532C43.1143 39.0345 42.7328 39.1925 42.335 39.1925H6.33497C5.93715 39.1925 5.55562 39.0345 5.27431 38.7532C4.99301 38.4719 4.83497 38.0904 4.83497 37.6925C4.83497 37.2947 4.99301 36.9132 5.27431 36.6319C5.55562 36.3506 5.93715 36.1925 6.33497 36.1925H42.335C42.7328 36.1925 43.1143 36.3506 43.3956 36.6319C43.6769 36.9132 43.835 37.2947 43.835 37.6925ZM5.1331 28.475C4.88464 27.9611 4.78794 27.387 4.85437 26.8201C4.92079 26.2532 5.14758 25.717 5.5081 25.2744L20.8212 6.36878C21.245 5.84523 21.7805 5.423 22.3884 5.13295C22.9963 4.84291 23.6614 4.69238 24.335 4.69238C25.0086 4.69238 25.6736 4.84291 26.2816 5.13295C26.8895 5.423 27.4249 5.84523 27.8487 6.36878L43.1581 25.2744C43.5165 25.7171 43.7423 26.2522 43.8095 26.8178C43.8766 27.3834 43.7824 27.9564 43.5377 28.4708C43.293 28.9851 42.9078 29.4197 42.4265 29.7244C41.9453 30.029 41.3877 30.1913 40.8181 30.1925H7.85185C7.28239 30.1938 6.72434 30.033 6.2429 29.7288C5.76147 29.4247 5.37654 28.9898 5.1331 28.475ZM7.83497 27.1757C7.83497 27.1757 7.83497 27.1925 7.84997 27.1963H40.8181C40.8181 27.1963 40.8331 27.1794 40.8331 27.1719L25.5162 8.25503C25.3739 8.07886 25.1939 7.93677 24.9895 7.83916C24.7851 7.74154 24.5615 7.69088 24.335 7.69088C24.1085 7.69088 23.8848 7.74154 23.6804 7.83916C23.4761 7.93677 23.2961 8.07886 23.1537 8.25503L7.83497 27.1625C7.83446 27.1669 7.83446 27.1713 7.83497 27.1757Z" fill="#F7F7F7"/>
</svg>
