<svg width="177" height="79" viewBox="0 0 177 79" fill="none" xmlns="http://www.w3.org/2000/svg">
<rect width="171.544" height="43.907" transform="translate(0.0585938 35.832) rotate(-11.8278)" fill="#18FF04"/>
<path d="M26.1967 43.9455L30.1064 43.1267L33.7983 60.7563L20.0343 52.8975L22.0133 62.348L18.1276 63.1617L14.4357 45.5321L28.1758 53.3959L26.1967 43.9455ZM39.8575 58.6111L39.1593 55.2771L47.6264 53.5039L48.3246 56.838L39.8575 58.6111ZM37.0396 45.155L36.3414 41.821L44.8084 40.0478L45.5066 43.3819L37.0396 45.155ZM38.3506 51.4153L37.6675 48.1533L45.6548 46.4806L46.3379 49.7427L38.3506 51.4153ZM33.655 42.3836L37.5407 41.5698L41.0568 58.36L37.1711 59.1737L33.655 42.3836ZM54.2288 47.6645L58.4263 46.7855L65.2715 53.289L60.5223 54.2836L54.2288 47.6645ZM48.1074 39.357L52.161 38.5081L55.6772 55.2982L51.6236 56.1471L48.1074 39.357ZM51.3682 42.2545L50.6499 38.8245L54.2238 38.0761C55.663 37.7747 56.9108 37.7554 57.9674 38.0182C59.0239 38.281 59.8871 38.7763 60.557 39.504C61.2235 40.2157 61.6706 41.1152 61.8983 42.2026C62.1226 43.274 62.074 44.2773 61.7525 45.2126C61.4275 46.132 60.8339 46.924 59.9716 47.5886C59.1093 48.2533 57.9585 48.7363 56.5194 49.0377L52.9455 49.7861L52.2874 46.6439L55.5735 45.9558C56.1172 45.8419 56.5642 45.6649 56.9145 45.4246C57.2774 45.165 57.5293 44.8535 57.6702 44.4902C57.8078 44.1108 57.828 43.6893 57.7309 43.2256C57.6338 42.7618 57.4478 42.3918 57.1729 42.1155C56.8947 41.8233 56.5373 41.6311 56.1007 41.5389C55.6801 41.4433 55.198 41.4525 54.6543 41.5664L51.3682 42.2545ZM63.6374 36.1048L67.8109 35.2307L71.327 52.0209L67.1535 52.8949L63.6374 36.1048ZM73.15 51.6391L69.8399 52.3323L69.0865 48.7344L72.2526 48.0714C72.8922 47.9374 73.4911 47.7286 74.0493 47.4447C74.6234 47.1576 75.0959 46.7832 75.4666 46.3217C75.8533 45.8568 76.119 45.2921 76.2635 44.6275C76.4048 43.9469 76.38 43.1509 76.1891 42.2395C75.9982 41.328 75.7032 40.5969 75.3041 40.0462C74.9017 39.4795 74.4301 39.0608 73.8894 38.7901C73.3646 38.5161 72.7817 38.3628 72.1405 38.3301C71.5154 38.2941 70.883 38.3431 70.2434 38.477L67.0772 39.1401L66.3238 35.5422L69.6338 34.849C71.4728 34.4639 73.1358 34.4745 74.623 34.8808C76.1102 35.2871 77.3522 36.0369 78.349 37.1301C79.3458 38.2233 80.025 39.6334 80.3866 41.3604C80.7449 43.0714 80.6886 44.6356 80.2176 46.0529C79.7432 47.4542 78.9064 48.6393 77.7072 49.6081C76.508 50.577 74.9889 51.254 73.15 51.6391ZM93.8962 43.9144L93.536 40.76L101.859 39.017L102.771 42.0559L93.8962 43.9144ZM96.7385 35.6076L95.5231 41.5206L95.9008 42.3679L94.7182 47.1224L90.1369 48.0818L95.2265 28.3878L107.814 44.3798L103.209 45.3442L100.325 41.6166L100.253 40.5551L96.7385 35.6076ZM106.058 27.2212L110.111 26.3723L112.899 39.6845L119.639 38.273L120.368 41.751L109.574 44.0114L106.058 27.2212ZM124.933 40.795L124.234 37.461L132.701 35.6878L133.4 39.0219L124.933 40.795ZM122.115 27.3389L121.416 24.0049L129.883 22.2317L130.582 25.5658L122.115 27.3389ZM123.426 33.5992L122.743 30.3371L130.73 28.6645L131.413 31.9266L123.426 33.5992ZM118.73 24.5674L122.616 23.7537L126.132 40.5438L122.246 41.3576L118.73 24.5674ZM139.304 29.8484L143.501 28.9694L150.347 35.4729L145.597 36.4674L139.304 29.8484ZM133.182 21.5409L137.236 20.692L140.752 37.4821L136.699 38.331L133.182 21.5409ZM136.443 24.4384L135.725 21.0084L139.299 20.26C140.738 19.9586 141.986 19.9393 143.042 20.2021C144.099 20.4649 144.962 20.9602 145.632 21.6879C146.298 22.3996 146.746 23.2991 146.973 24.3865C147.198 25.4579 147.149 26.4612 146.827 27.3965C146.503 28.3159 145.909 29.1078 145.047 29.7725C144.184 30.4371 143.034 30.9202 141.594 31.2215L138.02 31.97L137.362 28.8278L140.649 28.1397C141.192 28.0258 141.639 27.8487 141.989 27.6085C142.352 27.3489 142.604 27.0374 142.745 26.674C142.883 26.2947 142.903 25.8732 142.806 25.4094C142.709 24.9457 142.523 24.5757 142.248 24.2994C141.97 24.0072 141.612 23.8149 141.176 23.7228C140.755 23.6272 140.273 23.6364 139.729 23.7502L136.443 24.4384ZM147.792 22.2621L147.033 18.6403L160.322 15.8575L161.08 19.4794L156.451 20.4488L159.208 33.6171L155.155 34.466L152.397 21.2977L147.792 22.2621Z" fill="#121212"/>
</svg>
