<svg width="251" height="179" viewBox="0 0 251 179" fill="none" xmlns="http://www.w3.org/2000/svg">
<path d="M113.153 30.2295L131.756 67.863L144.981 42.7716L145.868 66.3108L166.423 47.169L158.593 67.465L216.375 28.6984L168.684 71.2126L216.564 45.7477L175.154 77.1868L235.619 63.7298L177.369 84.8029L241.79 86.0281L175.113 93.3152L245.29 101.891L168.606 101.891L216.564 115.949L158.486 109.69L178.596 136.236L145.742 115.949L148.953 140.513L131.623 120.056L115.6 146.493L117.511 121.608L82.7541 156.046L104.786 120.454L52.0839 151.143L94.6952 116.706L37.6701 139.976L88.2253 110.732L19.3269 126.642L86.0101 103.116L15.3756 101.714L88.2662 94.6035L33.1192 85.9426L94.773 86.0281L52.8627 64.2487L104.893 78.229L80.184 53.0201L117.637 71.9698L113.153 30.2295Z" fill="#18FF04"/>
<rect width="171.544" height="43.907" transform="translate(37.6897 94.7163) rotate(-16.218)" fill="#18FF04"/>
<path d="M64.3739 100.805L68.2095 99.6892L73.2401 116.985L58.9149 110.202L61.6116 119.474L57.7995 120.582L52.7689 103.287L67.0706 110.076L64.3739 100.805ZM79.1173 114.382L78.166 111.111L86.4724 108.695L87.4238 111.966L79.1173 114.382ZM75.2776 101.181L74.3263 97.91L82.6327 95.494L83.5841 98.7648L75.2776 101.181ZM77.064 107.322L76.1332 104.122L83.969 101.843L84.8999 105.043L77.064 107.322ZM71.6908 98.6766L75.5028 97.5678L80.2939 114.04L76.4819 115.148L71.6908 98.6766ZM92.6085 102.367L96.7264 101.169L104.049 107.13L99.3902 108.485L92.6085 102.367ZM85.8691 94.5526L89.8459 93.3959L94.637 109.868L90.6602 111.024L85.8691 94.5526ZM89.3422 97.192L88.3634 93.8271L91.8696 92.8073C93.2814 92.3966 94.5241 92.2819 95.5977 92.463C96.6713 92.6442 97.5698 93.0719 98.2934 93.7462C99.0124 94.4048 99.5271 95.2675 99.8374 96.3342C100.143 97.3853 100.171 98.3894 99.9224 99.3466C99.6688 100.288 99.1375 101.123 98.3286 101.852C97.5197 102.581 96.4093 103.15 94.9974 103.561L91.4913 104.581L90.5947 101.498L93.8185 100.561C94.3518 100.405 94.7839 100.195 95.1148 99.9282C95.4568 99.6416 95.6841 99.3118 95.7968 98.9387C95.9049 98.5499 95.8928 98.1281 95.7605 97.6732C95.6282 97.2182 95.4144 96.8635 95.1192 96.6091C94.8195 96.339 94.4484 96.1747 94.006 96.1162C93.5793 96.0532 93.0993 96.0992 92.5659 96.2543L89.3422 97.192ZM101.105 90.1211L105.199 88.9302L109.99 105.402L105.896 106.593L101.105 90.1211ZM111.778 104.882L108.531 105.826L107.504 102.297L110.611 101.393C111.238 101.211 111.819 100.957 112.354 100.631C112.904 100.301 113.347 99.8911 113.681 99.4026C114.031 98.9094 114.253 98.326 114.346 97.6523C114.435 96.963 114.349 96.1712 114.089 95.277C113.829 94.3828 113.479 93.6765 113.039 93.1579C112.594 92.6237 112.092 92.2423 111.532 92.0138C110.988 91.7808 110.395 91.6725 109.753 91.689C109.127 91.701 108.5 91.7982 107.873 91.9807L104.767 92.8842L103.74 89.3545L106.987 88.41C108.791 87.8853 110.45 87.7686 111.964 88.0598C113.478 88.3511 114.774 89.0036 115.852 90.0173C116.929 91.031 117.714 92.385 118.207 94.0792C118.695 95.7578 118.759 97.3216 118.398 98.7708C118.032 100.204 117.288 101.45 116.167 102.508C115.045 103.566 113.582 104.357 111.778 104.882ZM131.872 95.5916L131.272 92.474L139.437 90.099L140.579 93.0592L131.872 95.5916ZM134.07 87.0915L133.311 93.0803L133.753 93.8962L132.938 98.7272L128.443 100.035L132.01 80.0087L145.786 94.9902L141.268 96.3043L138.107 92.8084L137.954 91.7555L134.07 87.0915ZM142.72 78.0164L146.697 76.8597L150.496 89.9194L157.108 87.9962L158.1 91.4082L147.512 94.4881L142.72 78.0164ZM162.579 90.1055L161.628 86.8347L169.934 84.4187L170.885 87.6895L162.579 90.1055ZM158.739 76.9046L157.788 73.6338L166.094 71.2177L167.046 74.4886L158.739 76.9046ZM160.526 83.0462L159.595 79.846L167.431 77.5668L168.361 80.767L160.526 83.0462ZM155.152 74.4004L158.964 73.2916L163.755 89.7633L159.943 90.8721L155.152 74.4004ZM176.07 78.091L180.188 76.8932L187.511 82.8536L182.852 84.2088L176.07 78.091ZM169.331 70.2764L173.307 69.1197L178.099 85.5914L174.122 86.7481L169.331 70.2764ZM172.804 72.9158L171.825 69.5509L175.331 68.5311C176.743 68.1204 177.986 68.0056 179.059 68.1868C180.133 68.368 181.031 68.7957 181.755 69.47C182.474 70.1286 182.989 70.9912 183.299 72.058C183.605 73.109 183.633 74.1132 183.384 75.0703C183.13 76.0119 182.599 76.847 181.79 77.5757C180.981 78.3044 179.871 78.8741 178.459 79.2847L174.953 80.3045L174.056 77.222L177.28 76.2843C177.813 76.1292 178.246 75.9184 178.576 75.652C178.918 75.3654 179.146 75.0355 179.258 74.6625C179.367 74.2737 179.354 73.8519 179.222 73.3969C179.09 72.942 178.876 72.5873 178.581 72.3329C178.281 72.0628 177.91 71.8985 177.468 71.84C177.041 71.7769 176.561 71.823 176.028 71.9781L172.804 72.9158ZM183.952 69.8772L182.919 66.324L195.955 62.5322L196.989 66.0854L192.447 67.4064L196.205 80.3249L192.228 81.4816L188.47 68.5631L183.952 69.8772Z" fill="#121212"/>
</svg>
