<svg width="80" height="48" viewBox="0 0 80 48" fill="none" xmlns="http://www.w3.org/2000/svg">
<path fill-rule="evenodd" clip-rule="evenodd" d="M64.3613 0.67384V35.5419H56.0881V2.41725L64.3613 0.67384ZM40.8056 38.8464C43.0903 38.8464 44.9422 40.683 44.9422 42.9485C44.9422 45.214 43.0903 47.0506 40.8056 47.0506C38.5211 47.0506 36.669 45.214 36.669 42.9485C36.669 40.683 38.5211 38.8464 40.8056 38.8464ZM40.8056 10.5759C47.8495 10.5759 53.5718 16.2392 53.5718 23.2356C53.5718 30.232 47.8493 35.8952 40.8056 35.8952C33.7504 35.8952 28.0396 30.232 28.0396 23.2356C28.0396 16.2392 33.7619 10.5759 40.8056 10.5759ZM40.8056 27.3376C43.0922 27.3376 44.9422 25.503 44.9422 23.2356C44.9422 20.968 43.0922 19.1334 40.8056 19.1334C38.519 19.1334 36.669 20.968 36.669 23.2356C36.669 25.503 38.519 27.3376 40.8056 27.3376ZM14.7795 27.3376C16.2044 27.3376 17.3649 26.1868 17.3649 24.7738C17.3649 23.3609 16.2044 22.2099 14.7795 22.2099H8.57461V27.3376H14.7795ZM8.57461 8.87808V14.0058H13.1708C14.5957 14.0058 15.7562 12.8548 15.7562 11.4419C15.7562 10.029 14.5957 8.87808 13.1708 8.87808H8.57461ZM22.3977 17.1051C24.3972 19.065 25.6381 21.777 25.6266 24.7738C25.6266 30.7219 20.7662 35.5419 14.7681 35.5419H0.289917V0.673828H13.1594C19.1575 0.673828 24.0179 5.49383 24.0179 11.4419C24.0179 13.5158 23.4319 15.4643 22.3977 17.1051ZM79.9885 19.2474H75.8635V25.6854C75.8635 27.6339 76.4955 29.0697 78.15 29.0697C79.2187 29.0697 80.0001 28.8303 80.0001 28.8303V34.8697C80.0001 34.8697 78.2878 35.8952 75.9668 35.8952H75.8635C75.7599 35.8952 75.668 35.8838 75.5646 35.8838H75.4841C75.4382 35.8838 75.3807 35.8723 75.3348 35.8723C70.7155 35.633 67.5786 32.7501 67.5786 27.7479V6.51936L75.8519 4.77595V11.0431H79.9885V19.2474Z" fill="#34D186"/>
</svg>
