<svg width="114" height="72" viewBox="0 0 114 72" fill="none" xmlns="http://www.w3.org/2000/svg">
<path d="M49.5 70.2773H48V71.7773H49.5V70.2773ZM49.5 9.27734H51V7.77734H49.5V9.27734ZM0 9.27734L15 17.9376V0.617089L0 9.27734ZM113.5 68.7773C113.405 68.7773 113.311 68.7773 113.217 68.7773C113.123 68.7773 113.028 68.7773 112.934 68.7773C112.84 68.7773 112.746 68.7773 112.653 68.7773C112.559 68.7773 112.465 68.7773 112.372 68.7773C112.278 68.7773 112.185 68.7773 112.092 68.7773C111.998 68.7773 111.905 68.7773 111.812 68.7773C111.719 68.7773 111.627 68.7773 111.534 68.7773C111.441 68.7773 111.349 68.7773 111.256 68.7773C111.164 68.7773 111.071 68.7773 110.979 68.7773C110.887 68.7773 110.795 68.7773 110.703 68.7773C110.611 68.7773 110.519 68.7773 110.427 68.7773C110.336 68.7773 110.244 68.7773 110.153 68.7773C110.061 68.7773 109.97 68.7773 109.879 68.7773C109.787 68.7773 109.696 68.7773 109.605 68.7773C109.515 68.7773 109.424 68.7773 109.333 68.7773C109.242 68.7773 109.152 68.7773 109.061 68.7773C108.971 68.7773 108.881 68.7773 108.79 68.7773C108.7 68.7773 108.61 68.7773 108.52 68.7773C108.43 68.7773 108.341 68.7773 108.251 68.7773C108.161 68.7773 108.072 68.7773 107.982 68.7773C107.893 68.7773 107.804 68.7773 107.715 68.7773C107.625 68.7773 107.536 68.7773 107.447 68.7773C107.359 68.7773 107.27 68.7773 107.181 68.7773C107.092 68.7773 107.004 68.7773 106.916 68.7773C106.827 68.7773 106.739 68.7773 106.651 68.7773C106.563 68.7773 106.475 68.7773 106.387 68.7773C106.299 68.7773 106.211 68.7773 106.123 68.7773C106.036 68.7773 105.948 68.7773 105.861 68.7773C105.773 68.7773 105.686 68.7773 105.599 68.7773C105.512 68.7773 105.425 68.7773 105.338 68.7773C105.251 68.7773 105.164 68.7773 105.078 68.7773C104.991 68.7773 104.904 68.7773 104.818 68.7773C104.732 68.7773 104.645 68.7773 104.559 68.7773C104.473 68.7773 104.387 68.7773 104.301 68.7773C104.215 68.7773 104.129 68.7773 104.044 68.7773C103.958 68.7773 103.873 68.7773 103.787 68.7773C103.702 68.7773 103.617 68.7773 103.531 68.7773C103.446 68.7773 103.361 68.7773 103.276 68.7773C103.191 68.7773 103.107 68.7773 103.022 68.7773C102.937 68.7773 102.853 68.7773 102.768 68.7773C102.684 68.7773 102.6 68.7773 102.515 68.7773C102.431 68.7773 102.347 68.7773 102.263 68.7773C102.179 68.7773 102.096 68.7773 102.012 68.7773C101.928 68.7773 101.845 68.7773 101.761 68.7773C101.678 68.7773 101.595 68.7773 101.511 68.7773C101.428 68.7773 101.345 68.7773 101.262 68.7773C101.179 68.7773 101.096 68.7773 101.014 68.7773C100.931 68.7773 100.848 68.7773 100.766 68.7773C100.684 68.7773 100.601 68.7773 100.519 68.7773C100.437 68.7773 100.355 68.7773 100.273 68.7773C100.191 68.7773 100.109 68.7773 100.027 68.7773C99.9456 68.7773 99.864 68.7773 99.7825 68.7773C99.7011 68.7773 99.6197 68.7773 99.5385 68.7773C99.4572 68.7773 99.3761 68.7773 99.2952 68.7773C99.2142 68.7773 99.1333 68.7773 99.0526 68.7773C98.9718 68.7773 98.8912 68.7773 98.8107 68.7773C98.7302 68.7773 98.6498 68.7773 98.5695 68.7773C98.4893 68.7773 98.4091 68.7773 98.3291 68.7773C98.2491 68.7773 98.1692 68.7773 98.0894 68.7773C98.0096 68.7773 97.93 68.7773 97.8504 68.7773C97.7709 68.7773 97.6915 68.7773 97.6122 68.7773C97.5329 68.7773 97.4537 68.7773 97.3747 68.7773C97.2956 68.7773 97.2167 68.7773 97.1378 68.7773C97.059 68.7773 96.9803 68.7773 96.9018 68.7773C96.8232 68.7773 96.7447 68.7773 96.6664 68.7773C96.588 68.7773 96.5098 68.7773 96.4317 68.7773C96.3536 68.7773 96.2757 68.7773 96.1978 68.7773C96.1199 68.7773 96.0422 68.7773 95.9646 68.7773C95.8869 68.7773 95.8094 68.7773 95.732 68.7773C95.6547 68.7773 95.5774 68.7773 95.5003 68.7773C95.4231 68.7773 95.3461 68.7773 95.2692 68.7773C95.1923 68.7773 95.1155 68.7773 95.0388 68.7773C94.9621 68.7773 94.8856 68.7773 94.8091 68.7773C94.7327 68.7773 94.6564 68.7773 94.5802 68.7773C94.504 68.7773 94.4279 68.7773 94.3519 68.7773C94.276 68.7773 94.2001 68.7773 94.1244 68.7773C94.0487 68.7773 93.9731 68.7773 93.8976 68.7773C93.8221 68.7773 93.7467 68.7773 93.6715 68.7773C93.5962 68.7773 93.5211 68.7773 93.446 68.7773C93.371 68.7773 93.2961 68.7773 93.2213 68.7773C93.1465 68.7773 93.0719 68.7773 92.9973 68.7773C92.9228 68.7773 92.8483 68.7773 92.774 68.7773C92.6997 68.7773 92.6255 68.7773 92.5514 68.7773C92.4773 68.7773 92.4034 68.7773 92.3295 68.7773C92.2557 68.7773 92.1819 68.7773 92.1083 68.7773C92.0347 68.7773 91.9612 68.7773 91.8878 68.7773C91.8144 68.7773 91.7411 68.7773 91.668 68.7773C91.5948 68.7773 91.5218 68.7773 91.4489 68.7773C91.376 68.7773 91.3032 68.7773 91.2305 68.7773C91.1578 68.7773 91.0852 68.7773 91.0127 68.7773C90.9403 68.7773 90.8679 68.7773 90.7957 68.7773C90.7235 68.7773 90.6514 68.7773 90.5794 68.7773C90.5074 68.7773 90.4355 68.7773 90.3637 68.7773C90.292 68.7773 90.2203 68.7773 90.1488 68.7773C90.0773 68.7773 90.0058 68.7773 89.9345 68.7773C89.8632 68.7773 89.792 68.7773 89.721 68.7773C89.6499 68.7773 89.5789 68.7773 89.5081 68.7773C89.4372 68.7773 89.3665 68.7773 89.2959 68.7773C89.2253 68.7773 89.1548 68.7773 89.0844 68.7773C89.014 68.7773 88.9437 68.7773 88.8736 68.7773C88.8034 68.7773 88.7334 68.7773 88.6634 68.7773C88.5935 68.7773 88.5237 68.7773 88.454 68.7773C88.3843 68.7773 88.3147 68.7773 88.2452 68.7773C88.1757 68.7773 88.1064 68.7773 88.0371 68.7773C87.9679 68.7773 87.8988 68.7773 87.8297 68.7773C87.7607 68.7773 87.6918 68.7773 87.623 68.7773C87.5542 68.7773 87.4855 68.7773 87.417 68.7773C87.3484 68.7773 87.2799 68.7773 87.2116 68.7773C87.1432 68.7773 87.075 68.7773 87.0069 68.7773C86.9388 68.7773 86.8708 68.7773 86.8029 68.7773C86.735 68.7773 86.6672 68.7773 86.5996 68.7773C86.5319 68.7773 86.4643 68.7773 86.3969 68.7773C86.3295 68.7773 86.2621 68.7773 86.1949 68.7773C86.1277 68.7773 86.0606 68.7773 85.9936 68.7773C85.9266 68.7773 85.8597 68.7773 85.7929 68.7773C85.7262 68.7773 85.6595 68.7773 85.593 68.7773C85.5264 68.7773 85.46 68.7773 85.3937 68.7773C85.3274 68.7773 85.2611 68.7773 85.195 68.7773C85.1289 68.7773 85.063 68.7773 84.9971 68.7773C84.9312 68.7773 84.8654 68.7773 84.7998 68.7773C84.7341 68.7773 84.6686 68.7773 84.6031 68.7773C84.5377 68.7773 84.4724 68.7773 84.4072 68.7773C84.342 68.7773 84.2769 68.7773 84.2119 68.7773C84.1469 68.7773 84.082 68.7773 84.0172 68.7773C83.9525 68.7773 83.8878 68.7773 83.8233 68.7773C83.7587 68.7773 83.6943 68.7773 83.63 68.7773C83.5656 68.7773 83.5014 68.7773 83.4373 68.7773C83.3732 68.7773 83.3092 68.7773 83.2453 68.7773C83.1814 68.7773 83.1176 68.7773 83.054 68.7773C82.9903 68.7773 82.9268 68.7773 82.8633 68.7773C82.7999 68.7773 82.7365 68.7773 82.6733 68.7773C82.6101 68.7773 82.5469 68.7773 82.4839 68.7773C82.4209 68.7773 82.358 68.7773 82.2952 68.7773C82.2324 68.7773 82.1697 68.7773 82.1072 68.7773C82.0446 68.7773 81.9821 68.7773 81.9198 68.7773C81.8574 68.7773 81.7952 68.7773 81.733 68.7773C81.6709 68.7773 81.6088 68.7773 81.5469 68.7773C81.485 68.7773 81.4232 68.7773 81.3615 68.7773C81.2998 68.7773 81.2382 68.7773 81.1767 68.7773C81.1152 68.7773 81.0538 68.7773 80.9925 68.7773C80.9313 68.7773 80.8701 68.7773 80.809 68.7773C80.748 68.7773 80.687 68.7773 80.6262 68.7773C80.5654 68.7773 80.5046 68.7773 80.444 68.7773C80.3834 68.7773 80.3228 68.7773 80.2624 68.7773C80.202 68.7773 80.1417 68.7773 80.0815 68.7773C80.0213 68.7773 79.9612 68.7773 79.9012 68.7773C79.8413 68.7773 79.7814 68.7773 79.7216 68.7773C79.6618 68.7773 79.6022 68.7773 79.5426 68.7773C79.4831 68.7773 79.4236 68.7773 79.3643 68.7773C79.3049 68.7773 79.2457 68.7773 79.1866 68.7773C79.1274 68.7773 79.0684 68.7773 79.0095 68.7773C78.9506 68.7773 78.8918 68.7773 78.8331 68.7773C78.7744 68.7773 78.7158 68.7773 78.6573 68.7773C78.5988 68.7773 78.5404 68.7773 78.4821 68.7773C78.4238 68.7773 78.3657 68.7773 78.3076 68.7773C78.2495 68.7773 78.1916 68.7773 78.1337 68.7773C78.0758 68.7773 78.0181 68.7773 77.9604 68.7773C77.9028 68.7773 77.8453 68.7773 77.7878 68.7773C77.7304 68.7773 77.673 68.7773 77.6158 68.7773C77.5586 68.7773 77.5015 68.7773 77.4445 68.7773C77.3874 68.7773 77.3305 68.7773 77.2737 68.7773C77.2169 68.7773 77.1602 68.7773 77.1036 68.7773C77.047 68.7773 76.9905 68.7773 76.9341 68.7773C76.8778 68.7773 76.8215 68.7773 76.7653 68.7773C76.7091 68.7773 76.653 68.7773 76.5971 68.7773C76.5411 68.7773 76.4852 68.7773 76.4295 68.7773C76.3737 68.7773 76.318 68.7773 76.2625 68.7773C76.2069 68.7773 76.1515 68.7773 76.0961 68.7773C76.0408 68.7773 75.9855 68.7773 75.9304 68.7773C75.8753 68.7773 75.8202 68.7773 75.7653 68.7773C75.7104 68.7773 75.6555 68.7773 75.6008 68.7773C75.5461 68.7773 75.4914 68.7773 75.4369 68.7773C75.3824 68.7773 75.328 68.7773 75.2737 68.7773C75.2194 68.7773 75.1651 68.7773 75.111 68.7773C75.0569 68.7773 75.0029 68.7773 74.949 68.7773C74.8951 68.7773 74.8413 68.7773 74.7876 68.7773C74.7339 68.7773 74.6803 68.7773 74.6268 68.7773C74.5733 68.7773 74.5199 68.7773 74.4666 68.7773C74.4134 68.7773 74.3602 68.7773 74.3071 68.7773C74.254 68.7773 74.201 68.7773 74.1481 68.7773C74.0952 68.7773 74.0425 68.7773 73.9898 68.7773C73.9371 68.7773 73.8845 68.7773 73.8321 68.7773C73.7796 68.7773 73.7272 68.7773 73.6749 68.7773C73.6227 68.7773 73.5705 68.7773 73.5184 68.7773C73.4663 68.7773 73.4144 68.7773 73.3625 68.7773C73.3106 68.7773 73.2589 68.7773 73.2072 68.7773C73.1555 68.7773 73.104 68.7773 73.0525 68.7773C73.0011 68.7773 72.9497 68.7773 72.8984 68.7773C72.8472 68.7773 72.796 68.7773 72.7449 68.7773C72.6939 68.7773 72.6429 68.7773 72.592 68.7773C72.5412 68.7773 72.4904 68.7773 72.4398 68.7773C72.3891 68.7773 72.3385 68.7773 72.2881 68.7773C72.2376 68.7773 72.1873 68.7773 72.137 68.7773C72.0867 68.7773 72.0366 68.7773 71.9865 68.7773C71.9365 68.7773 71.8865 68.7773 71.8366 68.7773C71.7868 68.7773 71.737 68.7773 71.6873 68.7773C71.6377 68.7773 71.5881 68.7773 71.5387 68.7773C71.4892 68.7773 71.4398 68.7773 71.3906 68.7773C71.3413 68.7773 71.2921 68.7773 71.243 68.7773C71.194 68.7773 71.145 68.7773 71.0961 68.7773C71.0473 68.7773 70.9985 68.7773 70.9498 68.7773C70.9011 68.7773 70.8526 68.7773 70.8041 68.7773C70.7556 68.7773 70.7072 68.7773 70.659 68.7773C70.6107 68.7773 70.5625 68.7773 70.5144 68.7773C70.4663 68.7773 70.4183 68.7773 70.3705 68.7773C70.3226 68.7773 70.2748 68.7773 70.2271 68.7773C70.1794 68.7773 70.1318 68.7773 70.0843 68.7773C70.0368 68.7773 69.9894 68.7773 69.9421 68.7773C69.8948 68.7773 69.8476 68.7773 69.8005 68.7773C69.7534 68.7773 69.7064 68.7773 69.6595 68.7773C69.6125 68.7773 69.5657 68.7773 69.519 68.7773C69.4723 68.7773 69.4257 68.7773 69.3792 68.7773C69.3326 68.7773 69.2862 68.7773 69.2399 68.7773C69.1935 68.7773 69.1473 68.7773 69.1012 68.7773C69.055 68.7773 69.009 68.7773 68.9631 68.7773C68.9171 68.7773 68.8713 68.7773 68.8255 68.7773C68.7798 68.7773 68.7341 68.7773 68.6885 68.7773C68.643 68.7773 68.5975 68.7773 68.5522 68.7773C68.5068 68.7773 68.4615 68.7773 68.4163 68.7773C68.3712 68.7773 68.3261 68.7773 68.2811 68.7773C68.2361 68.7773 68.1912 68.7773 68.1464 68.7773C68.1016 68.7773 68.0569 68.7773 68.0123 68.7773C67.9677 68.7773 67.9232 68.7773 67.8788 68.7773C67.8344 68.7773 67.7901 68.7773 67.7459 68.7773C67.7017 68.7773 67.6575 68.7773 67.6135 68.7773C67.5695 68.7773 67.5255 68.7773 67.4817 68.7773C67.4378 68.7773 67.3941 68.7773 67.3504 68.7773C67.3068 68.7773 67.2632 68.7773 67.2198 68.7773C67.1763 68.7773 67.1329 68.7773 67.0897 68.7773C67.0464 68.7773 67.0032 68.7773 66.9601 68.7773C66.917 68.7773 66.874 68.7773 66.8311 68.7773C66.7882 68.7773 66.7454 68.7773 66.7027 68.7773C66.66 68.7773 66.6174 68.7773 66.5749 68.7773C66.5324 68.7773 66.4899 68.7773 66.4476 68.7773C66.4053 68.7773 66.363 68.7773 66.3209 68.7773C66.2787 68.7773 66.2367 68.7773 66.1947 68.7773C66.1527 68.7773 66.1109 68.7773 66.0691 68.7773C66.0273 68.7773 65.9856 68.7773 65.944 68.7773C65.9024 68.7773 65.8609 68.7773 65.8195 68.7773C65.7781 68.7773 65.7368 68.7773 65.6956 68.7773C65.6544 68.7773 65.6133 68.7773 65.5722 68.7773C65.5312 68.7773 65.4902 68.7773 65.4494 68.7773C65.4085 68.7773 65.3678 68.7773 65.3271 68.7773C65.2865 68.7773 65.2459 68.7773 65.2054 68.7773C65.1649 68.7773 65.1245 68.7773 65.0842 68.7773C65.0439 68.7773 65.0037 68.7773 64.9636 68.7773C64.9235 68.7773 64.8835 68.7773 64.8435 68.7773C64.8036 68.7773 64.7638 68.7773 64.724 68.7773C64.6843 68.7773 64.6446 68.7773 64.605 68.7773C64.5655 68.7773 64.526 68.7773 64.4866 68.7773C64.4472 68.7773 64.4079 68.7773 64.3687 68.7773C64.3295 68.7773 64.2904 68.7773 64.2514 68.7773C64.2124 68.7773 64.1735 68.7773 64.1346 68.7773C64.0958 68.7773 64.057 68.7773 64.0184 68.7773C63.9797 68.7773 63.9411 68.7773 63.9027 68.7773C63.8642 68.7773 63.8258 68.7773 63.7875 68.7773C63.7492 68.7773 63.711 68.7773 63.6729 68.7773C63.6348 68.7773 63.5967 68.7773 63.5588 68.7773C63.5209 68.7773 63.483 68.7773 63.4453 68.7773C63.4075 68.7773 63.3698 68.7773 63.3322 68.7773C63.2947 68.7773 63.2572 68.7773 63.2198 68.7773C63.1824 68.7773 63.1451 68.7773 63.1078 68.7773C63.0706 68.7773 63.0335 68.7773 62.9964 68.7773C62.9594 68.7773 62.9224 68.7773 62.8856 68.7773C62.8487 68.7773 62.8119 68.7773 62.7752 68.7773C62.7386 68.7773 62.702 68.7773 62.6654 68.7773C62.6289 68.7773 62.5925 68.7773 62.5562 68.7773C62.5198 68.7773 62.4836 68.7773 62.4474 68.7773C62.4113 68.7773 62.3752 68.7773 62.3392 68.7773C62.3033 68.7773 62.2674 68.7773 62.2316 68.7773C62.1957 68.7773 62.16 68.7773 62.1244 68.7773C62.0888 68.7773 62.0532 68.7773 62.0178 68.7773C61.9823 68.7773 61.947 68.7773 61.9117 68.7773C61.8764 68.7773 61.8412 68.7773 61.8061 68.7773C61.771 68.7773 61.736 68.7773 61.701 68.7773C61.6661 68.7773 61.6313 68.7773 61.5965 68.7773C61.5618 68.7773 61.5271 68.7773 61.4925 68.7773C61.4579 68.7773 61.4234 68.7773 61.389 68.7773C61.3546 68.7773 61.3203 68.7773 61.2861 68.7773C61.2518 68.7773 61.2177 68.7773 61.1836 68.7773C61.1496 68.7773 61.1156 68.7773 61.0817 68.7773C61.0478 68.7773 61.014 68.7773 60.9803 68.7773C60.9466 68.7773 60.9129 68.7773 60.8794 68.7773C60.8458 68.7773 60.8124 68.7773 60.779 68.7773C60.7456 68.7773 60.7124 68.7773 60.6791 68.7773C60.646 68.7773 60.6128 68.7773 60.5798 68.7773C60.5468 68.7773 60.5138 68.7773 60.481 68.7773C60.4481 68.7773 60.4153 68.7773 60.3826 68.7773C60.35 68.7773 60.3173 68.7773 60.2848 68.7773C60.2523 68.7773 60.2199 68.7773 60.1875 68.7773C60.1552 68.7773 60.1229 68.7773 60.0907 68.7773C60.0585 68.7773 60.0265 68.7773 59.9944 68.7773C59.9624 68.7773 59.9305 68.7773 59.8987 68.7773C59.8668 68.7773 59.8351 68.7773 59.8034 68.7773C59.7717 68.7773 59.7401 68.7773 59.7086 68.7773C59.6771 68.7773 59.6457 68.7773 59.6144 68.7773C59.583 68.7773 59.5518 68.7773 59.5206 68.7773C59.4894 68.7773 59.4583 68.7773 59.4273 68.7773C59.3963 68.7773 59.3654 68.7773 59.3346 68.7773C59.3038 68.7773 59.273 68.7773 59.2423 68.7773C59.2117 68.7773 59.1811 68.7773 59.1506 68.7773C59.1201 68.7773 59.0897 68.7773 59.0593 68.7773C59.029 68.7773 58.9987 68.7773 58.9686 68.7773C58.9384 68.7773 58.9083 68.7773 58.8783 68.7773C58.8483 68.7773 58.8184 68.7773 58.7885 68.7773C58.7587 68.7773 58.7289 68.7773 58.6993 68.7773C58.6696 68.7773 58.64 68.7773 58.6105 68.7773C58.581 68.7773 58.5516 68.7773 58.5222 68.7773C58.4929 68.7773 58.4636 68.7773 58.4344 68.7773C58.4052 68.7773 58.3761 68.7773 58.3471 68.7773C58.3181 68.7773 58.2892 68.7773 58.2603 68.7773C58.2315 68.7773 58.2027 68.7773 58.174 68.7773C58.1453 68.7773 58.1167 68.7773 58.0882 68.7773C58.0596 68.7773 58.0312 68.7773 58.0028 68.7773C57.9745 68.7773 57.9462 68.7773 57.918 68.7773C57.8898 68.7773 57.8616 68.7773 57.8336 68.7773C57.8056 68.7773 57.7776 68.7773 57.7497 68.7773C57.7218 68.7773 57.694 68.7773 57.6663 68.7773C57.6386 68.7773 57.611 68.7773 57.5834 68.7773C57.5559 68.7773 57.5284 68.7773 57.501 68.7773C57.4736 68.7773 57.4463 68.7773 57.419 68.7773C57.3918 68.7773 57.3646 68.7773 57.3376 68.7773C57.3105 68.7773 57.2835 68.7773 57.2566 68.7773C57.2296 68.7773 57.2028 68.7773 57.176 68.7773C57.1493 68.7773 57.1226 68.7773 57.096 68.7773C57.0694 68.7773 57.0429 68.7773 57.0164 68.7773C56.99 68.7773 56.9636 68.7773 56.9374 68.7773C56.9111 68.7773 56.8849 68.7773 56.8588 68.7773C56.8326 68.7773 56.8066 68.7773 56.7806 68.7773C56.7547 68.7773 56.7288 68.7773 56.703 68.7773C56.6772 68.7773 56.6514 68.7773 56.6258 68.7773C56.6001 68.7773 56.5745 68.7773 56.549 68.7773C56.5236 68.7773 56.4981 68.7773 56.4728 68.7773C56.4475 68.7773 56.4222 68.7773 56.397 68.7773C56.3718 68.7773 56.3467 68.7773 56.3217 68.7773C56.2967 68.7773 56.2717 68.7773 56.2469 68.7773C56.222 68.7773 56.1972 68.7773 56.1725 68.7773C56.1478 68.7773 56.1231 68.7773 56.0986 68.7773C56.074 68.7773 56.0495 68.7773 56.0251 68.7773C56.0007 68.7773 55.9764 68.7773 55.9521 68.7773C55.9279 68.7773 55.9037 68.7773 55.8796 68.7773C55.8555 68.7773 55.8315 68.7773 55.8076 68.7773C55.7836 68.7773 55.7598 68.7773 55.736 68.7773C55.7122 68.7773 55.6885 68.7773 55.6648 68.7773C55.6412 68.7773 55.6176 68.7773 55.5942 68.7773C55.5707 68.7773 55.5473 68.7773 55.5239 68.7773C55.5006 68.7773 55.4773 68.7773 55.4542 68.7773C55.431 68.7773 55.4079 68.7773 55.3849 68.7773C55.3618 68.7773 55.3389 68.7773 55.316 68.7773C55.2931 68.7773 55.2703 68.7773 55.2476 68.7773C55.2249 68.7773 55.2022 68.7773 55.1797 68.7773C55.1571 68.7773 55.1346 68.7773 55.1122 68.7773C55.0898 68.7773 55.0674 68.7773 55.0451 68.7773C55.0229 68.7773 55.0007 68.7773 54.9786 68.7773C54.9564 68.7773 54.9344 68.7773 54.9124 68.7773C54.8904 68.7773 54.8685 68.7773 54.8467 68.7773C54.8249 68.7773 54.8032 68.7773 54.7815 68.7773C54.7598 68.7773 54.7382 68.7773 54.7167 68.7773C54.6952 68.7773 54.6737 68.7773 54.6523 68.7773C54.631 68.7773 54.6097 68.7773 54.5884 68.7773C54.5672 68.7773 54.5461 68.7773 54.525 68.7773C54.5039 68.7773 54.4829 68.7773 54.462 68.7773C54.441 68.7773 54.4202 68.7773 54.3994 68.7773C54.3786 68.7773 54.3579 68.7773 54.3373 68.7773C54.3166 68.7773 54.2961 68.7773 54.2756 68.7773C54.2551 68.7773 54.2347 68.7773 54.2143 68.7773C54.194 68.7773 54.1737 68.7773 54.1535 68.7773C54.1333 68.7773 54.1132 68.7773 54.0931 68.7773C54.0731 68.7773 54.0531 68.7773 54.0332 68.7773C54.0133 68.7773 53.9935 68.7773 53.9737 68.7773C53.9539 68.7773 53.9342 68.7773 53.9146 68.7773C53.895 68.7773 53.8755 68.7773 53.856 68.7773C53.8365 68.7773 53.8171 68.7773 53.7978 68.7773C53.7785 68.7773 53.7592 68.7773 53.74 68.7773C53.7208 68.7773 53.7017 68.7773 53.6827 68.7773C53.6637 68.7773 53.6447 68.7773 53.6258 68.7773C53.6069 68.7773 53.5881 68.7773 53.5693 68.7773C53.5506 68.7773 53.5319 68.7773 53.5133 68.7773C53.4947 68.7773 53.4761 68.7773 53.4577 68.7773C53.4392 68.7773 53.4208 68.7773 53.4025 68.7773C53.3841 68.7773 53.3659 68.7773 53.3477 68.7773C53.3295 68.7773 53.3114 68.7773 53.2934 68.7773C53.2753 68.7773 53.2573 68.7773 53.2394 68.7773C53.2215 68.7773 53.2037 68.7773 53.1859 68.7773C53.1682 68.7773 53.1505 68.7773 53.1329 68.7773C53.1152 68.7773 53.0977 68.7773 53.0802 68.7773C53.0627 68.7773 53.0453 68.7773 53.028 68.7773C53.0106 68.7773 52.9934 68.7773 52.9762 68.7773C52.959 68.7773 52.9418 68.7773 52.9248 68.7773C52.9077 68.7773 52.8907 68.7773 52.8738 68.7773C52.8569 68.7773 52.84 68.7773 52.8232 68.7773C52.8065 68.7773 52.7897 68.7773 52.7731 68.7773C52.7565 68.7773 52.7399 68.7773 52.7234 68.7773C52.7069 68.7773 52.6904 68.7773 52.674 68.7773C52.6577 68.7773 52.6414 68.7773 52.6251 68.7773C52.6089 68.7773 52.5928 68.7773 52.5767 68.7773C52.5606 68.7773 52.5445 68.7773 52.5286 68.7773C52.5126 68.7773 52.4967 68.7773 52.4809 68.7773C52.4651 68.7773 52.4493 68.7773 52.4336 68.7773C52.418 68.7773 52.4023 68.7773 52.3868 68.7773C52.3712 68.7773 52.3558 68.7773 52.3404 68.7773C52.3249 68.7773 52.3096 68.7773 52.2943 68.7773C52.279 68.7773 52.2638 68.7773 52.2487 68.7773C52.2335 68.7773 52.2185 68.7773 52.2034 68.7773C52.1884 68.7773 52.1735 68.7773 52.1586 68.7773C52.1437 68.7773 52.1289 68.7773 52.1142 68.7773C52.0995 68.7773 52.0848 68.7773 52.0702 68.7773C52.0556 68.7773 52.041 68.7773 52.0266 68.7773C52.0121 68.7773 51.9977 68.7773 51.9833 68.7773C51.969 68.7773 51.9547 68.7773 51.9405 68.7773C51.9263 68.7773 51.9122 68.7773 51.8981 68.7773C51.884 68.7773 51.87 68.7773 51.8561 68.7773C51.8421 68.7773 51.8283 68.7773 51.8144 68.7773C51.8006 68.7773 51.7869 68.7773 51.7732 68.7773C51.7595 68.7773 51.7459 68.7773 51.7324 68.7773C51.7188 68.7773 51.7053 68.7773 51.6919 68.7773C51.6785 68.7773 51.6651 68.7773 51.6519 68.7773C51.6386 68.7773 51.6254 68.7773 51.6122 68.7773C51.599 68.7773 51.586 68.7773 51.5729 68.7773C51.5599 68.7773 51.5469 68.7773 51.534 68.7773C51.5212 68.7773 51.5083 68.7773 51.4956 68.7773C51.4828 68.7773 51.4701 68.7773 51.4574 68.7773C51.4448 68.7773 51.4322 68.7773 51.4197 68.7773C51.4072 68.7773 51.3948 68.7773 51.3824 68.7773C51.37 68.7773 51.3577 68.7773 51.3454 68.7773C51.3332 68.7773 51.321 68.7773 51.3089 68.7773C51.2968 68.7773 51.2847 68.7773 51.2727 68.7773C51.2607 68.7773 51.2488 68.7773 51.2369 68.7773C51.225 68.7773 51.2132 68.7773 51.2015 68.7773C51.1897 68.7773 51.1781 68.7773 51.1665 68.7773C51.1548 68.7773 51.1433 68.7773 51.1318 68.7773C51.1203 68.7773 51.1089 68.7773 51.0975 68.7773C51.0862 68.7773 51.0749 68.7773 51.0636 68.7773C51.0524 68.7773 51.0412 68.7773 51.0301 68.7773C51.019 68.7773 51.0079 68.7773 50.9969 68.7773C50.986 68.7773 50.975 68.7773 50.9642 68.7773C50.9533 68.7773 50.9425 68.7773 50.9318 68.7773C50.921 68.7773 50.9104 68.7773 50.8997 68.7773C50.8891 68.7773 50.8786 68.7773 50.8681 68.7773C50.8576 68.7773 50.8472 68.7773 50.8368 68.7773C50.8264 68.7773 50.8161 68.7773 50.8059 68.7773C50.7957 68.7773 50.7855 68.7773 50.7754 68.7773C50.7652 68.7773 50.7552 68.7773 50.7452 68.7773C50.7352 68.7773 50.7253 68.7773 50.7154 68.7773C50.7055 68.7773 50.6957 68.7773 50.6859 68.7773C50.6762 68.7773 50.6665 68.7773 50.6569 68.7773C50.6472 68.7773 50.6377 68.7773 50.6282 68.7773C50.6186 68.7773 50.6092 68.7773 50.5998 68.7773C50.5904 68.7773 50.5811 68.7773 50.5718 68.7773C50.5626 68.7773 50.5533 68.7773 50.5442 68.7773C50.5351 68.7773 50.526 68.7773 50.5169 68.7773C50.5079 68.7773 50.4989 68.7773 50.49 68.7773C50.4811 68.7773 50.4723 68.7773 50.4635 68.7773C50.4547 68.7773 50.446 68.7773 50.4373 68.7773C50.4286 68.7773 50.42 68.7773 50.4115 68.7773C50.4029 68.7773 50.3945 68.7773 50.386 68.7773C50.3776 68.7773 50.3692 68.7773 50.3609 68.7773C50.3526 68.7773 50.3443 68.7773 50.3361 68.7773C50.328 68.7773 50.3198 68.7773 50.3117 68.7773C50.3037 68.7773 50.2956 68.7773 50.2877 68.7773C50.2797 68.7773 50.2718 68.7773 50.264 68.7773C50.2561 68.7773 50.2484 68.7773 50.2406 68.7773C50.2329 68.7773 50.2252 68.7773 50.2176 68.7773C50.21 68.7773 50.2025 68.7773 50.195 68.7773C50.1875 68.7773 50.1801 68.7773 50.1727 68.7773C50.1653 68.7773 50.158 68.7773 50.1507 68.7773C50.1435 68.7773 50.1363 68.7773 50.1291 68.7773C50.122 68.7773 50.1149 68.7773 50.1079 68.7773C50.1008 68.7773 50.0938 68.7773 50.0869 68.7773C50.08 68.7773 50.0732 68.7773 50.0664 68.7773C50.0596 68.7773 50.0528 68.7773 50.0461 68.7773C50.0394 68.7773 50.0328 68.7773 50.0262 68.7773C50.0197 68.7773 50.0131 68.7773 50.0067 68.7773C50.0002 68.7773 49.9938 68.7773 49.9875 68.7773C49.9811 68.7773 49.9748 68.7773 49.9686 68.7773C49.9624 68.7773 49.9562 68.7773 49.9501 68.7773C49.9439 68.7773 49.9379 68.7773 49.9319 68.7773C49.9258 68.7773 49.9199 68.7773 49.914 68.7773C49.9081 68.7773 49.9023 68.7773 49.8965 68.7773C49.8907 68.7773 49.8849 68.7773 49.8793 68.7773C49.8736 68.7773 49.868 68.7773 49.8624 68.7773C49.8568 68.7773 49.8513 68.7773 49.8459 68.7773C49.8404 68.7773 49.835 68.7773 49.8297 68.7773C49.8243 68.7773 49.8191 68.7773 49.8138 68.7773C49.8086 68.7773 49.8034 68.7773 49.7983 68.7773C49.7932 68.7773 49.7881 68.7773 49.7831 68.7773C49.7781 68.7773 49.7731 68.7773 49.7682 68.7773C49.7633 68.7773 49.7584 68.7773 49.7536 68.7773C49.7488 68.7773 49.7441 68.7773 49.7394 68.7773C49.7347 68.7773 49.7301 68.7773 49.7255 68.7773C49.7209 68.7773 49.7164 68.7773 49.7119 68.7773C49.7075 68.7773 49.703 68.7773 49.6987 68.7773C49.6943 68.7773 49.69 68.7773 49.6857 68.7773C49.6815 68.7773 49.6773 68.7773 49.6731 68.7773C49.669 68.7773 49.6649 68.7773 49.6608 68.7773C49.6568 68.7773 49.6528 68.7773 49.6489 68.7773C49.6449 68.7773 49.6411 68.7773 49.6372 68.7773C49.6334 68.7773 49.6296 68.7773 49.6259 68.7773C49.6222 68.7773 49.6185 68.7773 49.6149 68.7773C49.6112 68.7773 49.6077 68.7773 49.6042 68.7773C49.6006 68.7773 49.5972 68.7773 49.5938 68.7773C49.5904 68.7773 49.587 68.7773 49.5837 68.7773C49.5804 68.7773 49.5771 68.7773 49.5739 68.7773C49.5707 68.7773 49.5676 68.7773 49.5645 68.7773C49.5614 68.7773 49.5583 68.7773 49.5553 68.7773C49.5523 68.7773 49.5494 68.7773 49.5465 68.7773C49.5436 68.7773 49.5408 68.7773 49.538 68.7773C49.5352 68.7773 49.5325 68.7773 49.5298 68.7773C49.5271 68.7773 49.5245 68.7773 49.5219 68.7773C49.5193 68.7773 49.5168 68.7773 49.5143 68.7773C49.5118 68.7773 49.5094 68.7773 49.507 68.7773C49.5046 68.7773 49.5023 68.7773 49.5 68.7773V71.7773C49.5023 71.7773 49.5046 71.7773 49.507 71.7773C49.5094 71.7773 49.5118 71.7773 49.5143 71.7773C49.5168 71.7773 49.5193 71.7773 49.5219 71.7773C49.5245 71.7773 49.5271 71.7773 49.5298 71.7773C49.5325 71.7773 49.5352 71.7773 49.538 71.7773C49.5408 71.7773 49.5436 71.7773 49.5465 71.7773C49.5494 71.7773 49.5523 71.7773 49.5553 71.7773C49.5583 71.7773 49.5614 71.7773 49.5645 71.7773C49.5676 71.7773 49.5707 71.7773 49.5739 71.7773C49.5771 71.7773 49.5804 71.7773 49.5837 71.7773C49.587 71.7773 49.5904 71.7773 49.5938 71.7773C49.5972 71.7773 49.6006 71.7773 49.6042 71.7773C49.6077 71.7773 49.6112 71.7773 49.6149 71.7773C49.6185 71.7773 49.6222 71.7773 49.6259 71.7773C49.6296 71.7773 49.6334 71.7773 49.6372 71.7773C49.6411 71.7773 49.6449 71.7773 49.6489 71.7773C49.6528 71.7773 49.6568 71.7773 49.6608 71.7773C49.6649 71.7773 49.669 71.7773 49.6731 71.7773C49.6773 71.7773 49.6815 71.7773 49.6857 71.7773C49.69 71.7773 49.6943 71.7773 49.6987 71.7773C49.703 71.7773 49.7075 71.7773 49.7119 71.7773C49.7164 71.7773 49.7209 71.7773 49.7255 71.7773C49.7301 71.7773 49.7347 71.7773 49.7394 71.7773C49.7441 71.7773 49.7488 71.7773 49.7536 71.7773C49.7584 71.7773 49.7633 71.7773 49.7682 71.7773C49.7731 71.7773 49.7781 71.7773 49.7831 71.7773C49.7881 71.7773 49.7932 71.7773 49.7983 71.7773C49.8034 71.7773 49.8086 71.7773 49.8138 71.7773C49.8191 71.7773 49.8243 71.7773 49.8297 71.7773C49.835 71.7773 49.8404 71.7773 49.8459 71.7773C49.8513 71.7773 49.8568 71.7773 49.8624 71.7773C49.868 71.7773 49.8736 71.7773 49.8793 71.7773C49.8849 71.7773 49.8907 71.7773 49.8965 71.7773C49.9023 71.7773 49.9081 71.7773 49.914 71.7773C49.9199 71.7773 49.9258 71.7773 49.9319 71.7773C49.9379 71.7773 49.9439 71.7773 49.9501 71.7773C49.9562 71.7773 49.9624 71.7773 49.9686 71.7773C49.9748 71.7773 49.9811 71.7773 49.9875 71.7773C49.9938 71.7773 50.0002 71.7773 50.0067 71.7773C50.0131 71.7773 50.0197 71.7773 50.0262 71.7773C50.0328 71.7773 50.0394 71.7773 50.0461 71.7773C50.0528 71.7773 50.0596 71.7773 50.0664 71.7773C50.0732 71.7773 50.08 71.7773 50.0869 71.7773C50.0938 71.7773 50.1008 71.7773 50.1079 71.7773C50.1149 71.7773 50.122 71.7773 50.1291 71.7773C50.1363 71.7773 50.1435 71.7773 50.1507 71.7773C50.158 71.7773 50.1653 71.7773 50.1727 71.7773C50.1801 71.7773 50.1875 71.7773 50.195 71.7773C50.2025 71.7773 50.21 71.7773 50.2176 71.7773C50.2252 71.7773 50.2329 71.7773 50.2406 71.7773C50.2484 71.7773 50.2561 71.7773 50.264 71.7773C50.2718 71.7773 50.2797 71.7773 50.2877 71.7773C50.2956 71.7773 50.3037 71.7773 50.3117 71.7773C50.3198 71.7773 50.328 71.7773 50.3361 71.7773C50.3443 71.7773 50.3526 71.7773 50.3609 71.7773C50.3692 71.7773 50.3776 71.7773 50.386 71.7773C50.3945 71.7773 50.4029 71.7773 50.4115 71.7773C50.42 71.7773 50.4286 71.7773 50.4373 71.7773C50.446 71.7773 50.4547 71.7773 50.4635 71.7773C50.4723 71.7773 50.4811 71.7773 50.49 71.7773C50.4989 71.7773 50.5079 71.7773 50.5169 71.7773C50.526 71.7773 50.5351 71.7773 50.5442 71.7773C50.5533 71.7773 50.5626 71.7773 50.5718 71.7773C50.5811 71.7773 50.5904 71.7773 50.5998 71.7773C50.6092 71.7773 50.6186 71.7773 50.6282 71.7773C50.6377 71.7773 50.6472 71.7773 50.6569 71.7773C50.6665 71.7773 50.6762 71.7773 50.6859 71.7773C50.6957 71.7773 50.7055 71.7773 50.7154 71.7773C50.7253 71.7773 50.7352 71.7773 50.7452 71.7773C50.7552 71.7773 50.7652 71.7773 50.7754 71.7773C50.7855 71.7773 50.7957 71.7773 50.8059 71.7773C50.8161 71.7773 50.8264 71.7773 50.8368 71.7773C50.8472 71.7773 50.8576 71.7773 50.8681 71.7773C50.8786 71.7773 50.8891 71.7773 50.8997 71.7773C50.9104 71.7773 50.921 71.7773 50.9318 71.7773C50.9425 71.7773 50.9533 71.7773 50.9642 71.7773C50.975 71.7773 50.986 71.7773 50.9969 71.7773C51.0079 71.7773 51.019 71.7773 51.0301 71.7773C51.0412 71.7773 51.0524 71.7773 51.0636 71.7773C51.0749 71.7773 51.0862 71.7773 51.0975 71.7773C51.1089 71.7773 51.1203 71.7773 51.1318 71.7773C51.1433 71.7773 51.1548 71.7773 51.1665 71.7773C51.1781 71.7773 51.1897 71.7773 51.2015 71.7773C51.2132 71.7773 51.225 71.7773 51.2369 71.7773C51.2488 71.7773 51.2607 71.7773 51.2727 71.7773C51.2847 71.7773 51.2968 71.7773 51.3089 71.7773C51.321 71.7773 51.3332 71.7773 51.3454 71.7773C51.3577 71.7773 51.37 71.7773 51.3824 71.7773C51.3948 71.7773 51.4072 71.7773 51.4197 71.7773C51.4322 71.7773 51.4448 71.7773 51.4574 71.7773C51.4701 71.7773 51.4828 71.7773 51.4956 71.7773C51.5083 71.7773 51.5212 71.7773 51.534 71.7773C51.5469 71.7773 51.5599 71.7773 51.5729 71.7773C51.586 71.7773 51.599 71.7773 51.6122 71.7773C51.6254 71.7773 51.6386 71.7773 51.6519 71.7773C51.6651 71.7773 51.6785 71.7773 51.6919 71.7773C51.7053 71.7773 51.7188 71.7773 51.7324 71.7773C51.7459 71.7773 51.7595 71.7773 51.7732 71.7773C51.7869 71.7773 51.8006 71.7773 51.8144 71.7773C51.8283 71.7773 51.8421 71.7773 51.8561 71.7773C51.87 71.7773 51.884 71.7773 51.8981 71.7773C51.9122 71.7773 51.9263 71.7773 51.9405 71.7773C51.9547 71.7773 51.969 71.7773 51.9833 71.7773C51.9977 71.7773 52.0121 71.7773 52.0266 71.7773C52.041 71.7773 52.0556 71.7773 52.0702 71.7773C52.0848 71.7773 52.0995 71.7773 52.1142 71.7773C52.1289 71.7773 52.1437 71.7773 52.1586 71.7773C52.1735 71.7773 52.1884 71.7773 52.2034 71.7773C52.2185 71.7773 52.2335 71.7773 52.2487 71.7773C52.2638 71.7773 52.279 71.7773 52.2943 71.7773C52.3096 71.7773 52.3249 71.7773 52.3404 71.7773C52.3558 71.7773 52.3712 71.7773 52.3868 71.7773C52.4023 71.7773 52.418 71.7773 52.4336 71.7773C52.4493 71.7773 52.4651 71.7773 52.4809 71.7773C52.4967 71.7773 52.5126 71.7773 52.5286 71.7773C52.5445 71.7773 52.5606 71.7773 52.5767 71.7773C52.5928 71.7773 52.6089 71.7773 52.6251 71.7773C52.6414 71.7773 52.6577 71.7773 52.674 71.7773C52.6904 71.7773 52.7069 71.7773 52.7234 71.7773C52.7399 71.7773 52.7565 71.7773 52.7731 71.7773C52.7897 71.7773 52.8065 71.7773 52.8232 71.7773C52.84 71.7773 52.8569 71.7773 52.8738 71.7773C52.8907 71.7773 52.9077 71.7773 52.9248 71.7773C52.9418 71.7773 52.959 71.7773 52.9762 71.7773C52.9934 71.7773 53.0106 71.7773 53.028 71.7773C53.0453 71.7773 53.0627 71.7773 53.0802 71.7773C53.0977 71.7773 53.1152 71.7773 53.1329 71.7773C53.1505 71.7773 53.1682 71.7773 53.1859 71.7773C53.2037 71.7773 53.2215 71.7773 53.2394 71.7773C53.2573 71.7773 53.2753 71.7773 53.2934 71.7773C53.3114 71.7773 53.3295 71.7773 53.3477 71.7773C53.3659 71.7773 53.3841 71.7773 53.4025 71.7773C53.4208 71.7773 53.4392 71.7773 53.4577 71.7773C53.4761 71.7773 53.4947 71.7773 53.5133 71.7773C53.5319 71.7773 53.5506 71.7773 53.5693 71.7773C53.5881 71.7773 53.6069 71.7773 53.6258 71.7773C53.6447 71.7773 53.6637 71.7773 53.6827 71.7773C53.7017 71.7773 53.7208 71.7773 53.74 71.7773C53.7592 71.7773 53.7785 71.7773 53.7978 71.7773C53.8171 71.7773 53.8365 71.7773 53.856 71.7773C53.8755 71.7773 53.895 71.7773 53.9146 71.7773C53.9342 71.7773 53.9539 71.7773 53.9737 71.7773C53.9935 71.7773 54.0133 71.7773 54.0332 71.7773C54.0531 71.7773 54.0731 71.7773 54.0931 71.7773C54.1132 71.7773 54.1333 71.7773 54.1535 71.7773C54.1737 71.7773 54.194 71.7773 54.2143 71.7773C54.2347 71.7773 54.2551 71.7773 54.2756 71.7773C54.2961 71.7773 54.3166 71.7773 54.3373 71.7773C54.3579 71.7773 54.3786 71.7773 54.3994 71.7773C54.4202 71.7773 54.441 71.7773 54.462 71.7773C54.4829 71.7773 54.5039 71.7773 54.525 71.7773C54.5461 71.7773 54.5672 71.7773 54.5884 71.7773C54.6097 71.7773 54.631 71.7773 54.6523 71.7773C54.6737 71.7773 54.6952 71.7773 54.7167 71.7773C54.7382 71.7773 54.7598 71.7773 54.7815 71.7773C54.8032 71.7773 54.8249 71.7773 54.8467 71.7773C54.8685 71.7773 54.8904 71.7773 54.9124 71.7773C54.9344 71.7773 54.9564 71.7773 54.9786 71.7773C55.0007 71.7773 55.0229 71.7773 55.0451 71.7773C55.0674 71.7773 55.0898 71.7773 55.1122 71.7773C55.1346 71.7773 55.1571 71.7773 55.1797 71.7773C55.2022 71.7773 55.2249 71.7773 55.2476 71.7773C55.2703 71.7773 55.2931 71.7773 55.316 71.7773C55.3389 71.7773 55.3618 71.7773 55.3849 71.7773C55.4079 71.7773 55.431 71.7773 55.4542 71.7773C55.4773 71.7773 55.5006 71.7773 55.5239 71.7773C55.5473 71.7773 55.5707 71.7773 55.5942 71.7773C55.6176 71.7773 55.6412 71.7773 55.6648 71.7773C55.6885 71.7773 55.7122 71.7773 55.736 71.7773C55.7598 71.7773 55.7836 71.7773 55.8076 71.7773C55.8315 71.7773 55.8555 71.7773 55.8796 71.7773C55.9037 71.7773 55.9279 71.7773 55.9521 71.7773C55.9764 71.7773 56.0007 71.7773 56.0251 71.7773C56.0495 71.7773 56.074 71.7773 56.0986 71.7773C56.1231 71.7773 56.1478 71.7773 56.1725 71.7773C56.1972 71.7773 56.222 71.7773 56.2469 71.7773C56.2717 71.7773 56.2967 71.7773 56.3217 71.7773C56.3467 71.7773 56.3718 71.7773 56.397 71.7773C56.4222 71.7773 56.4475 71.7773 56.4728 71.7773C56.4981 71.7773 56.5236 71.7773 56.549 71.7773C56.5745 71.7773 56.6001 71.7773 56.6258 71.7773C56.6514 71.7773 56.6772 71.7773 56.703 71.7773C56.7288 71.7773 56.7547 71.7773 56.7806 71.7773C56.8066 71.7773 56.8326 71.7773 56.8588 71.7773C56.8849 71.7773 56.9111 71.7773 56.9374 71.7773C56.9636 71.7773 56.99 71.7773 57.0164 71.7773C57.0429 71.7773 57.0694 71.7773 57.096 71.7773C57.1226 71.7773 57.1493 71.7773 57.176 71.7773C57.2028 71.7773 57.2296 71.7773 57.2566 71.7773C57.2835 71.7773 57.3105 71.7773 57.3376 71.7773C57.3646 71.7773 57.3918 71.7773 57.419 71.7773C57.4463 71.7773 57.4736 71.7773 57.501 71.7773C57.5284 71.7773 57.5559 71.7773 57.5834 71.7773C57.611 71.7773 57.6386 71.7773 57.6663 71.7773C57.694 71.7773 57.7218 71.7773 57.7497 71.7773C57.7776 71.7773 57.8056 71.7773 57.8336 71.7773C57.8616 71.7773 57.8898 71.7773 57.918 71.7773C57.9462 71.7773 57.9745 71.7773 58.0028 71.7773C58.0312 71.7773 58.0596 71.7773 58.0882 71.7773C58.1167 71.7773 58.1453 71.7773 58.174 71.7773C58.2027 71.7773 58.2315 71.7773 58.2603 71.7773C58.2892 71.7773 58.3181 71.7773 58.3471 71.7773C58.3761 71.7773 58.4052 71.7773 58.4344 71.7773C58.4636 71.7773 58.4929 71.7773 58.5222 71.7773C58.5516 71.7773 58.581 71.7773 58.6105 71.7773C58.64 71.7773 58.6696 71.7773 58.6993 71.7773C58.7289 71.7773 58.7587 71.7773 58.7885 71.7773C58.8184 71.7773 58.8483 71.7773 58.8783 71.7773C58.9083 71.7773 58.9384 71.7773 58.9686 71.7773C58.9987 71.7773 59.029 71.7773 59.0593 71.7773C59.0897 71.7773 59.1201 71.7773 59.1506 71.7773C59.1811 71.7773 59.2117 71.7773 59.2423 71.7773C59.273 71.7773 59.3038 71.7773 59.3346 71.7773C59.3654 71.7773 59.3963 71.7773 59.4273 71.7773C59.4583 71.7773 59.4894 71.7773 59.5206 71.7773C59.5518 71.7773 59.583 71.7773 59.6144 71.7773C59.6457 71.7773 59.6771 71.7773 59.7086 71.7773C59.7401 71.7773 59.7717 71.7773 59.8034 71.7773C59.8351 71.7773 59.8668 71.7773 59.8987 71.7773C59.9305 71.7773 59.9624 71.7773 59.9944 71.7773C60.0265 71.7773 60.0585 71.7773 60.0907 71.7773C60.1229 71.7773 60.1552 71.7773 60.1875 71.7773C60.2199 71.7773 60.2523 71.7773 60.2848 71.7773C60.3173 71.7773 60.35 71.7773 60.3826 71.7773C60.4153 71.7773 60.4481 71.7773 60.481 71.7773C60.5138 71.7773 60.5468 71.7773 60.5798 71.7773C60.6128 71.7773 60.646 71.7773 60.6791 71.7773C60.7124 71.7773 60.7456 71.7773 60.779 71.7773C60.8124 71.7773 60.8458 71.7773 60.8794 71.7773C60.9129 71.7773 60.9466 71.7773 60.9803 71.7773C61.014 71.7773 61.0478 71.7773 61.0817 71.7773C61.1156 71.7773 61.1496 71.7773 61.1836 71.7773C61.2177 71.7773 61.2518 71.7773 61.2861 71.7773C61.3203 71.7773 61.3546 71.7773 61.389 71.7773C61.4234 71.7773 61.4579 71.7773 61.4925 71.7773C61.5271 71.7773 61.5618 71.7773 61.5965 71.7773C61.6313 71.7773 61.6661 71.7773 61.701 71.7773C61.736 71.7773 61.771 71.7773 61.8061 71.7773C61.8412 71.7773 61.8764 71.7773 61.9117 71.7773C61.947 71.7773 61.9823 71.7773 62.0178 71.7773C62.0532 71.7773 62.0888 71.7773 62.1244 71.7773C62.16 71.7773 62.1957 71.7773 62.2316 71.7773C62.2674 71.7773 62.3033 71.7773 62.3392 71.7773C62.3752 71.7773 62.4113 71.7773 62.4474 71.7773C62.4836 71.7773 62.5198 71.7773 62.5562 71.7773C62.5925 71.7773 62.6289 71.7773 62.6654 71.7773C62.702 71.7773 62.7386 71.7773 62.7752 71.7773C62.8119 71.7773 62.8487 71.7773 62.8856 71.7773C62.9224 71.7773 62.9594 71.7773 62.9964 71.7773C63.0335 71.7773 63.0706 71.7773 63.1078 71.7773C63.1451 71.7773 63.1824 71.7773 63.2198 71.7773C63.2572 71.7773 63.2947 71.7773 63.3322 71.7773C63.3698 71.7773 63.4075 71.7773 63.4453 71.7773C63.483 71.7773 63.5209 71.7773 63.5588 71.7773C63.5967 71.7773 63.6348 71.7773 63.6729 71.7773C63.711 71.7773 63.7492 71.7773 63.7875 71.7773C63.8258 71.7773 63.8642 71.7773 63.9027 71.7773C63.9411 71.7773 63.9797 71.7773 64.0184 71.7773C64.057 71.7773 64.0958 71.7773 64.1346 71.7773C64.1735 71.7773 64.2124 71.7773 64.2514 71.7773C64.2904 71.7773 64.3295 71.7773 64.3687 71.7773C64.4079 71.7773 64.4472 71.7773 64.4866 71.7773C64.526 71.7773 64.5655 71.7773 64.605 71.7773C64.6446 71.7773 64.6843 71.7773 64.724 71.7773C64.7638 71.7773 64.8036 71.7773 64.8435 71.7773C64.8835 71.7773 64.9235 71.7773 64.9636 71.7773C65.0037 71.7773 65.0439 71.7773 65.0842 71.7773C65.1245 71.7773 65.1649 71.7773 65.2054 71.7773C65.2459 71.7773 65.2865 71.7773 65.3271 71.7773C65.3678 71.7773 65.4085 71.7773 65.4494 71.7773C65.4902 71.7773 65.5312 71.7773 65.5722 71.7773C65.6133 71.7773 65.6544 71.7773 65.6956 71.7773C65.7368 71.7773 65.7781 71.7773 65.8195 71.7773C65.8609 71.7773 65.9024 71.7773 65.944 71.7773C65.9856 71.7773 66.0273 71.7773 66.0691 71.7773C66.1109 71.7773 66.1527 71.7773 66.1947 71.7773C66.2367 71.7773 66.2787 71.7773 66.3209 71.7773C66.363 71.7773 66.4053 71.7773 66.4476 71.7773C66.4899 71.7773 66.5324 71.7773 66.5749 71.7773C66.6174 71.7773 66.66 71.7773 66.7027 71.7773C66.7454 71.7773 66.7882 71.7773 66.8311 71.7773C66.874 71.7773 66.917 71.7773 66.9601 71.7773C67.0032 71.7773 67.0464 71.7773 67.0897 71.7773C67.1329 71.7773 67.1763 71.7773 67.2198 71.7773C67.2632 71.7773 67.3068 71.7773 67.3504 71.7773C67.3941 71.7773 67.4378 71.7773 67.4817 71.7773C67.5255 71.7773 67.5695 71.7773 67.6135 71.7773C67.6575 71.7773 67.7017 71.7773 67.7459 71.7773C67.7901 71.7773 67.8344 71.7773 67.8788 71.7773C67.9232 71.7773 67.9677 71.7773 68.0123 71.7773C68.0569 71.7773 68.1016 71.7773 68.1464 71.7773C68.1912 71.7773 68.2361 71.7773 68.2811 71.7773C68.3261 71.7773 68.3712 71.7773 68.4163 71.7773C68.4615 71.7773 68.5068 71.7773 68.5522 71.7773C68.5975 71.7773 68.643 71.7773 68.6885 71.7773C68.7341 71.7773 68.7798 71.7773 68.8255 71.7773C68.8713 71.7773 68.9171 71.7773 68.9631 71.7773C69.009 71.7773 69.055 71.7773 69.1012 71.7773C69.1473 71.7773 69.1935 71.7773 69.2399 71.7773C69.2862 71.7773 69.3326 71.7773 69.3792 71.7773C69.4257 71.7773 69.4723 71.7773 69.519 71.7773C69.5657 71.7773 69.6125 71.7773 69.6595 71.7773C69.7064 71.7773 69.7534 71.7773 69.8005 71.7773C69.8476 71.7773 69.8948 71.7773 69.9421 71.7773C69.9894 71.7773 70.0368 71.7773 70.0843 71.7773C70.1318 71.7773 70.1794 71.7773 70.2271 71.7773C70.2748 71.7773 70.3226 71.7773 70.3705 71.7773C70.4183 71.7773 70.4663 71.7773 70.5144 71.7773C70.5625 71.7773 70.6107 71.7773 70.659 71.7773C70.7072 71.7773 70.7556 71.7773 70.8041 71.7773C70.8526 71.7773 70.9011 71.7773 70.9498 71.7773C70.9985 71.7773 71.0473 71.7773 71.0961 71.7773C71.145 71.7773 71.194 71.7773 71.243 71.7773C71.2921 71.7773 71.3413 71.7773 71.3906 71.7773C71.4398 71.7773 71.4892 71.7773 71.5387 71.7773C71.5881 71.7773 71.6377 71.7773 71.6873 71.7773C71.737 71.7773 71.7868 71.7773 71.8366 71.7773C71.8865 71.7773 71.9365 71.7773 71.9865 71.7773C72.0366 71.7773 72.0867 71.7773 72.137 71.7773C72.1873 71.7773 72.2376 71.7773 72.2881 71.7773C72.3385 71.7773 72.3891 71.7773 72.4398 71.7773C72.4904 71.7773 72.5412 71.7773 72.592 71.7773C72.6429 71.7773 72.6939 71.7773 72.7449 71.7773C72.796 71.7773 72.8472 71.7773 72.8984 71.7773C72.9497 71.7773 73.0011 71.7773 73.0525 71.7773C73.104 71.7773 73.1555 71.7773 73.2072 71.7773C73.2589 71.7773 73.3106 71.7773 73.3625 71.7773C73.4144 71.7773 73.4663 71.7773 73.5184 71.7773C73.5705 71.7773 73.6227 71.7773 73.6749 71.7773C73.7272 71.7773 73.7796 71.7773 73.8321 71.7773C73.8845 71.7773 73.9371 71.7773 73.9898 71.7773C74.0425 71.7773 74.0952 71.7773 74.1481 71.7773C74.201 71.7773 74.254 71.7773 74.3071 71.7773C74.3602 71.7773 74.4134 71.7773 74.4666 71.7773C74.5199 71.7773 74.5733 71.7773 74.6268 71.7773C74.6803 71.7773 74.7339 71.7773 74.7876 71.7773C74.8413 71.7773 74.8951 71.7773 74.949 71.7773C75.0029 71.7773 75.0569 71.7773 75.111 71.7773C75.1651 71.7773 75.2194 71.7773 75.2737 71.7773C75.328 71.7773 75.3824 71.7773 75.4369 71.7773C75.4914 71.7773 75.5461 71.7773 75.6008 71.7773C75.6555 71.7773 75.7104 71.7773 75.7653 71.7773C75.8202 71.7773 75.8753 71.7773 75.9304 71.7773C75.9855 71.7773 76.0408 71.7773 76.0961 71.7773C76.1515 71.7773 76.2069 71.7773 76.2625 71.7773C76.318 71.7773 76.3737 71.7773 76.4295 71.7773C76.4852 71.7773 76.5411 71.7773 76.5971 71.7773C76.653 71.7773 76.7091 71.7773 76.7653 71.7773C76.8215 71.7773 76.8778 71.7773 76.9341 71.7773C76.9905 71.7773 77.047 71.7773 77.1036 71.7773C77.1602 71.7773 77.2169 71.7773 77.2737 71.7773C77.3305 71.7773 77.3874 71.7773 77.4445 71.7773C77.5015 71.7773 77.5586 71.7773 77.6158 71.7773C77.673 71.7773 77.7304 71.7773 77.7878 71.7773C77.8453 71.7773 77.9028 71.7773 77.9604 71.7773C78.0181 71.7773 78.0758 71.7773 78.1337 71.7773C78.1916 71.7773 78.2495 71.7773 78.3076 71.7773C78.3657 71.7773 78.4238 71.7773 78.4821 71.7773C78.5404 71.7773 78.5988 71.7773 78.6573 71.7773C78.7158 71.7773 78.7744 71.7773 78.8331 71.7773C78.8918 71.7773 78.9506 71.7773 79.0095 71.7773C79.0684 71.7773 79.1274 71.7773 79.1866 71.7773C79.2457 71.7773 79.3049 71.7773 79.3643 71.7773C79.4236 71.7773 79.4831 71.7773 79.5426 71.7773C79.6022 71.7773 79.6618 71.7773 79.7216 71.7773C79.7814 71.7773 79.8413 71.7773 79.9012 71.7773C79.9612 71.7773 80.0213 71.7773 80.0815 71.7773C80.1417 71.7773 80.202 71.7773 80.2624 71.7773C80.3228 71.7773 80.3834 71.7773 80.444 71.7773C80.5046 71.7773 80.5654 71.7773 80.6262 71.7773C80.687 71.7773 80.748 71.7773 80.809 71.7773C80.8701 71.7773 80.9313 71.7773 80.9925 71.7773C81.0538 71.7773 81.1152 71.7773 81.1767 71.7773C81.2382 71.7773 81.2998 71.7773 81.3615 71.7773C81.4232 71.7773 81.485 71.7773 81.5469 71.7773C81.6088 71.7773 81.6709 71.7773 81.733 71.7773C81.7952 71.7773 81.8574 71.7773 81.9198 71.7773C81.9821 71.7773 82.0446 71.7773 82.1072 71.7773C82.1697 71.7773 82.2324 71.7773 82.2952 71.7773C82.358 71.7773 82.4209 71.7773 82.4839 71.7773C82.5469 71.7773 82.6101 71.7773 82.6733 71.7773C82.7365 71.7773 82.7999 71.7773 82.8633 71.7773C82.9268 71.7773 82.9903 71.7773 83.054 71.7773C83.1176 71.7773 83.1814 71.7773 83.2453 71.7773C83.3092 71.7773 83.3732 71.7773 83.4373 71.7773C83.5014 71.7773 83.5656 71.7773 83.63 71.7773C83.6943 71.7773 83.7587 71.7773 83.8233 71.7773C83.8878 71.7773 83.9525 71.7773 84.0172 71.7773C84.082 71.7773 84.1469 71.7773 84.2119 71.7773C84.2769 71.7773 84.342 71.7773 84.4072 71.7773C84.4724 71.7773 84.5377 71.7773 84.6031 71.7773C84.6686 71.7773 84.7341 71.7773 84.7998 71.7773C84.8654 71.7773 84.9312 71.7773 84.9971 71.7773C85.063 71.7773 85.1289 71.7773 85.195 71.7773C85.2611 71.7773 85.3274 71.7773 85.3937 71.7773C85.46 71.7773 85.5264 71.7773 85.593 71.7773C85.6595 71.7773 85.7262 71.7773 85.7929 71.7773C85.8597 71.7773 85.9266 71.7773 85.9936 71.7773C86.0606 71.7773 86.1277 71.7773 86.1949 71.7773C86.2621 71.7773 86.3295 71.7773 86.3969 71.7773C86.4643 71.7773 86.5319 71.7773 86.5996 71.7773C86.6672 71.7773 86.735 71.7773 86.8029 71.7773C86.8708 71.7773 86.9388 71.7773 87.0069 71.7773C87.075 71.7773 87.1432 71.7773 87.2116 71.7773C87.2799 71.7773 87.3484 71.7773 87.417 71.7773C87.4855 71.7773 87.5542 71.7773 87.623 71.7773C87.6918 71.7773 87.7607 71.7773 87.8297 71.7773C87.8988 71.7773 87.9679 71.7773 88.0371 71.7773C88.1064 71.7773 88.1757 71.7773 88.2452 71.7773C88.3147 71.7773 88.3843 71.7773 88.454 71.7773C88.5237 71.7773 88.5935 71.7773 88.6634 71.7773C88.7334 71.7773 88.8034 71.7773 88.8736 71.7773C88.9437 71.7773 89.014 71.7773 89.0844 71.7773C89.1548 71.7773 89.2253 71.7773 89.2959 71.7773C89.3665 71.7773 89.4372 71.7773 89.5081 71.7773C89.5789 71.7773 89.6499 71.7773 89.721 71.7773C89.792 71.7773 89.8632 71.7773 89.9345 71.7773C90.0058 71.7773 90.0773 71.7773 90.1488 71.7773C90.2203 71.7773 90.292 71.7773 90.3637 71.7773C90.4355 71.7773 90.5074 71.7773 90.5794 71.7773C90.6514 71.7773 90.7235 71.7773 90.7957 71.7773C90.8679 71.7773 90.9403 71.7773 91.0127 71.7773C91.0852 71.7773 91.1578 71.7773 91.2305 71.7773C91.3032 71.7773 91.376 71.7773 91.4489 71.7773C91.5218 71.7773 91.5948 71.7773 91.668 71.7773C91.7411 71.7773 91.8144 71.7773 91.8878 71.7773C91.9612 71.7773 92.0347 71.7773 92.1083 71.7773C92.1819 71.7773 92.2557 71.7773 92.3295 71.7773C92.4034 71.7773 92.4773 71.7773 92.5514 71.7773C92.6255 71.7773 92.6997 71.7773 92.774 71.7773C92.8483 71.7773 92.9228 71.7773 92.9973 71.7773C93.0719 71.7773 93.1465 71.7773 93.2213 71.7773C93.2961 71.7773 93.371 71.7773 93.446 71.7773C93.5211 71.7773 93.5962 71.7773 93.6715 71.7773C93.7467 71.7773 93.8221 71.7773 93.8976 71.7773C93.9731 71.7773 94.0487 71.7773 94.1244 71.7773C94.2001 71.7773 94.276 71.7773 94.3519 71.7773C94.4279 71.7773 94.504 71.7773 94.5802 71.7773C94.6564 71.7773 94.7327 71.7773 94.8091 71.7773C94.8856 71.7773 94.9621 71.7773 95.0388 71.7773C95.1155 71.7773 95.1923 71.7773 95.2692 71.7773C95.3461 71.7773 95.4231 71.7773 95.5003 71.7773C95.5774 71.7773 95.6547 71.7773 95.732 71.7773C95.8094 71.7773 95.8869 71.7773 95.9646 71.7773C96.0422 71.7773 96.1199 71.7773 96.1978 71.7773C96.2757 71.7773 96.3536 71.7773 96.4317 71.7773C96.5098 71.7773 96.588 71.7773 96.6664 71.7773C96.7447 71.7773 96.8232 71.7773 96.9018 71.7773C96.9803 71.7773 97.059 71.7773 97.1378 71.7773C97.2167 71.7773 97.2956 71.7773 97.3747 71.7773C97.4537 71.7773 97.5329 71.7773 97.6122 71.7773C97.6915 71.7773 97.7709 71.7773 97.8504 71.7773C97.93 71.7773 98.0096 71.7773 98.0894 71.7773C98.1692 71.7773 98.2491 71.7773 98.3291 71.7773C98.4091 71.7773 98.4893 71.7773 98.5695 71.7773C98.6498 71.7773 98.7302 71.7773 98.8107 71.7773C98.8912 71.7773 98.9718 71.7773 99.0526 71.7773C99.1333 71.7773 99.2142 71.7773 99.2952 71.7773C99.3761 71.7773 99.4572 71.7773 99.5385 71.7773C99.6197 71.7773 99.7011 71.7773 99.7825 71.7773C99.864 71.7773 99.9456 71.7773 100.027 71.7773C100.109 71.7773 100.191 71.7773 100.273 71.7773C100.355 71.7773 100.437 71.7773 100.519 71.7773C100.601 71.7773 100.684 71.7773 100.766 71.7773C100.848 71.7773 100.931 71.7773 101.014 71.7773C101.096 71.7773 101.179 71.7773 101.262 71.7773C101.345 71.7773 101.428 71.7773 101.511 71.7773C101.595 71.7773 101.678 71.7773 101.761 71.7773C101.845 71.7773 101.928 71.7773 102.012 71.7773C102.096 71.7773 102.179 71.7773 102.263 71.7773C102.347 71.7773 102.431 71.7773 102.515 71.7773C102.6 71.7773 102.684 71.7773 102.768 71.7773C102.853 71.7773 102.937 71.7773 103.022 71.7773C103.107 71.7773 103.191 71.7773 103.276 71.7773C103.361 71.7773 103.446 71.7773 103.531 71.7773C103.617 71.7773 103.702 71.7773 103.787 71.7773C103.873 71.7773 103.958 71.7773 104.044 71.7773C104.129 71.7773 104.215 71.7773 104.301 71.7773C104.387 71.7773 104.473 71.7773 104.559 71.7773C104.645 71.7773 104.732 71.7773 104.818 71.7773C104.904 71.7773 104.991 71.7773 105.078 71.7773C105.164 71.7773 105.251 71.7773 105.338 71.7773C105.425 71.7773 105.512 71.7773 105.599 71.7773C105.686 71.7773 105.773 71.7773 105.861 71.7773C105.948 71.7773 106.036 71.7773 106.123 71.7773C106.211 71.7773 106.299 71.7773 106.387 71.7773C106.475 71.7773 106.563 71.7773 106.651 71.7773C106.739 71.7773 106.827 71.7773 106.916 71.7773C107.004 71.7773 107.092 71.7773 107.181 71.7773C107.27 71.7773 107.359 71.7773 107.447 71.7773C107.536 71.7773 107.625 71.7773 107.715 71.7773C107.804 71.7773 107.893 71.7773 107.982 71.7773C108.072 71.7773 108.161 71.7773 108.251 71.7773C108.341 71.7773 108.43 71.7773 108.52 71.7773C108.61 71.7773 108.7 71.7773 108.79 71.7773C108.881 71.7773 108.971 71.7773 109.061 71.7773C109.152 71.7773 109.242 71.7773 109.333 71.7773C109.424 71.7773 109.515 71.7773 109.605 71.7773C109.696 71.7773 109.787 71.7773 109.879 71.7773C109.97 71.7773 110.061 71.7773 110.153 71.7773C110.244 71.7773 110.336 71.7773 110.427 71.7773C110.519 71.7773 110.611 71.7773 110.703 71.7773C110.795 71.7773 110.887 71.7773 110.979 71.7773C111.071 71.7773 111.164 71.7773 111.256 71.7773C111.349 71.7773 111.441 71.7773 111.534 71.7773C111.627 71.7773 111.719 71.7773 111.812 71.7773C111.905 71.7773 111.998 71.7773 112.092 71.7773C112.185 71.7773 112.278 71.7773 112.372 71.7773C112.465 71.7773 112.559 71.7773 112.653 71.7773C112.746 71.7773 112.84 71.7773 112.934 71.7773C113.028 71.7773 113.123 71.7773 113.217 71.7773C113.311 71.7773 113.405 71.7773 113.5 71.7773V68.7773ZM51 70.2773V9.27734H48V70.2773H51ZM49.5 7.77734H13.5V10.7773H49.5V7.77734Z" fill="#34D186"/>
</svg>
