<svg width="430" height="57" viewBox="0 0 430 57" fill="none" xmlns="http://www.w3.org/2000/svg">
<path d="M421.333 1.85352H422.833V0.353516H421.333V1.85352ZM421.333 56.8535L429.993 41.8535H412.673L421.333 56.8535ZM0.833252 3.35352C1.1856 3.35352 1.53792 3.35352 1.89022 3.35352C2.24252 3.35352 2.59481 3.35352 2.94707 3.35352C3.29933 3.35352 3.65156 3.35352 4.00378 3.35352C4.35599 3.35352 4.70819 3.35352 5.06036 3.35352C5.41253 3.35352 5.76467 3.35352 6.11679 3.35352C6.46892 3.35352 6.82101 3.35352 7.17309 3.35352C7.52516 3.35352 7.87721 3.35352 8.22923 3.35352C8.58125 3.35352 8.93325 3.35352 9.28522 3.35352C9.63719 3.35352 9.98913 3.35352 10.3411 3.35352C10.693 3.35352 11.0449 3.35352 11.3967 3.35352C11.7486 3.35352 12.1004 3.35352 12.4522 3.35352C12.804 3.35352 13.1558 3.35352 13.5075 3.35352C13.8593 3.35352 14.211 3.35352 14.5627 3.35352C14.9144 3.35352 15.266 3.35352 15.6177 3.35352C15.9693 3.35352 16.3209 3.35352 16.6724 3.35352C17.024 3.35352 17.3755 3.35352 17.727 3.35352C18.0785 3.35352 18.43 3.35352 18.7814 3.35352C19.1328 3.35352 19.4842 3.35352 19.8356 3.35352C20.187 3.35352 20.5383 3.35352 20.8896 3.35352C21.2409 3.35352 21.5921 3.35352 21.9434 3.35352C22.2946 3.35352 22.6458 3.35352 22.9969 3.35352C23.3481 3.35352 23.6992 3.35352 24.0503 3.35352C24.4013 3.35352 24.7524 3.35352 25.1034 3.35352C25.4544 3.35352 25.8053 3.35352 26.1563 3.35352C26.5072 3.35352 26.8581 3.35352 27.2089 3.35352C27.5598 3.35352 27.9106 3.35352 28.2613 3.35352C28.6121 3.35352 28.9628 3.35352 29.3135 3.35352C29.6642 3.35352 30.0148 3.35352 30.3654 3.35352C30.716 3.35352 31.0666 3.35352 31.4171 3.35352C31.7676 3.35352 32.1181 3.35352 32.4685 3.35352C32.8189 3.35352 33.1693 3.35352 33.5197 3.35352C33.87 3.35352 34.2203 3.35352 34.5706 3.35352C34.9208 3.35352 35.271 3.35352 35.6212 3.35352C35.9713 3.35352 36.3214 3.35352 36.6715 3.35352C37.0216 3.35352 37.3716 3.35352 37.7216 3.35352C38.0715 3.35352 38.4215 3.35352 38.7713 3.35352C39.1212 3.35352 39.471 3.35352 39.8208 3.35352C40.1706 3.35352 40.5203 3.35352 40.87 3.35352C41.2197 3.35352 41.5693 3.35352 41.9189 3.35352C42.2685 3.35352 42.618 3.35352 42.9675 3.35352C43.317 3.35352 43.6664 3.35352 44.0158 3.35352C44.3651 3.35352 44.7145 3.35352 45.0637 3.35352C45.413 3.35352 45.7622 3.35352 46.1114 3.35352C46.4605 3.35352 46.8096 3.35352 47.1587 3.35352C47.5077 3.35352 47.8567 3.35352 48.2057 3.35352C48.5546 3.35352 48.9035 3.35352 49.2523 3.35352C49.6012 3.35352 49.95 3.35352 50.2987 3.35352C50.6474 3.35352 50.996 3.35352 51.3447 3.35352C51.6933 3.35352 52.0418 3.35352 52.3903 3.35352C52.7388 3.35352 53.0872 3.35352 53.4356 3.35352C53.7839 3.35352 54.1323 3.35352 54.4805 3.35352C54.8288 3.35352 55.1769 3.35352 55.5251 3.35352C55.8732 3.35352 56.2213 3.35352 56.5693 3.35352C56.9173 3.35352 57.2652 3.35352 57.6131 3.35352C57.961 3.35352 58.3088 3.35352 58.6566 3.35352C59.0043 3.35352 59.352 3.35352 59.6997 3.35352C60.0473 3.35352 60.3949 3.35352 60.7424 3.35352C61.0899 3.35352 61.4373 3.35352 61.7847 3.35352C62.132 3.35352 62.4794 3.35352 62.8266 3.35352C63.1738 3.35352 63.521 3.35352 63.8681 3.35352C64.2152 3.35352 64.5623 3.35352 64.9092 3.35352C65.2562 3.35352 65.6031 3.35352 65.9499 3.35352C66.2968 3.35352 66.6435 3.35352 66.9902 3.35352C67.3369 3.35352 67.6836 3.35352 68.0301 3.35352C68.3767 3.35352 68.7232 3.35352 69.0696 3.35352C69.416 3.35352 69.7624 3.35352 70.1086 3.35352C70.4549 3.35352 70.8011 3.35352 71.1472 3.35352C71.4934 3.35352 71.8394 3.35352 72.1854 3.35352C72.5314 3.35352 72.8773 3.35352 73.2231 3.35352C73.569 3.35352 73.9147 3.35352 74.2604 3.35352C74.6061 3.35352 74.9517 3.35352 75.2972 3.35352C75.6428 3.35352 75.9883 3.35352 76.3336 3.35352C76.679 3.35352 77.0243 3.35352 77.3696 3.35352C77.7148 3.35352 78.0599 3.35352 78.405 3.35352C78.7501 3.35352 79.0951 3.35352 79.44 3.35352C79.7849 3.35352 80.1298 3.35352 80.4745 3.35352C80.8193 3.35352 81.164 3.35352 81.5086 3.35352C81.8532 3.35352 82.1977 3.35352 82.5421 3.35352C82.8866 3.35352 83.2309 3.35352 83.5752 3.35352C83.9195 3.35352 84.2637 3.35352 84.6078 3.35352C84.9519 3.35352 85.2959 3.35352 85.6399 3.35352C85.9838 3.35352 86.3277 3.35352 86.6715 3.35352C87.0152 3.35352 87.3589 3.35352 87.7025 3.35352C88.0461 3.35352 88.3897 3.35352 88.7331 3.35352C89.0765 3.35352 89.4199 3.35352 89.7632 3.35352C90.1064 3.35352 90.4496 3.35352 90.7927 3.35352C91.1358 3.35352 91.4788 3.35352 91.8217 3.35352C92.1646 3.35352 92.5075 3.35352 92.8502 3.35352C93.1929 3.35352 93.5356 3.35352 93.8781 3.35352C94.2207 3.35352 94.5632 3.35352 94.9055 3.35352C95.2479 3.35352 95.5902 3.35352 95.9324 3.35352C96.2746 3.35352 96.6167 3.35352 96.9587 3.35352C97.3008 3.35352 97.6427 3.35352 97.9845 3.35352C98.3263 3.35352 98.6681 3.35352 99.0097 3.35352C99.3514 3.35352 99.6929 3.35352 100.034 3.35352C100.376 3.35352 100.717 3.35352 101.058 3.35352C101.4 3.35352 101.741 3.35352 102.082 3.35352C102.423 3.35352 102.764 3.35352 103.105 3.35352C103.446 3.35352 103.787 3.35352 104.127 3.35352C104.468 3.35352 104.809 3.35352 105.149 3.35352C105.49 3.35352 105.83 3.35352 106.17 3.35352C106.51 3.35352 106.851 3.35352 107.191 3.35352C107.531 3.35352 107.871 3.35352 108.211 3.35352C108.551 3.35352 108.89 3.35352 109.23 3.35352C109.57 3.35352 109.909 3.35352 110.249 3.35352C110.588 3.35352 110.928 3.35352 111.267 3.35352C111.606 3.35352 111.946 3.35352 112.285 3.35352C112.624 3.35352 112.963 3.35352 113.302 3.35352C113.64 3.35352 113.979 3.35352 114.318 3.35352C114.657 3.35352 114.995 3.35352 115.334 3.35352C115.672 3.35352 116.01 3.35352 116.349 3.35352C116.687 3.35352 117.025 3.35352 117.363 3.35352C117.701 3.35352 118.039 3.35352 118.377 3.35352C118.714 3.35352 119.052 3.35352 119.39 3.35352C119.727 3.35352 120.065 3.35352 120.402 3.35352C120.74 3.35352 121.077 3.35352 121.414 3.35352C121.751 3.35352 122.088 3.35352 122.425 3.35352C122.762 3.35352 123.099 3.35352 123.435 3.35352C123.772 3.35352 124.109 3.35352 124.445 3.35352C124.782 3.35352 125.118 3.35352 125.454 3.35352C125.791 3.35352 126.127 3.35352 126.463 3.35352C126.799 3.35352 127.135 3.35352 127.47 3.35352C127.806 3.35352 128.142 3.35352 128.477 3.35352C128.813 3.35352 129.148 3.35352 129.484 3.35352C129.819 3.35352 130.154 3.35352 130.489 3.35352C130.824 3.35352 131.159 3.35352 131.494 3.35352C131.829 3.35352 132.164 3.35352 132.499 3.35352C132.833 3.35352 133.168 3.35352 133.502 3.35352C133.836 3.35352 134.171 3.35352 134.505 3.35352C134.839 3.35352 135.173 3.35352 135.507 3.35352C135.841 3.35352 136.174 3.35352 136.508 3.35352C136.842 3.35352 137.175 3.35352 137.509 3.35352C137.842 3.35352 138.175 3.35352 138.509 3.35352C138.842 3.35352 139.175 3.35352 139.508 3.35352C139.841 3.35352 140.173 3.35352 140.506 3.35352C140.839 3.35352 141.171 3.35352 141.504 3.35352C141.836 3.35352 142.168 3.35352 142.5 3.35352C142.833 3.35352 143.165 3.35352 143.496 3.35352C143.828 3.35352 144.16 3.35352 144.492 3.35352C144.823 3.35352 145.155 3.35352 145.486 3.35352C145.818 3.35352 146.149 3.35352 146.48 3.35352C146.811 3.35352 147.142 3.35352 147.473 3.35352C147.804 3.35352 148.135 3.35352 148.465 3.35352C148.796 3.35352 149.126 3.35352 149.457 3.35352C149.787 3.35352 150.117 3.35352 150.447 3.35352C150.777 3.35352 151.107 3.35352 151.437 3.35352C151.767 3.35352 152.096 3.35352 152.426 3.35352C152.755 3.35352 153.085 3.35352 153.414 3.35352C153.743 3.35352 154.072 3.35352 154.401 3.35352C154.73 3.35352 155.059 3.35352 155.388 3.35352C155.717 3.35352 156.045 3.35352 156.374 3.35352C156.702 3.35352 157.03 3.35352 157.359 3.35352C157.687 3.35352 158.015 3.35352 158.343 3.35352C158.671 3.35352 158.998 3.35352 159.326 3.35352C159.653 3.35352 159.981 3.35352 160.308 3.35352C160.636 3.35352 160.963 3.35352 161.29 3.35352C161.617 3.35352 161.944 3.35352 162.27 3.35352C162.597 3.35352 162.924 3.35352 163.25 3.35352C163.577 3.35352 163.903 3.35352 164.229 3.35352C164.555 3.35352 164.881 3.35352 165.207 3.35352C165.533 3.35352 165.859 3.35352 166.184 3.35352C166.51 3.35352 166.836 3.35352 167.161 3.35352C167.486 3.35352 167.811 3.35352 168.136 3.35352C168.461 3.35352 168.786 3.35352 169.111 3.35352C169.436 3.35352 169.76 3.35352 170.085 3.35352C170.409 3.35352 170.733 3.35352 171.057 3.35352C171.381 3.35352 171.705 3.35352 172.029 3.35352C172.353 3.35352 172.677 3.35352 173 3.35352C173.324 3.35352 173.647 3.35352 173.97 3.35352C174.294 3.35352 174.617 3.35352 174.939 3.35352C175.262 3.35352 175.585 3.35352 175.908 3.35352C176.23 3.35352 176.553 3.35352 176.875 3.35352C177.197 3.35352 177.52 3.35352 177.841 3.35352C178.163 3.35352 178.485 3.35352 178.807 3.35352C179.129 3.35352 179.45 3.35352 179.771 3.35352C180.093 3.35352 180.414 3.35352 180.735 3.35352C181.056 3.35352 181.377 3.35352 181.698 3.35352C182.018 3.35352 182.339 3.35352 182.659 3.35352C182.98 3.35352 183.3 3.35352 183.62 3.35352C183.94 3.35352 184.26 3.35352 184.58 3.35352C184.9 3.35352 185.219 3.35352 185.539 3.35352C185.858 3.35352 186.177 3.35352 186.497 3.35352C186.816 3.35352 187.135 3.35352 187.453 3.35352C187.772 3.35352 188.091 3.35352 188.409 3.35352C188.728 3.35352 189.046 3.35352 189.364 3.35352C189.682 3.35352 190 3.35352 190.318 3.35352C190.636 3.35352 190.954 3.35352 191.271 3.35352C191.589 3.35352 191.906 3.35352 192.223 3.35352C192.54 3.35352 192.857 3.35352 193.174 3.35352C193.491 3.35352 193.807 3.35352 194.124 3.35352C194.44 3.35352 194.757 3.35352 195.073 3.35352C195.389 3.35352 195.705 3.35352 196.021 3.35352C196.337 3.35352 196.652 3.35352 196.968 3.35352C197.283 3.35352 197.598 3.35352 197.913 3.35352C198.229 3.35352 198.544 3.35352 198.858 3.35352C199.173 3.35352 199.488 3.35352 199.802 3.35352C200.117 3.35352 200.431 3.35352 200.745 3.35352C201.059 3.35352 201.373 3.35352 201.687 3.35352C202 3.35352 202.314 3.35352 202.627 3.35352C202.941 3.35352 203.254 3.35352 203.567 3.35352C203.88 3.35352 204.193 3.35352 204.505 3.35352C204.818 3.35352 205.13 3.35352 205.443 3.35352C205.755 3.35352 206.067 3.35352 206.379 3.35352C206.691 3.35352 207.003 3.35352 207.315 3.35352C207.626 3.35352 207.938 3.35352 208.249 3.35352C208.56 3.35352 208.871 3.35352 209.182 3.35352C209.493 3.35352 209.804 3.35352 210.114 3.35352C210.425 3.35352 210.735 3.35352 211.045 3.35352C211.355 3.35352 211.665 3.35352 211.975 3.35352C212.285 3.35352 212.594 3.35352 212.904 3.35352C213.213 3.35352 213.522 3.35352 213.831 3.35352C214.141 3.35352 214.449 3.35352 214.758 3.35352C215.067 3.35352 215.375 3.35352 215.684 3.35352C215.992 3.35352 216.3 3.35352 216.608 3.35352C216.916 3.35352 217.224 3.35352 217.531 3.35352C217.839 3.35352 218.146 3.35352 218.453 3.35352C218.76 3.35352 219.067 3.35352 219.374 3.35352C219.681 3.35352 219.988 3.35352 220.294 3.35352C220.6 3.35352 220.907 3.35352 221.213 3.35352C221.519 3.35352 221.825 3.35352 222.13 3.35352C222.436 3.35352 222.741 3.35352 223.047 3.35352C223.352 3.35352 223.657 3.35352 223.962 3.35352C224.267 3.35352 224.572 3.35352 224.876 3.35352C225.18 3.35352 225.485 3.35352 225.789 3.35352C226.093 3.35352 226.397 3.35352 226.701 3.35352C227.004 3.35352 227.308 3.35352 227.611 3.35352C227.915 3.35352 228.218 3.35352 228.521 3.35352C228.824 3.35352 229.126 3.35352 229.429 3.35352C229.731 3.35352 230.034 3.35352 230.336 3.35352C230.638 3.35352 230.94 3.35352 231.242 3.35352C231.543 3.35352 231.845 3.35352 232.146 3.35352C232.448 3.35352 232.749 3.35352 233.05 3.35352C233.351 3.35352 233.651 3.35352 233.952 3.35352C234.252 3.35352 234.553 3.35352 234.853 3.35352C235.153 3.35352 235.453 3.35352 235.753 3.35352C236.052 3.35352 236.352 3.35352 236.651 3.35352C236.95 3.35352 237.25 3.35352 237.548 3.35352C237.847 3.35352 238.146 3.35352 238.445 3.35352C238.743 3.35352 239.041 3.35352 239.339 3.35352C239.637 3.35352 239.935 3.35352 240.233 3.35352C240.531 3.35352 240.828 3.35352 241.125 3.35352C241.423 3.35352 241.72 3.35352 242.017 3.35352C242.313 3.35352 242.61 3.35352 242.906 3.35352C243.203 3.35352 243.499 3.35352 243.795 3.35352C244.091 3.35352 244.387 3.35352 244.682 3.35352C244.978 3.35352 245.273 3.35352 245.568 3.35352C245.864 3.35352 246.158 3.35352 246.453 3.35352C246.748 3.35352 247.042 3.35352 247.337 3.35352C247.631 3.35352 247.925 3.35352 248.219 3.35352C248.513 3.35352 248.806 3.35352 249.1 3.35352C249.393 3.35352 249.687 3.35352 249.98 3.35352C250.273 3.35352 250.565 3.35352 250.858 3.35352C251.15 3.35352 251.443 3.35352 251.735 3.35352C252.027 3.35352 252.319 3.35352 252.611 3.35352C252.902 3.35352 253.194 3.35352 253.485 3.35352C253.776 3.35352 254.067 3.35352 254.358 3.35352C254.649 3.35352 254.94 3.35352 255.23 3.35352C255.52 3.35352 255.811 3.35352 256.101 3.35352C256.39 3.35352 256.68 3.35352 256.97 3.35352C257.259 3.35352 257.548 3.35352 257.837 3.35352C258.127 3.35352 258.415 3.35352 258.704 3.35352C258.993 3.35352 259.281 3.35352 259.569 3.35352C259.857 3.35352 260.145 3.35352 260.433 3.35352C260.721 3.35352 261.008 3.35352 261.295 3.35352C261.583 3.35352 261.87 3.35352 262.156 3.35352C262.443 3.35352 262.73 3.35352 263.016 3.35352C263.302 3.35352 263.589 3.35352 263.874 3.35352C264.16 3.35352 264.446 3.35352 264.731 3.35352C265.017 3.35352 265.302 3.35352 265.587 3.35352C265.872 3.35352 266.157 3.35352 266.441 3.35352C266.726 3.35352 267.01 3.35352 267.294 3.35352C267.578 3.35352 267.862 3.35352 268.145 3.35352C268.429 3.35352 268.712 3.35352 268.995 3.35352C269.279 3.35352 269.561 3.35352 269.844 3.35352C270.127 3.35352 270.409 3.35352 270.691 3.35352C270.973 3.35352 271.255 3.35352 271.537 3.35352C271.819 3.35352 272.1 3.35352 272.382 3.35352C272.663 3.35352 272.944 3.35352 273.224 3.35352C273.505 3.35352 273.786 3.35352 274.066 3.35352C274.346 3.35352 274.626 3.35352 274.906 3.35352C275.186 3.35352 275.466 3.35352 275.745 3.35352C276.024 3.35352 276.303 3.35352 276.582 3.35352C276.861 3.35352 277.14 3.35352 277.418 3.35352C277.696 3.35352 277.974 3.35352 278.252 3.35352C278.53 3.35352 278.808 3.35352 279.085 3.35352C279.363 3.35352 279.64 3.35352 279.917 3.35352C280.194 3.35352 280.47 3.35352 280.747 3.35352C281.023 3.35352 281.299 3.35352 281.575 3.35352C281.851 3.35352 282.127 3.35352 282.402 3.35352C282.678 3.35352 282.953 3.35352 283.228 3.35352C283.503 3.35352 283.778 3.35352 284.052 3.35352C284.326 3.35352 284.601 3.35352 284.875 3.35352C285.149 3.35352 285.422 3.35352 285.696 3.35352C285.969 3.35352 286.242 3.35352 286.515 3.35352C286.788 3.35352 287.061 3.35352 287.334 3.35352C287.606 3.35352 287.878 3.35352 288.15 3.35352C288.422 3.35352 288.694 3.35352 288.965 3.35352C289.237 3.35352 289.508 3.35352 289.779 3.35352C290.05 3.35352 290.321 3.35352 290.591 3.35352C290.862 3.35352 291.132 3.35352 291.402 3.35352C291.672 3.35352 291.941 3.35352 292.211 3.35352C292.48 3.35352 292.749 3.35352 293.018 3.35352C293.287 3.35352 293.556 3.35352 293.824 3.35352C294.093 3.35352 294.361 3.35352 294.629 3.35352C294.897 3.35352 295.164 3.35352 295.432 3.35352C295.699 3.35352 295.966 3.35352 296.233 3.35352C296.5 3.35352 296.766 3.35352 297.033 3.35352C297.299 3.35352 297.565 3.35352 297.831 3.35352C298.097 3.35352 298.362 3.35352 298.628 3.35352C298.893 3.35352 299.158 3.35352 299.423 3.35352C299.687 3.35352 299.952 3.35352 300.216 3.35352C300.48 3.35352 300.744 3.35352 301.008 3.35352C301.272 3.35352 301.535 3.35352 301.799 3.35352C302.062 3.35352 302.325 3.35352 302.587 3.35352C302.85 3.35352 303.112 3.35352 303.374 3.35352C303.637 3.35352 303.898 3.35352 304.16 3.35352C304.422 3.35352 304.683 3.35352 304.944 3.35352C305.205 3.35352 305.466 3.35352 305.726 3.35352C305.987 3.35352 306.247 3.35352 306.507 3.35352C306.767 3.35352 307.027 3.35352 307.286 3.35352C307.546 3.35352 307.805 3.35352 308.064 3.35352C308.323 3.35352 308.581 3.35352 308.84 3.35352C309.098 3.35352 309.356 3.35352 309.614 3.35352C309.872 3.35352 310.129 3.35352 310.387 3.35352C310.644 3.35352 310.901 3.35352 311.158 3.35352C311.414 3.35352 311.671 3.35352 311.927 3.35352C312.183 3.35352 312.439 3.35352 312.695 3.35352C312.95 3.35352 313.206 3.35352 313.461 3.35352C313.716 3.35352 313.971 3.35352 314.225 3.35352C314.48 3.35352 314.734 3.35352 314.988 3.35352C315.242 3.35352 315.496 3.35352 315.749 3.35352C316.003 3.35352 316.256 3.35352 316.508 3.35352C316.761 3.35352 317.014 3.35352 317.266 3.35352C317.518 3.35352 317.771 3.35352 318.022 3.35352C318.274 3.35352 318.525 3.35352 318.777 3.35352C319.028 3.35352 319.279 3.35352 319.529 3.35352C319.78 3.35352 320.03 3.35352 320.28 3.35352C320.53 3.35352 320.78 3.35352 321.03 3.35352C321.279 3.35352 321.528 3.35352 321.777 3.35352C322.026 3.35352 322.275 3.35352 322.523 3.35352C322.771 3.35352 323.019 3.35352 323.267 3.35352C323.515 3.35352 323.762 3.35352 324.009 3.35352C324.257 3.35352 324.504 3.35352 324.75 3.35352C324.997 3.35352 325.243 3.35352 325.489 3.35352C325.735 3.35352 325.981 3.35352 326.226 3.35352C326.472 3.35352 326.717 3.35352 326.962 3.35352C327.207 3.35352 327.451 3.35352 327.696 3.35352C327.94 3.35352 328.184 3.35352 328.428 3.35352C328.671 3.35352 328.915 3.35352 329.158 3.35352C329.401 3.35352 329.644 3.35352 329.886 3.35352C330.129 3.35352 330.371 3.35352 330.613 3.35352C330.855 3.35352 331.097 3.35352 331.338 3.35352C331.579 3.35352 331.821 3.35352 332.061 3.35352C332.302 3.35352 332.543 3.35352 332.783 3.35352C333.023 3.35352 333.263 3.35352 333.502 3.35352C333.742 3.35352 333.981 3.35352 334.22 3.35352C334.459 3.35352 334.698 3.35352 334.936 3.35352C335.175 3.35352 335.413 3.35352 335.651 3.35352C335.888 3.35352 336.126 3.35352 336.363 3.35352C336.6 3.35352 336.837 3.35352 337.074 3.35352C337.31 3.35352 337.547 3.35352 337.783 3.35352C338.019 3.35352 338.254 3.35352 338.49 3.35352C338.725 3.35352 338.96 3.35352 339.195 3.35352C339.43 3.35352 339.664 3.35352 339.898 3.35352C340.133 3.35352 340.366 3.35352 340.6 3.35352C340.834 3.35352 341.067 3.35352 341.3 3.35352C341.533 3.35352 341.765 3.35352 341.998 3.35352C342.23 3.35352 342.462 3.35352 342.694 3.35352C342.926 3.35352 343.157 3.35352 343.388 3.35352C343.619 3.35352 343.85 3.35352 344.08 3.35352C344.311 3.35352 344.541 3.35352 344.771 3.35352C345.001 3.35352 345.23 3.35352 345.46 3.35352C345.689 3.35352 345.918 3.35352 346.146 3.35352C346.375 3.35352 346.603 3.35352 346.831 3.35352C347.059 3.35352 347.287 3.35352 347.514 3.35352C347.742 3.35352 347.969 3.35352 348.196 3.35352C348.422 3.35352 348.649 3.35352 348.875 3.35352C349.101 3.35352 349.327 3.35352 349.552 3.35352C349.778 3.35352 350.003 3.35352 350.228 3.35352C350.453 3.35352 350.677 3.35352 350.902 3.35352C351.126 3.35352 351.35 3.35352 351.573 3.35352C351.797 3.35352 352.02 3.35352 352.243 3.35352C352.466 3.35352 352.689 3.35352 352.911 3.35352C353.133 3.35352 353.355 3.35352 353.577 3.35352C353.799 3.35352 354.02 3.35352 354.241 3.35352C354.462 3.35352 354.683 3.35352 354.903 3.35352C355.124 3.35352 355.344 3.35352 355.563 3.35352C355.783 3.35352 356.003 3.35352 356.222 3.35352C356.441 3.35352 356.66 3.35352 356.878 3.35352C357.097 3.35352 357.315 3.35352 357.533 3.35352C357.75 3.35352 357.968 3.35352 358.185 3.35352C358.402 3.35352 358.619 3.35352 358.835 3.35352C359.052 3.35352 359.268 3.35352 359.484 3.35352C359.7 3.35352 359.915 3.35352 360.131 3.35352C360.346 3.35352 360.561 3.35352 360.775 3.35352C360.99 3.35352 361.204 3.35352 361.418 3.35352C361.632 3.35352 361.845 3.35352 362.059 3.35352C362.272 3.35352 362.485 3.35352 362.697 3.35352C362.91 3.35352 363.122 3.35352 363.334 3.35352C363.546 3.35352 363.757 3.35352 363.969 3.35352C364.18 3.35352 364.391 3.35352 364.601 3.35352C364.812 3.35352 365.022 3.35352 365.232 3.35352C365.442 3.35352 365.652 3.35352 365.861 3.35352C366.07 3.35352 366.279 3.35352 366.487 3.35352C366.696 3.35352 366.904 3.35352 367.112 3.35352C367.32 3.35352 367.528 3.35352 367.735 3.35352C367.942 3.35352 368.149 3.35352 368.355 3.35352C368.562 3.35352 368.768 3.35352 368.974 3.35352C369.18 3.35352 369.385 3.35352 369.591 3.35352C369.796 3.35352 370.001 3.35352 370.205 3.35352C370.41 3.35352 370.614 3.35352 370.818 3.35352C371.022 3.35352 371.225 3.35352 371.428 3.35352C371.631 3.35352 371.834 3.35352 372.037 3.35352C372.239 3.35352 372.441 3.35352 372.643 3.35352C372.845 3.35352 373.046 3.35352 373.247 3.35352C373.448 3.35352 373.649 3.35352 373.849 3.35352C374.05 3.35352 374.25 3.35352 374.45 3.35352C374.649 3.35352 374.849 3.35352 375.048 3.35352C375.247 3.35352 375.445 3.35352 375.644 3.35352C375.842 3.35352 376.04 3.35352 376.238 3.35352C376.435 3.35352 376.633 3.35352 376.829 3.35352C377.026 3.35352 377.223 3.35352 377.419 3.35352C377.615 3.35352 377.811 3.35352 378.007 3.35352C378.202 3.35352 378.398 3.35352 378.592 3.35352C378.787 3.35352 378.982 3.35352 379.176 3.35352C379.37 3.35352 379.564 3.35352 379.757 3.35352C379.951 3.35352 380.144 3.35352 380.336 3.35352C380.529 3.35352 380.721 3.35352 380.913 3.35352C381.105 3.35352 381.297 3.35352 381.488 3.35352C381.68 3.35352 381.871 3.35352 382.061 3.35352C382.252 3.35352 382.442 3.35352 382.632 3.35352C382.822 3.35352 383.011 3.35352 383.2 3.35352C383.389 3.35352 383.578 3.35352 383.767 3.35352C383.955 3.35352 384.143 3.35352 384.331 3.35352C384.519 3.35352 384.706 3.35352 384.893 3.35352C385.08 3.35352 385.267 3.35352 385.453 3.35352C385.639 3.35352 385.825 3.35352 386.011 3.35352C386.196 3.35352 386.382 3.35352 386.566 3.35352C386.751 3.35352 386.936 3.35352 387.12 3.35352C387.304 3.35352 387.488 3.35352 387.671 3.35352C387.854 3.35352 388.037 3.35352 388.22 3.35352C388.403 3.35352 388.585 3.35352 388.767 3.35352C388.949 3.35352 389.13 3.35352 389.312 3.35352C389.493 3.35352 389.674 3.35352 389.854 3.35352C390.035 3.35352 390.215 3.35352 390.394 3.35352C390.574 3.35352 390.753 3.35352 390.932 3.35352C391.111 3.35352 391.29 3.35352 391.468 3.35352C391.647 3.35352 391.824 3.35352 392.002 3.35352C392.18 3.35352 392.357 3.35352 392.533 3.35352C392.71 3.35352 392.887 3.35352 393.063 3.35352C393.239 3.35352 393.414 3.35352 393.59 3.35352C393.765 3.35352 393.94 3.35352 394.114 3.35352C394.289 3.35352 394.463 3.35352 394.637 3.35352C394.811 3.35352 394.984 3.35352 395.157 3.35352C395.33 3.35352 395.503 3.35352 395.675 3.35352C395.847 3.35352 396.019 3.35352 396.191 3.35352C396.362 3.35352 396.534 3.35352 396.704 3.35352C396.875 3.35352 397.046 3.35352 397.216 3.35352C397.386 3.35352 397.555 3.35352 397.725 3.35352C397.894 3.35352 398.063 3.35352 398.231 3.35352C398.4 3.35352 398.568 3.35352 398.736 3.35352C398.904 3.35352 399.071 3.35352 399.238 3.35352C399.405 3.35352 399.572 3.35352 399.738 3.35352C399.904 3.35352 400.07 3.35352 400.235 3.35352C400.401 3.35352 400.566 3.35352 400.731 3.35352C400.895 3.35352 401.06 3.35352 401.224 3.35352C401.388 3.35352 401.551 3.35352 401.714 3.35352C401.877 3.35352 402.04 3.35352 402.203 3.35352C402.365 3.35352 402.527 3.35352 402.689 3.35352C402.85 3.35352 403.012 3.35352 403.172 3.35352C403.333 3.35352 403.494 3.35352 403.654 3.35352C403.814 3.35352 403.974 3.35352 404.133 3.35352C404.292 3.35352 404.451 3.35352 404.61 3.35352C404.768 3.35352 404.926 3.35352 405.084 3.35352C405.242 3.35352 405.399 3.35352 405.556 3.35352C405.713 3.35352 405.87 3.35352 406.026 3.35352C406.182 3.35352 406.338 3.35352 406.493 3.35352C406.649 3.35352 406.804 3.35352 406.958 3.35352C407.113 3.35352 407.267 3.35352 407.421 3.35352C407.575 3.35352 407.728 3.35352 407.881 3.35352C408.034 3.35352 408.187 3.35352 408.339 3.35352C408.491 3.35352 408.643 3.35352 408.795 3.35352C408.946 3.35352 409.097 3.35352 409.248 3.35352C409.398 3.35352 409.549 3.35352 409.698 3.35352C409.848 3.35352 409.998 3.35352 410.147 3.35352C410.296 3.35352 410.445 3.35352 410.593 3.35352C410.741 3.35352 410.889 3.35352 411.036 3.35352C411.184 3.35352 411.331 3.35352 411.478 3.35352C411.624 3.35352 411.771 3.35352 411.916 3.35352C412.062 3.35352 412.208 3.35352 412.353 3.35352C412.498 3.35352 412.643 3.35352 412.787 3.35352C412.931 3.35352 413.075 3.35352 413.218 3.35352C413.362 3.35352 413.505 3.35352 413.647 3.35352C413.79 3.35352 413.932 3.35352 414.074 3.35352C414.216 3.35352 414.357 3.35352 414.498 3.35352C414.639 3.35352 414.78 3.35352 414.92 3.35352C415.06 3.35352 415.2 3.35352 415.34 3.35352C415.479 3.35352 415.618 3.35352 415.756 3.35352C415.895 3.35352 416.033 3.35352 416.171 3.35352C416.309 3.35352 416.446 3.35352 416.583 3.35352C416.72 3.35352 416.856 3.35352 416.992 3.35352C417.128 3.35352 417.264 3.35352 417.399 3.35352C417.535 3.35352 417.67 3.35352 417.804 3.35352C417.938 3.35352 418.073 3.35352 418.206 3.35352C418.34 3.35352 418.473 3.35352 418.606 3.35352C418.739 3.35352 418.871 3.35352 419.003 3.35352C419.135 3.35352 419.266 3.35352 419.398 3.35352C419.529 3.35352 419.659 3.35352 419.79 3.35352C419.92 3.35352 420.05 3.35352 420.179 3.35352C420.309 3.35352 420.438 3.35352 420.566 3.35352C420.695 3.35352 420.823 3.35352 420.951 3.35352C421.079 3.35352 421.206 3.35352 421.333 3.35352V0.353516C421.206 0.353516 421.079 0.353516 420.951 0.353516C420.823 0.353516 420.695 0.353516 420.566 0.353516C420.438 0.353516 420.309 0.353516 420.179 0.353516C420.05 0.353516 419.92 0.353516 419.79 0.353516C419.659 0.353516 419.529 0.353516 419.398 0.353516C419.266 0.353516 419.135 0.353516 419.003 0.353516C418.871 0.353516 418.739 0.353516 418.606 0.353516C418.473 0.353516 418.34 0.353516 418.206 0.353516C418.073 0.353516 417.938 0.353516 417.804 0.353516C417.67 0.353516 417.535 0.353516 417.399 0.353516C417.264 0.353516 417.128 0.353516 416.992 0.353516C416.856 0.353516 416.72 0.353516 416.583 0.353516C416.446 0.353516 416.309 0.353516 416.171 0.353516C416.033 0.353516 415.895 0.353516 415.756 0.353516C415.618 0.353516 415.479 0.353516 415.34 0.353516C415.2 0.353516 415.06 0.353516 414.92 0.353516C414.78 0.353516 414.639 0.353516 414.498 0.353516C414.357 0.353516 414.216 0.353516 414.074 0.353516C413.932 0.353516 413.79 0.353516 413.647 0.353516C413.505 0.353516 413.362 0.353516 413.218 0.353516C413.075 0.353516 412.931 0.353516 412.787 0.353516C412.643 0.353516 412.498 0.353516 412.353 0.353516C412.208 0.353516 412.062 0.353516 411.916 0.353516C411.771 0.353516 411.624 0.353516 411.478 0.353516C411.331 0.353516 411.184 0.353516 411.036 0.353516C410.889 0.353516 410.741 0.353516 410.593 0.353516C410.445 0.353516 410.296 0.353516 410.147 0.353516C409.998 0.353516 409.848 0.353516 409.698 0.353516C409.549 0.353516 409.398 0.353516 409.248 0.353516C409.097 0.353516 408.946 0.353516 408.795 0.353516C408.643 0.353516 408.491 0.353516 408.339 0.353516C408.187 0.353516 408.034 0.353516 407.881 0.353516C407.728 0.353516 407.575 0.353516 407.421 0.353516C407.267 0.353516 407.113 0.353516 406.958 0.353516C406.804 0.353516 406.649 0.353516 406.493 0.353516C406.338 0.353516 406.182 0.353516 406.026 0.353516C405.87 0.353516 405.713 0.353516 405.556 0.353516C405.399 0.353516 405.242 0.353516 405.084 0.353516C404.926 0.353516 404.768 0.353516 404.61 0.353516C404.451 0.353516 404.292 0.353516 404.133 0.353516C403.974 0.353516 403.814 0.353516 403.654 0.353516C403.494 0.353516 403.333 0.353516 403.172 0.353516C403.012 0.353516 402.85 0.353516 402.689 0.353516C402.527 0.353516 402.365 0.353516 402.203 0.353516C402.04 0.353516 401.877 0.353516 401.714 0.353516C401.551 0.353516 401.388 0.353516 401.224 0.353516C401.06 0.353516 400.895 0.353516 400.731 0.353516C400.566 0.353516 400.401 0.353516 400.235 0.353516C400.07 0.353516 399.904 0.353516 399.738 0.353516C399.572 0.353516 399.405 0.353516 399.238 0.353516C399.071 0.353516 398.904 0.353516 398.736 0.353516C398.568 0.353516 398.4 0.353516 398.231 0.353516C398.063 0.353516 397.894 0.353516 397.725 0.353516C397.555 0.353516 397.386 0.353516 397.216 0.353516C397.046 0.353516 396.875 0.353516 396.704 0.353516C396.534 0.353516 396.362 0.353516 396.191 0.353516C396.019 0.353516 395.847 0.353516 395.675 0.353516C395.503 0.353516 395.33 0.353516 395.157 0.353516C394.984 0.353516 394.811 0.353516 394.637 0.353516C394.463 0.353516 394.289 0.353516 394.114 0.353516C393.94 0.353516 393.765 0.353516 393.59 0.353516C393.414 0.353516 393.239 0.353516 393.063 0.353516C392.887 0.353516 392.71 0.353516 392.533 0.353516C392.357 0.353516 392.18 0.353516 392.002 0.353516C391.824 0.353516 391.647 0.353516 391.468 0.353516C391.29 0.353516 391.111 0.353516 390.932 0.353516C390.753 0.353516 390.574 0.353516 390.394 0.353516C390.215 0.353516 390.035 0.353516 389.854 0.353516C389.674 0.353516 389.493 0.353516 389.312 0.353516C389.13 0.353516 388.949 0.353516 388.767 0.353516C388.585 0.353516 388.403 0.353516 388.22 0.353516C388.037 0.353516 387.854 0.353516 387.671 0.353516C387.488 0.353516 387.304 0.353516 387.12 0.353516C386.936 0.353516 386.751 0.353516 386.566 0.353516C386.382 0.353516 386.196 0.353516 386.011 0.353516C385.825 0.353516 385.639 0.353516 385.453 0.353516C385.267 0.353516 385.08 0.353516 384.893 0.353516C384.706 0.353516 384.519 0.353516 384.331 0.353516C384.143 0.353516 383.955 0.353516 383.767 0.353516C383.578 0.353516 383.389 0.353516 383.2 0.353516C383.011 0.353516 382.822 0.353516 382.632 0.353516C382.442 0.353516 382.252 0.353516 382.061 0.353516C381.871 0.353516 381.68 0.353516 381.488 0.353516C381.297 0.353516 381.105 0.353516 380.913 0.353516C380.721 0.353516 380.529 0.353516 380.336 0.353516C380.144 0.353516 379.951 0.353516 379.757 0.353516C379.564 0.353516 379.37 0.353516 379.176 0.353516C378.982 0.353516 378.787 0.353516 378.592 0.353516C378.398 0.353516 378.202 0.353516 378.007 0.353516C377.811 0.353516 377.615 0.353516 377.419 0.353516C377.223 0.353516 377.026 0.353516 376.829 0.353516C376.633 0.353516 376.435 0.353516 376.238 0.353516C376.04 0.353516 375.842 0.353516 375.644 0.353516C375.445 0.353516 375.247 0.353516 375.048 0.353516C374.849 0.353516 374.649 0.353516 374.45 0.353516C374.25 0.353516 374.05 0.353516 373.849 0.353516C373.649 0.353516 373.448 0.353516 373.247 0.353516C373.046 0.353516 372.845 0.353516 372.643 0.353516C372.441 0.353516 372.239 0.353516 372.037 0.353516C371.834 0.353516 371.631 0.353516 371.428 0.353516C371.225 0.353516 371.022 0.353516 370.818 0.353516C370.614 0.353516 370.41 0.353516 370.205 0.353516C370.001 0.353516 369.796 0.353516 369.591 0.353516C369.385 0.353516 369.18 0.353516 368.974 0.353516C368.768 0.353516 368.562 0.353516 368.355 0.353516C368.149 0.353516 367.942 0.353516 367.735 0.353516C367.528 0.353516 367.32 0.353516 367.112 0.353516C366.904 0.353516 366.696 0.353516 366.487 0.353516C366.279 0.353516 366.07 0.353516 365.861 0.353516C365.652 0.353516 365.442 0.353516 365.232 0.353516C365.022 0.353516 364.812 0.353516 364.601 0.353516C364.391 0.353516 364.18 0.353516 363.969 0.353516C363.757 0.353516 363.546 0.353516 363.334 0.353516C363.122 0.353516 362.91 0.353516 362.697 0.353516C362.485 0.353516 362.272 0.353516 362.059 0.353516C361.845 0.353516 361.632 0.353516 361.418 0.353516C361.204 0.353516 360.99 0.353516 360.775 0.353516C360.561 0.353516 360.346 0.353516 360.131 0.353516C359.915 0.353516 359.7 0.353516 359.484 0.353516C359.268 0.353516 359.052 0.353516 358.835 0.353516C358.619 0.353516 358.402 0.353516 358.185 0.353516C357.968 0.353516 357.75 0.353516 357.533 0.353516C357.315 0.353516 357.097 0.353516 356.878 0.353516C356.66 0.353516 356.441 0.353516 356.222 0.353516C356.003 0.353516 355.783 0.353516 355.563 0.353516C355.344 0.353516 355.124 0.353516 354.903 0.353516C354.683 0.353516 354.462 0.353516 354.241 0.353516C354.02 0.353516 353.799 0.353516 353.577 0.353516C353.355 0.353516 353.133 0.353516 352.911 0.353516C352.689 0.353516 352.466 0.353516 352.243 0.353516C352.02 0.353516 351.797 0.353516 351.573 0.353516C351.35 0.353516 351.126 0.353516 350.902 0.353516C350.677 0.353516 350.453 0.353516 350.228 0.353516C350.003 0.353516 349.778 0.353516 349.552 0.353516C349.327 0.353516 349.101 0.353516 348.875 0.353516C348.649 0.353516 348.422 0.353516 348.196 0.353516C347.969 0.353516 347.742 0.353516 347.514 0.353516C347.287 0.353516 347.059 0.353516 346.831 0.353516C346.603 0.353516 346.375 0.353516 346.146 0.353516C345.918 0.353516 345.689 0.353516 345.46 0.353516C345.23 0.353516 345.001 0.353516 344.771 0.353516C344.541 0.353516 344.311 0.353516 344.08 0.353516C343.85 0.353516 343.619 0.353516 343.388 0.353516C343.157 0.353516 342.926 0.353516 342.694 0.353516C342.462 0.353516 342.23 0.353516 341.998 0.353516C341.765 0.353516 341.533 0.353516 341.3 0.353516C341.067 0.353516 340.834 0.353516 340.6 0.353516C340.366 0.353516 340.133 0.353516 339.898 0.353516C339.664 0.353516 339.43 0.353516 339.195 0.353516C338.96 0.353516 338.725 0.353516 338.49 0.353516C338.254 0.353516 338.019 0.353516 337.783 0.353516C337.547 0.353516 337.31 0.353516 337.074 0.353516C336.837 0.353516 336.6 0.353516 336.363 0.353516C336.126 0.353516 335.888 0.353516 335.651 0.353516C335.413 0.353516 335.175 0.353516 334.936 0.353516C334.698 0.353516 334.459 0.353516 334.22 0.353516C333.981 0.353516 333.742 0.353516 333.502 0.353516C333.263 0.353516 333.023 0.353516 332.783 0.353516C332.543 0.353516 332.302 0.353516 332.061 0.353516C331.821 0.353516 331.579 0.353516 331.338 0.353516C331.097 0.353516 330.855 0.353516 330.613 0.353516C330.371 0.353516 330.129 0.353516 329.886 0.353516C329.644 0.353516 329.401 0.353516 329.158 0.353516C328.915 0.353516 328.671 0.353516 328.428 0.353516C328.184 0.353516 327.94 0.353516 327.696 0.353516C327.451 0.353516 327.207 0.353516 326.962 0.353516C326.717 0.353516 326.472 0.353516 326.226 0.353516C325.981 0.353516 325.735 0.353516 325.489 0.353516C325.243 0.353516 324.997 0.353516 324.75 0.353516C324.504 0.353516 324.257 0.353516 324.009 0.353516C323.762 0.353516 323.515 0.353516 323.267 0.353516C323.019 0.353516 322.771 0.353516 322.523 0.353516C322.275 0.353516 322.026 0.353516 321.777 0.353516C321.528 0.353516 321.279 0.353516 321.03 0.353516C320.78 0.353516 320.53 0.353516 320.28 0.353516C320.03 0.353516 319.78 0.353516 319.529 0.353516C319.279 0.353516 319.028 0.353516 318.777 0.353516C318.525 0.353516 318.274 0.353516 318.022 0.353516C317.771 0.353516 317.518 0.353516 317.266 0.353516C317.014 0.353516 316.761 0.353516 316.508 0.353516C316.256 0.353516 316.003 0.353516 315.749 0.353516C315.496 0.353516 315.242 0.353516 314.988 0.353516C314.734 0.353516 314.48 0.353516 314.225 0.353516C313.971 0.353516 313.716 0.353516 313.461 0.353516C313.206 0.353516 312.95 0.353516 312.695 0.353516C312.439 0.353516 312.183 0.353516 311.927 0.353516C311.671 0.353516 311.414 0.353516 311.158 0.353516C310.901 0.353516 310.644 0.353516 310.387 0.353516C310.129 0.353516 309.872 0.353516 309.614 0.353516C309.356 0.353516 309.098 0.353516 308.84 0.353516C308.581 0.353516 308.323 0.353516 308.064 0.353516C307.805 0.353516 307.546 0.353516 307.286 0.353516C307.027 0.353516 306.767 0.353516 306.507 0.353516C306.247 0.353516 305.987 0.353516 305.726 0.353516C305.466 0.353516 305.205 0.353516 304.944 0.353516C304.683 0.353516 304.422 0.353516 304.16 0.353516C303.898 0.353516 303.637 0.353516 303.374 0.353516C303.112 0.353516 302.85 0.353516 302.587 0.353516C302.325 0.353516 302.062 0.353516 301.799 0.353516C301.535 0.353516 301.272 0.353516 301.008 0.353516C300.744 0.353516 300.48 0.353516 300.216 0.353516C299.952 0.353516 299.687 0.353516 299.423 0.353516C299.158 0.353516 298.893 0.353516 298.628 0.353516C298.362 0.353516 298.097 0.353516 297.831 0.353516C297.565 0.353516 297.299 0.353516 297.033 0.353516C296.766 0.353516 296.5 0.353516 296.233 0.353516C295.966 0.353516 295.699 0.353516 295.432 0.353516C295.164 0.353516 294.897 0.353516 294.629 0.353516C294.361 0.353516 294.093 0.353516 293.824 0.353516C293.556 0.353516 293.287 0.353516 293.018 0.353516C292.749 0.353516 292.48 0.353516 292.211 0.353516C291.941 0.353516 291.672 0.353516 291.402 0.353516C291.132 0.353516 290.862 0.353516 290.591 0.353516C290.321 0.353516 290.05 0.353516 289.779 0.353516C289.508 0.353516 289.237 0.353516 288.965 0.353516C288.694 0.353516 288.422 0.353516 288.15 0.353516C287.878 0.353516 287.606 0.353516 287.334 0.353516C287.061 0.353516 286.788 0.353516 286.515 0.353516C286.242 0.353516 285.969 0.353516 285.696 0.353516C285.422 0.353516 285.149 0.353516 284.875 0.353516C284.601 0.353516 284.326 0.353516 284.052 0.353516C283.778 0.353516 283.503 0.353516 283.228 0.353516C282.953 0.353516 282.678 0.353516 282.402 0.353516C282.127 0.353516 281.851 0.353516 281.575 0.353516C281.299 0.353516 281.023 0.353516 280.747 0.353516C280.47 0.353516 280.194 0.353516 279.917 0.353516C279.64 0.353516 279.363 0.353516 279.085 0.353516C278.808 0.353516 278.53 0.353516 278.252 0.353516C277.974 0.353516 277.696 0.353516 277.418 0.353516C277.14 0.353516 276.861 0.353516 276.582 0.353516C276.303 0.353516 276.024 0.353516 275.745 0.353516C275.466 0.353516 275.186 0.353516 274.906 0.353516C274.626 0.353516 274.346 0.353516 274.066 0.353516C273.786 0.353516 273.505 0.353516 273.224 0.353516C272.944 0.353516 272.663 0.353516 272.382 0.353516C272.1 0.353516 271.819 0.353516 271.537 0.353516C271.255 0.353516 270.973 0.353516 270.691 0.353516C270.409 0.353516 270.127 0.353516 269.844 0.353516C269.561 0.353516 269.279 0.353516 268.995 0.353516C268.712 0.353516 268.429 0.353516 268.145 0.353516C267.862 0.353516 267.578 0.353516 267.294 0.353516C267.01 0.353516 266.726 0.353516 266.441 0.353516C266.157 0.353516 265.872 0.353516 265.587 0.353516C265.302 0.353516 265.017 0.353516 264.731 0.353516C264.446 0.353516 264.16 0.353516 263.874 0.353516C263.589 0.353516 263.302 0.353516 263.016 0.353516C262.73 0.353516 262.443 0.353516 262.156 0.353516C261.87 0.353516 261.583 0.353516 261.295 0.353516C261.008 0.353516 260.721 0.353516 260.433 0.353516C260.145 0.353516 259.857 0.353516 259.569 0.353516C259.281 0.353516 258.993 0.353516 258.704 0.353516C258.415 0.353516 258.127 0.353516 257.837 0.353516C257.548 0.353516 257.259 0.353516 256.97 0.353516C256.68 0.353516 256.39 0.353516 256.101 0.353516C255.811 0.353516 255.52 0.353516 255.23 0.353516C254.94 0.353516 254.649 0.353516 254.358 0.353516C254.067 0.353516 253.776 0.353516 253.485 0.353516C253.194 0.353516 252.902 0.353516 252.611 0.353516C252.319 0.353516 252.027 0.353516 251.735 0.353516C251.443 0.353516 251.15 0.353516 250.858 0.353516C250.565 0.353516 250.273 0.353516 249.98 0.353516C249.687 0.353516 249.393 0.353516 249.1 0.353516C248.806 0.353516 248.513 0.353516 248.219 0.353516C247.925 0.353516 247.631 0.353516 247.337 0.353516C247.042 0.353516 246.748 0.353516 246.453 0.353516C246.158 0.353516 245.864 0.353516 245.568 0.353516C245.273 0.353516 244.978 0.353516 244.682 0.353516C244.387 0.353516 244.091 0.353516 243.795 0.353516C243.499 0.353516 243.203 0.353516 242.906 0.353516C242.61 0.353516 242.313 0.353516 242.017 0.353516C241.72 0.353516 241.423 0.353516 241.125 0.353516C240.828 0.353516 240.531 0.353516 240.233 0.353516C239.935 0.353516 239.637 0.353516 239.339 0.353516C239.041 0.353516 238.743 0.353516 238.445 0.353516C238.146 0.353516 237.847 0.353516 237.548 0.353516C237.25 0.353516 236.95 0.353516 236.651 0.353516C236.352 0.353516 236.052 0.353516 235.753 0.353516C235.453 0.353516 235.153 0.353516 234.853 0.353516C234.553 0.353516 234.252 0.353516 233.952 0.353516C233.651 0.353516 233.351 0.353516 233.05 0.353516C232.749 0.353516 232.448 0.353516 232.146 0.353516C231.845 0.353516 231.543 0.353516 231.242 0.353516C230.94 0.353516 230.638 0.353516 230.336 0.353516C230.034 0.353516 229.731 0.353516 229.429 0.353516C229.126 0.353516 228.824 0.353516 228.521 0.353516C228.218 0.353516 227.915 0.353516 227.611 0.353516C227.308 0.353516 227.004 0.353516 226.701 0.353516C226.397 0.353516 226.093 0.353516 225.789 0.353516C225.485 0.353516 225.18 0.353516 224.876 0.353516C224.572 0.353516 224.267 0.353516 223.962 0.353516C223.657 0.353516 223.352 0.353516 223.047 0.353516C222.741 0.353516 222.436 0.353516 222.13 0.353516C221.825 0.353516 221.519 0.353516 221.213 0.353516C220.907 0.353516 220.6 0.353516 220.294 0.353516C219.988 0.353516 219.681 0.353516 219.374 0.353516C219.067 0.353516 218.76 0.353516 218.453 0.353516C218.146 0.353516 217.839 0.353516 217.531 0.353516C217.224 0.353516 216.916 0.353516 216.608 0.353516C216.3 0.353516 215.992 0.353516 215.684 0.353516C215.375 0.353516 215.067 0.353516 214.758 0.353516C214.449 0.353516 214.141 0.353516 213.831 0.353516C213.522 0.353516 213.213 0.353516 212.904 0.353516C212.594 0.353516 212.285 0.353516 211.975 0.353516C211.665 0.353516 211.355 0.353516 211.045 0.353516C210.735 0.353516 210.425 0.353516 210.114 0.353516C209.804 0.353516 209.493 0.353516 209.182 0.353516C208.871 0.353516 208.56 0.353516 208.249 0.353516C207.938 0.353516 207.626 0.353516 207.315 0.353516C207.003 0.353516 206.691 0.353516 206.379 0.353516C206.067 0.353516 205.755 0.353516 205.443 0.353516C205.13 0.353516 204.818 0.353516 204.505 0.353516C204.193 0.353516 203.88 0.353516 203.567 0.353516C203.254 0.353516 202.941 0.353516 202.627 0.353516C202.314 0.353516 202 0.353516 201.687 0.353516C201.373 0.353516 201.059 0.353516 200.745 0.353516C200.431 0.353516 200.117 0.353516 199.802 0.353516C199.488 0.353516 199.173 0.353516 198.858 0.353516C198.544 0.353516 198.229 0.353516 197.913 0.353516C197.598 0.353516 197.283 0.353516 196.968 0.353516C196.652 0.353516 196.337 0.353516 196.021 0.353516C195.705 0.353516 195.389 0.353516 195.073 0.353516C194.757 0.353516 194.44 0.353516 194.124 0.353516C193.807 0.353516 193.491 0.353516 193.174 0.353516C192.857 0.353516 192.54 0.353516 192.223 0.353516C191.906 0.353516 191.589 0.353516 191.271 0.353516C190.954 0.353516 190.636 0.353516 190.318 0.353516C190 0.353516 189.682 0.353516 189.364 0.353516C189.046 0.353516 188.728 0.353516 188.409 0.353516C188.091 0.353516 187.772 0.353516 187.453 0.353516C187.135 0.353516 186.816 0.353516 186.497 0.353516C186.177 0.353516 185.858 0.353516 185.539 0.353516C185.219 0.353516 184.9 0.353516 184.58 0.353516C184.26 0.353516 183.94 0.353516 183.62 0.353516C183.3 0.353516 182.98 0.353516 182.659 0.353516C182.339 0.353516 182.018 0.353516 181.698 0.353516C181.377 0.353516 181.056 0.353516 180.735 0.353516C180.414 0.353516 180.093 0.353516 179.771 0.353516C179.45 0.353516 179.129 0.353516 178.807 0.353516C178.485 0.353516 178.163 0.353516 177.841 0.353516C177.52 0.353516 177.197 0.353516 176.875 0.353516C176.553 0.353516 176.23 0.353516 175.908 0.353516C175.585 0.353516 175.262 0.353516 174.939 0.353516C174.617 0.353516 174.294 0.353516 173.97 0.353516C173.647 0.353516 173.324 0.353516 173 0.353516C172.677 0.353516 172.353 0.353516 172.029 0.353516C171.705 0.353516 171.381 0.353516 171.057 0.353516C170.733 0.353516 170.409 0.353516 170.085 0.353516C169.76 0.353516 169.436 0.353516 169.111 0.353516C168.786 0.353516 168.461 0.353516 168.136 0.353516C167.811 0.353516 167.486 0.353516 167.161 0.353516C166.836 0.353516 166.51 0.353516 166.184 0.353516C165.859 0.353516 165.533 0.353516 165.207 0.353516C164.881 0.353516 164.555 0.353516 164.229 0.353516C163.903 0.353516 163.577 0.353516 163.25 0.353516C162.924 0.353516 162.597 0.353516 162.27 0.353516C161.944 0.353516 161.617 0.353516 161.29 0.353516C160.963 0.353516 160.636 0.353516 160.308 0.353516C159.981 0.353516 159.653 0.353516 159.326 0.353516C158.998 0.353516 158.671 0.353516 158.343 0.353516C158.015 0.353516 157.687 0.353516 157.359 0.353516C157.03 0.353516 156.702 0.353516 156.374 0.353516C156.045 0.353516 155.717 0.353516 155.388 0.353516C155.059 0.353516 154.73 0.353516 154.401 0.353516C154.072 0.353516 153.743 0.353516 153.414 0.353516C153.085 0.353516 152.755 0.353516 152.426 0.353516C152.096 0.353516 151.767 0.353516 151.437 0.353516C151.107 0.353516 150.777 0.353516 150.447 0.353516C150.117 0.353516 149.787 0.353516 149.457 0.353516C149.126 0.353516 148.796 0.353516 148.465 0.353516C148.135 0.353516 147.804 0.353516 147.473 0.353516C147.142 0.353516 146.811 0.353516 146.48 0.353516C146.149 0.353516 145.818 0.353516 145.486 0.353516C145.155 0.353516 144.823 0.353516 144.492 0.353516C144.16 0.353516 143.828 0.353516 143.496 0.353516C143.165 0.353516 142.833 0.353516 142.5 0.353516C142.168 0.353516 141.836 0.353516 141.504 0.353516C141.171 0.353516 140.839 0.353516 140.506 0.353516C140.173 0.353516 139.841 0.353516 139.508 0.353516C139.175 0.353516 138.842 0.353516 138.509 0.353516C138.175 0.353516 137.842 0.353516 137.509 0.353516C137.175 0.353516 136.842 0.353516 136.508 0.353516C136.174 0.353516 135.841 0.353516 135.507 0.353516C135.173 0.353516 134.839 0.353516 134.505 0.353516C134.171 0.353516 133.836 0.353516 133.502 0.353516C133.168 0.353516 132.833 0.353516 132.499 0.353516C132.164 0.353516 131.829 0.353516 131.494 0.353516C131.159 0.353516 130.824 0.353516 130.489 0.353516C130.154 0.353516 129.819 0.353516 129.484 0.353516C129.148 0.353516 128.813 0.353516 128.477 0.353516C128.142 0.353516 127.806 0.353516 127.47 0.353516C127.135 0.353516 126.799 0.353516 126.463 0.353516C126.127 0.353516 125.791 0.353516 125.454 0.353516C125.118 0.353516 124.782 0.353516 124.445 0.353516C124.109 0.353516 123.772 0.353516 123.435 0.353516C123.099 0.353516 122.762 0.353516 122.425 0.353516C122.088 0.353516 121.751 0.353516 121.414 0.353516C121.077 0.353516 120.74 0.353516 120.402 0.353516C120.065 0.353516 119.727 0.353516 119.39 0.353516C119.052 0.353516 118.714 0.353516 118.377 0.353516C118.039 0.353516 117.701 0.353516 117.363 0.353516C117.025 0.353516 116.687 0.353516 116.349 0.353516C116.01 0.353516 115.672 0.353516 115.334 0.353516C114.995 0.353516 114.657 0.353516 114.318 0.353516C113.979 0.353516 113.64 0.353516 113.302 0.353516C112.963 0.353516 112.624 0.353516 112.285 0.353516C111.946 0.353516 111.606 0.353516 111.267 0.353516C110.928 0.353516 110.588 0.353516 110.249 0.353516C109.909 0.353516 109.57 0.353516 109.23 0.353516C108.89 0.353516 108.551 0.353516 108.211 0.353516C107.871 0.353516 107.531 0.353516 107.191 0.353516C106.851 0.353516 106.51 0.353516 106.17 0.353516C105.83 0.353516 105.49 0.353516 105.149 0.353516C104.809 0.353516 104.468 0.353516 104.127 0.353516C103.787 0.353516 103.446 0.353516 103.105 0.353516C102.764 0.353516 102.423 0.353516 102.082 0.353516C101.741 0.353516 101.4 0.353516 101.058 0.353516C100.717 0.353516 100.376 0.353516 100.034 0.353516C99.6929 0.353516 99.3514 0.353516 99.0097 0.353516C98.6681 0.353516 98.3263 0.353516 97.9845 0.353516C97.6427 0.353516 97.3008 0.353516 96.9587 0.353516C96.6167 0.353516 96.2746 0.353516 95.9324 0.353516C95.5902 0.353516 95.2479 0.353516 94.9055 0.353516C94.5632 0.353516 94.2207 0.353516 93.8781 0.353516C93.5356 0.353516 93.1929 0.353516 92.8502 0.353516C92.5075 0.353516 92.1646 0.353516 91.8217 0.353516C91.4788 0.353516 91.1358 0.353516 90.7927 0.353516C90.4496 0.353516 90.1064 0.353516 89.7632 0.353516C89.4199 0.353516 89.0765 0.353516 88.7331 0.353516C88.3897 0.353516 88.0461 0.353516 87.7025 0.353516C87.3589 0.353516 87.0152 0.353516 86.6715 0.353516C86.3277 0.353516 85.9838 0.353516 85.6399 0.353516C85.2959 0.353516 84.9519 0.353516 84.6078 0.353516C84.2637 0.353516 83.9195 0.353516 83.5752 0.353516C83.2309 0.353516 82.8866 0.353516 82.5421 0.353516C82.1977 0.353516 81.8532 0.353516 81.5086 0.353516C81.164 0.353516 80.8193 0.353516 80.4745 0.353516C80.1298 0.353516 79.7849 0.353516 79.44 0.353516C79.0951 0.353516 78.7501 0.353516 78.405 0.353516C78.0599 0.353516 77.7148 0.353516 77.3696 0.353516C77.0243 0.353516 76.679 0.353516 76.3336 0.353516C75.9883 0.353516 75.6428 0.353516 75.2972 0.353516C74.9517 0.353516 74.6061 0.353516 74.2604 0.353516C73.9147 0.353516 73.569 0.353516 73.2231 0.353516C72.8773 0.353516 72.5314 0.353516 72.1854 0.353516C71.8394 0.353516 71.4934 0.353516 71.1472 0.353516C70.8011 0.353516 70.4549 0.353516 70.1086 0.353516C69.7624 0.353516 69.416 0.353516 69.0696 0.353516C68.7232 0.353516 68.3767 0.353516 68.0301 0.353516C67.6836 0.353516 67.3369 0.353516 66.9902 0.353516C66.6435 0.353516 66.2968 0.353516 65.9499 0.353516C65.6031 0.353516 65.2562 0.353516 64.9092 0.353516C64.5623 0.353516 64.2152 0.353516 63.8681 0.353516C63.521 0.353516 63.1738 0.353516 62.8266 0.353516C62.4794 0.353516 62.132 0.353516 61.7847 0.353516C61.4373 0.353516 61.0899 0.353516 60.7424 0.353516C60.3949 0.353516 60.0473 0.353516 59.6997 0.353516C59.352 0.353516 59.0043 0.353516 58.6566 0.353516C58.3088 0.353516 57.961 0.353516 57.6131 0.353516C57.2652 0.353516 56.9173 0.353516 56.5693 0.353516C56.2213 0.353516 55.8732 0.353516 55.5251 0.353516C55.1769 0.353516 54.8288 0.353516 54.4805 0.353516C54.1323 0.353516 53.7839 0.353516 53.4356 0.353516C53.0872 0.353516 52.7388 0.353516 52.3903 0.353516C52.0418 0.353516 51.6933 0.353516 51.3447 0.353516C50.996 0.353516 50.6474 0.353516 50.2987 0.353516C49.95 0.353516 49.6012 0.353516 49.2523 0.353516C48.9035 0.353516 48.5546 0.353516 48.2057 0.353516C47.8567 0.353516 47.5077 0.353516 47.1587 0.353516C46.8096 0.353516 46.4605 0.353516 46.1114 0.353516C45.7622 0.353516 45.413 0.353516 45.0637 0.353516C44.7145 0.353516 44.3651 0.353516 44.0158 0.353516C43.6664 0.353516 43.317 0.353516 42.9675 0.353516C42.618 0.353516 42.2685 0.353516 41.9189 0.353516C41.5693 0.353516 41.2197 0.353516 40.87 0.353516C40.5203 0.353516 40.1706 0.353516 39.8208 0.353516C39.471 0.353516 39.1212 0.353516 38.7713 0.353516C38.4215 0.353516 38.0715 0.353516 37.7216 0.353516C37.3716 0.353516 37.0216 0.353516 36.6715 0.353516C36.3214 0.353516 35.9713 0.353516 35.6212 0.353516C35.271 0.353516 34.9208 0.353516 34.5706 0.353516C34.2203 0.353516 33.87 0.353516 33.5197 0.353516C33.1693 0.353516 32.8189 0.353516 32.4685 0.353516C32.1181 0.353516 31.7676 0.353516 31.4171 0.353516C31.0666 0.353516 30.716 0.353516 30.3654 0.353516C30.0148 0.353516 29.6642 0.353516 29.3135 0.353516C28.9628 0.353516 28.6121 0.353516 28.2613 0.353516C27.9106 0.353516 27.5598 0.353516 27.2089 0.353516C26.8581 0.353516 26.5072 0.353516 26.1563 0.353516C25.8053 0.353516 25.4544 0.353516 25.1034 0.353516C24.7524 0.353516 24.4013 0.353516 24.0503 0.353516C23.6992 0.353516 23.3481 0.353516 22.9969 0.353516C22.6458 0.353516 22.2946 0.353516 21.9434 0.353516C21.5921 0.353516 21.2409 0.353516 20.8896 0.353516C20.5383 0.353516 20.187 0.353516 19.8356 0.353516C19.4842 0.353516 19.1328 0.353516 18.7814 0.353516C18.43 0.353516 18.0785 0.353516 17.727 0.353516C17.3755 0.353516 17.024 0.353516 16.6724 0.353516C16.3209 0.353516 15.9693 0.353516 15.6177 0.353516C15.266 0.353516 14.9144 0.353516 14.5627 0.353516C14.211 0.353516 13.8593 0.353516 13.5075 0.353516C13.1558 0.353516 12.804 0.353516 12.4522 0.353516C12.1004 0.353516 11.7486 0.353516 11.3967 0.353516C11.0449 0.353516 10.693 0.353516 10.3411 0.353516C9.98913 0.353516 9.63719 0.353516 9.28522 0.353516C8.93325 0.353516 8.58125 0.353516 8.22923 0.353516C7.87721 0.353516 7.52516 0.353516 7.17309 0.353516C6.82101 0.353516 6.46892 0.353516 6.11679 0.353516C5.76467 0.353516 5.41253 0.353516 5.06036 0.353516C4.70819 0.353516 4.35599 0.353516 4.00378 0.353516C3.65156 0.353516 3.29933 0.353516 2.94707 0.353516C2.59481 0.353516 2.24252 0.353516 1.89022 0.353516C1.53792 0.353516 1.1856 0.353516 0.833252 0.353516V3.35352ZM419.833 1.85352V43.3535H422.833V1.85352H419.833Z" fill="#34D186"/>
</svg>
